<svg xmlns="http://www.w3.org/2000/svg" width="1080" height="1920" viewBox="0 0 1080 1920"><defs><style>.cls-1{fill:#3c6f6e;}.cls-2{fill:#590000;}.cls-3{fill:#f0af66;}.cls-4{fill:#e2a161;}.cls-5{fill:#131311;}.cls-6{fill:#ef8a70;}.cls-7{fill:#990707;}.cls-8{fill:#7a0404;}.cls-10,.cls-9{fill:#6ba460;}.cls-9{opacity:0.7;}.cls-11{fill:#fed08c;}.cls-12{fill:#2f3a35;}.cls-13{fill:#5a3a2f;}.cls-14{fill:#756a5b;}.cls-15{fill:#bdab8e;}</style></defs><title>baggrund</title><g id="Lag_1" data-name="Lag 1"><rect class="cls-1" x="-1" width="1083" height="1923"/><rect class="cls-2" y="1164.14" width="1082" height="51.86"/><path class="cls-3" d="M255,1067.6l-95.34,13.6a32.9,32.9,0,0,1-20.65-3.82l-63.17-35.16,11.66-34.72,61.41,23.29a36.56,36.56,0,0,0,20.34,1.6l91.49-19Z"/><path class="cls-3" d="M40.49,1017.75c-3.18,27.56,1.86,40.09,20,43.86,15.93,3.31,21.26-5.76,36.77-39.26,11.26-24.33.92-37.92-17.47-40S43.67,990.2,40.49,1017.75Z"/><path class="cls-4" d="M86.5,1006.92c-1.42,2.2-5.66.65-9.47-3.46s-5.74-9.21-4.31-11.4,2.3,6.27,6.17,10.29C83,1006.63,87.93,1004.73,86.5,1006.92Z"/><path class="cls-3" d="M825.85,1076.74l95.34,13.6a32.84,32.84,0,0,0,20.65-3.82l63.16-35.16-11.65-34.71-61.41,23.28a36.48,36.48,0,0,1-20.34,1.6l-91.5-19Z"/><path class="cls-3" d="M1040.39,1026.9c3.18,27.55-1.86,40.09-20,43.85-15.93,3.31-21.26-5.75-36.77-39.26-11.26-24.33-.92-37.91,17.46-40S1037.21,999.34,1040.39,1026.9Z"/><path class="cls-4" d="M994.38,1016.07c1.42,2.19,5.66.64,9.47-3.47s5.74-9.21,4.31-11.4-2.31,6.27-6.17,10.29C997.87,1015.78,993,1013.87,994.38,1016.07Z"/><polygon class="cls-3" points="490 1608 427 1663 383 1509 418 1398 499 1398 458 1509 490 1608"/><path class="cls-5" d="M423.36,1723.16l72.43-49.72a25.75,25.75,0,0,0,10.22-28.2L496.68,1612a5.13,5.13,0,0,0-7.23-3.2l-95.78,47.89a40.3,40.3,0,0,0-17.7,54.69h0A32.62,32.62,0,0,0,423.36,1723.16Z"/><polygon class="cls-3" points="579.36 1608 642.36 1663 686.36 1509 651.36 1398 570.36 1398 611.36 1509 579.36 1608"/><path class="cls-5" d="M646,1723.16l-72.43-49.72a25.76,25.76,0,0,1-10.22-28.2l9.34-33.27a5.12,5.12,0,0,1,7.22-3.2l95.78,47.89a40.3,40.3,0,0,1,17.7,54.69h0A32.62,32.62,0,0,1,646,1723.16Z"/><path class="cls-6" d="M663.14,1514.2H408.31c-22.66,9-42.77-29.87-35.31-114.08v-5.47H700C708.65,1474,687.6,1520.65,663.14,1514.2Z"/><polygon class="cls-2" points="877.87 750.95 204.3 750.95 540.62 195 877.87 750.95"/><rect class="cls-2" x="221.76" y="750.95" width="656.11" height="714.92"/><polygon class="cls-7" points="859.49 750.95 203.38 750.95 534.34 205.11 859.49 750.95"/><rect class="cls-7" x="203.38" y="750.95" width="656.11" height="714.92"/><rect class="cls-2" x="279.65" y="1463.11" width="67.08" height="462.22"/><rect class="cls-7" x="271.38" y="1458.51" width="67.08" height="470.49"/><rect class="cls-2" x="212.57" y="1465.86" width="67.08" height="462.22"/><rect class="cls-7" x="203.38" y="1465.86" width="67.08" height="462.22"/><rect class="cls-2" x="811.7" y="1465.86" width="66.16" height="458.54"/><rect class="cls-7" x="792.41" y="1457.59" width="67.08" height="470.49"/><rect class="cls-2" x="733.59" y="1464.95" width="67.08" height="462.22"/><rect class="cls-7" x="724.41" y="1455.76" width="67.08" height="471.41"/><rect class="cls-2" x="203.38" y="1454.84" width="656.11" height="11.03"/><polygon class="cls-8" points="803.43 750.03 785.97 750.03 536.95 318.13 536.95 288.73 803.43 750.03"/><polygon class="cls-8" points="273.22 748.19 293.43 748.19 536.95 318.13 536.95 287.81 273.22 748.19"/><rect class="cls-8" x="785.97" y="750.03" width="16.54" height="653.35"/><rect class="cls-8" x="274.14" y="746.35" width="19.3" height="653.35"/><rect class="cls-8" x="274.14" y="1389.59" width="528.38" height="13.78"/><ellipse class="cls-9" cx="1001.5" cy="74" rx="66.5" ry="65"/><ellipse class="cls-9" cx="846" cy="1854" rx="103" ry="65"/><circle class="cls-9" cx="49.5" cy="45.5" r="36.5"/><path class="cls-5" d="M73.22,45.24a23.1,23.1,0,1,1-45.16-6.87,22.76,22.76,0,0,1,2.88-6A23.1,23.1,0,0,1,73.22,45.24Z"/><rect class="cls-5" x="27.64" y="27.64" width="7.71" height="5.93" transform="translate(27.69 -13.15) rotate(40.85)"/><rect class="cls-5" x="36.47" y="20.91" width="7.63" height="5.93" transform="translate(43.42 -22.85) rotate(63.18)"/><rect class="cls-5" x="48.04" y="18.54" width="7.4" height="5.93" transform="translate(77.89 -28.05) rotate(95.25)"/><rect class="cls-5" x="58.62" y="21.9" width="7.8" height="5.93" transform="translate(115.3 -16.84) rotate(120)"/><rect class="cls-5" x="66.48" y="29.81" width="7.58" height="5.93" transform="translate(147.52 26.02) rotate(150)"/><rect class="cls-5" x="69.7" y="39.76" width="7.71" height="5.93" transform="translate(149.31 81.42) rotate(176.91)"/><rect class="cls-5" x="68.47" y="50.28" width="7.87" height="5.93" transform="translate(119.74 129.64) rotate(-158.11)"/><rect class="cls-5" x="62.91" y="59.26" width="7.88" height="5.93" transform="translate(65.44 153.54) rotate(-132.06)"/><rect class="cls-5" x="54.23" y="64.75" width="7.82" height="5.93" transform="translate(13.01 144.71) rotate(-108.97)"/><rect class="cls-5" x="43.81" y="66.08" width="7.79" height="5.93" transform="translate(-25.05 110.86) rotate(-85.24)"/><rect class="cls-5" x="34.3" y="62.99" width="7.73" height="5.93" transform="matrix(0.55, -0.84, 0.84, 0.55, -37.91, 61.59)"/><rect class="cls-5" x="26.96" y="56.52" width="7.69" height="5.93" transform="translate(-28.65 28.61) rotate(-35.18)"/><rect class="cls-5" x="22.96" y="47.33" width="7.71" height="5.93" transform="translate(-6.4 3.97) rotate(-7.58)"/><rect class="cls-5" x="23.31" y="36.62" width="7.67" height="5.93" transform="translate(7.2 -4.07) rotate(9.89)"/><path class="cls-10" d="M67,45A16.75,16.75,0,1,1,50.27,28.21,16.75,16.75,0,0,1,67,45Z"/><circle class="cls-3" cx="982.44" cy="1837.01" r="79.28"/><path class="cls-3" d="M925.45,1818.1c-2.18,12.64-13.46,21.24-25.19,19.22s-3.68-11.85-1.5-24.49-2.35-23.3,9.39-21.27S927.63,1805.46,925.45,1818.1Z"/><circle class="cls-11" cx="977.91" cy="1837.92" r="65.02"/><path class="cls-3" d="M1073.64,1845c-2.18,12.64,2.55,26-9.19,24s-19.48-13.91-17.3-26.55,13.46-21.24,25.19-19.22S1075.82,1832.35,1073.64,1845Z"/><ellipse class="cls-12" cx="1006.62" cy="1830.86" rx="12.27" ry="12.61" transform="translate(-968.63 2511.86) rotate(-80.22)"/><ellipse class="cls-12" cx="952.29" cy="1820.93" rx="12.27" ry="12.61" transform="translate(-1003.93 2450.08) rotate(-80.22)"/><path class="cls-6" d="M970.77,1884.38l8.12,5.94a.77.77,0,0,0,.18.1,5.11,5.11,0,0,0,2.1.51c5.5.09,10.72-5.19,12-12.41l.2-1.18c1.06-6.49-4.84-11.48-10-12.91a8.11,8.11,0,0,0-4.88.29l-5.48,2a5.39,5.39,0,0,1-4.28-.22c-4.93-2.44-10.28-7-16.5-7.66a6.28,6.28,0,0,0-5,2.13l-.09.1c-5.36,5.5-7.11,21.41-.6,19.17.29-.1,7.13-3.63,8.93-3.32,1.27.22,2.91-.72,10.41,4.22Z"/><path class="cls-13" d="M922.16,1782.53c-16.3,16.27,27.51,2.76,67.05,5.49,38.52,2.66,77.11,46.44,73.24,28.11-6.07-28.84-31.15-63.05-61.79-67.2C965.91,1744.23,940.61,1764.1,922.16,1782.53Z"/><path class="cls-13" d="M914.07,1768.45c-.07,14.69,17.38,32.09,35.84,36.91,23.11,6.05,48-13.66,50.1-29.15,2.24-16.58-41.78,5.31-64.41,1.41S914.13,1751.69,914.07,1768.45Z"/><path class="cls-13" d="M1055.41,1800c11.64-1-19.31,20.21-34.19,15.85-18.33-5.38-23.21-10.63-24.94-20.74-1.38-8.06,7.75-20.26,28-12.24C1033.2,1786.39,1048.44,1800.55,1055.41,1800Z"/><path class="cls-14" d="M1054,1799.51c11.64-.94-14.1,12.1-29,7.74-18.33-5.38-23.22-10.63-24.94-20.74-1.38-8,6.42-17.6,26.68-9.58C1035.73,1780.46,1047.08,1800.08,1054,1799.51Z"/><ellipse class="cls-15" cx="1024.29" cy="1782.86" rx="2.23" ry="3.13" transform="translate(-1031.35 1737.18) rotate(-58.85)"/><path class="cls-14" d="M1003.93,1781.79c-14.18,5.16-23.62,20.63-47.66,16.49s-53.75-37.6-39.38-31.49c35.81,15.24,40.2-7.59,50.82-12.48C990.47,1743.82,1016.38,1777.26,1003.93,1781.79Z"/></g></svg>
