<svg xmlns="http://www.w3.org/2000/svg" width="280" height="260" viewBox="0 0 280 260"><defs><style>.cls-1{fill:#f0af66;}.cls-2{fill:#fed08c;}.cls-3{fill:#2f3a35;}.cls-4{fill:#ef8a70;}.cls-5{fill:#5a3a2f;}.cls-6{fill:#756a5b;}.cls-7{fill:#bdab8e;}</style></defs><title>butler</title><g id="Lag_1" data-name="Lag 1"><circle class="cls-1" cx="136.05" cy="137.97" r="119.5"/><path class="cls-1" d="M46.76,123.15c-.29,19.33-15.07,34.78-33,34.52s-8.26-16.8-8-36.12-8.95-34.14,9-33.87S47,103.82,46.76,123.15Z"/><circle class="cls-2" cx="129.51" cy="140.37" r="98"/><path class="cls-1" d="M273.7,128.49c-.28,19.33,9.89,38.15-8.05,37.89s-32.27-16.15-32-35.48,15.07-34.78,33-34.51S274,109.17,273.7,128.49Z"/><ellipse class="cls-3" cx="170.6" cy="123.15" rx="18.5" ry="19" transform="translate(44.95 291.92) rotate(-89.16)"/><ellipse class="cls-3" cx="87.38" cy="121.07" rx="18.5" ry="19" transform="translate(-34.96 206.67) rotate(-89.16)"/><path class="cls-4" d="M129.76,211.23l13.47,6.94.29.11a7.64,7.64,0,0,0,3.25.27c8.21-1.15,14.75-10.24,14.91-21.28l0-1.81c0-9.9-9.9-16-18-16.87a12.26,12.26,0,0,0-7.2,1.57l-7.7,4.19a8.16,8.16,0,0,1-6.43.67c-7.91-2.48-17-8-26.36-7.54a9.45,9.45,0,0,0-7,4.36l-.12.17c-6.69,9.44-5.56,33.54,3.6,28.68.41-.22,9.76-7.08,12.52-7,2,0,4.16-1.74,16.49,3.85Z"/><path class="cls-5" d="M33.53,71c-20.46,28,41.61-2.32,101.12-7.51,58-5.06,125.69,51.09,115.65,24.7C234.49,46.62,189.15,1.55,142.54,2.55,89.71,3.69,56.69,39.19,33.53,71Z"/><path class="cls-5" d="M18.18,51.89c3.35,21.88,33.4,43.7,62,46.57C116,102.05,148.47,66.87,148,43.32,147.43,18.11,87,61,52.39,60.49S14.36,26.92,18.18,51.89Z"/><path class="cls-5" d="M236,65.75c17.1-4.13-24,34.62-47.2,31.61-28.55-3.72-37.05-10.4-42-25-3.94-11.67,6.79-32,38.83-24.79C199.78,50.7,225.78,68.22,236,65.75Z"/><path class="cls-6" d="M233.88,65.37c17.11-4.13-18.16,21.31-41.34,18.3-28.54-3.71-37-10.39-42-25C146.62,47,156,30.92,188.05,38.12,202.15,41.29,223.64,67.84,233.88,65.37Z"/><ellipse class="cls-7" cx="185.67" cy="47.53" rx="3.36" ry="4.72" transform="translate(71.47 201.45) rotate(-67.78)"/><path class="cls-6" d="M155.11,50.71C135.21,61.71,124.77,87,88,86.42S-.82,43,22,48.75c56.9,14.31,58.1-20.7,72.75-30.47C126.18-2.67,172.59,41.05,155.11,50.71Z"/></g></svg>
