<svg xmlns="http://www.w3.org/2000/svg" width="100" height="110" viewBox="0 0 100 110"><defs><style>.cls-1{fill:#131311;}</style></defs><title>energy</title><g id="Lag_1" data-name="Lag 1"><path class="cls-1" d="M51.54,30C57,43,60.08,55.87,46,55.87S.49,44.09.49,30,12,6.3,26,4.47C36.61,3.08,47.61,20.56,51.54,30Z"/><path class="cls-1" d="M48.41,30c-5.42,13-3,25.53,11.12,25.53S99.47,44.09,99.47,30,87.92,6.3,73.94,4.47C63.35,3.08,52.34,20.56,48.41,30Z"/><path class="cls-1" d="M42.61,102.63,1.87,34.68l-.69-4.51,98.33,1L97,37.11,52.71,102.92A5.92,5.92,0,0,1,42.61,102.63Z"/></g></svg>
