<svg xmlns="http://www.w3.org/2000/svg" width="1080" height="1920" viewBox="0 0 1080 1920"><defs><style>.cls-1{fill:#f0af66;}.cls-2{fill:#fed08c;}.cls-3{fill:#2f3a35;}.cls-4{fill:#ef8a70;}.cls-5{fill:#5a3a2f;}.cls-6{fill:#756a5b;}.cls-7{fill:#bdab8e;}.cls-8{fill:#a67c52;}.cls-9{fill:#4d4d4d;}.cls-10{fill:#f8c22a;}.cls-11{fill:#f9d069;}.cls-12{fill:#e2ad29;}.cls-13{fill:#c1272d;}.cls-14{fill:#d8555f;}.cls-15{fill:#009245;}.cls-16{fill:#f9e7c0;}.cls-17{fill:#90bf8b;}.cls-18{fill:#fbb03b;}.cls-19{fill:#c64417;}.cls-20{fill:#42210b;}.cls-21{fill:#8d0a0c;}.cls-22{fill:#df0e0e;}.cls-23{fill:#e9ede9;}.cls-24{fill:#f9dc9b;}.cls-25{fill:#f2d9ad;}.cls-26{fill:#f9e4d2;}.cls-27{fill:#f0d6bd;}.cls-28{fill:#d1ba95;}.cls-29{fill:#999;}.cls-30{fill:#ccc;}.cls-31{fill:#e2a161;}.cls-32{fill:#131311;}</style></defs><title>fiigurer</title><g id="Lag_1" data-name="Lag 1"><circle class="cls-1" cx="767.73" cy="730.48" r="119.5"/><path class="cls-1" d="M678.44,715.66c-.28,19.33-15.06,34.78-33,34.52s-8.25-16.79-8-36.12-9-34.14,9-33.87S678.73,696.33,678.44,715.66Z"/><circle class="cls-2" cx="761.2" cy="732.88" r="98"/><path class="cls-1" d="M905.39,721c-.29,19.33,9.89,38.15-8.06,37.89s-32.27-16.15-32-35.48,15.06-34.78,33-34.51S905.67,701.68,905.39,721Z"/><ellipse class="cls-3" cx="802.29" cy="715.66" rx="18.5" ry="19" transform="translate(74.89 1507.32) rotate(-89.16)"/><ellipse class="cls-3" cx="719.07" cy="713.58" rx="18.5" ry="19" transform="translate(-5.03 1422.06) rotate(-89.16)"/><path class="cls-4" d="M761.44,803.74l13.48,6.94a1,1,0,0,0,.29.11,7.62,7.62,0,0,0,3.25.27c8.2-1.15,14.74-10.24,14.9-21.28l0-1.81c.06-9.9-9.9-16-17.95-16.87a12.26,12.26,0,0,0-7.2,1.57l-7.7,4.19a8.11,8.11,0,0,1-6.43.67c-7.9-2.48-16.94-8-26.35-7.54a9.46,9.46,0,0,0-7,4.36l-.12.17c-6.7,9.44-5.57,33.54,3.6,28.68.4-.22,9.76-7.08,12.51-7,1.95,0,4.17-1.74,16.49,3.85Z"/><path class="cls-5" d="M665.21,663.46c-20.45,28,41.61-2.32,101.12-7.51C824.32,650.89,892,707,882,680.66c-15.8-41.53-61.15-86.6-107.75-85.6C721.4,596.2,688.38,631.7,665.21,663.46Z"/><path class="cls-5" d="M649.87,644.4c3.34,21.88,33.4,43.7,62,46.57,35.83,3.59,68.27-31.59,67.77-55.14-.54-25.21-61,17.68-95.58,17.17S646.05,619.43,649.87,644.4Z"/><path class="cls-5" d="M867.71,658.26c17.11-4.13-24,34.62-47.2,31.61-28.54-3.72-37-10.4-42-25-3.93-11.67,6.79-32,38.84-24.79C831.46,643.21,857.47,660.73,867.71,658.26Z"/><path class="cls-6" d="M865.56,657.88c17.11-4.13-18.16,21.31-41.33,18.3-28.55-3.71-37.05-10.39-42-25-3.94-11.67,5.45-27.71,37.49-20.51C833.84,633.8,855.32,660.35,865.56,657.88Z"/><ellipse class="cls-7" cx="817.36" cy="640.04" rx="3.36" ry="4.72" transform="translate(-84.21 1154.73) rotate(-67.78)"/><path class="cls-6" d="M786.79,643.22c-19.89,11-30.34,36.25-67.1,35.71s-88.83-43.41-66-37.67c56.89,14.31,58.09-20.7,72.75-30.47C757.87,589.84,804.28,633.56,786.79,643.22Z"/><circle class="cls-1" cx="247.22" cy="332.16" r="119.5"/><path class="cls-8" d="M123.82,336.94c-.5,27.33,26.85,58,10,58s-33-21.66-33-49,35.94-38.72,50-48c13.54-8.93,31.74-16.77,19-8C164.41,293.66,124.26,313.28,123.82,336.94Z"/><path class="cls-8" d="M154.82,406.94c15.24,16.14,3.19,41.34-11.28,46.91-15.72,6.06-38-6.6-36.72-33.91,1.28-26.44,14.62-43.71,18.12-58.82C130.92,335.35,127.17,377.63,154.82,406.94Z"/><circle class="cls-2" cx="254.14" cy="332.93" r="98"/><path class="cls-1" d="M111.29,355.85c4.89,18.7-.49,39.41,16.87,34.86s27.48-23.39,22.58-42.09S127.8,318.45,110.44,323,106.39,337.15,111.29,355.85Z"/><ellipse class="cls-3" cx="213.13" cy="326.03" rx="19" ry="18.5" transform="matrix(0.97, -0.25, 0.25, 0.97, -75.6, 64.59)"/><ellipse class="cls-3" cx="290.44" cy="306.13" rx="19" ry="18.5" transform="matrix(0.97, -0.25, 0.25, 0.97, -68.05, 83.51)"/><path class="cls-8" d="M330.76,242.59c26.56,22.34-41.39,5.24-100,16.87-56.48,11.21-109.34,80.73-106.39,51.62,4.47-44.21,38.68-98.7,84.18-108.86C260.13,190.7,300.68,217.29,330.76,242.59Z"/><path class="cls-8" d="M170.82,461.94c5.28,22.84-1.94,39.26-11.6,46-13.79,9.67-32.26-3.93-40.4-30s20.43-46.11,22.43-62.83c2.32-19.38,1.45-.33,12.57,23.83C156.92,445.66,168.88,453.52,170.82,461.94Z"/><path class="cls-8" d="M178.82,510.94c5.28,22.84-1.94,39.26-11.6,46-13.79,9.67-32.26-3.93-40.4-30s20.43-46.11,22.43-62.83c2.32-19.38,1.45-.33,12.57,23.83C164.92,494.66,176.88,502.52,178.82,510.94Z"/><ellipse class="cls-8" cx="170.82" cy="569.44" rx="10" ry="14.5" transform="translate(-136.9 60.77) rotate(-14.47)"/><ellipse class="cls-8" cx="153.82" cy="570.44" rx="14.5" ry="10" transform="translate(-436.67 550.93) rotate(-73.02)"/><path class="cls-9" d="M172.8,554.19c.09.58-4.59,2.79-12.71,4s-13.12,1.07-13.21.5,4.8-1.41,12.91-2.58S172.72,553.62,172.8,554.19Z"/><path class="cls-8" d="M343.09,270.71c17.17,23.11,14.76,65,25.73,56.23,13.19-10.49,12.78-37.08-1.39-60.46S316.62,252,299.78,251.37c-16.2-.61-35.83,2.12-20.39,3C286,254.76,329,251.72,343.09,270.71Z"/><path class="cls-8" d="M357.82,342.94c-5.82,20.16,10.57,39.39,25.41,39.25,16.12-.15,30.11-19.52,17.54-43.66-12.17-23.37-41-37.31-48.46-50.87C339.35,264,370.82,298,357.82,342.94Z"/><path class="cls-8" d="M367.73,402c7.34,22.26,22,32.55,33.8,33.34,16.81,1.11,25.54-20.1,19-46.63s-41.37-28.83-51.76-42.09c-12-15.37-1.41.46,1.61,26.89C371.18,380.84,365,393.76,367.73,402Z"/><path class="cls-8" d="M386.3,448c7.34,22.26,22,32.56,33.8,33.34,16.81,1.12,25.54-20.09,19-46.63s-41.37-28.82-51.76-42.09c-12-15.37-1.41.47,1.61,26.9C389.75,426.88,383.6,439.8,386.3,448Z"/><ellipse class="cls-8" cx="423.48" cy="493.88" rx="10" ry="14.5" transform="translate(-124.46 143.14) rotate(-16.76)"/><ellipse class="cls-8" cx="438.54" cy="485.92" rx="10" ry="14.5" transform="translate(-216 489.21) rotate(-48.22)"/><path class="cls-9" d="M413.88,481.87c.23.53,5.38,0,12.92-3.2s11.79-5.89,11.56-6.42-4.83,1.28-12.38,4.49S413.66,481.34,413.88,481.87Z"/><path class="cls-1" d="M343.82,291.94c4.9,18.7,9.5,34.68,26.87,30.13s4-18.28-.9-37,.54-35.28-16.83-30.74S338.93,273.24,343.82,291.94Z"/><path class="cls-8" d="M236.16,254.05c3.44,20.43-19.56,48-44.34,49.89-17.53,1.33-41.83-.83-50,6-4.47,3.74-9.93-4.63-11-11-3.43-20.42,21.29-57.11,45.8-61.23S232.72,233.63,236.16,254.05Z"/><path class="cls-8" d="M210.9,261.9c8.22,19,42.51,29.66,64.33,17.77,15.44-8.42,34.66-23.44,45.23-22.15,5.8.71,5.82-9.28,3.26-15.21-8.22-19-48.92-36.36-71.73-26.5S202.69,242.89,210.9,261.9Z"/><polyline class="cls-10" points="222.62 227.36 148.33 249.22 145.88 177.25"/><polyline class="cls-10" points="227.88 229.33 128.83 258.47 81.21 188.06"/><polyline class="cls-10" points="259.55 217.67 174.49 242.69 180.75 124.78"/><polyline class="cls-10" points="204.32 232.75 278.61 210.89 241.71 149.06"/><polyline class="cls-10" points="200.97 237.25 300.02 208.11 301.93 123.14"/><rect class="cls-11" x="124.71" y="229.83" width="180.69" height="11.25" transform="translate(-57.7 70.26) rotate(-16.39)"/><rect class="cls-12" x="127.25" y="238.46" width="180.69" height="11.25" transform="translate(-60.03 71.32) rotate(-16.39)"/><rect class="cls-10" x="125.98" y="234.14" width="180.69" height="11.25" transform="translate(-58.87 70.79) rotate(-16.39)"/><path class="cls-12" d="M211.76,190.44a9.55,9.55,0,1,1-18.3,5.38c-1.57-5.34,1.55-9.87,6.6-11.35S210.19,185.1,211.76,190.44Z"/><path class="cls-12" d="M194,185.89l-.74,5.29c.35,2.15,4,.25,6.38-.43l3.52-1c2.32-.69,6.7-1.11,6.29-3.3l-4.38-4.51c-8.4-9.55-9.92-9-11.07,4"/><path class="cls-13" d="M209.76,191.58c1.27,4.32-.83,8.74-4.7,9.88s-8-1.44-9.3-5.77a7.3,7.3,0,1,1,14-4.11Z"/><path class="cls-13" d="M196,187.7l-.5,4.25c.29,1.74,3.11.26,4.89-.27l2.69-.79c1.78-.52,5.14-.81,4.8-2.58l-3.42-3.68c-6.58-7.81-7.74-7.4-8.46,3.07"/><path class="cls-14" d="M201.19,184.58a1.25,1.25,0,1,1-2.38.7,1.24,1.24,0,1,1,2.38-.7Z"/><path class="cls-14" d="M198.86,183.92l-.08.72c.05.3.52.05.83,0l.45-.13c.3-.09.87-.14.82-.44l-.59-.63c-1.11-1.32-1.31-1.25-1.43.52"/><path class="cls-12" d="M248.87,183.84a4.77,4.77,0,1,1-9.1,2.68,4.74,4.74,0,1,1,9.1-2.68Z"/><path class="cls-12" d="M240,181.32l-.33,2.76c.19,1.13,2,.17,3.18-.17l1.75-.52c1.16-.33,3.34-.52,3.12-1.67l-2.22-2.4c-4.28-5.07-5-4.81-5.5,2"/><path class="cls-13" d="M247.57,184.9a3.39,3.39,0,1,1-6.46,1.9,3.37,3.37,0,1,1,6.46-1.9Z"/><path class="cls-13" d="M241.24,183.11l-.24,2c.14.8,1.44.12,2.26-.12l1.25-.37c.82-.24,2.37-.37,2.21-1.19l-1.58-1.7c-3-3.6-3.57-3.42-3.9,1.42"/><path class="cls-12" d="M167,207.91a4.77,4.77,0,1,1-9.1,2.68,4.74,4.74,0,1,1,9.1-2.68Z"/><path class="cls-12" d="M158.12,205.39l-.33,2.76c.19,1.13,2,.17,3.18-.17l1.75-.52c1.16-.34,3.34-.52,3.12-1.68l-2.22-2.39c-4.27-5.07-5-4.81-5.5,2"/><path class="cls-13" d="M165.74,209a3.39,3.39,0,1,1-6.46,1.9,3.37,3.37,0,1,1,6.46-1.9Z"/><path class="cls-13" d="M159.41,207.18l-.23,2c.13.8,1.43.12,2.25-.12l1.25-.37c.82-.24,2.37-.37,2.21-1.19l-1.58-1.7c-3-3.6-3.57-3.42-3.9,1.42"/><rect class="cls-12" x="180.98" y="200.12" width="6.73" height="9" rx="2" transform="translate(-50.25 60.34) rotate(-16.39)"/><rect class="cls-12" x="220.82" y="188.4" width="6.73" height="9" rx="2" transform="translate(-45.32 71.1) rotate(-16.39)"/><rect class="cls-13" x="182.1" y="201.25" width="4.49" height="6.75" rx="2" transform="translate(-50.25 60.34) rotate(-16.39)"/><rect class="cls-12" x="189.89" y="159.94" width="6.73" height="6.75" rx="2" transform="translate(-38.23 61.17) rotate(-16.39)"/><rect class="cls-13" x="191.01" y="161.06" width="4.49" height="4.5" rx="2" transform="translate(-38.23 61.17) rotate(-16.39)"/><rect class="cls-13" x="221.94" y="189.53" width="4.49" height="6.75" rx="2" transform="translate(-45.32 71.1) rotate(-16.39)"/><ellipse class="cls-15" cx="136.81" cy="263.74" rx="2.81" ry="2.81" transform="translate(-68.86 49.32) rotate(-16.39)"/><ellipse class="cls-15" cx="147.58" cy="260.57" rx="2.81" ry="2.81" transform="translate(-67.53 52.23) rotate(-16.39)"/><ellipse class="cls-15" cx="158.35" cy="257.41" rx="2.81" ry="2.81" transform="translate(-66.2 55.14) rotate(-16.39)"/><ellipse class="cls-15" cx="169.11" cy="254.24" rx="2.81" ry="2.81" transform="translate(-64.87 58.05) rotate(-16.39)"/><ellipse class="cls-15" cx="179.88" cy="251.07" rx="2.81" ry="2.81" transform="translate(-63.54 60.96) rotate(-16.39)"/><ellipse class="cls-15" cx="190.65" cy="247.91" rx="2.81" ry="2.81" transform="translate(-62.21 63.87) rotate(-16.39)"/><ellipse class="cls-15" cx="201.41" cy="244.74" rx="2.81" ry="2.81" transform="matrix(0.96, -0.28, 0.28, 0.96, -60.88, 66.78)"/><ellipse class="cls-15" cx="211.1" cy="241.89" rx="2.81" ry="2.81" transform="translate(-59.68 69.4) rotate(-16.39)"/><ellipse class="cls-15" cx="221.87" cy="238.72" rx="2.81" ry="2.81" transform="matrix(0.96, -0.28, 0.28, 0.96, -58.35, 72.31)"/><ellipse class="cls-15" cx="232.64" cy="235.56" rx="2.81" ry="2.81" transform="translate(-57.02 75.22) rotate(-16.39)"/><ellipse class="cls-15" cx="243.4" cy="232.39" rx="2.81" ry="2.81" transform="translate(-55.68 78.13) rotate(-16.39)"/><ellipse class="cls-15" cx="254.17" cy="229.22" rx="2.81" ry="2.81" transform="translate(-54.35 81.04) rotate(-16.39)"/><ellipse class="cls-15" cx="264.94" cy="226.05" rx="2.81" ry="2.81" transform="translate(-53.02 83.95) rotate(-16.39)"/><ellipse class="cls-15" cx="275.71" cy="222.89" rx="2.81" ry="2.81" transform="translate(-51.69 86.86) rotate(-16.39)"/><ellipse class="cls-15" cx="286.47" cy="219.72" rx="2.81" ry="2.81" transform="translate(-50.36 89.77) rotate(-16.39)"/><ellipse class="cls-15" cx="297.24" cy="216.55" rx="2.81" ry="2.81" transform="translate(-49.03 92.68) rotate(-16.39)"/><circle class="cls-12" cx="181.32" cy="122.44" r="7.5"/><ellipse class="cls-10" cx="180.32" cy="121.94" rx="7.5" ry="7"/><circle class="cls-12" cx="241.06" cy="145.44" r="5.5"/><ellipse class="cls-10" cx="240.32" cy="145.07" rx="5.5" ry="5.13"/><circle class="cls-12" cx="303.06" cy="120.44" r="5.5"/><ellipse class="cls-10" cx="302.32" cy="120.07" rx="5.5" ry="5.13"/><circle class="cls-12" cx="146.06" cy="176.44" r="5.5"/><ellipse class="cls-10" cx="145.32" cy="176.07" rx="5.5" ry="5.13"/><circle class="cls-12" cx="82.32" cy="186.44" r="5.5"/><ellipse class="cls-10" cx="81.17" cy="186.39" rx="5.5" ry="5.13" transform="translate(-100.62 95.38) rotate(-39.87)"/><circle class="cls-16" cx="177.82" cy="119.94" r="2"/><circle class="cls-16" cx="143.82" cy="174.44" r="1.5"/><circle class="cls-16" cx="301.32" cy="118.44" r="1.5"/><circle class="cls-16" cx="237.82" cy="143.44" r="1.5"/><circle class="cls-16" cx="79.32" cy="185.44" r="1.5"/><path class="cls-14" d="M161.87,205.66a.87.87,0,1,1-1.67.42.86.86,0,1,1,1.67-.42Z"/><path class="cls-14" d="M160.27,205.14l-.07.5c0,.2.36,0,.57,0l.32-.08c.21-.06.61-.07.58-.28l-.39-.45c-.73-.95-.87-.91-1,.32"/><path class="cls-14" d="M243.88,181.62a.87.87,0,1,1-1.65.49.86.86,0,1,1,1.65-.49Z"/><path class="cls-14" d="M242.26,181.17l-.06.5c0,.21.37,0,.58,0l.32-.1c.2-.06.6-.1.56-.31l-.41-.43c-.78-.91-.91-.86-1,.37"/><rect class="cls-14" x="222.82" y="190.94" width="1" height="2" rx="0.5" transform="translate(-47.15 75.5) rotate(-17.39)"/><rect class="cls-14" x="182.82" y="202.94" width="1" height="2" rx="0.5" transform="translate(-55.03 68.34) rotate(-18.41)"/><circle class="cls-17" cx="192.32" cy="162.44" r="0.5"/><circle class="cls-17" cx="135.32" cy="262.44" r="0.5"/><circle class="cls-17" cx="146.32" cy="259.44" r="0.5"/><circle class="cls-17" cx="156.82" cy="256.4" r="0.5"/><circle class="cls-17" cx="167.32" cy="253.44" r="0.5"/><circle class="cls-17" cx="178.32" cy="250.44" r="0.5"/><circle class="cls-17" cx="189.32" cy="247.44" r="0.5"/><circle class="cls-17" cx="199.32" cy="244.44" r="0.5"/><circle class="cls-17" cx="209.32" cy="241.44" r="0.5"/><circle class="cls-17" cx="220.32" cy="238.44" r="0.5"/><circle class="cls-17" cx="231.32" cy="235.44" r="0.5"/><circle class="cls-17" cx="241.32" cy="232.44" r="0.5"/><circle class="cls-17" cx="252.32" cy="228.44" r="0.5"/><circle class="cls-17" cx="263.32" cy="225.44" r="0.5"/><circle class="cls-17" cx="274.32" cy="222.44" r="0.5"/><circle class="cls-17" cx="295.32" cy="216.44" r="0.5"/><circle class="cls-17" cx="284.79" cy="219.26" r="0.5"/><path class="cls-14" d="M236.19,378.8c3.39,13.21,20.23,20.29,37.62,15.83s28.73-18.79,25.34-32"/><polygon class="cls-18" points="362 1186 341 1186 324 1102 341 1016 362 1016 343 1101 362 1186"/><polygon class="cls-18" points="150.14 900 184.14 926 230.14 917 230.14 898 188.14 909 158.14 888 150.14 900"/><path class="cls-18" d="M136.14,900h14l8-12-2-14c.53-2.21-3.42-3.93-4-1l-.69,13.55L139,879.34c-3.31-3.29-4.67-.64-1.54,1.93l9.86,11.32-12.14,4.55C131.7,897.92,132.68,900.71,136.14,900Z"/><polygon class="cls-18" points="595 884 561 910 515 901 515 882 557 893 587 872 595 884"/><path class="cls-18" d="M609,884H595l-8-12,2-14c-.53-2.21,3.42-3.93,4-1l.68,13.55,12.5-7.21c3.31-3.29,4.67-.64,1.54,1.93l-9.86,11.32L610,881.14C613.44,881.92,612.45,884.71,609,884Z"/><polygon class="cls-18" points="406 1185 385 1185 403 1100 385 1015 406 1015 421 1098 406 1185"/><ellipse class="cls-19" cx="342.29" cy="779.9" rx="38.5" ry="37" transform="translate(-495.74 627.86) rotate(-56.02)"/><ellipse class="cls-19" cx="265.09" cy="825.55" rx="42.5" ry="38.5" transform="matrix(0.56, -0.83, 0.83, 0.56, -567.64, 583.98)"/><ellipse class="cls-19" cx="246.15" cy="896.59" rx="42" ry="35.5" transform="translate(-634.91 599.61) rotate(-56.02)"/><ellipse class="cls-19" cx="258.62" cy="953.24" rx="31" ry="31.5" transform="translate(-676.38 634.94) rotate(-56.02)"/><ellipse class="cls-19" cx="298.17" cy="1002.81" rx="46" ry="44" transform="translate(-700.04 689.6) rotate(-56.02)"/><ellipse class="cls-19" cx="365.58" cy="1015.81" rx="44" ry="36" transform="translate(-713.38 1052.82) rotate(-72.17)"/><ellipse class="cls-19" cx="435.61" cy="1004.26" rx="33.98" ry="41" transform="translate(-471.66 391.77) rotate(-32.53)"/><ellipse class="cls-19" cx="489.76" cy="994.73" rx="27.78" ry="28.08" transform="matrix(0.56, -0.83, 0.83, 0.56, -608.83, 844.91)"/><ellipse class="cls-19" cx="514.9" cy="952.31" rx="26" ry="38.5" transform="translate(-562.57 847.05) rotate(-56.02)"/><ellipse class="cls-19" cx="511.49" cy="914.44" rx="29.5" ry="24.5" transform="translate(-532.67 827.51) rotate(-56.02)"/><circle class="cls-19" cx="404.56" cy="779.66" r="29.5"/><ellipse class="cls-19" cx="447.56" cy="804.42" rx="37" ry="24" transform="translate(-469.63 725.97) rotate(-56.02)"/><ellipse class="cls-19" cx="483.95" cy="831.71" rx="47.59" ry="35" transform="matrix(0.84, -0.55, 0.55, 0.84, -376.89, 401.7)"/><ellipse class="cls-19" cx="506.17" cy="867.11" rx="31.78" ry="32.64" transform="translate(-495.76 802.23) rotate(-56.02)"/><ellipse class="cls-19" cx="293.16" cy="786.58" rx="17.5" ry="20" transform="translate(-522.95 590.07) rotate(-56.02)"/><ellipse class="cls-19" cx="377.05" cy="900.19" rx="151.71" ry="142.72" transform="translate(-122.97 62.04) rotate(-8.09)"/><path class="cls-5" d="M418,1205H387.68a2.68,2.68,0,0,1-2.68-2.68V1185h21v1.59a2.28,2.28,0,0,0,3.15,2.1l7.9-3.29a.68.68,0,0,1,.95.63Z"/><path class="cls-5" d="M429,1195a10.26,10.26,0,0,1-10.5,10,10.54,10.54,0,0,1-10.5-10c-.24-3.15.1-5.88,4.93-7.88a30.24,30.24,0,0,1,5.57-2.12C424.17,1183.8,429,1189.48,429,1195Z"/><rect class="cls-20" x="383" y="1182" width="25" height="4" rx="1.66"/><path class="cls-5" d="M329,1205h30.32a2.68,2.68,0,0,0,2.68-2.68V1185H341v1.59a2.28,2.28,0,0,1-3.15,2.1l-7.9-3.29a.68.68,0,0,0-.95.63Z"/><path class="cls-5" d="M318,1195a10.26,10.26,0,0,0,10.5,10,10.54,10.54,0,0,0,10.5-10c.24-3.15-.1-5.88-4.93-7.88a30.24,30.24,0,0,0-5.57-2.12C322.83,1183.8,318,1189.48,318,1195Z"/><rect class="cls-20" x="339" y="1182" width="25" height="4" rx="1.66" transform="translate(703 2368) rotate(180)"/><circle class="cls-3" cx="417" cy="860" r="21"/><ellipse class="cls-3" cx="336" cy="857" rx="22" ry="21"/><path class="cls-21" d="M437,953c21.45,1.94-29.33,39-65.5,39s-65.13-17.46-65.5-39C305.66,933.08,432.53,952.6,437,953Z"/><path class="cls-22" d="M391,989c-9.47,4.35-42.39,4.1-48-1C331.11,977.18,412.32,979.21,391,989Z"/><path class="cls-23" d="M322.42,945c25.84-5,67.3,1.78,91.58,5,1.92.26,3.12,4.23-9,5-20.73,1.31-56.68.1-75-3C322.32,950.7,321.3,945.2,322.42,945Z"/><polygon class="cls-18" points="893.1 1484.37 866.53 1499.47 830.58 1494.25 830.58 1483.21 863.4 1489.6 886.84 1477.4 893.1 1484.37"/><path class="cls-18" d="M904,1484.37H893.1l-6.26-7,1.57-8.13c-.42-1.28,2.67-2.28,3.12-.58l.54,7.87,9.76-4.19c2.59-1.91,3.65-.37,1.2,1.12l-7.7,6.58,9.49,2.64C907.51,1483.16,906.73,1484.78,904,1484.37Z"/><polygon class="cls-18" points="701.99 1485.42 728.56 1500.52 764.51 1495.29 764.51 1484.26 731.69 1490.64 708.25 1478.45 701.99 1485.42"/><path class="cls-18" d="M691.05,1485.42H702l6.25-7-1.56-8.13c.42-1.29-2.67-2.29-3.12-.58l-.54,7.86-9.76-4.18c-2.59-1.91-3.65-.38-1.21,1.12l7.71,6.57-9.49,2.65C687.58,1484.21,688.35,1485.83,691.05,1485.42Z"/><path class="cls-18" d="M778.41,1660.15H764.35l-4.15-22.94a7.28,7.28,0,0,1,.21-2.17l9.57-37.58h12.65l-11.25,39.7Z"/><path class="cls-5" d="M749.41,1676.87h32.43c1.58,0,2.87-1,2.87-2.14V1661H762.24v1.26c0,1.29-1.76,2.17-3.36,1.67l-8.45-2.62c-.49-.15-1,.12-1,.51Z"/><path class="cls-5" d="M737.64,1668.92c0,4.39,5,7.95,11.23,7.95s10.79-3.58,11.23-7.95c.26-2.51-.11-4.68-5.27-6.27a39.4,39.4,0,0,0-6-1.68C742.81,1660,737.64,1664.53,737.64,1668.92Z"/><rect class="cls-20" x="760.1" y="1658.58" width="26.74" height="3.18" rx="1.52" transform="translate(1546.95 3320.34) rotate(-180)"/><path class="cls-18" d="M812.15,1659.1H826.2l4.16-22.93a7.21,7.21,0,0,0-.21-2.17l-9.57-37.58H807.93l11.25,39.7Z"/><path class="cls-5" d="M841.15,1675.82H808.72c-1.58,0-2.87-1-2.87-2.13v-13.77h22.46v1.27c0,1.29,1.77,2.16,3.37,1.67l8.45-2.62c.48-.15,1,.11,1,.5Z"/><path class="cls-5" d="M852.91,1667.87c0,4.39-5,8-11.23,8s-10.78-3.57-11.23-8c-.25-2.5.11-4.68,5.28-6.26a40.55,40.55,0,0,1,5.95-1.69C847.75,1659,852.91,1663.48,852.91,1667.87Z"/><rect class="cls-20" x="803.71" y="1657.54" width="26.74" height="3.18" rx="1.52"/><rect class="cls-24" x="797.05" y="1213.69" width="8.07" height="203.52"/><polygon class="cls-11" points="799.06 1418.63 791 1418.68 786.97 1215.17 795.04 1215.13 799.06 1418.63"/><polygon class="cls-11" points="788.12 1418.41 780.06 1418.64 760.27 1215.4 768.33 1215.17 788.12 1418.41"/><polygon class="cls-25" points="787.78 1418.17 779.74 1418.52 749.86 1215.64 757.9 1215.29 787.78 1418.17"/><polygon class="cls-24" points="785.07 1419.44 779.37 1419.77 740.26 1221.29 745.96 1220.96 785.07 1419.44"/><polygon class="cls-25" points="787.7 1418.85 780.47 1419.4 727.97 1220.06 735.2 1219.51 787.7 1418.85"/><polygon class="cls-11" points="783.47 1418.5 776.98 1419.05 717.96 1215.69 724.45 1215.14 783.47 1418.5"/><polygon class="cls-24" points="823.72 1418.3 818.02 1417.97 857.57 1219.52 863.27 1219.85 823.72 1418.3"/><polygon class="cls-25" points="823.86 1418 818.19 1417.58 868.18 1219.82 873.86 1220.24 823.86 1418"/><polygon class="cls-11" points="828.15 1416.49 821.42 1415.95 877.12 1214.15 883.84 1214.69 828.15 1416.49"/><polygon class="cls-24" points="796.51 1418.56 789.54 1418.68 777.61 1213.82 784.59 1213.7 796.51 1418.56"/><polygon class="cls-26" points="792.38 1418.51 786.74 1418.65 769.9 1216.73 775.54 1216.6 792.38 1418.51"/><polygon class="cls-25" points="804.48 1417.23 796.41 1417.09 808.45 1216.58 816.51 1216.72 804.48 1417.23"/><polygon class="cls-2" points="810.64 1417.21 802.4 1417.02 818.38 1219.31 826.63 1219.51 810.64 1417.21"/><polygon class="cls-24" points="817.88 1417.19 810.4 1417.02 827.22 1210.6 834.7 1210.78 817.88 1417.19"/><polygon class="cls-2" points="823.67 1417.16 815.62 1416.9 837.65 1216.64 845.71 1216.9 823.67 1417.16"/><polygon class="cls-27" points="824.62 1418.5 816.58 1418.13 847.46 1218.22 855.5 1218.58 824.62 1418.5"/><polygon class="cls-24" points="799.08 1414.28 807.01 1414.34 801.84 1617.84 793.91 1617.78 799.08 1414.28"/><polygon class="cls-11" points="805.75 1412.89 814.35 1412.89 812.45 1616.42 803.85 1616.42 805.75 1412.89"/><polygon class="cls-11" points="815.82 1413.21 823.74 1413.04 838.03 1616.41 830.11 1616.58 815.82 1413.21"/><polygon class="cls-25" points="816.15 1413.45 824.06 1413.17 848.27 1616.25 840.36 1616.54 816.15 1413.45"/><polygon class="cls-24" points="818.85 1412.2 824.46 1411.92 857.85 1610.67 852.24 1610.96 818.85 1412.2"/><polygon class="cls-25" points="816.24 1412.78 823.36 1412.27 869.89 1611.99 862.77 1612.49 816.24 1412.78"/><polygon class="cls-11" points="820.4 1413.15 826.78 1412.65 879.62 1616.43 873.24 1616.94 820.4 1413.15"/><polygon class="cls-24" points="780.82 1413.05 786.41 1413.42 742.5 1611.56 736.91 1611.18 780.82 1413.05"/><polygon class="cls-25" points="780.67 1413.35 786.25 1413.81 732.08 1611.18 726.51 1610.71 780.67 1413.35"/><polygon class="cls-11" points="776.43 1414.82 783.02 1415.41 723.15 1616.78 716.56 1616.18 776.43 1414.82"/><polygon class="cls-24" points="808.11 1412.98 817.08 1412.84 821.74 1617.83 812.77 1617.97 808.11 1412.98"/><polygon class="cls-26" points="810.85 1413.11 817.18 1412.98 827.94 1615.03 821.61 1615.16 810.85 1413.11"/><polygon class="cls-25" points="799.71 1414.27 807.63 1414.47 790.71 1614.87 782.78 1614.66 799.71 1414.27"/><polygon class="cls-2" points="793.65 1414.23 801.75 1414.49 781.01 1612.06 772.91 1611.8 793.65 1414.23"/><polygon class="cls-24" points="786.54 1414.2 793.88 1414.43 772.1 1620.7 764.76 1620.46 786.54 1414.2"/><polygon class="cls-2" points="780.84 1414.19 788.75 1414.51 762 1614.58 754.09 1614.26 780.84 1414.19"/><polygon class="cls-27" points="779.94 1412.85 787.83 1413.27 752.4 1612.93 744.51 1612.51 779.94 1412.85"/><path class="cls-28" d="M829.43,1419.29l-14.92,3.08a45.36,45.36,0,0,1-16.1.39l-20.6-3.19c-2.92-.45-5-2.37-5-4.59v-5.24c0-.71.89-1.22,1.8-1l23,4.46a35.65,35.65,0,0,0,14.87-.28l16.93-4c1.19-.28,2.4.38,2.4,1.31V1417A2.67,2.67,0,0,1,829.43,1419.29Z"/><ellipse class="cls-3" cx="764.35" cy="1366.03" rx="26.71" ry="20.37"/><ellipse class="cls-3" cx="841.67" cy="1366.03" rx="26.71" ry="20.37"/><path class="cls-21" d="M851.71,1441.43c16.84,1.13-23,22.75-51.41,22.75s-51.12-10.19-51.41-22.75C748.62,1429.81,848.21,1441.19,851.71,1441.43Z"/><path class="cls-22" d="M815.61,1462.43c-7.43,2.54-33.28,2.4-37.68-.58C768.59,1455.54,832.34,1456.72,815.61,1462.43Z"/><path class="cls-23" d="M761.78,1436.75c20.28-2.94,52.83,1,71.88,2.93,1.51.15,2.45,2.47-7.06,2.92-16.27.76-44.5.05-58.87-1.75C761.7,1440.09,760.9,1436.88,761.78,1436.75Z"/><polygon class="cls-18" points="226.8 1610.76 204.36 1625.22 173.99 1620.21 173.99 1609.65 201.72 1615.77 221.52 1604.09 226.8 1610.76"/><path class="cls-18" d="M236,1610.76H226.8l-5.28-6.67,1.32-7.78c-.35-1.23,2.25-2.18,2.64-.56l.45,7.54,8.25-4c2.18-1.83,3.08-.36,1,1.07l-6.5,6.29,8,2.53C239,1609.61,238.32,1611.16,236,1610.76Z"/><polygon class="cls-18" points="109.31 1610.76 131.75 1625.22 162.12 1620.21 162.12 1609.65 134.4 1615.77 114.59 1604.09 109.31 1610.76"/><path class="cls-18" d="M100.07,1610.76h9.24l5.28-6.67-1.32-7.78c.35-1.23-2.25-2.18-2.64-.56l-.45,7.54-8.25-4c-2.18-1.83-3.08-.36-1,1.07l6.5,6.29-8,2.53C97.14,1609.61,97.79,1611.16,100.07,1610.76Z"/><path class="cls-18" d="M152.49,1807H140.61l-3.5-22a7.64,7.64,0,0,1,.17-2.08l8.08-36h10.69l-9.5,38Z"/><path class="cls-5" d="M128,1823h27.39a2.25,2.25,0,0,0,2.42-2v-13.18h-19V1809a2,2,0,0,1-2.84,1.6l-7.14-2.51a.62.62,0,0,0-.86.49Z"/><path class="cls-5" d="M118.05,1815.39c0,4.2,4.25,7.61,9.49,7.61s9.11-3.42,9.49-7.61c.21-2.4-.1-4.48-4.46-6a31.16,31.16,0,0,0-5-1.62A8.19,8.19,0,0,0,118.05,1815.39Z"/><rect class="cls-20" x="137.03" y="1805.5" width="22.59" height="3.04" rx="1.52" transform="translate(296.64 3614.04) rotate(180)"/><path class="cls-18" d="M179.8,1807h11.87l3.51-22A7.64,7.64,0,0,0,195,1783l-8.08-36H176.23l9.5,38Z"/><path class="cls-5" d="M204.29,1823H176.9a2.25,2.25,0,0,1-2.42-2v-13.18h19V1809a2,2,0,0,0,2.84,1.6l7.14-2.51a.62.62,0,0,1,.86.49Z"/><path class="cls-5" d="M214.23,1815.39c0,4.2-4.25,7.61-9.48,7.61s-9.11-3.42-9.49-7.61c-.22-2.4.09-4.48,4.45-6a30.94,30.94,0,0,1,5-1.62A8.19,8.19,0,0,1,214.23,1815.39Z"/><rect class="cls-20" x="172.67" y="1805.5" width="22.59" height="3.04" rx="1.52"/><path class="cls-29" d="M137.05,1459c-1.48-3.94-4.68-22.9-4.69-27,0-12-.05-37.43-.06-42.12a11.09,11.09,0,0,1,.1-1.52c.86-6.32,6.83-49.89,6.83-49.89a1.83,1.83,0,0,1,1.91-1.44h0a1.9,1.9,0,0,1,2,1.55l5.67,62.09c0,.17.3.17.32,0l9.08-62.14a2,2,0,0,1,2-1.51h0a1.84,1.84,0,0,1,1.92,1.48c-.12-.1,3.92,47.32,7,61.52.11.52,7-61.52,7-61.52A1.82,1.82,0,0,1,178,1337h0a1.83,1.83,0,0,1,1.92,1.48c.09-.2,5.34,48.82,6.54,62.52.19,2.16,5.07-62.47,5.07-62.47a1.82,1.82,0,0,1,1.93-1.53h0a1.82,1.82,0,0,1,1.91,1.46s5.77,49.53,5.77,49.58v47.41c0,1.78-1.24,13.17-2.3,21-.64,4.69-9.57,23.51-9.57,23.51L181,1594c-3,.76-.15-1.06,0,0,2.24,15.66,18,144.44,18,144.44,1.2,16-13.9,29.56-33,29.56h0c-18.2,0-32.57-13-31.25-28.31l23.36-143.75a15.36,15.36,0,0,0,.13-3.89c-1.31-14.12-9.36-100.54-10.39-111.63"/><path class="cls-30" d="M134.68,1459c-1.48-3.94-4.69-22.9-4.7-27,0-12,0-37.43,0-42.12a11.09,11.09,0,0,1,.1-1.52c.86-6.32,6.82-49.89,6.82-49.89a1.85,1.85,0,0,1,1.92-1.44h0a1.88,1.88,0,0,1,2,1.55l5.8,80.45c0,.16,9.28-80.49,9.28-80.49a1.94,1.94,0,0,1,2-1.51h0a1.83,1.83,0,0,1,1.92,1.48c-.12-.1,5.11,64.32,8.15,78.52.12.52,5.78-78.52,5.78-78.52a1.83,1.83,0,0,1,1.92-1.48h0a1.83,1.83,0,0,1,1.92,1.48c.08-.2,5.77,65.82,7,79.52.19,2.16,4.64-79.47,4.64-79.47a1.81,1.81,0,0,1,1.92-1.53h0a1.84,1.84,0,0,1,1.92,1.46S198.8,1388,198.8,1388v47.41c0,1.78-1.25,13.17-2.31,21-.63,4.69-9.57,23.51-9.57,23.51l-8.31,114c-3,.76-.15-1.06,0,0,2.23,15.66,18,144.44,18,144.44,1.19,16-13.91,29.56-33,29.56h0c-18.21,0-32.58-13-31.25-28.31l23.35-143.75a15.36,15.36,0,0,0,.14-3.89c-1.31-14.12-9.36-100.54-10.4-111.63"/><path class="cls-3" d="M181.38,1452c12,1.54,16.38.59,27-1,16.89-2.58,19.07-15.62,23.76-25C238.36,1413.34,162.55,1449.54,181.38,1452Z"/><path class="cls-3" d="M152.28,1452c-12,1.54-16.38.59-27-1-16.89-2.58-19.07-15.62-23.76-25C95.31,1413.34,171.12,1449.54,152.28,1452Z"/><path class="cls-3" d="M197.3,1577.63c0,5.33-13.1,0-29.74,0s-30.51,5.33-30.51,0,13.49-9.63,30.13-9.63S197.3,1572.31,197.3,1577.63Z"/><polygon class="cls-18" points="384.37 1604.76 363.05 1619.22 334.21 1614.21 334.21 1603.65 360.54 1609.77 379.35 1598.09 384.37 1604.76"/><path class="cls-18" d="M393.14,1604.76h-8.77l-5-6.67,1.25-7.78c-.33-1.23,2.15-2.18,2.51-.56l.43,7.54,7.83-4c2.08-1.83,2.93-.36,1,1.07l-6.18,6.29,7.61,2.53C395.93,1603.61,395.31,1605.16,393.14,1604.76Z"/><polygon class="cls-18" points="263.75 1605.76 285.06 1620.22 313.9 1615.21 313.9 1604.65 287.57 1610.77 268.76 1599.09 263.75 1605.76"/><path class="cls-18" d="M255,1605.76h8.78l5-6.67-1.25-7.78c.33-1.23-2.15-2.18-2.51-.56l-.43,7.54-7.83-4c-2.08-1.83-2.93-.36-1,1.07l6.18,6.29-7.61,2.53C252.18,1604.61,252.8,1606.16,255,1605.76Z"/><path class="cls-18" d="M310.4,1808H299.12l-3.34-22A8.52,8.52,0,0,1,296,1784l7.68-36h10.15l-9,38Z"/><path class="cls-5" d="M287.13,1824h26a2.18,2.18,0,0,0,2.3-2v-13.18h-18V1810a1.93,1.93,0,0,1-2.69,1.6l-6.79-2.51a.59.59,0,0,0-.81.49Z"/><path class="cls-5" d="M277.69,1816.39c0,4.2,4,7.61,9,7.61s8.65-3.42,9-7.61c.2-2.4-.09-4.48-4.23-6a28.38,28.38,0,0,0-4.78-1.62C281.83,1807.87,277.69,1812.19,277.69,1816.39Z"/><rect class="cls-20" x="295.71" y="1806.5" width="21.45" height="3.04" rx="1.52" transform="translate(612.87 3616.04) rotate(-180)"/><path class="cls-18" d="M336.34,1808h11.28l3.33-22a8.52,8.52,0,0,0-.17-2.08l-7.68-36H333l9,38Z"/><path class="cls-5" d="M359.6,1824h-26a2.18,2.18,0,0,1-2.3-2v-13.18h18V1810a1.94,1.94,0,0,0,2.7,1.6l6.78-2.51a.58.58,0,0,1,.81.49Z"/><path class="cls-5" d="M369,1816.39c0,4.2-4,7.61-9,7.61s-8.65-3.42-9-7.61c-.2-2.4.09-4.48,4.24-6a28,28,0,0,1,4.77-1.62C364.9,1807.87,369,1812.19,369,1816.39Z"/><rect class="cls-20" x="329.57" y="1806.5" width="21.45" height="3.04" rx="1.52"/><path class="cls-29" d="M291.67,1437.08a18.16,18.16,0,0,0-.4,9.48c4.82,21.21,26.29,120.7,26.27,121.44s-23.86,165.67-23.86,165.67a30.06,30.06,0,0,0,30.06,32.19h0a31.69,31.69,0,0,0,31.71-33.61l-17.22-164.72c0-.44-.06-.88-.06-1.33l2.21-224.42a5.73,5.73,0,0,0-5.73-5.78h-5.1a8.3,8.3,0,0,0-7.39,4.57h0Z"/><path class="cls-30" d="M288.17,1438.22a18.16,18.16,0,0,0-.4,9.48c4.82,21.21,26.29,120.7,26.27,121.43s-23.86,165.68-23.86,165.68A30.06,30.06,0,0,0,320.24,1767h0A31.69,31.69,0,0,0,352,1733.38l-17.22-164.71a11.84,11.84,0,0,1-.06-1.33l2.21-224.43a5.73,5.73,0,0,0-5.73-5.77h-5.1a8.31,8.31,0,0,0-7.39,4.56h0Z"/><path class="cls-3" d="M323.18,1450c11.39,1.54,15.56.59,25.62-1,16-2.58,18.11-15.62,22.57-25C377.3,1411.34,305.29,1447.54,323.18,1450Z"/><path class="cls-3" d="M305.64,1451.61c-11.4,1.54-15.56.59-25.62-1-16-2.57-18.11-15.62-22.57-25C251.52,1413,323.53,1449.19,305.64,1451.61Z"/><path class="cls-3" d="M351.84,1567.63c0,5.33-12.45,0-28.26,0s-29,5.33-29,0,12.81-9.63,28.61-9.63S351.84,1562.31,351.84,1567.63Z"/><path class="cls-1" d="M447.45,151.66l103.76,14.8a35.74,35.74,0,0,0,22.47-4.16L642.42,124,629.73,86.26,562.9,111.6a39.77,39.77,0,0,1-22.13,1.75L441.2,92.66Z"/><path class="cls-1" d="M680.92,97.42c3.46,30-2,43.62-21.78,47.72-17.33,3.6-23.13-6.26-40-42.73-12.25-26.47-1-41.25,19-43.56S677.46,67.43,680.92,97.42Z"/><path class="cls-31" d="M630.85,85.63c1.55,2.39,6.16.7,10.31-3.77s6.24-10,4.69-12.41-2.51,6.83-6.71,11.2C634.65,85.31,629.3,83.25,630.85,85.63Z"/><path class="cls-1" d="M662.64,262.66l-103.76,14.8a35.7,35.7,0,0,1-22.46-4.16L467.68,235l12.68-37.78,66.83,25.34a39.78,39.78,0,0,0,22.13,1.75l99.57-20.69Z"/><path class="cls-1" d="M429.17,208.42c-3.46,30,2,43.62,21.78,47.72,17.33,3.6,23.13-6.26,40-42.73,12.25-26.47,1-41.25-19-43.56S432.63,178.43,429.17,208.42Z"/><path class="cls-31" d="M479.24,196.63c-1.55,2.39-6.16.7-10.31-3.77s-6.24-10-4.69-12.41,2.51,6.83,6.71,11.2C475.44,196.31,480.79,194.25,479.24,196.63Z"/><polygon class="cls-1" points="835 257 772 312 728 158 763 47 844 47 803 158 835 257"/><path class="cls-32" d="M768.36,372.16l72.43-49.72A25.75,25.75,0,0,0,851,294.24L841.68,261a5.13,5.13,0,0,0-7.23-3.2l-95.78,47.89A40.3,40.3,0,0,0,721,360.35h0A32.62,32.62,0,0,0,768.36,372.16Z"/><polygon class="cls-1" points="924.36 257 987.36 312 1031.36 158 996.36 47 915.36 47 956.36 158 924.36 257"/><path class="cls-32" d="M991,372.16l-72.43-49.72a25.76,25.76,0,0,1-10.22-28.2L917.69,261a5.12,5.12,0,0,1,7.22-3.2l95.78,47.89a40.3,40.3,0,0,1,17.7,54.69h0A32.62,32.62,0,0,1,991,372.16Z"/><path class="cls-4" d="M1008.14,163.2H753.31c-22.66,9-42.77-29.87-35.31-114.08V43.65h327C1053.65,123,1032.6,169.65,1008.14,163.2Z"/></g></svg>
