<svg xmlns="http://www.w3.org/2000/svg" width="150" height="490" viewBox="0 0 150 490"><defs><style>.cls-1{fill:#fbb03b;}.cls-2{fill:#5a3a2f;}.cls-3{fill:#42210b;}.cls-4{fill:#999;}.cls-5{fill:#ccc;}.cls-6{fill:#2f3a35;}</style></defs><title>fork</title><g id="Lag_1" data-name="Lag 1"><polygon class="cls-1" points="133.74 275.76 111.3 290.22 80.94 285.21 80.94 274.65 108.66 280.77 128.46 269.09 133.74 275.76"/><path class="cls-1" d="M143,275.76h-9.24l-5.28-6.67,1.32-7.78c-.35-1.23,2.26-2.18,2.64-.56l.45,7.54,8.25-4c2.19-1.83,3.08-.36,1,1.07l-6.51,6.29,8,2.53C145.92,274.61,145.26,276.16,143,275.76Z"/><polygon class="cls-1" points="16.26 275.76 38.7 290.22 69.06 285.21 69.06 274.65 41.34 280.77 21.54 269.09 16.26 275.76"/><path class="cls-1" d="M7,275.76h9.24l5.28-6.67-1.32-7.78c.35-1.23-2.26-2.18-2.64-.56l-.45,7.54-8.25-4c-2.19-1.83-3.08-.36-1,1.07l6.51,6.29-8,2.53C4.08,274.61,4.74,276.16,7,275.76Z"/><path class="cls-1" d="M59.43,472H47.56l-3.51-21.95a7.27,7.27,0,0,1,.18-2.08l8.08-36H63l-9.5,38Z"/><path class="cls-2" d="M34.93,488h27.4a2.26,2.26,0,0,0,2.42-2V472.78h-19V474c0,1.24-1.49,2.07-2.85,1.6l-7.14-2.51a.62.62,0,0,0-.86.49Z"/><path class="cls-2" d="M25,480.39c0,4.2,4.24,7.61,9.48,7.61s9.11-3.42,9.49-7.61c.22-2.4-.09-4.48-4.46-6a30.54,30.54,0,0,0-5-1.62A8.19,8.19,0,0,0,25,480.39Z"/><rect class="cls-3" x="43.97" y="470.5" width="22.59" height="3.04" rx="1.52" transform="translate(110.52 944.04) rotate(180)"/><path class="cls-1" d="M86.74,472H98.62l3.5-21.95A7.64,7.64,0,0,0,102,448l-8.08-36H83.18l9.5,38Z"/><path class="cls-2" d="M111.24,488H83.85a2.26,2.26,0,0,1-2.43-2V472.78h19V474a2,2,0,0,0,2.84,1.6l7.14-2.51a.62.62,0,0,1,.86.49Z"/><path class="cls-2" d="M121.18,480.39c0,4.2-4.25,7.61-9.49,7.61s-9.11-3.42-9.49-7.61c-.21-2.4.1-4.48,4.46-6a30.54,30.54,0,0,1,5-1.62A8.2,8.2,0,0,1,121.18,480.39Z"/><rect class="cls-3" x="79.62" y="470.5" width="22.59" height="3.04" rx="1.52"/><path class="cls-4" d="M44,124c-1.48-3.94-4.69-22.9-4.7-27,0-12,0-37.43,0-42.12a11.09,11.09,0,0,1,.1-1.52C40.21,47,46.17,3.44,46.17,3.44A1.85,1.85,0,0,1,48.09,2h0a1.88,1.88,0,0,1,2,1.55l5.68,62.09c0,.17.29.17.32,0L65.15,3.51a1.94,1.94,0,0,1,2-1.51h0a1.83,1.83,0,0,1,1.92,1.48C69,3.38,73,50.8,76.05,65c.12.52,7-61.52,7-61.52A1.83,1.83,0,0,1,84.94,2h0A1.83,1.83,0,0,1,86.9,3.48C87,3.28,92.23,52.3,93.43,66c.19,2.16,5.08-62.47,5.08-62.47A1.81,1.81,0,0,1,100.43,2h0a1.84,1.84,0,0,1,1.92,1.46S108.11,53,108.11,53v47.41c0,1.78-1.24,13.17-2.3,21-.63,4.69-9.57,23.51-9.57,23.51L87.93,259c-3,.76-.15-1.06,0,0,2.23,15.66,18,144.44,18,144.44,1.19,16-13.91,29.56-33,29.56h0c-18.2,0-32.57-13-31.24-28.31L65.05,260.94a15.36,15.36,0,0,0,.14-3.89c-1.31-14.12-9.36-100.54-10.4-111.63"/><path class="cls-5" d="M41.62,124c-1.48-3.94-4.68-22.9-4.69-27,0-12-.06-37.43-.06-42.12a11.09,11.09,0,0,1,.1-1.52C37.83,47,43.8,3.44,43.8,3.44A1.83,1.83,0,0,1,45.71,2h0a1.9,1.9,0,0,1,2,1.55L53.49,84c0,.16,9.28-80.49,9.28-80.49A2,2,0,0,1,64.8,2h0a1.82,1.82,0,0,1,1.91,1.48c-.12-.1,5.11,64.32,8.16,78.52.11.52,5.77-78.52,5.77-78.52A1.84,1.84,0,0,1,82.56,2h0a1.83,1.83,0,0,1,1.92,1.48c.08-.2,5.77,65.82,7,79.52.19,2.16,4.64-79.47,4.64-79.47A1.82,1.82,0,0,1,98.06,2h0A1.82,1.82,0,0,1,100,3.46S105.74,53,105.74,53v47.41c0,1.78-1.24,13.17-2.3,21-.64,4.69-9.57,23.51-9.57,23.51L85.55,259c-3,.76-.15-1.06,0,0,2.24,15.66,18,144.44,18,144.44,1.2,16-13.9,29.56-33,29.56h0c-18.2,0-32.57-13-31.25-28.31L62.68,260.94a15.36,15.36,0,0,0,.13-3.89c-1.31-14.12-9.36-100.54-10.39-111.63"/><path class="cls-6" d="M88.33,117c12,1.54,16.38.59,27-1,16.89-2.58,19.07-15.62,23.75-25C145.3,78.34,69.49,114.54,88.33,117Z"/><path class="cls-6" d="M59.23,117c-12,1.54-16.38.59-27-1-16.9-2.58-19.07-15.62-23.76-25C2.25,78.34,78.06,114.54,59.23,117Z"/><path class="cls-6" d="M104.25,242.63c0,5.33-13.11,0-29.75,0S44,248,44,242.63,57.48,233,74.12,233,104.25,237.31,104.25,242.63Z"/></g></svg>
