<svg xmlns="http://www.w3.org/2000/svg" width="560" height="410" viewBox="0 0 560 410"><defs><style>.cls-1{fill:#6ba460;stroke:#003442;stroke-miterlimit:10;stroke-width:4px;opacity:0.8;}.cls-2{fill:#131311;}.cls-3{fill:#b1d5a2;}</style></defs><title>gameover</title><g id="Lag_1" data-name="Lag 1"><rect class="cls-1" x="4.02" y="2.35" width="551.95" height="405.29" rx="60.85"/><path class="cls-2" d="M163,158.82c-1.74,6.4-7.1,10.5-16.45,15.49-8.53,4.51-18.29,9.15-29.88,13.88-14.87,6.21-27.08,7.48-33.21-2.57-4.59-7.53-4.33-20.94,2.62-38.9,7-18.13,18.35-35.45,30-50.89,15-19.57,26-28.94,38.1-29a10.39,10.39,0,0,1,4.3,1.57c5.34,3,9.08,10,10.89,20.72,1.76,10.08,1.5,19.42-.94,27.84-4.38,15.05-9.4,21.48-15.46,22-3.45.23-4.75-.93-3.86-3.6.14-.47,1.53-2.2,4.12-5.25s4.16-5.5,4.74-7.34a78,78,0,0,0,3.51-26.84C161,84,157.41,78,151,78c-6.59,0-13.54,5.06-22.19,15.25a171.35,171.35,0,0,0-18.87,27.27c-5.62,10.1-9.93,18.8-12.58,26-5.13,13.71-6.38,23-5.21,28.24,1.68,8.3,8.59,11.06,18.81,9.56a45.52,45.52,0,0,0,8-1.71,108.08,108.08,0,0,0,17-7.36c5.49-2.92,9.88-5.79,13.29-9.13,3.23-3.11,5.08-5.31,5.4-6.47.5-1.81-1.39-2.53-5.74-2-8.83,1.16-16.15,3.11-21.94,5.91s-8.53,4.29-8.27,4.23c-4.23.84-5.81-1.36-4.1-7.21.4-1.32,1.57-2.57,3.51-3.69s6.89-2.75,14.83-4.7a127.33,127.33,0,0,1,15.26-3.14c5-.49,8.92.37,11.8,2.26S163.86,155.78,163,158.82Z"/><path class="cls-2" d="M265.54,149.22c-.11,1.9-1.77,2.64-5,2.73a26.57,26.57,0,0,1-4-.21c-.26,2.65,1.12,4.77,4.29,5.36a8.07,8.07,0,0,1-2.55.32c-1.55.09-3.25.16-5.11.27l-5.35.29c-1,0-1.47-.16-1.31-.95,0-.22.18-.62.45-1.48s.23-1.61.29-2a2.07,2.07,0,0,0-.35-1.8c-1.15,0-2.79.08-4.94.28s-3.66.33-4.57.37c-5.54.28-14.29,1.05-26.34,2.71-13.76,1.93-21.84,3.77-24.12,4.81-1.25.48-3.1,2.93-5,5.57-1.49,2.09-2.12,2.82-2.23,3.12-.65.24-1.55.5-2.72.81a53.53,53.53,0,0,1-5.68,1.24c-2.09.32-3.12.28-3.09-.07,0-.17.56-.69,1.73-1.67A16.82,16.82,0,0,0,172,167c3.2-5.21,10.15-14.66,19.4-28.29,26.2-40.42,38.12-70.39,45.62-69,8-.3,13.25,13.68,16.27,38,1.12,8,1.9,25.22,3.28,39.07a25.41,25.41,0,0,0,5.63,1C264.46,148,265.58,148.49,265.54,149.22Zm-18.27-2.42c-1.71-12.73-2.2-26.43-2.63-30.31-1.87-19.77-4.56-31.67-8.54-31.28-4.45.13-10.8,10.87-21.11,29.35a251.05,251.05,0,0,1-18.76,30.65,50.94,50.94,0,0,0-3.67,5.06c-1,1.94-.31,2.71,2,2.51.77-.06,4.77-.77,11.95-2C212.11,149.84,225.77,148.19,247.27,146.8Z"/><path class="cls-2" d="M369.47,71.45a5.14,5.14,0,0,1-.6,3.43c-.61,1.08-1.14,2.12-1.6,3.13s-.42,3.06.15,6.14a59.08,59.08,0,0,1,1.27,6.59,478.45,478.45,0,0,0,11.44,65.68c1.81,7,2.12,8.44,2.13,8.45,1.26,3.25,3.2,4.21,6.62,5.35,0,.12,0,.23,0,.32a12.54,12.54,0,0,1-3.33-.6c-8.25-2.52-12.86-2.77-15.83-8.46a23.79,23.79,0,0,1-2.34-8.68c-1.26-11.78-4.2-30.52-6.8-51.29-.72,17.35-1.64,33.2-3.78,44.33-4.68,17.14-13.72,14.37-22.13,14a85.42,85.42,0,0,1-12.13-2,20.26,20.26,0,0,1-8-3.54c-4.48-3.58-9.32-10.53-14.08-24.77-3.65-11.34-7.06-25.1-10.16-39.56-.31,1-.61,2-.92,2.92-1.61,24.13-2.4,37.73-1.89,44.65.81,10.07,1.66,17,2.44,19,.3.6,1.91.55,4.84.67.16,0-3-.29-9.56-.37-6-.55-9,2.63-8.83-5.52.07-3.83.73-11.5,1.82-27.54s1.53-31.28,1.56-41a19.86,19.86,0,0,0-.46-5,13.11,13.11,0,0,1-.46-2.19q.06-7.8,12.46-7.85c1.55,0,3.43,1.4,5.71,4.19.43,4.13,1.1,10.31,2.07,18.27a175,175,0,0,0,13,44.51c9,19.28,16.1,21.14,20.9,22.06,6.05.06,12.42-1,15.85-18.48,2.06-11.38,2.46-26,2.19-41.43.62-4.92,1.22-12.08,2-21.48.43-6,3.63-9.07,9.51-9.09a8,8,0,0,1,4.24,1.39A5.38,5.38,0,0,1,369.47,71.45Z"/><path class="cls-2" d="M487.54,198.69c-.7,1.1-1.51,1.43-2.38,1.05a18.82,18.82,0,0,1-2.14-1.2,16.88,16.88,0,0,0-2.14-1.17c-5.4-2.28-13.3-3.8-23.76-5.67a134.66,134.66,0,0,1-23.9-6.58c-18-8.14-25.63-11-31.86-32.07-5.1-17.48-10.93-38.5-14.15-55.93-.42-2.12-.83-4.24-1.23-6.38a34.25,34.25,0,0,0-1.37-4.11,27.37,27.37,0,0,1-1.19-3.53c-.7-3.22.68-5,4.07-5.46,3.79-.55,11.06-2.66,21.56-6.34C418.6,68,425.52,66.38,430,66.36a10,10,0,0,1,2.28.39,8.23,8.23,0,0,1,5.31,1.8,8.6,8.6,0,0,1,3.59,4.26c.85,2.72-1.38,4.1-6.77,4.11-4.86,0-11.64,1.13-20.49,3.32C404,82.85,398,85.48,396.07,88.17c1.68,10.1,5.46,26.59,10.21,45.63a3.54,3.54,0,0,0,2.28,1c3.65.21,8.74-.56,15.09-2.5s11.28-2.93,15-2.72a25.3,25.3,0,0,1,10.05,3.08l3.72,6c.44.54-.82,1.34-3.81,2.33a15.55,15.55,0,0,0-7.36-2.44c-3.08-.23-8.46.5-16.32,2s-13.24,2.65-15.95,3.7c.21,2.29,1.73,7.86,3.75,15,3.67,13.1,8.35,17.13,18.37,20.66a97.65,97.65,0,0,0,20.36,3.68c8.78.68,15.47,1.4,20.21,3C479.85,189.18,485.36,193.22,487.54,198.69Z"/><path d="M192.73,280.49q0,23.4-10,39.65Q171.52,338.5,152,338.5a33.5,33.5,0,0,1-11.88-2.43q-14.15-5.2-20.22-18-5.24-11.05-5.23-29.58,0-24,10-42.41,11.6-21.61,31.39-21.61,17.4,0,27.72,18.69Q192.73,259.2,192.73,280.49ZM179.15,279q0-33.79-19-40.46a14.25,14.25,0,0,0-4.52-.65q-7.92,0-15.84,8.12-12.59,13.17-12.59,47a46.45,46.45,0,0,0,1.13,8.62q2.42,12.51,7.22,18,5.51,6.51,16.12,6.5,14.42,0,21.78-16.08Q179.16,297.4,179.15,279Z"/><path d="M272.35,233q0,13.32-3.68,35.75-2.69,15.76-10,38.68-9.76,29.89-16.83,29.9t-11-2.44q-8.62-5.37-15-41.93-3.54-24.69-7.21-49.4a42.06,42.06,0,0,0-1.27-5,16.75,16.75,0,0,1-1.35-1.79,4.4,4.4,0,0,1-.63-2.44c0-2.17,1.17-4.12,3.53-5.85a10.11,10.11,0,0,1,6.22-2.44,8.6,8.6,0,0,1,6.37,3,10,10,0,0,1,2.83,7.07q0,2.93-.36,8.94t-.35,8.93q0,13.33,3.53,32,6.51,34.78,10.61,34.78c1.79,0,3.54-1.68,5.23-5q6.65-12.83,12-39,5.24-25,5.24-41.27a7.25,7.25,0,0,0-2.05-5.61c-1.37-1.24-2.06-2-2.06-2.19q0-1.78,3.54-4.71c2.36-2,4.1-2.93,5.23-2.93,2,0,3.73,1.54,5.23,4.63A19.39,19.39,0,0,1,272.35,233Z"/><path d="M350,323.32a11.16,11.16,0,0,1-1,4.82q-1.28,2.73-3.4,2.73a8,8,0,0,1-1.62-.25,8,8,0,0,0-1.63-.24q-6.09,0-17.61,4.22t-17.6,4.23q-22.77,0-22.77-39.65,0-31.2,1.41-49.4c.09-1.63.14-2.49.14-2.6a27.78,27.78,0,0,0-.28-3.33,27.74,27.74,0,0,1-.28-3.17q0-7.47,7.07-8.78,10.89-2.27,21.78-4.71,14.28-3.09,21.35-3.09a15.39,15.39,0,0,1,7.21,1.63Q347,228,347,232.07c0,4-2.32,6-6.93,6a20.12,20.12,0,0,1-2.62-.25,21.57,21.57,0,0,0-2.62-.24q-11.44,0-31.25,5.85a12.4,12.4,0,0,0-2.12.49c-.66.22-1.13,1-1.41,2.44q-1.56,7.8-1.56,30.55,0,3.4,2.69,3.41,3.68,0,10.6-2.11t10.61-2.12q4.09,0,9.47,2.93a37.56,37.56,0,0,1,1.42,6.34c0,2.7-.71,4.17-2.12,4.38s-2.93.44-4.53.65a5.25,5.25,0,0,0-3.11-.81,59.24,59.24,0,0,0-11.88,1.46q-5.81,1.47-11.74,2.77c-.56.1-1.06.21-1.48.32s-.73.76-.92,1.95c-.19,2-.28,3.52-.28,4.71q0,12.52.42,14.95,1.41,9.44,7.78,9.43,5.37,0,15.7-3.74t16.4-3.74Q347.16,317.7,350,323.32Z"/><path d="M441.34,332.65v.82c-1.41,2.38-3.16,3.57-5.23,3.57a4.9,4.9,0,0,1-4.1-2.44q-1.27-5.85-18.74-19t-23.12-13.16H387.6c-1.32.11-2.21.16-2.69.16v6.34a69.38,69.38,0,0,0,.71,8.61c.47,4.33,1,7,1.56,8q2.54,3.9,2.54,4.88a6.28,6.28,0,0,1-2,4.79,6.39,6.39,0,0,1-4.52,1.87,9.5,9.5,0,0,1-8.35-4.39q-2.82-3.9-2.82-32.17a11.58,11.58,0,0,1-6.23-2.11q-3.68-2.61-3.67-5.53,0-6,9.47-8.61.57-5,1-13.81.28-9.92.71-13.82.84-5.19,2.12-15.6h-1.13q-5.65.17-5.66-5.68,0-5,3.4-6.34l4.8-1.63a22,22,0,0,1,4.46-3.82,11.28,11.28,0,0,1,5.16-.89,2.28,2.28,0,0,1,2.55,2.6c0,.54,1.17.81,3.53.81q16.54,0,28.14,7.64Q435,243,435,260.5q0,13.5-7.36,22.26-5,6-17.53,13.49,10,7.32,19.94,14.63Q441.48,320.8,441.34,332.65Zm-19.23-72.8q0-10.4-9.23-15.76a33.3,33.3,0,0,0-17.32-4.39c-.85,0-2.88.17-6.1.49q.14,5.85-2.7,20.15-1.56,8.61-2.13,25.19,8.24,3.25,10.22,3.25a16.64,16.64,0,0,0,5-1.14,35.89,35.89,0,0,0,15.33-9.91A25.69,25.69,0,0,0,422.11,259.85Z"/><path class="cls-3" d="M25.16,357s25.89,28.46,66.72,35.6"/></g></svg>
