<svg xmlns="http://www.w3.org/2000/svg" width="560" height="410" viewBox="0 0 560 410"><defs><style>.cls-1{fill:#6ba460;stroke:#003442;stroke-miterlimit:10;stroke-width:4px;opacity:0.8;}.cls-2{fill:#131311;}</style></defs><title>gameover</title><g id="Lag_1" data-name="Lag 1"><rect class="cls-1" x="4.02" y="2.35" width="551.95" height="405.29" rx="60.85"/><path class="cls-2" d="M174.73,171.73q0,16.4-12.18,26.2-11.15,9-27.15,9-20.9,0-30.46-20.6-7.31-15.79-7.31-42.2a131,131,0,0,1,9.05-49.2q11.66-28.61,31.85-28.6a15.38,15.38,0,0,1,5.22,1.6q10.09,4.6,17.41,20.8,7,15.19,7,28.8,0,24.41-8.53,24.4-4.87,0-4.87-4.6c0-.53.78-2.47,2.35-5.8s2.35-6,2.35-8a85.88,85.88,0,0,0-4.72-28q-6.12-18-16.76-18-10.84,0-18.87,15a81.63,81.63,0,0,0-8.47,26.7,182.66,182.66,0,0,0-2.18,25.9q0,21,3.13,31,4.71,15.6,18.8,20.4a23.13,23.13,0,0,0,7.31,1.6,27.45,27.45,0,0,0,15.14-4.6,29.13,29.13,0,0,0,10.79-12.4q3.48-7.2,3.49-10c0-2.93-2-4.4-5.92-4.4q-12,0-19.15,3.9t-6.79,3.9q-5.75,0-5.74-10.6a4.75,4.75,0,0,1,2.26-4q2.26-1.6,12.71-3.6,9.92-2,13.58-2a16.25,16.25,0,0,1,11.83,4.8Q174.74,163.93,174.73,171.73Z"/><path class="cls-2" d="M267,166.93q0,6.4-4.35,6.4a9.49,9.49,0,0,1-3.65-.8q0,10.2,4.35,22.8a5.67,5.67,0,0,1-2.18,4.2,6.91,6.91,0,0,1-4.44,1.6,10.2,10.2,0,0,1-4.7-1.4c-.93-2.13-1.39-5.47-1.39-10q0-1.8.18-6.6v-6.6a14.1,14.1,0,0,0-.53-4.8,17.94,17.94,0,0,0-4.44.2,33.23,33.23,0,0,1-4.09.4q-7.49,0-23.49,2.4-18.28,2.81-21.06,5.6-1.58,1.39-3.31,14.4c-.93,7.07-1.45,12.26-1.57,15.6a2.73,2.73,0,0,1-2.43,1.4c-1.51,0-3.2-.87-5-2.6s-2.79-3.4-2.79-5a23.92,23.92,0,0,1,1.4-5.4,54.11,54.11,0,0,0,1.56-5.2,298.89,298.89,0,0,1,11.32-49q23-75,35.5-75,13.41,0,20.72,39.2,2.61,13.8,6.09,52.8,1,1,5.22,2.2Q267,164.52,267,166.93Zm-16.88-5.8q-4.35-35.2-5.57-42.6-5.75-33.6-12.18-33.4-7.14.41-17.93,30.8-6.09,19.2-12,38.4a56.71,56.71,0,0,0-2.26,7.8q-.71,4.8,2.43,4.8,1,0,10.62-2Q220.69,163.33,250.1,161.13Z"/><path class="cls-2" d="M379.42,71.73a5.3,5.3,0,0,1-1.3,3.4c-.88,1.07-1.66,2.1-2.35,3.1s-1,3-1,6.1a47.18,47.18,0,0,1,0,6.6,793.92,793.92,0,0,0-4.35,80v19q.69,14.2,5.22,16v2a3,3,0,0,1-3,2.2q-11,0-13.05-24.6a114.68,114.68,0,0,1-.17-19l4.52-64.6q-6.42,27-12.85,54-11.81,42.4-23.09,42.4-5,0-10.42-7.4a41.11,41.11,0,0,1-6.6-12.4q-5.39-15.79-11.12-43.8-4.34-22.39-8.85-44.6l-1,3q-3.31,37-2.79,53l1.74,45.8c.23,4.8,1.63,7.4,4.18,7.8q.17,5.4-8.35,5.4-7.85,0-7.84-33,0-15,1.4-44.7t1.39-44.7a19.13,19.13,0,0,0-.52-5,12.48,12.48,0,0,1-.53-2.2q0-7.8,13.93-7.8,2.61,0,6.26,4.2.53,6.19,1.57,18.4,1.92,17.6,10.27,51.2,10.09,41.21,16.53,41.2,8.19,0,17.93-37.6,6.09-24.19,9.75-48,2.26-7.6,5.74-21.6,2.1-9,12-9a8.59,8.59,0,0,1,4.53,1.4A4.3,4.3,0,0,1,379.42,71.73Z"/><path class="cls-2" d="M465.05,196.33c-.58,1.47-1.27,2.2-2.08,2.2a9.7,9.7,0,0,1-2-.3,9.63,9.63,0,0,0-2-.3q-7.48,0-21.67,5.4t-21.67,5.4q-24.54,0-24.54-47.34,0-37.54,1.74-64.1l.35-6.4a26,26,0,0,0-.43-4.09,22.79,22.79,0,0,1-.44-3.49q0-4.8,5.74-5.4,6.45-.8,25.42-6.19,17.22-4.78,24.71-4.79a10.49,10.49,0,0,1,2.44.4,7.83,7.83,0,0,1,5.39,1.8c1.74,1.33,2.62,2.73,2.62,4.2q0,4-8.88,4-8,0-23.5,3.2-17.4,3.8-21.58,7.8-1.4,15.19-3.31,47.6a2.2,2.2,0,0,0,1.92,1q5.22,0,15.49-3.8t15.66-3.8a16.86,16.86,0,0,1,8.7,2.6l1.4,6c.23.53-1.28,1.47-4.53,2.8a9.55,9.55,0,0,0-6.26-2q-4.37,0-16.45,3.6t-16.45,6q-.7,4.39-.7,20.4,0,30.2,13.41,30.2,6.43,0,18.53-4.9t18.54-4.9Q461.74,189.13,465.05,196.33Z"/><path d="M190.74,267.72q0,28.15-11,48.93Q166.9,341,144.1,341a37.73,37.73,0,0,1-13.4-3q-29.07-10.59-29.07-59.92,0-28.76,11.14-51.72,13.23-27.57,36.38-27.56,20.19,0,31.85,23.76Q190.74,242.35,190.74,267.72Zm-9.74-1.8q0-44.33-25.7-54.31a12.69,12.69,0,0,0-4.86-1.19q-11.12,0-21.88,11.78-18.23,20-18.23,61.69a79.79,79.79,0,0,0,1.39,12q3,17.17,9.72,25.56,8,9.58,22.4,9.58,19.8,0,29.52-22.56Q181,291.08,181,265.92Z"/><path d="M278,206.22q0,15.39-4.53,46a413.53,413.53,0,0,1-10.79,48q-10.44,37.59-18.8,37.6-7.49,0-11.83-2.6-8.72-5.4-16.37-49.8-1.74-10-8-58a151.55,151.55,0,0,0-3.31-15.8,5.09,5.09,0,0,0-1-1.4,3.65,3.65,0,0,1-1-2.21q0-2.38,3.13-4.5a10.31,10.31,0,0,1,5.4-2.09,7.18,7.18,0,0,1,5.39,2.7,8.88,8.88,0,0,1,2.44,6.1q0,4-.44,11.7t-.43,11.7q0,10.59,5.74,41.39,9,49.41,15.14,49.41,4,0,9.23-11,8.36-17,15.32-50.6,6.6-32.4,6.61-53.4,0-7.6-3.31-10.2,3.48-5.81,5.57-5.8c1.86,0,3.31,1.66,4.35,5A24.87,24.87,0,0,1,278,206.22Z"/><path d="M362.71,327c-.58,1.47-1.28,2.21-2.09,2.21a9.72,9.72,0,0,1-2-.3,9.72,9.72,0,0,0-2-.3q-7.49,0-21.67,5.39t-21.67,5.41q-24.54,0-24.54-47.34,0-37.54,1.74-64.11l.35-6.39a24.88,24.88,0,0,0-.44-4.09A23.83,23.83,0,0,1,290,214q0-4.78,5.74-5.39,6.44-.79,25.41-6.19,17.24-4.78,24.72-4.79a10.77,10.77,0,0,1,2.43.39,7.8,7.8,0,0,1,5.4,1.81q2.61,2,2.61,4.19,0,4-8.88,4-8,0-23.49,3.21Q306.49,215,302.31,219q-1.4,15.21-3.3,47.61a2.21,2.21,0,0,0,1.91,1q5.22,0,15.49-3.8T332.08,260a16.79,16.79,0,0,1,8.7,2.61l1.39,6q.34.79-4.52,2.8a9.54,9.54,0,0,0-6.27-2q-4.35,0-16.45,3.59t-16.45,6q-.69,4.41-.69,20.41,0,30.19,13.4,30.2,6.44,0,18.54-4.9t18.53-4.9Q359.41,319.82,362.71,327Z"/><path d="M459,334.42v1a3.25,3.25,0,0,1-3,2c-1.63,0-2.67-.34-3.14-1q-1.39-8.21-23.56-26.1t-30-17.9h-9.94v12.4q0,2.6,1.25,12,1.08,10,1.79,11c2,3.6,3.05,5.26,3.05,5,0,3.06-1.51,4.6-4.53,4.6a8.48,8.48,0,0,1-7.65-4.2q-2.61-4.2-2.61-39.21c0-1.86-2-3.53-6.1-5s-6.09-3.19-6.09-5.19q0-4.41,11.14-8a147.32,147.32,0,0,0,1.57-19.2q.69-15,1-19.4.18-2.21,1.57-12a63.56,63.56,0,0,0,1-12.21c-.58-.39-2.12-.59-4.61-.59s-3.74-1.14-3.74-3.41c0-2.79,1.16-4.53,3.48-5.19,1.62-.54,3.31-1.07,5.05-1.6a13.36,13.36,0,0,1,2.26-4.4,7.89,7.89,0,0,1,2.78-.6q1.92,0,3.92,2.2c1.33,1.46,2.52,2.2,3.57,2.2a14.81,14.81,0,0,0,2.43-.3,14.19,14.19,0,0,1,2.44-.31q19.32,0,32.55,9.21,16.19,10.8,16.19,31.6,0,17.19-8.88,28-5.56,7-21.58,17a7.9,7.9,0,0,0-2.44,1q3.48,3.8,15.67,13t17.4,15Q459.31,325,459,334.42ZM442.08,241q0-15.19-12-23.39-9.89-6.81-23.94-6.8a35.77,35.77,0,0,0-8.33.8l-2.26,4q-2.43,4.59-2.77,12.2-.36,11-.69,13Q390,252.22,389.34,277q12.82,5.61,16,5.61a22.72,22.72,0,0,0,6.94-1.61,43.78,43.78,0,0,0,20.82-14.59A38.93,38.93,0,0,0,442.08,241Z"/></g></svg>
