<svg xmlns="http://www.w3.org/2000/svg" width="567.29" height="416.99" viewBox="0 0 567.29 416.99"><defs><style>.cls-1{fill:#233f22;}.cls-1,.cls-2{opacity:0.8;}.cls-2{fill:#6ba460;stroke:#003442;stroke-miterlimit:10;stroke-width:4px;}.cls-3{fill:#131311;}.cls-4{fill:#b1d5a2;}</style></defs><title>gameover</title><g id="Lag_1" data-name="Lag 1"><rect class="cls-1" x="1.29" y="2.36" width="566" height="414.63" rx="60.85"/><rect class="cls-2" x="2" y="2" width="551.95" height="405.29" rx="60.85"/><path class="cls-3" d="M161,158.46c-1.75,6.41-7.11,10.51-16.45,15.5-8.53,4.5-18.29,9.15-29.88,13.87-14.87,6.22-27.08,7.48-33.21-2.56-4.59-7.53-4.34-21,2.61-38.91,7-18.12,18.36-35.45,30-50.88,15-19.58,26-28.95,38.1-29A10.48,10.48,0,0,1,156.52,68c5.34,3,9.08,10,10.89,20.72,1.76,10.08,1.49,19.42-.94,27.83-4.38,15.06-9.4,21.49-15.46,22-3.45.24-4.75-.92-3.87-3.6.15-.46,1.54-2.19,4.13-5.24s4.15-5.51,4.73-7.35a77.67,77.67,0,0,0,3.52-26.83c-.5-11.9-4.13-18-10.56-17.91-6.59,0-13.54,5.06-22.19,15.25a170.15,170.15,0,0,0-18.87,27.26c-5.63,10.11-9.93,18.8-12.58,26-5.13,13.7-6.38,23-5.21,28.24,1.68,8.3,8.58,11,18.81,9.55a45.83,45.83,0,0,0,8-1.7,109.33,109.33,0,0,0,17-7.36c5.5-2.93,9.89-5.79,13.29-9.14,3.23-3.11,5.09-5.31,5.41-6.46.5-1.81-1.39-2.54-5.74-2-8.83,1.15-16.16,3.11-21.94,5.9s-8.53,4.3-8.27,4.24c-4.24.83-5.81-1.36-4.1-7.21.39-1.33,1.57-2.57,3.5-3.69s6.9-2.76,14.83-4.7a124.92,124.92,0,0,1,15.27-3.14c5-.5,8.92.36,11.8,2.26S161.84,155.42,161,158.46Z"/><path class="cls-3" d="M263.51,148.86c-.1,1.9-1.77,2.65-5,2.74a28.14,28.14,0,0,1-4-.21c-.25,2.64,1.12,4.76,4.3,5.35a8.1,8.1,0,0,1-2.56.32l-5.1.27c-1.6.09-3.38.2-5.36.3-1,0-1.46-.16-1.3-1,0-.21.18-.62.44-1.47s.24-1.62.29-2a2,2,0,0,0-.34-1.79c-1.15,0-2.8.08-4.94.28s-3.67.32-4.57.37c-5.55.28-14.3,1.05-26.35,2.71-13.76,1.92-21.83,3.76-24.11,4.81-1.25.48-3.11,2.92-5,5.56-1.48,2.09-2.11,2.82-2.23,3.13-.64.23-1.55.5-2.72.81-1.69.44-3.59.91-5.68,1.24s-3.12.27-3.09-.07c0-.17.57-.69,1.74-1.68a17.13,17.13,0,0,0,2.06-1.91c3.2-5.22,10.14-14.67,19.4-28.29,26.2-40.42,38.11-70.39,45.62-69,8-.29,13.25,13.69,16.27,38,1.12,8,1.9,25.21,3.27,39.07a25.78,25.78,0,0,0,5.63,1C262.43,147.64,263.56,148.14,263.51,148.86Zm-18.27-2.42c-1.71-12.73-2.19-26.43-2.62-30.3-1.87-19.77-4.57-31.67-8.54-31.29-4.46.13-10.8,10.88-21.11,29.35a249.22,249.22,0,0,1-18.77,30.66,50.19,50.19,0,0,0-3.67,5.06c-1,1.94-.31,2.71,2,2.51.76-.06,4.76-.78,11.94-2C210.08,149.48,223.75,147.84,245.24,146.44Z"/><path class="cls-3" d="M367.45,71.09a5.08,5.08,0,0,1-.61,3.43c-.6,1.08-1.13,2.13-1.59,3.13s-.42,3.06.15,6.14a65.46,65.46,0,0,1,1.27,6.6,478.25,478.25,0,0,0,11.44,65.67c1.81,7,2.12,8.44,2.12,8.45,1.26,3.25,3.21,4.22,6.63,5.36,0,.11,0,.22,0,.32a12.91,12.91,0,0,1-3.33-.6c-8.26-2.52-12.87-2.78-15.83-8.46a23.78,23.78,0,0,1-2.35-8.68c-1.25-11.78-4.19-30.52-6.79-51.3-.72,17.35-1.65,33.2-3.78,44.34-4.69,17.13-13.72,14.36-22.13,14a85.42,85.42,0,0,1-12.13-2,20.53,20.53,0,0,1-8-3.53c-4.47-3.58-9.31-10.54-14.08-24.77-3.64-11.34-7.06-25.11-10.16-39.57-.3,1-.61,2-.91,2.93-1.62,24.12-2.41,37.72-1.9,44.64.82,10.08,1.67,17,2.45,19,.3.59,1.91.55,4.84.67.16,0-3-.3-9.57-.37-6-.55-9,2.63-8.82-5.53.06-3.82.73-11.5,1.82-27.53s1.53-31.29,1.56-41.05a20.3,20.3,0,0,0-.46-5,12.28,12.28,0,0,1-.46-2.2q0-7.79,12.45-7.84c1.56,0,3.44,1.39,5.71,4.19.44,4.13,1.1,10.3,2.08,18.26a174.94,174.94,0,0,0,13,44.52c9,19.28,16.1,21.14,20.9,22.05,6.06.06,12.43-1,15.86-18.48,2.06-11.37,2.45-26,2.19-41.42.61-4.93,1.22-12.08,2-21.49.43-6,3.64-9.07,9.52-9.09a8,8,0,0,1,4.23,1.39A5.43,5.43,0,0,1,367.45,71.09Z"/><path class="cls-3" d="M485.52,198.34c-.7,1.09-1.51,1.42-2.38,1a18.4,18.4,0,0,1-2.14-1.19,16.6,16.6,0,0,0-2.15-1.18c-5.4-2.28-13.29-3.79-23.76-5.66a134.62,134.62,0,0,1-23.89-6.59c-18-8.13-25.63-11-31.86-32.07-5.11-17.47-10.93-38.5-14.15-55.93-.42-2.11-.84-4.24-1.24-6.37a31.53,31.53,0,0,0-1.37-4.12,28.53,28.53,0,0,1-1.19-3.52c-.7-3.22.69-5,4.08-5.46,3.79-.55,11-2.66,21.56-6.35C416.58,67.67,423.5,66,428,66a9.54,9.54,0,0,1,2.27.4,8.14,8.14,0,0,1,5.31,1.8,8.56,8.56,0,0,1,3.6,4.25c.84,2.73-1.38,4.11-6.78,4.12-4.86,0-11.64,1.13-20.48,3.32-9.92,2.6-15.92,5.24-17.82,7.93,1.68,10.09,5.46,26.59,10.2,45.62a3.63,3.63,0,0,0,2.29,1c3.65.2,8.74-.56,15.09-2.51s11.28-2.92,15-2.71a25.06,25.06,0,0,1,10,3.08q1.88,3,3.72,6c.44.54-.81,1.34-3.8,2.32a15.51,15.51,0,0,0-7.36-2.43c-3.09-.24-8.46.49-16.33,2s-13.23,2.66-15.94,3.7c.21,2.29,1.73,7.87,3.75,15,3.67,13.11,8.35,17.14,18.36,20.67a97.88,97.88,0,0,0,20.37,3.67c8.78.69,15.47,1.41,20.21,3C477.83,188.83,483.34,192.86,485.52,198.34Z"/><path d="M190.71,280.14q0,23.4-10,39.65Q169.5,338.15,150,338.15a33.22,33.22,0,0,1-11.88-2.44q-14.15-5.19-20.22-18-5.23-11-5.24-29.57,0-24,10-42.41,11.59-21.62,31.4-21.62,17.4,0,27.72,18.69Q190.71,258.86,190.71,280.14Zm-13.58-1.47q0-33.8-18.95-40.46a14.61,14.61,0,0,0-4.53-.65q-7.92,0-15.83,8.13-12.6,13.16-12.59,47a45.42,45.42,0,0,0,1.13,8.61q2.4,12.51,7.21,18,5.52,6.49,16.12,6.5,14.43,0,21.78-16.09Q177.13,297,177.13,278.67Z"/><path d="M270.32,232.69q0,13.32-3.67,35.75-2.7,15.75-10,38.67Q246.84,337,239.78,337t-11-2.44q-8.62-5.35-15-41.92-3.54-24.7-7.22-49.4a40.69,40.69,0,0,0-1.27-5,15.74,15.74,0,0,1-1.34-1.79,4.31,4.31,0,0,1-.64-2.43q0-3.26,3.54-5.85a10,10,0,0,1,6.22-2.44,8.56,8.56,0,0,1,6.36,3,10,10,0,0,1,2.83,7.07q0,2.92-.35,8.94t-.36,8.94q0,13.32,3.54,32,6.51,34.77,10.61,34.78,2.69,0,5.23-5,6.65-12.84,12-39,5.24-25,5.23-41.28,0-3.74-2.05-5.6c-1.37-1.25-2.05-2-2.05-2.2q0-1.78,3.54-4.71c2.35-2,4.1-2.92,5.23-2.92q3,0,5.23,4.63A19.29,19.29,0,0,1,270.32,232.69Z"/><path d="M348,323a11.08,11.08,0,0,1-1,4.81q-1.28,2.73-3.39,2.73a8,8,0,0,1-1.63-.24,7.44,7.44,0,0,0-1.62-.25q-6.09,0-17.61,4.23t-17.61,4.22q-22.77,0-22.77-39.65,0-31.2,1.42-49.4c.09-1.62.14-2.49.14-2.6a27.94,27.94,0,0,0-.28-3.33,28.19,28.19,0,0,1-.29-3.17q0-7.47,7.07-8.77,10.89-2.28,21.78-4.71,14.29-3.09,21.36-3.09a15.39,15.39,0,0,1,7.21,1.62q4.25,2.28,4.24,6.34,0,6-6.93,6a21.45,21.45,0,0,1-2.61-.24,21.57,21.57,0,0,0-2.62-.24q-11.46,0-31.25,5.85a12,12,0,0,0-2.12.48c-.66.22-1.14,1-1.42,2.44q-1.56,7.8-1.55,30.55c0,2.28.89,3.41,2.68,3.41a39.71,39.71,0,0,0,10.61-2.11,39.64,39.64,0,0,1,10.61-2.11q4.1,0,9.47,2.92a38.16,38.16,0,0,1,1.41,6.34c0,2.71-.7,4.17-2.12,4.39s-2.92.43-4.52.65a5.27,5.27,0,0,0-3.11-.81,58.52,58.52,0,0,0-11.88,1.46q-5.81,1.46-11.74,2.76c-.57.11-1.06.22-1.48.33s-.74.75-.92,1.95c-.19,1.95-.29,3.52-.29,4.71q0,12.51.43,14.95,1.41,9.42,7.78,9.42,5.37,0,15.69-3.73t16.41-3.74Q345.14,317.35,348,323Z"/><path d="M439.32,332.3v.81c-1.42,2.38-3.16,3.58-5.24,3.58a4.94,4.94,0,0,1-4.1-2.44q-1.26-5.85-18.73-19t-23.13-13.17h-2.54c-1.32.11-2.22.17-2.69.17v6.33a69.67,69.67,0,0,0,.71,8.62q.7,6.49,1.55,8,2.55,3.9,2.55,4.87a6.32,6.32,0,0,1-2,4.8,6.44,6.44,0,0,1-4.53,1.87,9.52,9.52,0,0,1-8.34-4.39Q370,328.4,370,300.12A11.47,11.47,0,0,1,363.8,298q-3.68-2.6-3.68-5.52,0-6,9.48-8.62c.37-3.35.71-8,1-13.81q.29-9.92.7-13.81.85-5.2,2.13-15.6h-1.14q-5.65.16-5.65-5.69,0-5,3.39-6.34l4.81-1.62a22.34,22.34,0,0,1,4.45-3.82,11.22,11.22,0,0,1,5.17-.89,2.27,2.27,0,0,1,2.54,2.6q0,.81,3.54.81,16.55,0,28.14,7.64Q433,242.59,433,260.15q0,13.49-7.35,22.26-5,6-17.54,13.49,10.05,7.31,19.94,14.62Q439.46,320.44,439.32,332.3Zm-19.24-72.8q0-10.4-9.22-15.76a33.23,33.23,0,0,0-17.32-4.39q-1.28,0-6.11.49.15,5.85-2.69,20.15-1.56,8.61-2.13,25.18,8.24,3.25,10.22,3.25a16.94,16.94,0,0,0,5-1.13,35.94,35.94,0,0,0,15.33-9.92A25.72,25.72,0,0,0,420.08,259.5Z"/><path class="cls-4" d="M33.14,366A56,56,0,0,0,71.75,390.1c1.89.26,2.71-2.63.8-2.89a53.16,53.16,0,0,1-36.82-22.75c-1.08-1.59-3.68-.09-2.59,1.51Z"/></g></svg>
