<svg xmlns="http://www.w3.org/2000/svg" width="150" height="490" viewBox="0 0 150 490"><defs><style>.cls-1{fill:#fbb03b;}.cls-2{fill:#5a3a2f;}.cls-3{fill:#42210b;}.cls-4{fill:#999;}.cls-5{fill:#ccc;}.cls-6{fill:#2f3a35;}</style></defs><title>knife</title><g id="Lag_1" data-name="Lag 1"><polygon class="cls-1" points="135.31 269.76 113.99 284.22 85.15 279.21 85.15 268.65 111.48 274.77 130.29 263.09 135.31 269.76"/><path class="cls-1" d="M144.09,269.76h-8.78l-5-6.67,1.26-7.78c-.33-1.23,2.14-2.18,2.51-.56l.43,7.54,7.83-4c2.07-1.83,2.93-.36,1,1.07l-6.17,6.29,7.6,2.53C146.87,268.61,146.25,270.16,144.09,269.76Z"/><polygon class="cls-1" points="14.69 270.76 36.01 285.22 64.85 280.21 64.85 269.65 38.52 275.77 19.71 264.09 14.69 270.76"/><path class="cls-1" d="M5.91,270.76h8.78l5-6.67-1.26-7.78c.33-1.23-2.14-2.18-2.51-.56l-.43,7.54-7.83-4c-2.07-1.83-2.93-.36-1,1.07l6.17,6.29-7.6,2.53C3.13,269.61,3.75,271.16,5.91,270.76Z"/><path class="cls-1" d="M61.34,473H50.06l-3.33-21.95A7.64,7.64,0,0,1,46.9,449l7.67-36H64.72l-9,38Z"/><path class="cls-2" d="M38.07,489h26a2.18,2.18,0,0,0,2.3-2V473.78h-18V475a1.94,1.94,0,0,1-2.7,1.6l-6.78-2.51a.59.59,0,0,0-.82.49Z"/><path class="cls-2" d="M28.63,481.39c0,4.2,4,7.61,9,7.61s8.65-3.42,9-7.61c.21-2.4-.09-4.48-4.23-6a28.38,28.38,0,0,0-4.78-1.62C32.77,472.87,28.63,477.19,28.63,481.39Z"/><rect class="cls-3" x="46.65" y="471.5" width="21.45" height="3.04" rx="1.52" transform="translate(114.76 946.04) rotate(-180)"/><path class="cls-1" d="M87.28,473H98.56l3.33-21.95a7.64,7.64,0,0,0-.17-2.08l-7.67-36H83.9l9,38Z"/><path class="cls-2" d="M110.55,489h-26a2.18,2.18,0,0,1-2.3-2V473.78h18V475a1.94,1.94,0,0,0,2.7,1.6l6.78-2.51a.59.59,0,0,1,.82.49Z"/><path class="cls-2" d="M120,481.39c0,4.2-4,7.61-9,7.61s-8.65-3.42-9-7.61c-.21-2.4.09-4.48,4.23-6a28.38,28.38,0,0,1,4.78-1.62C115.85,472.87,120,477.19,120,481.39Z"/><rect class="cls-3" x="80.51" y="471.5" width="21.45" height="3.04" rx="1.52"/><path class="cls-4" d="M42.61,102.08a18.16,18.16,0,0,0-.39,9.48C47,132.77,68.5,232.26,68.48,233S44.63,398.67,44.63,398.67a30.06,30.06,0,0,0,30.05,32.19h0a31.69,31.69,0,0,0,31.71-33.61L89.18,232.53a11.73,11.73,0,0,1-.07-1.33L91.32,6.78A5.73,5.73,0,0,0,85.59,1h-5.1a8.28,8.28,0,0,0-7.38,4.57h0Z"/><path class="cls-5" d="M39.11,103.22a18.16,18.16,0,0,0-.39,9.48C43.53,133.91,65,233.4,65,234.13S41.13,399.81,41.13,399.81A30.05,30.05,0,0,0,71.18,432h0a31.69,31.69,0,0,0,31.71-33.62L85.68,233.67a11.85,11.85,0,0,1-.07-1.33L87.82,7.91a5.73,5.73,0,0,0-5.73-5.77H77A8.29,8.29,0,0,0,69.61,6.7h0Z"/><path class="cls-6" d="M74.12,115c11.4,1.54,15.56.59,25.62-1,16.05-2.58,18.12-15.62,22.57-25C128.24,76.34,56.23,112.54,74.12,115Z"/><path class="cls-6" d="M56.58,116.61c-11.39,1.54-15.56.59-25.62-1C14.92,113,12.85,100,8.4,90.54,2.46,78,74.48,114.19,56.58,116.61Z"/><path class="cls-6" d="M102.78,232.63c0,5.33-12.45,0-28.25,0s-29,5.33-29,0S58.36,223,74.17,223,102.78,227.31,102.78,232.63Z"/></g></svg>
