<svg xmlns="http://www.w3.org/2000/svg" width="570" height="410" viewBox="0 0 570 410"><defs><style>.cls-1{fill:#6ba460;stroke:#003442;stroke-miterlimit:10;stroke-width:4px;opacity:0.8;}.cls-2{fill:#131311;}.cls-3{fill:#b1d5a2;}</style></defs><title>levelcompleted</title><g id="Lag_1" data-name="Lag 1"><rect class="cls-1" x="3.31" y="1.6" width="551.95" height="405.29" rx="60.85"/><path d="M121.72,310.58a12.44,12.44,0,0,1-.76,3.91,13.75,13.75,0,0,1-7.13,8.12,17.71,17.71,0,0,1-10.47,1.51c-6.21-.88-11-4.32-14.32-10.25q-4.31-7.75-4.31-18.94a54.87,54.87,0,0,1,2.5-17q2.8-8.83,8.25-13.25,4.32-3.46,8.79-2.82,6.45.92,9.79,7.82a30.34,30.34,0,0,1,1.13,22.38c-1.26,4.26-2.68,6.29-4.24,6.08-1.77-.25-3.12-1.71-4-4.41a22.65,22.65,0,0,0,2.12-1.72c1-1.14,1.51-3.58,1.52-7.31a38.34,38.34,0,0,0-1-9.33c-1-3.93-2.68-6.05-5-6.38q-2.41-.35-5.3,2.81a22.77,22.77,0,0,0-3.71,5.48q-3.72,7.83-3.71,20.32c0,12.1,3.93,18.78,11.82,19.91q5.07.72,8-2.19a31.91,31.91,0,0,0,3.57-5.69q1.59-3.18,3.42-2.94a3.17,3.17,0,0,1,2.12,1.37A4.08,4.08,0,0,1,121.72,310.58Z"/><path d="M170.24,300.59q0,12.6-5.4,20.86c-4,6.22-9.52,9-16.52,8.26a19.06,19.06,0,0,1-6.39-2,21.81,21.81,0,0,1-10.87-11q-2.81-6.3-2.81-16.27,0-12.95,5.4-22.19c4.15-7.27,9.77-10.51,16.88-9.77,6.23.65,11.21,4.47,14.91,11.52A43.37,43.37,0,0,1,170.24,300.59Zm-7.31-1.45c0-12.14-3.4-19.71-10.2-22.79a8.65,8.65,0,0,0-2.43-.6q-4.26-.44-8.52,3.46Q135,285.54,135,303.73a26.42,26.42,0,0,0,.61,4.71q1.29,6.88,3.88,10.15a12,12,0,0,0,8.67,4.45c5.17.55,9.08-2,11.72-7.48Q162.94,309,162.93,299.14Z"/><path d="M224.23,277.09a2.85,2.85,0,0,1-.69,2c-.76.95-1.17,1.46-1.22,1.51a17.68,17.68,0,0,0-.91,4.51,327.14,327.14,0,0,0-1.91,35.18q0,9.8,3.05,11.16v2.37a2.83,2.83,0,0,1-2.82,2.05c-2.59-.12-4.56-2.82-5.88-8.08a45.91,45.91,0,0,1-1.45-11.62q0-13.21.61-22-2.28,10.11-4.64,20.31-4.26,15.68-8.22,15.43-4.49-.28-7.91-9.89-3.19-8.7-7.83-29.09Q184,296.81,184,303q0,12.87.58,18.69a17,17,0,0,0,.85,3.43,12.77,12.77,0,0,1,.78,3.69q0,2.88-4.2,2.57-5-.39-4.95-15.71,0-6.21.61-18.5t.61-18.42a2.64,2.64,0,0,0-.61-1.53,2.66,2.66,0,0,1-.61-1.54c0-3.27,2.54-4.69,7.62-4.3q1.76.14,4.19,2.85c.16,1.82.41,4.58.77,8.28a185.69,185.69,0,0,0,3.58,20.64q3.73,16.62,6.48,16.79c.41,0,.94-.84,1.6-2.61A97.06,97.06,0,0,0,205,302.79q1.38-7.53,2.75-15.07.6-3.54,2.21-10.2a6.12,6.12,0,0,1,6.72-4.63,13.67,13.67,0,0,1,4.42,1.17C223.19,275,224.23,276,224.23,277.09Z"/><path d="M268.06,298.62a21.69,21.69,0,0,1-.23,3.41c-2,13.45-7.56,20.15-16.72,20a20.88,20.88,0,0,1-12.6-4.46v1.84c-.06,3.91.25,6.6.91,8.08a18.52,18.52,0,0,1,1.45,3.54,4.3,4.3,0,0,1-1.18,3,3.46,3.46,0,0,1-2.71,1.23,4.81,4.81,0,0,1-4.66-3,22.18,22.18,0,0,1-.91-6.25q-.16-3-.16-6.83a42.57,42.57,0,0,1,.35-4.45,41.87,41.87,0,0,0,.34-4.53v-6q-.08-2.62.31-7.74t.38-7.55v-7.87c0-.12-.23-1.7-.69-4.75,1.31-1.36,2.55-2,3.71-2a3.93,3.93,0,0,1,3.25,1.81,7.17,7.17,0,0,1,1.21,4.2v1.22q5-7.46,12.75-7.28a13.47,13.47,0,0,1,11.46,6.39q3.74,5.64,3.74,14.21v3.68Zm-6.95-1.48a29.74,29.74,0,0,0-1.6-10.35q-2.22-5.81-6.8-5.89-5.88-.12-10.08,8a30.35,30.35,0,0,0-3.74,14.33c0,8.1,3.56,12.28,10.69,12.45,3.82.09,6.62-1.76,8.4-5.52q1.53-3.12,2.9-11.42C261,297.61,261.11,297.08,261.11,297.14Z"/><path d="M304.34,332.33A43.92,43.92,0,0,1,286.93,336q-7.19,0-10.08-5.74-2.22-4.47-2.22-13.31,0-5.16.69-15.31t.69-15.31q0-1-.12-3.06c-.08-1.4-.11-2.45-.11-3.15a21.2,21.2,0,0,1,.15-2.37,4.53,4.53,0,0,1,3.74-2.09c1.43,0,2.52,1,3.29,3.14a14.84,14.84,0,0,1,.91,5.24q0,6-1,17.68t-1,17.59q0,10.33,5.12,10.3a18.45,18.45,0,0,0,6.56-1.86,19.43,19.43,0,0,1,6.57-1.89,3.52,3.52,0,0,1,3.29,2.13A9.23,9.23,0,0,1,304.34,332.33Z"/><path d="M346,326.51a6.26,6.26,0,0,1-.54,2.62c-.46,1-1.07,1.53-1.83,1.57a4.83,4.83,0,0,1-.88-.08,4.08,4.08,0,0,0-.87-.09c-2.19.11-5.36,1-9.51,2.73s-7.31,2.58-9.5,2.65c-8.2.3-12.29-6.73-12.29-21q0-16.8.76-26.62c.05-.88.08-1.35.08-1.41a14,14,0,0,0-.16-1.79,15.14,15.14,0,0,1-.15-1.7q0-4,3.82-4.83,5.88-1.39,11.76-2.94a64.6,64.6,0,0,1,11.52-2.17,8.06,8.06,0,0,1,3.89.68,3.52,3.52,0,0,1,2.29,3.29c0,2.16-1.24,3.31-3.74,3.43a9.82,9.82,0,0,1-1.41-.06,13.92,13.92,0,0,0-1.41-.06c-4.12.2-9.74,1.5-16.87,3.85a6.67,6.67,0,0,0-1.15.3c-.35.13-.61.58-.76,1.34q-.84,4.23-.84,16.48c0,1.22.48,1.82,1.45,1.79a21.6,21.6,0,0,0,5.73-1.35,22.7,22.7,0,0,1,5.72-1.37,10.81,10.81,0,0,1,5.12,1.35,19.48,19.48,0,0,1,.76,3.38c0,1.45-.38,2.26-1.14,2.41s-1.58.31-2.45.46a2.77,2.77,0,0,0-1.68-.36,33.56,33.56,0,0,0-6.41,1.05c-2.08.6-4.2,1.17-6.33,1.71l-.81.2c-.22.07-.39.42-.49,1.07-.1,1.05-.16,1.9-.16,2.54a75.48,75.48,0,0,0,.23,8q.77,5.05,4.2,4.94c1.94-.07,4.76-.85,8.48-2.35a29.67,29.67,0,0,1,8.85-2.41C342.77,323.67,345,324.55,346,326.51Z"/><path d="M388.11,276.79a4.69,4.69,0,0,1-.8,2.66,2.71,2.71,0,0,1-2,1.27,8.16,8.16,0,0,1-2.55-.53,8.37,8.37,0,0,0-3.09-.48l-5.26.42c-.76.06-1.18.16-1.26.31a8.5,8.5,0,0,0-.26,1.73c-.21,1.47-.51,3.69-.92,6.63a228.27,228.27,0,0,0-1.44,27q0,10.16,2.05,13.76v2.36a5.25,5.25,0,0,1-2.28,1.05q-4.89.36-6.33-5c-.46-1.72-.69-5.05-.69-10q0-8.67.31-13.5c.05-1.4.33-4.78.84-10.12.4-4.17.61-7.54.61-10.1V281.7c-.72.11-2.1.41-4.15.89a24.87,24.87,0,0,1-4.14.71c-3.52.22-5.29-.87-5.29-3.26,0-1,.25-1.59.76-1.8.77-1.33,4.76-2.66,12-4.1a129.13,129.13,0,0,1,13.57-2.07,17.78,17.78,0,0,1,6.4.52C386.79,273.35,388.1,274.75,388.11,276.79Z"/><path d="M428.65,319.19a6.35,6.35,0,0,1-.54,2.66c-.45,1-1.06,1.6-1.82,1.69a4.59,4.59,0,0,1-.87,0,3.84,3.84,0,0,0-.88,0c-2.18.25-5.33,1.38-9.46,3.36s-7.29,3.07-9.47,3.29c-8.16.85-12.25-5.91-12.25-20.14q0-16.8.76-26.67c.05-.88.08-1.35.08-1.41a15.63,15.63,0,0,0-.16-1.78,14.82,14.82,0,0,1-.15-1.69,4.8,4.8,0,0,1,3.81-5.09q5.87-1.78,11.72-3.73a67,67,0,0,1,11.48-2.94,7.82,7.82,0,0,1,3.87.42,3.24,3.24,0,0,1,2.28,3.14q0,3.24-3.72,3.68a9.61,9.61,0,0,1-1.41,0,10.68,10.68,0,0,0-1.4,0c-4.11.47-9.71,2.15-16.81,5a7.25,7.25,0,0,0-1.14.37c-.36.16-.61.62-.76,1.39Q401,285,401,297.28c0,1.22.48,1.79,1.45,1.69a22,22,0,0,0,5.7-1.73,23.69,23.69,0,0,1,5.71-1.75,10.24,10.24,0,0,1,5.09,1,19.82,19.82,0,0,1,.76,3.33q0,2.19-1.14,2.49c-.76.21-1.57.41-2.43.63a2.62,2.62,0,0,0-1.67-.25,34.06,34.06,0,0,0-6.39,1.47q-3.12,1.13-6.32,2.14l-.8.26c-.23.08-.39.44-.49,1.1a25.16,25.16,0,0,0-.15,2.55,76.44,76.44,0,0,0,.22,8q.76,5,4.19,4.65c1.93-.2,4.74-1.16,8.44-2.91a30.61,30.61,0,0,1,8.82-3C425.41,316.56,427.63,317.3,428.65,319.19Z"/><path d="M471.71,283.38A60.7,60.7,0,0,1,466.26,309q-6.51,14.14-17.5,15.7a11,11,0,0,1-6.83-1,5.16,5.16,0,0,1-3.11,2.34,3,3,0,0,1-2.13-.87,43.47,43.47,0,0,1-1.51-12.9q0-7,.34-21.13t.34-21.14a4.3,4.3,0,0,0-.08-.6,4.2,4.2,0,0,1-.07-.7,3.88,3.88,0,0,1,1-2.67,3.77,3.77,0,0,1,2.36-1.27,4,4,0,0,1,3.37,1.12,3.67,3.67,0,0,1,1.11,3.53q3.87-7.08,11-8.1c5.76-.83,10.18,1,13.26,5.56Q471.71,273,471.71,283.38Zm-7.49.81c0-11.93-3-17.41-9.09-16.54q-3.72.54-7.36,5.43a25.37,25.37,0,0,0-4.36,9,41.45,41.45,0,0,0-1.18,10.1V311c0,5.49,2,8,6,7.42q5.38-.75,9.78-7.8a39.12,39.12,0,0,0,5-13.1A72.23,72.23,0,0,0,464.22,284.19Z"/><path class="cls-2" d="M180.54,211.27c-6.85,5.83-14.76,8.31-24.43,8.27-7.56,0-15.14-4.08-23.09-11.38-6.1-5.69-13-14-20.39-25.27-4.33-6.61-10.37-16.48-18-29.9s-13.44-23.64-17.73-30.34q-1.2-1.87-4.06-5.84t-4.18-6A43.8,43.8,0,0,1,66.09,106a10.9,10.9,0,0,1,5.69-8.74c3.18-1.74,6.9-.89,11,2.66A34.76,34.76,0,0,1,91,110c4.61,8.35,10.71,21.13,18.56,37.9s14.24,29,18.86,37Q140.64,206.19,149,205.7c2.53-.18,5.46-1.7,9-4.82s6.7-4.91,9.3-5.14c2.43-.22,5,1.39,7.64,4.87A42,42,0,0,1,180.54,211.27Z"/><path class="cls-2" d="M247,198.05a28.36,28.36,0,0,1,0,7.53c-.41,2.85-1.22,4.27-2.47,4.27a4.64,4.64,0,0,1-1.48-.37,4.73,4.73,0,0,0-1.5-.37c-3.58,0-8.49,2.26-14.33,6.5s-10.28,6.2-13.74,6.16q-19-.66-37.28-54.69c-9.4-28.55-16.35-51.25-20.65-68.3q-.92-3.41-1-3.63a46.56,46.56,0,0,0-1.83-4.49q-1.32-2.93-1.76-4.26c-2.24-6.84-.64-11.85,4.94-14.91q12.74-7.41,26-14.55c11.63-6.12,20.77-9.61,27-10.8a17.21,17.21,0,0,1,9.89.81,10.7,10.7,0,0,1,6.87,9c.81,6.25-1.71,9.76-7.54,10.69a22.66,22.66,0,0,1-3.36.17,20.73,20.73,0,0,0-3.37.2c-9.63,1.69-22.33,7.33-37,17.05A13.6,13.6,0,0,0,172,85.4c-.72.52-1,1.84-.76,3.94.78,7.77,4.24,22.43,10.28,44,.91,3.24,2.33,4.68,4.26,4.34,2.64-.46,6.17-2.12,10.71-5s8.24-4.52,10.94-4.91c3-.44,6.8.54,11.24,3a78.91,78.91,0,0,1,3.19,9.5q1.05,6.22-1.08,6.94t-4.56,1.48a4.65,4.65,0,0,0-3.5-.86,40.28,40.28,0,0,0-11.93,3.7q-5.52,2.94-11.09,5.66a15.14,15.14,0,0,0-1.39.68c-.39.21-.44,1.19-.16,2.91q.9,4.2,1.62,6.73,5,17.79,6.42,21.22c3.42,8.87,7,13.27,10.81,13.14,3.25-.12,7.49-2.08,13.05-6.06s10.4-6.12,14.2-6.26C240.3,189.41,244.59,192.22,247,198.05Z"/><path class="cls-2" d="M332.26,53.85C331,68.08,327.71,87,323,110.86c-3.35,16.75-8.61,37.29-14.71,61.77-8,32-12.85,48-16.91,47.93a12.36,12.36,0,0,1-9.54-4.06c-5.09-5.81-10.25-28.31-17.07-67.06Q258.7,110.16,251,71.32a74.63,74.63,0,0,0-2.25-7.84,24.92,24.92,0,0,1-2-2.67A8.11,8.11,0,0,1,245.61,57c-.31-3.43.93-6.68,3.81-9.75,2.51-2.84,5.18-4.39,7.93-4.62,3.11-.26,6,1.15,8.65,4.2A17.56,17.56,0,0,1,270.14,58q.18,4.68.11,14.35c0,6.44,0,11.22.14,14.35.57,14.24,2.71,31.28,5.86,51.23,5.77,37.14,9,55.87,11.55,55.88,1.66,0,3.27-2.68,4.94-8.07,4.34-13.76,8.87-34.68,14-62.68,5-26.79,8.57-48.82,9.53-66.26q.33-6-2.18-9.15c-1.69-2.07-2.54-3.28-2.53-3.63.09-1.92,1.75-4.4,5.07-7.4s5.8-4.42,7.32-4.33c2.67.17,4.85,2.82,6.45,7.92A35.75,35.75,0,0,1,332.26,53.85Z"/><path class="cls-2" d="M390.42,202a30.46,30.46,0,0,1-3.05,6.85c-1.57,2.58-3,3.85-4.21,3.79a3.71,3.71,0,0,1-1.33-.41,3.52,3.52,0,0,0-1.33-.42c-3.57-.15-9.38,1.67-17.05,5.74s-13,6.23-16.48,6.17q-19-.12-11.81-63.29c4-33.06,7.6-59.19,11.14-78.33Q347,78.26,347,78c.15-1.2.25-3,.3-5.32s.14-4,.27-5.08c1-7.9,4.55-12.23,10.84-12.77,9.7-1.11,19.52-2,29.44-2.54,13-.62,22.67.3,28.76,2a18,18,0,0,1,8.61,5c3,3.29,3.83,6.89,2.64,10.79-1.78,5.78-5.49,7.83-11.19,6.31a24.45,24.45,0,0,1-3.14-1.21A20.67,20.67,0,0,0,410.38,74c-9.47-2.39-23.31-2.51-40.71,1a12.85,12.85,0,0,0-2.75.35c-.88.22-1.67,1.41-2.37,3.56-2.61,7.95-5.75,23.84-9.52,47.63-.56,3.57.13,5.45,2.08,5.66,2.67.3,6.69-.37,12.17-1.88s9.62-2,12.31-1.55c3,.47,6.14,2.52,9.27,6.09a72.54,72.54,0,0,1-.92,9.68c-1.05,4-2.35,6.09-3.91,6.2s-3.2.21-4.95.31a3.89,3.89,0,0,0-2.95-1.66,41,41,0,0,0-12.88.71c-4.33,1-8.64,2.08-13,3.07-.61.11-1.15.24-1.61.37s-.95,1.12-1.43,3q-1,4.56-1.44,7.37-3,19.65-3.24,23.5c-.64,9.92.91,14.92,4.74,15.08,3.25.15,8.31-1.59,15.48-5s12.8-4.83,16.58-4.52C387.36,193.46,390.41,196.54,390.42,202Z"/><path class="cls-2" d="M445.79,216.35c-11.77,4.19-22.21,6.76-31.88,6.58-7.56-.11-10.92-5-10.5-15,.38-7.73,3.16-19.32,8.57-34.52,3.17-8.87,8.27-22,15.48-39.13s12.51-30,15.73-38.84c.6-1.64,1.48-4.28,2.62-7.93s2-6.36,2.69-8.15a59.34,59.34,0,0,1,2.56-5.93c3.66-2.74,7.24-3.41,10.66-2.06s4.79,5,4.37,10.8a41.41,41.41,0,0,1-3.34,13.67c-4.09,9.7-10.93,23.79-20.23,42.64s-15.78,33.3-19.73,43q-10.35,25.65-1.93,26.21c2.54.21,6.79-.95,12.94-3.19s10.59-3,13.16-2.7c2.41.32,3.36,2.13,2.81,5.33A28.26,28.26,0,0,1,445.79,216.35Z"/><path class="cls-3" d="M33.06,343.49s33.91,37.92,87.56,47.3"/></g></svg>
