<svg xmlns="http://www.w3.org/2000/svg" width="570" height="410" viewBox="0 0 570 410"><defs><style>.cls-1{fill:#6ba460;stroke:#003442;stroke-miterlimit:10;stroke-width:4px;opacity:0.8;}.cls-2{fill:#131311;}</style></defs><title>levelcompleted</title><g id="Lag_1" data-name="Lag 1"><rect class="cls-1" x="3.37" y="2.35" width="551.95" height="405.29" rx="60.85"/><path class="cls-2" d="M159.71,205.33q-16,7-36.2,7-15,0-20.54-13.4-4-9.41-4-28.8,0-12.4,1.65-37t1.66-36.8c0-1.73-.12-4.27-.35-7.6s-.35-5.87-.35-7.6c0-1.33.06-2.73.17-4.2a6.16,6.16,0,0,1,5.23-2.6q6.09,0,6.09,16.4,0,14.2-2.26,42.6t-2.27,42.6q0,27,15.67,27,5.22,0,14.71-3.4t14.7-3.4a5,5,0,0,1,4.44,2.9A12.51,12.51,0,0,1,159.71,205.33Z"/><path class="cls-2" d="M242.74,201.33c-.59,1.47-1.28,2.2-2.09,2.2a9.63,9.63,0,0,1-2-.3,9.72,9.72,0,0,0-2-.3q-7.5,0-21.67,5.4t-21.67,5.4q-24.56,0-24.55-47.34,0-37.54,1.74-64.1l.35-6.4a24.8,24.8,0,0,0-.43-4.09,24.17,24.17,0,0,1-.44-3.49q0-4.8,5.75-5.4,6.44-.8,25.41-6.19,17.24-4.78,24.71-4.79a10.41,10.41,0,0,1,2.44.4,7.84,7.84,0,0,1,5.4,1.8q2.61,2,2.61,4.2,0,4-8.88,4-8,0-23.5,3.2-17.4,3.8-21.58,7.8-1.4,15.19-3.31,47.6a2.21,2.21,0,0,0,1.92,1q5.22,0,15.49-3.8t15.66-3.8a16.93,16.93,0,0,1,8.71,2.6l1.39,6c.23.53-1.28,1.47-4.53,2.8a9.55,9.55,0,0,0-6.26-2q-4.35,0-16.45,3.6t-16.45,6q-.69,4.39-.7,20.4,0,30.2,13.41,30.2,6.43,0,18.53-4.9t18.54-4.9Q239.44,194.13,242.74,201.33Z"/><path class="cls-2" d="M325.59,80.53q0,15.41-4.53,46a413.53,413.53,0,0,1-10.79,48q-10.44,37.6-18.8,37.6-7.49,0-11.83-2.6-8.72-5.4-16.37-49.8-1.74-10-8-58A155.33,155.33,0,0,0,252,85.93a5.44,5.44,0,0,0-1-1.4,3.63,3.63,0,0,1-.95-2.2q0-2.4,3.13-4.5a10.22,10.22,0,0,1,5.39-2.1,7.19,7.19,0,0,1,5.4,2.7,8.88,8.88,0,0,1,2.44,6.1q0,4-.44,11.7t-.43,11.7q0,10.6,5.74,41.4,9,49.39,15.14,49.4,4,0,9.23-11,8.36-17,15.32-50.6,6.6-32.4,6.61-53.4,0-7.61-3.31-10.2,3.48-5.81,5.57-5.8,2.79,0,4.35,5A24.87,24.87,0,0,1,325.59,80.53Z"/><path class="cls-2" d="M410.35,201.33c-.58,1.47-1.28,2.2-2.09,2.2a9.63,9.63,0,0,1-2-.3,9.72,9.72,0,0,0-2-.3q-7.49,0-21.67,5.4t-21.67,5.4q-24.54,0-24.54-47.34,0-37.54,1.74-64.1l.34-6.4A24.8,24.8,0,0,0,338,91.8a24.17,24.17,0,0,1-.44-3.49q0-4.8,5.75-5.4,6.44-.8,25.41-6.19,17.24-4.78,24.72-4.79a10.42,10.42,0,0,1,2.43.4,7.84,7.84,0,0,1,5.4,1.8q2.61,2,2.61,4.2,0,4-8.88,4-8,0-23.5,3.2-17.4,3.8-21.58,7.8-1.4,15.19-3.3,47.6a2.19,2.19,0,0,0,1.91,1q5.22,0,15.49-3.8t15.67-3.8a16.89,16.89,0,0,1,8.7,2.6l1.39,6c.23.53-1.28,1.47-4.53,2.8a9.55,9.55,0,0,0-6.26-2q-4.35,0-16.45,3.6t-16.45,6q-.69,4.39-.69,20.4,0,30.2,13.4,30.2,6.44,0,18.53-4.9t18.54-4.9Q407,194.13,410.35,201.33Z"/><path class="cls-2" d="M478.4,205.33q-16,7-36.2,7-15,0-20.54-13.4-4-9.41-4-28.8,0-12.4,1.65-37T421,96.33c0-1.73-.11-4.27-.34-7.6s-.35-5.87-.35-7.6c0-1.33.06-2.73.17-4.2a6.15,6.15,0,0,1,5.22-2.6q6.09,0,6.1,16.4,0,14.2-2.27,42.6t-2.26,42.6q0,27,15.67,27,5.22,0,14.7-3.4t14.71-3.4a5,5,0,0,1,4.44,2.9A12.51,12.51,0,0,1,478.4,205.33Z"/><path d="M100.83,303.09a17.21,17.21,0,0,1-.88,4.73,19.72,19.72,0,0,1-8.32,11,22.26,22.26,0,0,1-12.53,3.83q-11.46,0-17.23-10.8Q57,303,57,289a81,81,0,0,1,3-22.5q3.42-12.37,10.18-19.13,5-5.06,10.08-5.06,7.55,0,11.26,8.33,2.94,6.53,2.94,16.08a55,55,0,0,1-1.27,10.92q-1.67,8.1-4.31,8.1c-1.37,0-2.35-.83-2.94-2.48.4-.3,1-.82,1.86-1.57q2.55-2.82,2.55-13.73a37.67,37.67,0,0,0-2.16-12.71c-1.82-5.25-4.34-7.88-7.53-7.88q-3.83,0-8,5.29a40.5,40.5,0,0,0-5.39,9.11q-5,11.93-5,29.37,0,11.58,3.52,18.45,4.41,8.55,13.71,8.55a15.3,15.3,0,0,0,9.3-3.1,19.79,19.79,0,0,0,6.46-8.27,31.89,31.89,0,0,1,1.67-4.72,2.26,2.26,0,0,1,2-1.46C100.18,300.62,100.83,301.44,100.83,303.09Z"/><path d="M155.56,282.34q0,15.84-6.16,27.52-7.26,13.71-20.08,13.71a21.23,21.23,0,0,1-7.53-1.69q-16.37-6-16.35-33.7a65.77,65.77,0,0,1,6.26-29.1q7.44-15.49,20.46-15.5,11.35,0,17.92,13.37A56.72,56.72,0,0,1,155.56,282.34Zm-5.48-1q0-24.93-14.45-30.55a7.15,7.15,0,0,0-2.74-.68q-6.24,0-12.31,6.63-10.24,11.24-10.25,34.7a45.22,45.22,0,0,0,.78,6.74q1.67,9.66,5.47,14.38,4.5,5.38,12.6,5.39,11.13,0,16.6-12.69Q150.09,295.47,150.08,281.33Z"/><path d="M221.26,245.6a3,3,0,0,1-.74,1.92q-.74.9-1.32,1.74a6.7,6.7,0,0,0-.59,3.43,25.54,25.54,0,0,1,0,3.71,446.87,446.87,0,0,0-2.44,45v10.69q.39,8,2.93,9v1.13a1.7,1.7,0,0,1-1.66,1.23q-6.16,0-7.34-13.83a64.61,64.61,0,0,1-.1-10.69l2.54-36.34L205.32,293q-6.65,23.85-13,23.85c-1.88,0-3.84-1.39-5.86-4.17a23.49,23.49,0,0,1-3.71-7A212.37,212.37,0,0,1,176.5,281q-2.44-12.6-5-25.09l-.59,1.69q-1.86,20.82-1.56,29.81l1,25.77q.19,4,2.35,4.38.09,3-4.7,3-4.41,0-4.41-18.56,0-8.44.78-25.15t.79-25.14a10.3,10.3,0,0,0-.3-2.81,7.51,7.51,0,0,1-.29-1.24q0-4.38,7.83-4.39c1,0,2.16.79,3.53,2.37.19,2.32.49,5.77.88,10.35q1.08,9.9,5.77,28.8Q188.27,308,191.89,308q4.59,0,10.08-21.15,3.42-13.61,5.48-27,1.28-4.27,3.23-12.15,1.19-5.06,6.76-5.06a4.72,4.72,0,0,1,2.54.79A2.4,2.4,0,0,1,221.26,245.6Z"/><path d="M270.5,277.89q-4,28.58-21.05,27.45a23.88,23.88,0,0,1-15.56-7l-.69.56v4.61c-.06,4.43.26,7.69,1,9.79a23.36,23.36,0,0,0,1.08,2.3,9.19,9.19,0,0,1,1,2.42,4.18,4.18,0,0,1-.88,2.53,2.63,2.63,0,0,1-2.16,1.19,4.23,4.23,0,0,1-4.11-2.25,15.77,15.77,0,0,1-1-5.4c-.2-3.83-.29-7.69-.29-11.59,0-2.25.14-5.63.44-10.13s.42-7.93.39-10.29.11-5.85.44-10.46.49-8,.49-10.3V250.67a14.8,14.8,0,0,0-.34-2.48,14,14,0,0,1-.35-2.47c0-1.43.85-2.14,2.55-2.14a3.28,3.28,0,0,1,2.79,1.69,6.36,6.36,0,0,1,1.13,3.6,27.31,27.31,0,0,1-.45,4.16,28.36,28.36,0,0,0-.44,4.16v2.93l4.5-9q5.26-8.44,14-8.44,9.38,0,14.16,8.89,3.9,7.31,3.9,18.56A60.44,60.44,0,0,1,270.5,277.89Zm-4.4-6.36a41.74,41.74,0,0,0-2.64-15.45q-3.42-8.67-10-8.68-8.59,0-14.55,13.17a53.63,53.63,0,0,0-5.07,22.16v6a3.45,3.45,0,0,1,1.47-.56c.45,0,.86.38,1.22,1.13a5,5,0,0,0,.93,1.48c-.06.23-.16.3-.29.23s-.2,0-.2.22a5.56,5.56,0,0,0,.78,2.05,12.54,12.54,0,0,0,11.71,6.81c5,0,8.65-1.88,11.13-5.63q2.82-4.17,4.48-13.31A63.69,63.69,0,0,0,266.1,271.53Z"/><path d="M311.23,317.94a50.41,50.41,0,0,1-20.36,3.94q-8.43,0-11.56-7.54-2.25-5.28-2.25-16.2,0-7,.93-20.81t.93-20.7c0-1-.06-2.4-.19-4.28s-.2-3.3-.2-4.27c0-.75,0-1.54.1-2.36a3.44,3.44,0,0,1,2.94-1.47q3.42,0,3.42,9.23,0,8-1.27,24t-1.27,24q0,15.19,8.81,15.19a26.82,26.82,0,0,0,8.27-1.91,26.58,26.58,0,0,1,8.27-1.91,2.79,2.79,0,0,1,2.5,1.63A7,7,0,0,1,311.23,317.94Z"/><path d="M357.93,315.69c-.33.83-.72,1.24-1.17,1.24a5.6,5.6,0,0,1-1.13-.17,5.7,5.7,0,0,0-1.13-.17q-4.2,0-12.19,3t-12.18,3q-13.81,0-13.81-26.63,0-21.12,1-36.06l.2-3.6a14.53,14.53,0,0,0-.25-2.3,13.66,13.66,0,0,1-.24-2c0-1.8,1.07-2.81,3.23-3a120.79,120.79,0,0,0,14.29-3.48q9.69-2.7,13.9-2.7a6.08,6.08,0,0,1,1.38.23,4.36,4.36,0,0,1,3,1,3.09,3.09,0,0,1,1.47,2.36c0,1.5-1.67,2.25-5,2.25a71.31,71.31,0,0,0-13.22,1.8q-9.8,2.14-12.14,4.39-.78,8.55-1.86,26.78a1.25,1.25,0,0,0,1.08.56c1.95,0,4.86-.71,8.71-2.14s6.79-2.14,8.81-2.14a9.48,9.48,0,0,1,4.9,1.47l.78,3.37c.13.3-.72.83-2.55,1.58a5.37,5.37,0,0,0-3.52-1.13c-1.63,0-4.72.68-9.25,2a54.28,54.28,0,0,0-9.26,3.37,99.35,99.35,0,0,0-.39,11.48q0,17,7.54,17,3.62,0,10.43-2.75t10.43-2.76Q356.07,311.64,357.93,315.69Z"/><path d="M404,250.22c0,1.87-.55,2.81-1.67,2.81a11.11,11.11,0,0,0-2.16-1.24c-1-.6-3.51-.9-7.57-.9h-4.43c-1.57,0-2.55.28-2.95.84a10,10,0,0,0-.93,3.83q-.34,3-1.13,8.83a340.52,340.52,0,0,0-1.87,36.79q0,14.51,2.74,19.57c0,1.05-.33,1.58-1,1.58q-5.16,0-6.54-6.75-.6-2.59-.6-11.25,0-12.6.5-19,.09-3,1.07-14.18.78-8.88.78-14.17c0-4.28,0-5.33.1-3.15-.06-1.13-.49-1.69-1.27-1.69a25.73,25.73,0,0,0-5.24.79,26.28,26.28,0,0,1-5.24.78,4.87,4.87,0,0,1-5.09-3.6q1-1.9,14.59-3.82a144.4,144.4,0,0,1,16.55-1.46Q404,244.82,404,250.22Z"/><path d="M452.21,315.69c-.32.83-.72,1.24-1.17,1.24a5.7,5.7,0,0,1-1.13-.17,5.63,5.63,0,0,0-1.12-.17q-4.21,0-12.19,3t-12.19,3q-13.82,0-13.81-26.63,0-21.12,1-36.06l.2-3.6a14.53,14.53,0,0,0-.25-2.3,13.66,13.66,0,0,1-.24-2c0-1.8,1.07-2.81,3.23-3a120.79,120.79,0,0,0,14.29-3.48q9.69-2.7,13.91-2.7a6.1,6.1,0,0,1,1.37.23,4.36,4.36,0,0,1,3,1,3.09,3.09,0,0,1,1.47,2.36q0,2.25-5,2.25a71.31,71.31,0,0,0-13.22,1.8q-9.79,2.14-12.14,4.39-.78,8.55-1.86,26.78a1.25,1.25,0,0,0,1.08.56c2,0,4.86-.71,8.71-2.14S433,278,435,278a9.48,9.48,0,0,1,4.9,1.47l.78,3.37c.13.3-.72.83-2.55,1.58a5.37,5.37,0,0,0-3.52-1.13c-1.63,0-4.72.68-9.25,2a53.74,53.74,0,0,0-9.25,3.37,96.11,96.11,0,0,0-.4,11.48q0,17,7.54,17,3.63,0,10.43-2.75t10.43-2.76Q450.35,311.64,452.21,315.69Z"/><path d="M500.28,273.28a78.82,78.82,0,0,1-6.56,32.06q-8.12,18.23-21.54,18.23a13.48,13.48,0,0,1-9.2-3.94c-1.11,1.65-1.83,2.47-2.15,2.47a3.67,3.67,0,0,1-2.16-.78q-1.37-4.4-1.37-16.88,0-9.45.3-28.07t.29-28.18v-1.8c0-1.65.78-2.47,2.35-2.47a4.29,4.29,0,0,1,2.55,1.06,3,3,0,0,1,1.37,2.31,10.39,10.39,0,0,1-.69,3.32,10.14,10.14,0,0,0-.68,3.21v4.38q1.17-.78,3.41-5.51a24.08,24.08,0,0,1,4.59-7,12.59,12.59,0,0,1,9.28-3.6q10.55,0,15.82,10Q500.29,260.34,500.28,273.28Zm-5.77-.56q0-10.25-2.55-17-3.42-9.45-11.16-9.45-5.49,0-10.87,7.76a41.49,41.49,0,0,0-6.17,13.61,59.86,59.86,0,0,0-1.56,14v23.29a16.46,16.46,0,0,0,2.45,9.11c1.82,2.85,4.24,4.28,7.24,4.28q7.83,0,14-9.45a47.07,47.07,0,0,0,7.05-17.78A105.76,105.76,0,0,0,494.51,272.72Z"/></g></svg>
