<svg xmlns="http://www.w3.org/2000/svg" width="565.32" height="416.33" viewBox="0 0 565.32 416.33"><defs><style>.cls-1{fill:#254123;}.cls-1,.cls-2{opacity:0.8;}.cls-2{fill:#6ba460;stroke:#003442;stroke-miterlimit:10;stroke-width:4px;}.cls-3{fill:#131311;}.cls-4{fill:#b1d5a2;}</style></defs><title>levelcompleted</title><g id="Lag_1" data-name="Lag 1"><rect class="cls-1" x="2.32" y="1.74" width="563" height="414.59" rx="60.85"/><rect class="cls-2" x="2" y="2" width="551.95" height="405.29" rx="60.85"/><path d="M120.41,311a12.39,12.39,0,0,1-.76,3.91,13.77,13.77,0,0,1-7.13,8.13,17.79,17.79,0,0,1-10.47,1.51q-9.31-1.33-14.32-10.26-4.31-7.74-4.31-18.93a54.93,54.93,0,0,1,2.5-17q2.79-8.82,8.25-13.24,4.32-3.47,8.79-2.83c4.3.61,7.56,3.21,9.79,7.83a30.32,30.32,0,0,1,1.13,22.37c-1.26,4.27-2.68,6.29-4.25,6.08-1.76-.24-3.11-1.71-4-4.4a21.27,21.27,0,0,0,2.13-1.72c1-1.14,1.51-3.59,1.52-7.32a38.25,38.25,0,0,0-1-9.32q-1.51-5.9-5-6.39-2.42-.34-5.3,2.82a22.77,22.77,0,0,0-3.71,5.48q-3.72,7.83-3.72,20.31c0,12.11,3.94,18.78,11.82,19.91,3.39.49,6.07-.25,8-2.18a32.31,32.31,0,0,0,3.57-5.69q1.59-3.18,3.41-2.94a3.17,3.17,0,0,1,2.13,1.36A4.11,4.11,0,0,1,120.41,311Z"/><path d="M168.93,301q0,12.6-5.41,20.87c-4,6.22-9.51,9-16.51,8.25a19.26,19.26,0,0,1-6.39-2,21.79,21.79,0,0,1-10.87-11q-2.81-6.28-2.81-16.26,0-13,5.4-22.19c4.15-7.27,9.77-10.51,16.88-9.77q9.34,1,14.91,11.52A43.33,43.33,0,0,1,168.93,301Zm-7.31-1.45c0-12.13-3.4-19.7-10.2-22.78a8,8,0,0,0-2.43-.6q-4.26-.45-8.52,3.46-6.76,6.33-6.77,24.51a25.52,25.52,0,0,0,.61,4.71q1.29,6.89,3.88,10.16a12,12,0,0,0,8.67,4.45q7.75.81,11.72-7.49Q161.63,309.44,161.62,299.54Z"/><path d="M222.92,277.5a2.83,2.83,0,0,1-.69,2c-.76,1-1.17,1.47-1.22,1.52a17.46,17.46,0,0,0-.91,4.51,327,327,0,0,0-1.91,35.17q0,9.81,3.05,11.17v2.36a2.84,2.84,0,0,1-2.82,2.06q-3.9-.19-5.88-8.08a46,46,0,0,1-1.45-11.63q0-13.21.61-22-2.28,10.13-4.64,20.31-4.26,15.69-8.22,15.44-4.49-.29-7.91-9.89-3.19-8.72-7.83-29.1-.45,5.93-.45,12.13,0,12.85.58,18.68a16.87,16.87,0,0,0,.85,3.43,12.9,12.9,0,0,1,.78,3.69q0,2.89-4.2,2.57-4.95-.39-4.95-15.71,0-6.21.61-18.5t.61-18.41a2.66,2.66,0,0,0-.61-1.54,2.66,2.66,0,0,1-.61-1.54c0-3.26,2.54-4.68,7.62-4.29,1.17.08,2.57,1,4.19,2.84.16,1.82.41,4.58.77,8.28a184.91,184.91,0,0,0,3.58,20.64q3.74,16.62,6.48,16.8c.41,0,.94-.85,1.6-2.62a97.06,97.06,0,0,0,3.74-14.56q1.38-7.53,2.75-15.06.6-3.56,2.21-10.2a6.12,6.12,0,0,1,6.71-4.64,13.7,13.7,0,0,1,4.43,1.18Q222.93,275.83,222.92,277.5Z"/><path d="M266.75,299a21.6,21.6,0,0,1-.23,3.41c-2,13.46-7.56,20.16-16.72,20a20.87,20.87,0,0,1-12.6-4.45v1.84c-.06,3.9.25,6.6.91,8.07a18.75,18.75,0,0,1,1.45,3.55,4.3,4.3,0,0,1-1.18,3,3.45,3.45,0,0,1-2.71,1.22,4.82,4.82,0,0,1-4.66-3,22.24,22.24,0,0,1-.91-6.25c-.11-2-.16-4.26-.16-6.83a42.38,42.38,0,0,1,.35-4.45,42,42,0,0,0,.34-4.54v-5.95q-.07-2.62.31-7.73t.38-7.55v-7.88c0-.12-.23-1.7-.69-4.75,1.31-1.35,2.55-2,3.71-2a4,4,0,0,1,3.25,1.82,7.14,7.14,0,0,1,1.21,4.19V282c3.36-5,7.61-7.39,12.75-7.29a13.46,13.46,0,0,1,11.46,6.4q3.74,5.64,3.74,14.21V299Zm-6.95-1.47a29.7,29.7,0,0,0-1.6-10.35q-2.22-5.81-6.8-5.9-5.88-.12-10.08,8a30.34,30.34,0,0,0-3.74,14.32c0,8.11,3.56,12.29,10.69,12.46q5.73.12,8.4-5.52,1.53-3.14,2.9-11.42C259.72,298,259.8,297.49,259.8,297.55Z"/><path d="M303,332.74a44.13,44.13,0,0,1-17.41,3.66c-4.79,0-8.15-1.9-10.08-5.75q-2.22-4.47-2.22-13.3,0-5.18.69-15.31t.69-15.32q0-1-.12-3.06c-.08-1.4-.11-2.45-.11-3.15a20.89,20.89,0,0,1,.15-2.36,4.5,4.5,0,0,1,3.74-2.1c1.43,0,2.52,1.05,3.29,3.14a14.86,14.86,0,0,1,.91,5.25q0,6-1,17.68t-1,17.59q0,10.32,5.12,10.3a18.67,18.67,0,0,0,6.56-1.86,19.14,19.14,0,0,1,6.57-1.89,3.5,3.5,0,0,1,3.29,2.12A9.3,9.3,0,0,1,303,332.74Z"/><path d="M344.71,326.92a6.1,6.1,0,0,1-.53,2.62c-.46,1-1.07,1.53-1.83,1.57a4.16,4.16,0,0,1-.88-.09,3.44,3.44,0,0,0-.88-.08q-3.27.17-9.5,2.72t-9.5,2.66c-8.2.29-12.3-6.74-12.29-21q0-16.8.76-26.62c.05-.87.08-1.34.08-1.4a16,16,0,0,0-.16-1.79,15.14,15.14,0,0,1-.15-1.7c0-2.69,1.27-4.29,3.82-4.83q5.88-1.41,11.76-2.95a65.54,65.54,0,0,1,11.52-2.17,8.18,8.18,0,0,1,3.89.68,3.53,3.53,0,0,1,2.29,3.3c0,2.15-1.24,3.3-3.74,3.43q-.45,0-1.41-.06a9.73,9.73,0,0,0-1.41-.06c-4.12.19-9.74,1.5-16.87,3.84a7.72,7.72,0,0,0-1.15.31c-.35.13-.61.57-.76,1.33q-.84,4.23-.84,16.48c0,1.23.48,1.82,1.45,1.79a21.66,21.66,0,0,0,5.73-1.34,22.26,22.26,0,0,1,5.72-1.37,10.79,10.79,0,0,1,5.12,1.34,20.81,20.81,0,0,1,.76,3.38c0,1.46-.38,2.26-1.14,2.42l-2.45.46a2.76,2.76,0,0,0-1.68-.37A33.56,33.56,0,0,0,324,310.5q-3.13.92-6.34,1.72c-.3.07-.57.13-.8.2s-.39.42-.49,1.06c-.1,1.06-.16,1.9-.16,2.55a75.48,75.48,0,0,0,.23,8q.76,5.06,4.2,4.93a27.77,27.77,0,0,0,8.48-2.34,29.37,29.37,0,0,1,8.85-2.42Q343.19,324,344.71,326.92Z"/><path d="M386.79,277.2a4.59,4.59,0,0,1-.79,2.65,2.68,2.68,0,0,1-2,1.27,8.14,8.14,0,0,1-2.56-.52,8.34,8.34,0,0,0-3.08-.49l-5.26.42c-.76.06-1.18.17-1.26.32a8.33,8.33,0,0,0-.26,1.72c-.21,1.48-.51,3.69-.92,6.64a227.89,227.89,0,0,0-1.45,27q0,10.15,2.06,13.76v2.36a5.56,5.56,0,0,1-2.28,1.05q-4.89.36-6.33-5-.69-2.58-.69-10,0-8.66.31-13.49.08-2.12.84-10.12c.4-4.17.61-7.54.61-10.11V282.1c-.72.11-2.1.41-4.15.9a26,26,0,0,1-4.14.71c-3.52.22-5.29-.87-5.29-3.27,0-1,.25-1.59.76-1.79.77-1.33,4.76-2.67,12-4.1a129.4,129.4,0,0,1,13.56-2.07,17.53,17.53,0,0,1,6.4.51Q386.79,274.15,386.79,277.2Z"/><path d="M427.34,319.6a6.34,6.34,0,0,1-.54,2.65c-.45,1-1.06,1.6-1.82,1.69a3.75,3.75,0,0,1-.87,0,4.68,4.68,0,0,0-.88,0q-3.27.39-9.46,3.37t-9.47,3.29c-8.16.84-12.25-5.91-12.25-20.14q0-16.8.76-26.68c.05-.88.08-1.34.08-1.4,0-.41-.06-1-.16-1.78a15,15,0,0,1-.15-1.69,4.79,4.79,0,0,1,3.81-5.09q5.85-1.8,11.71-3.73a67.56,67.56,0,0,1,11.49-3,7.94,7.94,0,0,1,3.87.42,3.25,3.25,0,0,1,2.28,3.14q0,3.24-3.72,3.69a13.68,13.68,0,0,1-1.41,0,13.47,13.47,0,0,0-1.4,0c-4.11.48-9.71,2.16-16.81,5a7.26,7.26,0,0,0-1.14.38c-.36.15-.61.62-.76,1.39-.56,2.85-.84,8.37-.84,16.53,0,1.23.48,1.79,1.45,1.7a22.82,22.82,0,0,0,5.7-1.73,23.23,23.23,0,0,1,5.71-1.75,10.13,10.13,0,0,1,5.09,1,20,20,0,0,1,.76,3.32c0,1.46-.38,2.29-1.14,2.5l-2.43.62a2.7,2.7,0,0,0-1.68-.25,34.28,34.28,0,0,0-6.38,1.48c-2.08.74-4.19,1.46-6.32,2.14l-.8.25c-.23.08-.39.45-.49,1.1a25.16,25.16,0,0,0-.15,2.55,76.3,76.3,0,0,0,.22,8c.51,3.33,1.91,4.89,4.19,4.65,1.93-.2,4.74-1.16,8.44-2.91a31.24,31.24,0,0,1,8.82-3C424.1,317,426.32,317.7,427.34,319.6Z"/><path d="M470.4,283.78A60.7,60.7,0,0,1,465,309.43c-4.34,9.43-10.17,14.69-17.5,15.71a11,11,0,0,1-6.83-1c-1.06,1.43-2.1,2.21-3.11,2.34a3,3,0,0,1-2.13-.87,43.36,43.36,0,0,1-1.51-12.89q0-7,.34-21.14t.34-21.13a4.39,4.39,0,0,0-.08-.61,4,4,0,0,1-.07-.69,3.88,3.88,0,0,1,1-2.68,3.77,3.77,0,0,1,2.36-1.27,4,4,0,0,1,3.37,1.13,3.63,3.63,0,0,1,1.1,3.53q3.87-7.1,11-8.1,8.64-1.25,13.26,5.55Q470.4,273.37,470.4,283.78Zm-7.49.81c0-11.92-3-17.41-9.09-16.53q-3.72.54-7.36,5.42a25.45,25.45,0,0,0-4.36,9,41.53,41.53,0,0,0-1.18,10.11V311.4c0,5.49,2,8,6,7.43q5.38-.75,9.78-7.8a39.2,39.2,0,0,0,5-13.1A72.42,72.42,0,0,0,462.91,284.59Z"/><path class="cls-3" d="M179.23,230.67c-6.85,5.84-14.76,8.31-24.43,8.28-7.56-.06-15.14-4.08-23.1-11.39-6.09-5.69-12.95-14-20.38-25.27-4.33-6.61-10.37-16.48-18-29.9s-13.44-23.63-17.73-30.34q-1.2-1.87-4.06-5.84t-4.18-6a43.8,43.8,0,0,1-2.61-4.78,10.9,10.9,0,0,1,5.69-8.73c3.18-1.74,6.9-.89,11,2.65a34.83,34.83,0,0,1,8.12,10.05c4.62,8.35,10.72,21.14,18.57,37.91s14.24,29,18.86,37.05q12.27,21.24,20.67,20.75c2.53-.18,5.46-1.71,9-4.82s6.7-4.92,9.3-5.14c2.43-.22,5,1.38,7.64,4.86A42.22,42.22,0,0,1,179.23,230.67Z"/><path class="cls-3" d="M245.71,217.45a28.86,28.86,0,0,1,0,7.54c-.41,2.85-1.22,4.26-2.47,4.27a4.77,4.77,0,0,1-1.49-.38,5,5,0,0,0-1.49-.37c-3.58,0-8.49,2.26-14.34,6.51s-10.27,6.2-13.73,6.15q-19-.64-37.28-54.69c-9.4-28.54-16.35-51.24-20.65-68.29-.61-2.28-.94-3.49-1-3.64q-.51-1.56-1.83-4.49a46,46,0,0,1-1.76-4.26c-2.24-6.84-.64-11.84,4.94-14.91q12.74-7.4,26-14.54c11.62-6.12,20.77-9.62,27-10.8a17.13,17.13,0,0,1,9.89.81,10.71,10.71,0,0,1,6.87,9c.81,6.26-1.71,9.77-7.54,10.7a24.15,24.15,0,0,1-3.36.17,22.26,22.26,0,0,0-3.37.19c-9.63,1.69-22.33,7.34-37,17.06a13.24,13.24,0,0,0-2.4,1.36c-.72.52-1,1.83-.76,3.93.78,7.77,4.24,22.43,10.28,44.05q1.37,4.86,4.26,4.35c2.64-.46,6.17-2.12,10.71-5s8.24-4.53,10.94-4.92c3-.43,6.8.55,11.24,3.05a77.69,77.69,0,0,1,3.19,9.5q1,6.21-1.08,6.93t-4.56,1.49a4.66,4.66,0,0,0-3.5-.87,40.28,40.28,0,0,0-11.93,3.7Q194,174,188.42,176.68c-.53.24-1,.47-1.39.68s-.45,1.19-.16,2.91q.9,4.2,1.62,6.74,5,17.79,6.42,21.22c3.42,8.86,7,13.27,10.81,13.14,3.25-.12,7.49-2.08,13.05-6.06s10.4-6.13,14.2-6.27C239,208.82,243.28,211.62,245.71,217.45Z"/><path class="cls-3" d="M331,73.25c-1.24,14.24-4.55,33.19-9.24,57C318.36,147,313.1,167.55,307,192c-8,32-12.85,48-16.91,47.93a12.35,12.35,0,0,1-9.54-4.05c-5.09-5.81-10.26-28.31-17.07-67.06q-6.09-39.3-13.82-78.12a72.8,72.8,0,0,0-2.26-7.85,27.32,27.32,0,0,1-2-2.66,8.19,8.19,0,0,1-1.15-3.78c-.31-3.43.93-6.68,3.81-9.74,2.51-2.85,5.18-4.4,7.92-4.62,3.12-.26,6,1.14,8.66,4.19a17.56,17.56,0,0,1,4.14,11.12q.18,4.69.11,14.36t.14,14.35c.57,14.24,2.7,31.28,5.86,51.22,5.77,37.15,9,55.88,11.55,55.89,1.66,0,3.27-2.68,4.94-8.08,4.34-13.75,8.87-34.67,14-62.68,5-26.78,8.57-48.82,9.53-66.26.22-4-.5-7.06-2.18-9.14s-2.54-3.28-2.53-3.64c.09-1.91,1.75-4.4,5.07-7.4s5.8-4.42,7.32-4.32c2.67.16,4.85,2.81,6.44,7.92A35.51,35.51,0,0,1,331,73.25Z"/><path class="cls-3" d="M389.11,221.42a30.54,30.54,0,0,1-3.05,6.86c-1.57,2.57-3,3.84-4.21,3.79a3.77,3.77,0,0,1-1.33-.42,3.93,3.93,0,0,0-1.33-.42c-3.57-.15-9.38,1.67-17.05,5.75s-13,6.22-16.48,6.17q-19-.14-11.81-63.3c4-33.06,7.6-59.19,11.14-78.33.43-2.56.67-3.93.69-4.1.15-1.21.25-3,.3-5.33s.14-4,.27-5.07c.95-7.91,4.55-12.24,10.84-12.78q14.55-1.67,29.44-2.54c13-.62,22.67.31,28.76,2a18.14,18.14,0,0,1,8.61,5c3,3.29,3.83,6.89,2.64,10.79-1.78,5.79-5.5,7.83-11.19,6.31a23,23,0,0,1-3.14-1.21,21.83,21.83,0,0,0-3.14-1.19c-9.47-2.39-23.31-2.5-40.71,1a12.85,12.85,0,0,0-2.75.36c-.88.22-1.67,1.4-2.37,3.55-2.61,8-5.75,23.85-9.52,47.63-.56,3.57.13,5.45,2.08,5.67,2.67.29,6.69-.38,12.17-1.88s9.62-2,12.31-1.55c3,.47,6.14,2.52,9.27,6.08a72.78,72.78,0,0,1-.92,9.69c-1.05,4-2.35,6.09-3.91,6.2s-3.21.21-5,.31a3.88,3.88,0,0,0-3-1.67,41.59,41.59,0,0,0-12.87.71c-4.33,1.06-8.64,2.08-13,3.07-.61.12-1.15.24-1.62.37s-.94,1.13-1.42,3q-1,4.58-1.44,7.38-3,19.65-3.24,23.49c-.64,9.92.91,14.93,4.74,15.09,3.25.14,8.31-1.6,15.48-5s12.8-4.83,16.58-4.52C386.05,212.87,389.1,216,389.11,221.42Z"/><path class="cls-3" d="M444.47,235.75c-11.76,4.2-22.2,6.77-31.87,6.59-7.56-.11-10.92-5-10.5-15,.38-7.73,3.16-19.33,8.57-34.53,3.17-8.86,8.27-22,15.48-39.13s12.51-30,15.73-38.84c.6-1.64,1.48-4.28,2.62-7.92s2-6.36,2.69-8.16a59.25,59.25,0,0,1,2.56-5.92c3.66-2.74,7.24-3.41,10.66-2.07s4.79,5,4.37,10.81a41.6,41.6,0,0,1-3.34,13.66c-4.09,9.7-10.93,23.79-20.24,42.64s-15.77,33.31-19.72,43q-10.35,25.64-1.93,26.21c2.54.2,6.79-1,12.94-3.2s10.59-3,13.16-2.69c2.41.31,3.36,2.13,2.81,5.32A28.1,28.1,0,0,1,444.47,235.75Z"/><path class="cls-4" d="M30.92,358.44a54,54,0,0,0,50.57,25.12c1.9-.18,1.92-3.18,0-3a51.1,51.1,0,0,1-48-23.63c-1-1.64-3.61-.14-2.59,1.51Z"/></g></svg>
