<svg xmlns="http://www.w3.org/2000/svg" width="480" height="470" viewBox="0 0 480 470"><defs><style>.cls-1{fill:#fbb03b;}.cls-2{fill:#c64417;}.cls-3{fill:#5a3a2f;}.cls-4{fill:#42210b;}.cls-5{fill:#2f3a35;}.cls-6{fill:#8d0a0c;}.cls-7{fill:#df0e0e;}.cls-8{fill:#e9ede9;}</style></defs><title>meatball</title><g id="Lag_1" data-name="Lag 1"><polygon class="cls-1" points="229.43 447.57 208.43 447.57 191.43 363.57 208.43 277.57 229.43 277.57 210.43 362.57 229.43 447.57"/><polygon class="cls-1" points="17.57 161.57 51.57 187.57 97.57 178.57 97.57 159.57 55.57 170.57 25.57 149.57 17.57 161.57"/><path class="cls-1" d="M3.57,161.57h14l8-12-2-14c.53-2.21-3.42-3.93-4-1l-.68,13.55-12.5-7.21c-3.31-3.28-4.67-.64-1.54,1.93l9.86,11.32L2.57,158.71C-.87,159.49.12,162.28,3.57,161.57Z"/><polygon class="cls-1" points="462.43 145.57 428.43 171.57 382.43 162.57 382.43 143.57 424.43 154.57 454.43 133.57 462.43 145.57"/><path class="cls-1" d="M476.43,145.57h-14l-8-12,2-14c-.53-2.21,3.42-3.93,4-1l.68,13.55,12.5-7.21c3.31-3.28,4.67-.64,1.54,1.93l-9.86,11.32,12.14,4.55C480.87,143.49,479.88,146.28,476.43,145.57Z"/><polygon class="cls-1" points="273.43 446.57 252.43 446.57 270.43 361.57 252.43 276.57 273.43 276.57 288.43 359.57 273.43 446.57"/><ellipse class="cls-2" cx="209.72" cy="41.47" rx="38.5" ry="37" transform="translate(58.12 192.2) rotate(-56.02)"/><ellipse class="cls-2" cx="132.52" cy="87.12" rx="42.5" ry="38.5" transform="translate(-13.79 148.32) rotate(-56.02)"/><ellipse class="cls-2" cx="113.58" cy="158.17" rx="42" ry="35.5" transform="translate(-81.06 163.96) rotate(-56.02)"/><ellipse class="cls-2" cx="126.05" cy="214.81" rx="31" ry="31.5" transform="translate(-122.52 199.28) rotate(-56.02)"/><ellipse class="cls-2" cx="165.6" cy="264.38" rx="46" ry="44" transform="translate(-146.18 253.94) rotate(-56.02)"/><ellipse class="cls-2" cx="233.01" cy="277.38" rx="44" ry="36" transform="translate(-102.39 414.27) rotate(-72.17)"/><ellipse class="cls-2" cx="303.05" cy="265.83" rx="33.98" ry="41" transform="translate(-95.4 204.65) rotate(-32.53)"/><ellipse class="cls-2" cx="357.19" cy="256.3" rx="27.78" ry="28.08" transform="translate(-54.97 409.25) rotate(-56.02)"/><ellipse class="cls-2" cx="382.33" cy="213.88" rx="26" ry="38.5" transform="translate(-8.71 411.39) rotate(-56.02)"/><ellipse class="cls-2" cx="378.92" cy="176.01" rx="29.5" ry="24.5" transform="translate(21.19 391.85) rotate(-56.02)"/><circle class="cls-2" cx="271.99" cy="41.23" r="29.5"/><ellipse class="cls-2" cx="314.99" cy="65.99" rx="37" ry="24" transform="translate(84.22 290.31) rotate(-56.02)"/><ellipse class="cls-2" cx="351.38" cy="93.28" rx="47.59" ry="35" transform="matrix(0.84, -0.55, 0.55, 0.84, 6.41, 208.01)"/><ellipse class="cls-2" cx="373.6" cy="128.68" rx="31.78" ry="32.64" transform="translate(58.09 366.57) rotate(-56.02)"/><ellipse class="cls-2" cx="160.59" cy="48.16" rx="17.5" ry="20" transform="translate(30.91 154.41) rotate(-56.02)"/><ellipse class="cls-2" cx="244.48" cy="161.76" rx="151.71" ry="142.72" transform="translate(-20.34 36.03) rotate(-8.09)"/><path class="cls-3" d="M285.43,466.57H255.11a2.68,2.68,0,0,1-2.68-2.68V446.57h21v1.59a2.27,2.27,0,0,0,3.15,2.1l7.9-3.29a.68.68,0,0,1,.95.63Z"/><path class="cls-3" d="M296.43,456.57a10.25,10.25,0,0,1-10.5,10,10.54,10.54,0,0,1-10.5-10c-.24-3.15.1-5.88,4.93-7.87a30.31,30.31,0,0,1,5.57-2.13C291.6,445.37,296.43,451.05,296.43,456.57Z"/><rect class="cls-4" x="250.43" y="443.57" width="25" height="4" rx="1.66"/><path class="cls-3" d="M196.43,466.57h30.32a2.68,2.68,0,0,0,2.68-2.68V446.57h-21v1.59a2.26,2.26,0,0,1-3.14,2.1L197.38,447a.68.68,0,0,0-.95.63Z"/><path class="cls-3" d="M185.43,456.57a10.25,10.25,0,0,0,10.5,10,10.54,10.54,0,0,0,10.5-10c.24-3.15-.1-5.88-4.93-7.87a30.31,30.31,0,0,0-5.57-2.13C190.26,445.37,185.43,451.05,185.43,456.57Z"/><rect class="cls-4" x="206.43" y="443.57" width="25" height="4" rx="1.66" transform="translate(437.86 891.15) rotate(180)"/><circle class="cls-5" cx="284.43" cy="121.57" r="21"/><ellipse class="cls-5" cx="203.43" cy="118.57" rx="22" ry="21"/><path class="cls-6" d="M304.43,214.57c21.45,1.94-29.32,39-65.5,39s-65.13-17.46-65.5-39C173.09,194.65,300,214.17,304.43,214.57Z"/><path class="cls-7" d="M258.43,250.57c-9.47,4.35-42.39,4.1-48-1C198.54,238.76,279.75,240.78,258.43,250.57Z"/><path class="cls-8" d="M189.86,206.55c25.83-5,67.29,1.79,91.57,5,1.92.26,3.12,4.24-9,5-20.73,1.31-56.68.1-75-3C189.75,212.27,188.73,206.77,189.86,206.55Z"/></g></svg>
