<svg xmlns="http://www.w3.org/2000/svg" width="217.89" height="466.26" viewBox="0 0 217.89 466.26"><defs><style>.cls-1{fill:#fbb03b;}.cls-2{fill:#5a3a2f;}.cls-3{fill:#42210b;}.cls-4{fill:#f9dc9b;}.cls-5{fill:#f9d069;}.cls-6{fill:#f2d9ad;}.cls-7{fill:#f9e4d2;}.cls-8{fill:#fed08c;}.cls-9{fill:#f0d6bd;}.cls-10{fill:#d1ba95;}.cls-11{fill:#2f3a35;}.cls-12{fill:#8d0a0c;}.cls-13{fill:#df0e0e;}.cls-14{fill:#e9ede9;}</style></defs><title>pasta</title><g id="Lag_1" data-name="Lag 1"><path class="cls-1" d="M210.16,274.84q-12.32,7.61-24.73,15.09-18.31-2.94-36.64-5.83-.67-5.57-1.39-11.13,16.86,3.39,33.69,6.86,11-6.06,21.89-12.2Q206.58,271.23,210.16,274.84Z"/><path class="cls-1" d="M221.12,275l-11-.12q-3.58-3.61-7.18-7.21.24-4.17.45-8.32c-.59-1.32,2.36-2.33,3-.58.54,2.69,1.08,5.39,1.61,8.08l9.21-4.22c2.32-1.94,3.6-.35,1.36,1.16q-3.41,3.36-6.82,6.69l9.84,2.82C224.44,273.75,223.88,275.41,221.12,275Z"/><path class="cls-1" d="M18.9,273.72q14.24,7.5,28.41,15.12,17.71-2.29,35.41-4.62c-.43-3.65-.89-7.29-1.35-10.94q-16,3-32.09,5.91-12.48-6.13-25-12.2Q21.61,270.37,18.9,273.72Z"/><path class="cls-1" d="M7.94,273.59l11,.13q2.7-3.36,5.39-6.73-1.3-4-2.62-7.94c.24-1.25-3-2.25-3.21-.59.17,2.55.33,5.11.49,7.66L8.63,262c-2.83-1.87-3.7-.39-1.06,1.08q4.29,3.22,8.55,6.46L7,272C4.32,272.38,5.29,274,7.94,273.59Z"/><path class="cls-1" d="M94,448.4l-14.07-.83c.3-7.66.3-15.31,0-22.95a7.8,7.8,0,0,1,.53-2.14c5-12.23,9.25-24.49,13-36.79l12.7.53c-4.33,13-9.27,26-15,38.95Q93,436.77,94,448.4Z"/><path class="cls-2" d="M60.81,463.17l32.43,2.08c1.58.11,3.13-.76,3.45-1.94q1.88-6.85,3.41-13.72l-22.48-1.34c-.1.42-.19.84-.29,1.25-.29,1.28-2.26,2-3.75,1.45l-7.86-3.09a.87.87,0,0,0-1.14.43Q62.9,455.73,60.81,463.17Z"/><path class="cls-2" d="M51.12,454.6c-1.08,4.31,3,8.14,9.15,8.54S72.06,460.3,73.6,456c.88-2.46,1-4.64-3.79-6.51a33.53,33.53,0,0,0-5.58-2C58.37,446.15,52.22,450.28,51.12,454.6Z"/><path class="cls-3" d="M76.82,449l23.72,1.42a1.87,1.87,0,0,0,1.87-1.42l0-.14a1.28,1.28,0,0,0-1.19-1.61l-23.73-1.4a1.85,1.85,0,0,0-1.85,1.42l0,.13A1.26,1.26,0,0,0,76.82,449Z"/><path class="cls-1" d="M128,449.37l14.07.83q4.62-11.43,8.37-22.9a7.08,7.08,0,0,0,.11-2.2c-1.43-12.81-3.56-25.58-6.26-38.32l-12.69-.53a400.06,400.06,0,0,1,7.64,40.41Q134,438,128,449.37Z"/><path class="cls-2" d="M152.84,468l-32.43-2.07c-1.58-.1-2.6-1.14-2.28-2.32q1.84-6.9,3.38-13.8L144,451.15c-.09.42-.18.85-.28,1.28-.29,1.3,1.26,2.28,3,1.88l9.06-2.14c.52-.12,1,.18.91.57Q155,460.38,152.84,468Z"/><path class="cls-2" d="M166.73,460.69c-1.11,4.45-7.15,7.75-13.35,7.35s-9.77-4.3-9.13-8.74c.37-2.55,1.25-4.71,6.79-6a42.66,42.66,0,0,1,6.34-1.35C163.67,451.34,167.84,456.22,166.73,460.69Z"/><path class="cls-3" d="M144.43,452l-23.72-1.42a1.27,1.27,0,0,1-1.18-1.61l0-.14a1.85,1.85,0,0,1,1.85-1.43l23.73,1.39a1.29,1.29,0,0,1,1.19,1.63l0,.13A1.88,1.88,0,0,1,144.43,452Z"/><path class="cls-4" d="M112.84,206.55l-8.06.06C95.64,138.78,89.33,71,107.6,3.12l8.07-.51C97.36,70.59,103.68,138.57,112.84,206.55Z"/><path class="cls-5" d="M107,208l-8,.1C88.42,140.42,80.61,72.79,97.13,5.23l8.08-.55C88.64,72.38,96.46,140.16,107,208Z"/><path class="cls-5" d="M96,207.87l-8,.28C72.28,140.78,59.31,73.77,70.38,7.14l8.11-.74C67.33,73.19,80.28,140.34,96,207.87Z"/><path class="cls-6" d="M95.65,207.63l-8,.4C68.59,140.81,52.34,74.14,59.91,8L68,7.18C60.34,73.44,76.57,140.26,95.65,207.63Z"/><path class="cls-4" d="M93.11,208.92l-5.65.36c-22-65.74-41.34-130.77-38.55-195.09l5.78-.67C51.79,77.94,71.13,143.07,93.11,208.92Z"/><path class="cls-6" d="M95.66,208.31l-7.14.6C62,142.89,38.3,77.84,36.93,13.74l7.36-1C45.5,77,69.19,142.16,95.66,208.31Z"/><path class="cls-5" d="M91.38,208l-6.4.59C56.17,141.32,30.27,75.15,28,10.09l6.63-.95C36.73,74.32,62.57,140.61,91.38,208Z"/><path class="cls-4" d="M131.57,207.51l-5.73-.29c4.2-66.62,10.84-134,40.73-202l5.61,0C142.34,73.35,135.75,140.79,131.57,207.51Z"/><path class="cls-6" d="M131.67,207.21l-5.72-.38c7.72-66.42,17.87-133.74,51.15-202l5.57.07C149.46,73.27,139.38,140.69,131.67,207.21Z"/><path class="cls-5" d="M135.75,205.66l-6.79-.5c9.48-67.85,21.63-136.73,58.57-206.65l6.57.13C157.26,68.68,145.2,137.69,135.75,205.66Z"/><path class="cls-4" d="M104.43,208l-7,.17C84.28,140,73.85,72.13,88.14,4.47l7-.56C80.78,71.71,91.21,139.72,104.43,208Z"/><path class="cls-7" d="M100.29,208l-5.62.17C80,141.05,68,74.3,79.66,7.86l5.67-.49C73.61,73.92,85.58,140.77,100.29,208Z"/><path class="cls-6" d="M112.2,206.57l-8.07-.08c-5-66.84-7.27-133.91,14.1-201.2l8-.36C104.88,72.37,107.19,139.58,112.2,206.57Z"/><path class="cls-8" d="M118.36,206.51l-8.26-.13c-3.56-66-4.5-132.35,17.36-199l8.2-.32C113.8,73.86,114.78,140.33,118.36,206.51Z"/><path class="cls-4" d="M125.58,206.44l-7.49-.12c-3.69-69.09-4.52-138.5,20.53-208.23l7.43-.3C121,67.66,121.87,137.21,125.58,206.44Z"/><path class="cls-8" d="M131.37,206.37l-8.08-.2C121.61,139,122.6,71.48,147.41,3.53l8-.24C130.61,71.39,129.66,139.08,131.37,206.37Z"/><path class="cls-9" d="M132.5,207.7l-8.08-.3c1.24-67.07,5-134.69,32.38-202.89l7.94-.13C137.4,72.72,133.71,140.5,132.5,207.7Z"/><path class="cls-4" d="M106.41,203.66h7.93c7.36,68,17.84,136,9.7,203.78L116.1,407C124.21,339.32,113.75,271.54,106.41,203.66Z"/><path class="cls-5" d="M112.89,202.22l8.59-.07c8.42,68.16,20.15,136.29,13.34,204.38l-8.62-.41C133,338.19,121.29,270.22,112.89,202.22Z"/><path class="cls-5" d="M123,202.45l7.89-.23c13.83,68.23,31,136.74,29.6,205.51l-8-.21C154,338.9,136.8,270.54,123,202.45Z"/><path class="cls-6" d="M123.35,202.69l7.87-.35c17.12,68.12,37.63,136.69,39.55,205.72l-8-.09C160.92,339.09,140.46,270.67,123.35,202.69Z"/><path class="cls-4" d="M125.88,201.41l5.57-.33c19.93,66.64,43.29,133.9,49.39,201.76l-5.65,0C169.14,335.11,145.81,268,125.88,201.41Z"/><path class="cls-6" d="M123.35,202l7.05-.56c24.36,66.91,52.2,134.67,62.42,203.29l-7.18.18C175.49,336.43,147.71,268.8,123.35,202Z"/><path class="cls-5" d="M127.55,202.35l6.32-.55c26.65,68.32,56.93,137.63,68.32,207.93l-6.45.21C184.43,339.76,154.21,270.56,127.55,202.35Z"/><path class="cls-4" d="M88,202.58l5.64.33c-5.84,66-8.83,131.13-28.59,195.5l-5.58-.63C79.17,333.52,82.15,268.45,88,202.58Z"/><path class="cls-6" d="M87.91,202.88l5.62.42C84.26,269,77.73,333.78,54.64,397.55l-5.56-.71C72.09,333.17,78.61,268.52,87.91,202.88Z"/><path class="cls-5" d="M83.86,204.39l6.66.53c-11,67-19.24,132.91-45.3,197.71l-6.56-.9C64.61,337.06,72.88,271.27,83.86,204.39Z"/><path class="cls-4" d="M115.26,202.28l8.94-.21c10.68,68.68,24.74,137.46,19.81,206.32l-9-.29C139.93,339.41,125.91,270.8,115.26,202.28Z"/><path class="cls-7" d="M118,202.39l6.31-.18c12.58,67.68,28.46,135.57,26.16,203.65l-6.36-.17C146.43,337.72,130.58,270,118,202.39Z"/><path class="cls-6" d="M107.05,203.65l7.93.13c3.32,67,9.6,133.75-1.83,200.16l-7.93-.58C116.6,337.1,110.34,270.53,107.05,203.65Z"/><path class="cls-8" d="M101,203.66l8.13.19c1.91,66,6.67,131.6-5.45,196.84l-8.11-.63C107.62,335,102.87,269.5,101,203.66Z"/><path class="cls-4" d="M93.88,203.68l7.36.18c1.93,68.74,7,137.07-7.3,205l-7.34-.59C100.81,340.48,95.78,272.29,93.88,203.68Z"/><path class="cls-8" d="M88.18,203.72l7.95.25c0,66.6,2.86,132.71-11.75,198.33l-7.9-.69C91,336.14,88.15,270.18,88.18,203.72Z"/><path class="cls-9" d="M87.11,202.39l7.94.36c-3,66.47-3,132.3-20.16,197.48L67,399.44C84.13,334.41,84.12,268.72,87.11,202.39Z"/><path class="cls-10" d="M137.41,208.47l-14.48,3.2a44.85,44.85,0,0,1-16,.48l-21-3.05c-3-.43-5.34-2.32-5.64-4.53l-.69-5.21c-.09-.69.74-1.21,1.67-1q11.79,2.1,23.59,4.24a35.34,35.34,0,0,0,14.83-.41L136,198a2,2,0,0,1,2.56,1.3c.3,2.26.6,4.53.91,6.79C139.64,207.19,138.79,208.17,137.41,208.47Z"/><path class="cls-11" d="M92.8,155.57c1,11.25-9.8,20.54-24.53,20.76s-27.72-8.57-28.75-19.62,10.32-20.34,25-20.76S91.74,144.32,92.8,155.57Z"/><path class="cls-11" d="M169.9,153.91c1.08,11.49-9.75,21-24.48,21.2s-27.74-8.76-28.79-20.05,10.28-20.78,25-21.2S168.82,142.43,169.9,153.91Z"/><path class="cls-12" d="M162.79,230.79c17,1.2-19.8,23.07-48.24,22.8S62,243.22,60,230.86C58.09,219.35,159.23,230.46,162.79,230.79Z"/><path class="cls-13" d="M129.63,251.92c-7.09,2.52-33,2.21-37.79-.77C81.63,244.84,145.57,246.24,129.63,251.92Z"/><path class="cls-14" d="M72.21,226.21c19.86-3,53,.92,72.28,2.83,1.53.14,2.8,2.49-6.65,2.94-16.17.78-44.49.07-59.11-1.71C72.59,229.52,71.35,226.34,72.21,226.21Z"/></g></svg>
