<svg xmlns="http://www.w3.org/2000/svg" width="380" height="470" viewBox="0 0 380 470"><defs><style>.cls-1{fill:#f0af66;}.cls-2{fill:#a67c52;}.cls-3{fill:#fed08c;}.cls-4{fill:#2f3a35;}.cls-5{fill:#4d4d4d;}.cls-6{fill:#f8c22a;}.cls-7{fill:#f9d069;}.cls-8{fill:#e2ad29;}.cls-9{fill:#c1272d;}.cls-10{fill:#d8555f;}.cls-11{fill:#009245;}.cls-12{fill:#f9e7c0;}.cls-13{fill:#90bf8b;}</style></defs><title>pastaprincess</title><g id="Lag_1" data-name="Lag 1"><circle class="cls-1" cx="173.69" cy="217.38" r="119.5"/><path class="cls-2" d="M50.29,222.16c-.5,27.34,26.85,58,10,58s-33-21.66-33-49,35.94-38.72,50-48c13.54-8.93,31.74-16.77,19-8C90.88,178.89,50.73,198.51,50.29,222.16Z"/><path class="cls-2" d="M81.29,292.16C96.53,308.3,84.48,333.5,70,339.08c-15.72,6.05-38-6.61-36.72-33.92,1.28-26.44,14.62-43.7,18.12-58.82C57.39,220.57,53.64,262.86,81.29,292.16Z"/><circle class="cls-3" cx="180.61" cy="218.16" r="98"/><path class="cls-1" d="M37.76,241.07c4.89,18.7-.49,39.41,16.87,34.87s27.48-23.39,22.58-42.09-22.94-30.18-40.3-25.63S32.86,222.37,37.76,241.07Z"/><ellipse class="cls-4" cx="139.6" cy="211.25" rx="19" ry="18.5" transform="matrix(0.97, -0.25, 0.25, 0.97, -48.94, 42.23)"/><ellipse class="cls-4" cx="216.91" cy="191.35" rx="19" ry="18.5" transform="matrix(0.97, -0.25, 0.25, 0.97, -41.38, 61.16)"/><path class="cls-2" d="M257.23,127.81c26.56,22.34-41.39,5.24-100,16.87C100.76,155.89,47.9,225.41,50.85,196.3,55.32,152.09,89.53,97.6,135,87.44,186.6,75.92,227.15,102.51,257.23,127.81Z"/><path class="cls-2" d="M97.29,347.16c5.28,22.84-1.94,39.26-11.6,46-13.79,9.67-32.26-3.93-40.4-30s20.43-46.1,22.43-62.83C70,281,69.17,300,80.29,324.16,83.39,330.88,95.35,338.74,97.29,347.16Z"/><path class="cls-2" d="M105.29,396.16c5.28,22.84-1.94,39.26-11.6,46-13.79,9.67-32.26-3.93-40.4-30s20.43-46.1,22.43-62.83C78,330,77.17,349,88.29,373.16,91.39,379.88,103.35,387.74,105.29,396.16Z"/><ellipse class="cls-2" cx="97.29" cy="454.66" rx="10" ry="14.5" transform="translate(-110.55 38.75) rotate(-14.47)"/><ellipse class="cls-2" cx="80.29" cy="455.66" rx="14.5" ry="10" transform="translate(-378.95 399.35) rotate(-73.02)"/><path class="cls-5" d="M99.27,439.42c.09.57-4.59,2.78-12.71,4s-13.12,1.07-13.21.5,4.8-1.4,12.91-2.58S99.19,438.84,99.27,439.42Z"/><path class="cls-2" d="M269.56,155.94c17.17,23.1,14.76,64.95,25.73,56.22,13.19-10.48,12.79-37.08-1.39-60.46s-50.81-14.47-67.65-15.11c-16.2-.61-35.83,2.12-20.39,3C212.42,140,255.45,137,269.56,155.94Z"/><path class="cls-2" d="M284.29,228.16c-5.82,20.17,10.57,39.39,25.41,39.25,16.12-.15,30.11-19.52,17.54-43.66-12.17-23.37-41-37.3-48.46-50.87C265.82,149.23,297.29,183.17,284.29,228.16Z"/><path class="cls-2" d="M294.2,287.19c7.34,22.26,22,32.56,33.8,33.34,16.81,1.11,25.54-20.09,19-46.63s-41.37-28.83-51.76-42.09c-12-15.37-1.41.47,1.61,26.9C297.65,266.06,291.5,279,294.2,287.19Z"/><path class="cls-2" d="M312.77,333.23c7.34,22.26,22,32.56,33.8,33.34,16.81,1.12,25.54-20.09,19-46.62s-41.37-28.83-51.76-42.09c-12-15.37-1.41.46,1.61,26.89C316.22,312.1,310.07,325,312.77,333.23Z"/><ellipse class="cls-2" cx="349.95" cy="379.1" rx="10" ry="14.5" transform="translate(-94.47 117.05) rotate(-16.76)"/><ellipse class="cls-2" cx="365.01" cy="371.14" rx="10" ry="14.5" transform="translate(-154.95 396.07) rotate(-48.22)"/><path class="cls-5" d="M340.35,367.09c.23.54,5.38,0,12.92-3.2s11.79-5.89,11.56-6.42S360,358.76,352.45,362,340.13,366.56,340.35,367.09Z"/><path class="cls-1" d="M270.29,177.16c4.9,18.7,9.5,34.68,26.87,30.13s4-18.28-.9-37,.54-35.28-16.83-30.74S265.4,158.46,270.29,177.16Z"/><path class="cls-2" d="M162.63,139.28c3.44,20.42-19.56,48-44.34,49.88-17.53,1.33-41.83-.83-50,6-4.47,3.75-9.93-4.63-11-11-3.43-20.42,21.29-57.1,45.8-61.23S159.19,118.85,162.63,139.28Z"/><path class="cls-2" d="M137.37,147.12c8.22,19,42.51,29.66,64.33,17.77,15.44-8.41,34.66-23.44,45.23-22.14,5.8.71,5.82-9.29,3.26-15.21-8.22-19-48.92-36.36-71.73-26.5S129.16,128.11,137.37,147.12Z"/><polyline class="cls-6" points="149.09 112.59 74.8 134.44 72.35 62.47"/><polyline class="cls-6" points="154.35 114.56 55.3 143.69 7.68 73.28"/><polyline class="cls-6" points="186.02 102.9 100.96 127.92 107.22 10.01"/><polyline class="cls-6" points="130.79 117.97 205.08 96.12 168.18 34.28"/><polyline class="cls-6" points="127.44 122.47 226.49 93.34 228.4 8.36"/><rect class="cls-7" x="51.18" y="115.05" width="180.69" height="11.25" transform="translate(-28.3 44.84) rotate(-16.39)"/><rect class="cls-8" x="53.72" y="123.68" width="180.69" height="11.25" transform="translate(-30.63 45.91) rotate(-16.39)"/><rect class="cls-6" x="52.45" y="119.37" width="180.69" height="11.25" transform="translate(-29.47 45.38) rotate(-16.39)"/><path class="cls-8" d="M138.23,75.66A9.55,9.55,0,1,1,119.93,81c-1.57-5.33,1.55-9.86,6.6-11.35S136.66,70.32,138.23,75.66Z"/><path class="cls-8" d="M120.45,71.12l-.74,5.28c.35,2.15,4.05.26,6.38-.43l3.52-1c2.32-.68,6.7-1.11,6.29-3.3l-4.38-4.5c-8.4-9.55-9.92-9-11.07,4"/><path class="cls-9" d="M136.23,76.8c1.27,4.32-.83,8.75-4.7,9.88s-8-1.44-9.3-5.76a7.3,7.3,0,1,1,14-4.12Z"/><path class="cls-9" d="M122.51,72.92l-.5,4.25c.29,1.74,3.11.26,4.89-.26l2.69-.8c1.78-.52,5.14-.8,4.8-2.58L131,69.85c-6.58-7.8-7.74-7.4-8.46,3.07"/><path class="cls-10" d="M127.66,69.8a1.25,1.25,0,1,1-2.38.7,1.24,1.24,0,0,1,2.38-.7Z"/><path class="cls-10" d="M125.33,69.15l-.08.72c0,.29.52,0,.83-.05l.45-.13c.3-.09.87-.14.82-.44l-.58-.62c-1.12-1.33-1.32-1.26-1.44.52"/><path class="cls-8" d="M175.34,69.06a4.77,4.77,0,1,1-9.1,2.68,4.74,4.74,0,1,1,9.1-2.68Z"/><path class="cls-8" d="M166.42,66.54l-.33,2.77c.19,1.13,2,.16,3.18-.18l1.75-.51c1.16-.34,3.34-.53,3.12-1.68l-2.22-2.39c-4.28-5.07-5-4.81-5.5,2"/><path class="cls-9" d="M174,70.12a3.39,3.39,0,1,1-6.46,1.9,3.37,3.37,0,1,1,6.46-1.9Z"/><path class="cls-9" d="M167.71,68.33l-.24,2c.14.81,1.44.12,2.26-.12L171,69.8c.82-.24,2.37-.37,2.21-1.19l-1.58-1.7c-3-3.6-3.57-3.41-3.9,1.42"/><path class="cls-8" d="M93.51,93.13a4.77,4.77,0,1,1-9.1,2.68,4.74,4.74,0,1,1,9.1-2.68Z"/><path class="cls-8" d="M84.59,90.61l-.33,2.77c.19,1.13,2,.16,3.18-.18l1.75-.51c1.16-.34,3.34-.53,3.12-1.68l-2.22-2.4c-4.27-5.07-5-4.8-5.5,2"/><path class="cls-9" d="M92.21,94.19a3.39,3.39,0,1,1-6.46,1.9,3.37,3.37,0,1,1,6.46-1.9Z"/><path class="cls-9" d="M85.88,92.4l-.23,2c.13.8,1.43.12,2.25-.12l1.25-.37c.82-.24,2.37-.37,2.21-1.19L89.78,91c-3-3.6-3.57-3.41-3.9,1.42"/><rect class="cls-8" x="107.45" y="85.34" width="6.73" height="9" rx="2" transform="translate(-20.85 34.92) rotate(-16.39)"/><rect class="cls-8" x="147.29" y="73.63" width="6.73" height="9" rx="2" transform="translate(-15.92 45.69) rotate(-16.39)"/><rect class="cls-9" x="108.57" y="86.47" width="4.49" height="6.75" rx="2" transform="translate(-20.85 34.92) rotate(-16.39)"/><rect class="cls-8" x="116.36" y="45.16" width="6.73" height="6.75" rx="2" transform="translate(-8.83 35.76) rotate(-16.39)"/><rect class="cls-9" x="117.48" y="46.28" width="4.49" height="4.5" rx="2" transform="translate(-8.83 35.76) rotate(-16.39)"/><rect class="cls-9" x="148.41" y="74.75" width="4.49" height="6.75" rx="2" transform="translate(-15.92 45.69) rotate(-16.39)"/><ellipse class="cls-11" cx="63.28" cy="148.96" rx="2.81" ry="2.81" transform="translate(-39.46 23.91) rotate(-16.39)"/><ellipse class="cls-11" cx="74.05" cy="145.8" rx="2.81" ry="2.81" transform="translate(-38.13 26.82) rotate(-16.39)"/><ellipse class="cls-11" cx="84.82" cy="142.63" rx="2.81" ry="2.81" transform="translate(-36.8 29.73) rotate(-16.39)"/><ellipse class="cls-11" cx="95.58" cy="139.46" rx="2.81" ry="2.81" transform="translate(-35.47 32.64) rotate(-16.39)"/><ellipse class="cls-11" cx="106.35" cy="136.3" rx="2.81" ry="2.81" transform="translate(-34.14 35.55) rotate(-16.39)"/><ellipse class="cls-11" cx="117.12" cy="133.13" rx="2.81" ry="2.81" transform="translate(-32.81 38.46) rotate(-16.39)"/><ellipse class="cls-11" cx="127.88" cy="129.96" rx="2.81" ry="2.81" transform="translate(-31.48 41.37) rotate(-16.39)"/><ellipse class="cls-11" cx="137.57" cy="127.11" rx="2.81" ry="2.81" transform="translate(-30.28 43.99) rotate(-16.39)"/><ellipse class="cls-11" cx="148.34" cy="123.95" rx="2.81" ry="2.81" transform="translate(-28.95 46.9) rotate(-16.39)"/><ellipse class="cls-11" cx="159.11" cy="120.78" rx="2.81" ry="2.81" transform="translate(-27.62 49.81) rotate(-16.39)"/><ellipse class="cls-11" cx="169.87" cy="117.61" rx="2.81" ry="2.81" transform="translate(-26.28 52.72) rotate(-16.39)"/><ellipse class="cls-11" cx="180.64" cy="114.44" rx="2.81" ry="2.81" transform="translate(-24.95 55.63) rotate(-16.39)"/><ellipse class="cls-11" cx="191.41" cy="111.28" rx="2.81" ry="2.81" transform="translate(-23.62 58.54) rotate(-16.39)"/><ellipse class="cls-11" cx="202.18" cy="108.11" rx="2.81" ry="2.81" transform="translate(-22.29 61.44) rotate(-16.39)"/><ellipse class="cls-11" cx="212.94" cy="104.94" rx="2.81" ry="2.81" transform="translate(-20.96 64.35) rotate(-16.39)"/><ellipse class="cls-11" cx="223.71" cy="101.78" rx="2.81" ry="2.81" transform="translate(-19.63 67.26) rotate(-16.39)"/><circle class="cls-8" cx="107.79" cy="7.66" r="7.5"/><ellipse class="cls-6" cx="106.79" cy="7.16" rx="7.5" ry="7"/><circle class="cls-8" cx="167.53" cy="30.66" r="5.5"/><ellipse class="cls-6" cx="166.79" cy="30.3" rx="5.5" ry="5.13"/><circle class="cls-8" cx="229.53" cy="5.66" r="5.5"/><ellipse class="cls-6" cx="228.79" cy="5.3" rx="5.5" ry="5.13"/><circle class="cls-8" cx="72.53" cy="61.66" r="5.5"/><ellipse class="cls-6" cx="71.79" cy="61.3" rx="5.5" ry="5.13"/><circle class="cls-8" cx="8.79" cy="71.66" r="5.5"/><ellipse class="cls-6" cx="7.64" cy="71.62" rx="5.5" ry="5.13" transform="translate(-44.13 21.55) rotate(-39.87)"/><circle class="cls-12" cx="104.29" cy="5.16" r="2"/><circle class="cls-12" cx="70.29" cy="59.66" r="1.5"/><circle class="cls-12" cx="227.79" cy="3.66" r="1.5"/><circle class="cls-12" cx="164.29" cy="28.66" r="1.5"/><circle class="cls-12" cx="5.79" cy="70.66" r="1.5"/><path class="cls-10" d="M88.34,90.88a.91.91,0,0,1-.6,1.14.89.89,0,0,1-1.06-.72.86.86,0,1,1,1.66-.42Z"/><path class="cls-10" d="M86.75,90.36l-.08.5c0,.21.36,0,.57,0l.32-.08c.21,0,.61-.07.58-.28L87.75,90c-.73-1-.87-.9-1,.32"/><path class="cls-10" d="M170.35,66.84A.92.92,0,0,1,169.8,68a.93.93,0,0,1-1.1-.67.86.86,0,1,1,1.65-.5Z"/><path class="cls-10" d="M168.73,66.39l-.06.51c0,.2.37,0,.58,0l.32-.1c.2-.06.6-.1.56-.3l-.41-.43c-.78-.92-.91-.87-1,.36"/><rect class="cls-10" x="149.29" y="76.16" width="1" height="2" rx="0.5" transform="translate(-16.21 48.28) rotate(-17.39)"/><rect class="cls-10" x="109.29" y="88.16" width="1" height="2" rx="0.5" transform="matrix(0.95, -0.32, 0.32, 0.95, -22.54, 39.24)"/><circle class="cls-13" cx="118.79" cy="47.66" r="0.5"/><circle class="cls-13" cx="61.79" cy="147.66" r="0.5"/><circle class="cls-13" cx="72.79" cy="144.66" r="0.5"/><circle class="cls-13" cx="83.29" cy="141.63" r="0.5"/><circle class="cls-13" cx="93.79" cy="138.66" r="0.5"/><circle class="cls-13" cx="104.79" cy="135.66" r="0.5"/><circle class="cls-13" cx="115.79" cy="132.66" r="0.5"/><circle class="cls-13" cx="125.79" cy="129.66" r="0.5"/><circle class="cls-13" cx="135.79" cy="126.66" r="0.5"/><circle class="cls-13" cx="146.79" cy="123.66" r="0.5"/><circle class="cls-13" cx="157.79" cy="120.66" r="0.5"/><circle class="cls-13" cx="167.79" cy="117.66" r="0.5"/><circle class="cls-13" cx="178.79" cy="113.66" r="0.5"/><circle class="cls-13" cx="189.79" cy="110.66" r="0.5"/><circle class="cls-13" cx="200.79" cy="107.66" r="0.5"/><circle class="cls-13" cx="221.79" cy="101.66" r="0.5"/><circle class="cls-13" cx="211.26" cy="104.48" r="0.5"/><path class="cls-10" d="M162.66,264c3.39,13.2,20.23,20.28,37.62,15.82s28.73-18.79,25.34-32"/></g></svg>
