<svg xmlns="http://www.w3.org/2000/svg" width="220" height="470" viewBox="0 0 220 470"><defs><style>.cls-1{fill:#fbb03b;}.cls-2{fill:#5a3a2f;}.cls-3{fill:#42210b;}.cls-4{fill:#f9dc9b;}.cls-5{fill:#f9d069;}.cls-6{fill:#f2d9ad;}.cls-7{fill:#f9e4d2;}.cls-8{fill:#fed08c;}.cls-9{fill:#f0d6bd;}.cls-10{fill:#d1ba95;}.cls-11{fill:#2f3a35;}.cls-12{fill:#8d0a0c;}.cls-13{fill:#df0e0e;}.cls-14{fill:#e9ede9;}</style></defs><title>pasta</title><g id="Lag_1" data-name="Lag 1"><polygon class="cls-1" points="205.55 275.64 178.98 290.74 143.03 285.51 143.03 274.48 175.86 280.87 199.3 268.67 205.55 275.64"/><path class="cls-1" d="M216.49,275.64H205.55l-6.25-7,1.56-8.13c-.41-1.29,2.67-2.29,3.13-.58l.53,7.86,9.77-4.18c2.58-1.91,3.65-.38,1.2,1.12l-7.7,6.57,9.48,2.64C220,274.43,219.19,276.05,216.49,275.64Z"/><polygon class="cls-1" points="14.45 276.68 41.02 291.78 76.97 286.56 76.97 275.52 44.14 281.91 20.7 269.71 14.45 276.68"/><path class="cls-1" d="M3.51,276.68H14.45l6.25-7-1.56-8.13c.41-1.28-2.67-2.28-3.13-.58l-.53,7.87-9.77-4.19c-2.58-1.91-3.65-.37-1.2,1.12l7.7,6.58L2.73,275C0,275.47.81,277.09,3.51,276.68Z"/><path class="cls-1" d="M90.87,451.41H76.81l-4.15-22.93a6.9,6.9,0,0,1,.2-2.17l9.57-37.58H95.08l-11.24,39.7Z"/><path class="cls-2" d="M61.86,468.13H94.29c1.59,0,2.87-.95,2.87-2.13V452.23H74.7v1.27c0,1.29-1.76,2.16-3.36,1.66l-8.46-2.61c-.48-.15-1,.11-1,.5Z"/><path class="cls-2" d="M50.1,460.18c0,4.39,5,7.95,11.23,7.95s10.78-3.57,11.23-7.95c.26-2.5-.11-4.68-5.27-6.26a41,41,0,0,0-6-1.69C55.26,451.27,50.1,455.79,50.1,460.18Z"/><rect class="cls-3" x="72.56" y="449.85" width="26.74" height="3.18" rx="1.52" transform="translate(171.86 902.87) rotate(-180)"/><path class="cls-1" d="M124.6,450.37h14.06l4.15-22.94a6.68,6.68,0,0,0-.21-2.17L133,387.68H120.39l11.24,39.7Z"/><path class="cls-2" d="M153.6,467.09H121.18c-1.59,0-2.87-1-2.87-2.14V451.19h22.46v1.26c0,1.29,1.76,2.17,3.36,1.67l8.46-2.62c.48-.15,1,.12,1,.51Z"/><path class="cls-2" d="M165.37,459.14c0,4.39-5,7.95-11.23,7.95s-10.78-3.58-11.23-7.95c-.26-2.51.11-4.68,5.27-6.27a39.72,39.72,0,0,1,6-1.68C160.21,450.23,165.37,454.75,165.37,459.14Z"/><rect class="cls-3" x="116.17" y="448.8" width="26.74" height="3.18" rx="1.52"/><rect class="cls-4" x="109.51" y="4.95" width="8.07" height="203.52"/><polygon class="cls-5" points="111.52 209.9 103.45 209.94 99.43 6.44 107.5 6.39 111.52 209.9"/><polygon class="cls-5" points="100.58 209.67 92.52 209.9 72.72 6.66 80.78 6.43 100.58 209.67"/><polygon class="cls-6" points="100.23 209.43 92.19 209.78 62.31 6.9 70.35 6.56 100.23 209.43"/><polygon class="cls-4" points="97.52 210.7 91.82 211.03 52.72 12.55 58.41 12.22 97.52 210.7"/><polygon class="cls-6" points="100.16 210.11 92.93 210.67 40.43 11.33 47.66 10.77 100.16 210.11"/><polygon class="cls-5" points="95.92 209.77 89.44 210.32 30.42 6.96 36.9 6.41 95.92 209.77"/><polygon class="cls-4" points="136.18 209.57 130.48 209.24 170.03 10.78 175.72 11.11 136.18 209.57"/><polygon class="cls-6" points="136.32 209.27 130.64 208.85 180.64 11.08 186.32 11.5 136.32 209.27"/><polygon class="cls-5" points="140.6 207.76 133.88 207.22 189.57 5.41 196.29 5.96 140.6 207.76"/><polygon class="cls-4" points="108.97 209.82 102 209.94 90.07 5.08 97.04 4.96 108.97 209.82"/><polygon class="cls-7" points="104.83 209.78 99.19 209.91 82.36 8 88 7.86 104.83 209.78"/><polygon class="cls-6" points="116.93 208.49 108.87 208.35 120.91 7.84 128.97 7.99 116.93 208.49"/><polygon class="cls-8" points="123.1 208.48 114.85 208.28 130.84 10.57 139.09 10.77 123.1 208.48"/><polygon class="cls-4" points="130.33 208.46 122.86 208.28 139.68 1.87 147.15 2.05 130.33 208.46"/><polygon class="cls-8" points="136.13 208.43 128.08 208.17 150.11 7.91 158.16 8.17 136.13 208.43"/><polygon class="cls-9" points="137.08 209.76 129.04 209.4 159.92 9.48 167.96 9.85 137.08 209.76"/><polygon class="cls-4" points="111.54 205.54 119.47 205.61 114.29 409.11 106.36 409.04 111.54 205.54"/><polygon class="cls-5" points="118.2 204.16 126.8 204.16 124.91 407.69 116.31 407.69 118.2 204.16"/><polygon class="cls-5" points="128.27 204.47 136.2 204.31 150.49 407.67 142.56 407.84 128.27 204.47"/><polygon class="cls-6" points="128.6 204.72 136.52 204.43 160.73 407.51 152.82 407.8 128.6 204.72"/><polygon class="cls-4" points="131.3 203.47 136.91 203.18 170.3 401.94 164.69 402.22 131.3 203.47"/><polygon class="cls-6" points="128.69 204.04 135.81 203.54 182.35 403.26 175.23 403.76 128.69 204.04"/><polygon class="cls-5" points="132.85 204.42 139.24 203.91 192.08 407.7 185.69 408.2 132.85 204.42"/><polygon class="cls-4" points="93.28 204.31 98.87 204.69 54.96 402.82 49.37 402.45 93.28 204.31"/><polygon class="cls-6" points="93.13 204.61 98.7 205.07 44.53 402.44 38.96 401.98 93.13 204.61"/><polygon class="cls-5" points="88.88 206.09 95.48 206.68 35.6 408.04 29.01 407.45 88.88 206.09"/><polygon class="cls-4" points="120.56 204.24 129.54 204.1 134.2 409.1 125.22 409.24 120.56 204.24"/><polygon class="cls-7" points="123.31 204.37 129.64 204.24 140.39 406.3 134.06 406.42 123.31 204.37"/><polygon class="cls-6" points="112.17 205.53 120.09 205.73 103.16 406.13 95.24 405.93 112.17 205.53"/><polygon class="cls-8" points="106.1 205.5 114.2 205.76 93.47 403.32 85.37 403.07 106.1 205.5"/><polygon class="cls-4" points="99 205.46 106.34 205.7 84.56 411.96 77.22 411.73 99 205.46"/><polygon class="cls-8" points="93.3 205.45 101.21 205.77 74.46 405.84 66.55 405.52 93.3 205.45"/><polygon class="cls-9" points="92.4 204.11 100.29 204.53 64.86 404.2 56.97 403.77 92.4 204.11"/><path class="cls-10" d="M141.89,210.56,127,213.64a45.88,45.88,0,0,1-16.11.39l-20.59-3.19c-2.93-.45-5-2.37-5-4.59V201c0-.7.9-1.21,1.81-1l23,4.47a35.87,35.87,0,0,0,14.88-.28l16.93-4c1.18-.28,2.39.38,2.39,1.3v6.73A2.68,2.68,0,0,1,141.89,210.56Z"/><ellipse class="cls-11" cx="76.81" cy="157.3" rx="26.71" ry="20.37"/><ellipse class="cls-11" cx="154.12" cy="157.3" rx="26.71" ry="20.37"/><path class="cls-12" d="M164.17,232.7c16.84,1.13-23,22.75-51.41,22.75S61.64,245.26,61.34,232.7C61.08,221.07,160.66,232.46,164.17,232.7Z"/><path class="cls-13" d="M128.06,253.7c-7.43,2.54-33.27,2.39-37.67-.59C81.05,246.8,144.8,248,128.06,253.7Z"/><path class="cls-14" d="M74.24,228c20.27-2.93,52.82,1.05,71.88,2.94,1.51.14,2.45,2.47-7.07,2.91-16.27.77-44.49.06-58.87-1.75C74.15,231.35,73.35,228.14,74.24,228Z"/></g></svg>
