<svg xmlns="http://www.w3.org/2000/svg" width="140" height="80" viewBox="0 0 140 80"><defs><style>.cls-1{fill:#6ba460;stroke:#003442;stroke-miterlimit:10;stroke-width:4px;opacity:0.8;}</style></defs><title>playagain</title><g id="Lag_1" data-name="Lag 1"><rect class="cls-1" x="2.5" y="3.5" width="135" height="73" rx="33.59"/><path d="M54.25,24.06a6.79,6.79,0,0,1-.09,1.17Q53,32.16,47.59,32.16a9,9,0,0,1-5-1.41v.63A6.46,6.46,0,0,0,43,34.14a5.79,5.79,0,0,1,.57,1.2,1.39,1.39,0,0,1-.47,1,1.48,1.48,0,0,1-1.06.45,1.85,1.85,0,0,1-1.83-1,6.53,6.53,0,0,1-.36-2.13q-.06-1-.06-2.34a12.55,12.55,0,0,1,.13-1.53,13.08,13.08,0,0,0,.14-1.56v-2a24.29,24.29,0,0,1,.12-2.65c.1-1.17.15-2,.15-2.6v-2.7s-.09-.58-.27-1.62A2.23,2.23,0,0,1,41.52,16a1.55,1.55,0,0,1,1.27.59A2.16,2.16,0,0,1,43.27,18v.42a6,6,0,0,1,5-2.61,5.39,5.39,0,0,1,4.5,2.13,7.76,7.76,0,0,1,1.47,4.86v1.26Zm-2.73-.48A9,9,0,0,0,50.89,20a2.84,2.84,0,0,0-2.67-2q-2.31,0-4,2.82a9.57,9.57,0,0,0-1.47,4.95Q42.79,30,47,30a3.5,3.5,0,0,0,3.3-1.95,14.63,14.63,0,0,0,1.14-3.93Q51.52,23.55,51.52,23.58Z"/><path d="M68.86,35.7A20,20,0,0,1,62,36.87a4.19,4.19,0,0,1-4-2,9.45,9.45,0,0,1-.87-4.56q0-1.77.27-5.25t.27-5.25c0-.22,0-.57,0-1s0-.84,0-1.08a6.19,6.19,0,0,1,.06-.81,1.85,1.85,0,0,1,1.47-.72q.84,0,1.29,1.08a4.52,4.52,0,0,1,.36,1.8q0,2-.39,6.06t-.39,6q0,3.54,2,3.54a8.2,8.2,0,0,0,2.58-.61,8.28,8.28,0,0,1,2.58-.62,1.42,1.42,0,0,1,1.29.75A2.87,2.87,0,0,1,68.86,35.7Z"/><path d="M86.8,31.17q0,1.44-1.29,1.47a10.69,10.69,0,0,0,.66,1.86,1.43,1.43,0,0,1-.54,1.08,1.83,1.83,0,0,1-1.2.42,3.1,3.1,0,0,1-1.26-.33,4.12,4.12,0,0,1-.39-1.86q0-.27,0-.78t0-.75q0,.21-1,.21-1.68,0-4,.15c-2.2.12-3.4.29-3.59.51a9.21,9.21,0,0,0-.37,3.21,1.16,1.16,0,0,1-1,.57,2.08,2.08,0,0,1-1.29-.52A1.47,1.47,0,0,1,71,35.28a10.32,10.32,0,0,1,.54-1.68q.6-2.13,2-6.39,4-11,6.69-11t4,5.82a64.7,64.7,0,0,1,1.17,8,4.61,4.61,0,0,1,1,.3A.9.9,0,0,1,86.8,31.17ZM82.6,30q-1.32-10.47-2.37-10.47-.84,0-2.94,4.92-1.5,3.54-2.37,6.15,1-.21,2.85-.51A32.11,32.11,0,0,1,82.6,30Z"/><path d="M102.91,17.85a10.76,10.76,0,0,1-1.16,1.52,9.82,9.82,0,0,0-1.11,1.45q-.28.51-3.61,9.27-2.82,7.47-3.75,7.47a2.28,2.28,0,0,1-1.41-.45,1.47,1.47,0,0,1-.69-1.26,2.19,2.19,0,0,1,.54-1.2,10.57,10.57,0,0,0,1.2-2.55l1-2.76a12,12,0,0,1-3.18-4.41q-2.4-5.07-2.4-7.14,0-1.74,1.56-1.74,1.8,0,1.8,2.07a4.43,4.43,0,0,1-.08.65,4.09,4.09,0,0,0-.07.67,11.52,11.52,0,0,0,1.17,4q1.23,2.85,2.22,3.27a34.52,34.52,0,0,0,1.71-3.45Q98,20,98.86,18.66q1.35-2.25,2.25-2.25a1.88,1.88,0,0,1,1.18.41A1.54,1.54,0,0,1,102.91,17.85Z"/><path d="M47.65,58.23q0,1.44-1.26,1.5a11.5,11.5,0,0,0,.7,1.85,1.43,1.43,0,0,1-.51,1.09,1.88,1.88,0,0,1-1.19.45,3.29,3.29,0,0,1-1.27-.31A4.17,4.17,0,0,1,43.69,61c0-.18,0-.44,0-.78s0-.59,0-.75c0,.14-.33.22-1,.23-1.12,0-2.45.11-4,.24-2.2.17-3.39.37-3.58.59a9.46,9.46,0,0,0-.3,3.22,1.16,1.16,0,0,1-1,.59,2.08,2.08,0,0,1-1.3-.49,1.45,1.45,0,0,1-.68-1.11,9.3,9.3,0,0,1,.5-1.7c.37-1.42,1-3.57,1.8-6.43Q38,43.47,40.66,43.42t4.15,5.72a66.92,66.92,0,0,1,1.35,8,4.59,4.59,0,0,1,1,.27A.9.9,0,0,1,47.65,58.23Zm-4.22-1q-1.56-10.44-2.61-10.42-.84,0-2.83,5-1.43,3.57-2.23,6.2c.64-.16,1.58-.35,2.84-.58A32.18,32.18,0,0,1,43.43,57.19Z"/><path d="M64.22,57.11A6.1,6.1,0,0,1,62,61.81,7.22,7.22,0,0,1,57.17,64a6.14,6.14,0,0,1-5.7-2.84,12.52,12.52,0,0,1-1.62-6.49,15.92,15.92,0,0,1,1.6-7.55c1.36-2.77,3.29-4.19,5.79-4.24a5.92,5.92,0,0,1,3.26.8,4.19,4.19,0,0,1,2,2.66q.33,1.41.33,1.35c.06,2.65-.51,4-1.71,4a1.5,1.5,0,0,1-1-.34,1.1,1.1,0,0,1-.47-.89,2.13,2.13,0,0,1,.29-.88,2.06,2.06,0,0,0,.3-.91,4.61,4.61,0,0,0-.47-2.34,2.3,2.3,0,0,0-2.14-.83c-1.08,0-2.06.72-2.94,2.08a9.53,9.53,0,0,0-1.42,3.55,20.51,20.51,0,0,0-.28,3.61,13.59,13.59,0,0,0,.54,4.08,4.1,4.1,0,0,0,3,2.61,4.05,4.05,0,0,0,1.08.15,3.76,3.76,0,0,0,2.25-.95,6,6,0,0,0,1.57-1.92,4.06,4.06,0,0,0,.36-1.6L61.58,57a8.41,8.41,0,0,0-3.29.59c-.24.12-.48.26-.71.4a2,2,0,0,1-.75.23,1.33,1.33,0,0,1-1.18-.6,2.48,2.48,0,0,1-.45-1.4,1.25,1.25,0,0,1,.66-1.1,12.25,12.25,0,0,1,2.81-.63,28.64,28.64,0,0,1,3-.34C63.33,54.1,64.17,55.09,64.22,57.11Z"/><path d="M82.29,57.46q0,1.44-1.26,1.5a10.46,10.46,0,0,0,.71,1.84,1.48,1.48,0,0,1-.52,1.1,1.87,1.87,0,0,1-1.19.44,3.08,3.08,0,0,1-1.27-.3,4.17,4.17,0,0,1-.43-1.85c0-.18,0-.44,0-.78s0-.59,0-.75c0,.14-.33.22-1,.23-1.12,0-2.45.11-4,.24-2.2.17-3.39.37-3.58.59a9.41,9.41,0,0,0-.3,3.22,1.18,1.18,0,0,1-1,.59,2.09,2.09,0,0,1-1.3-.5,1.45,1.45,0,0,1-.68-1.11,9.32,9.32,0,0,1,.5-1.69q.56-2.15,1.81-6.43,3.77-11.1,6.44-11.16c1.74,0,3.12,1.87,4.15,5.73a64.33,64.33,0,0,1,1.35,8,5,5,0,0,1,1,.28A.9.9,0,0,1,82.29,57.46Zm-4.22-1Q76.51,46,75.46,46q-.84,0-2.83,5c-.94,2.38-1.69,4.44-2.23,6.2.64-.16,1.58-.35,2.84-.58A32.18,32.18,0,0,1,78.07,56.42Z"/><path d="M88.56,43.94a2.06,2.06,0,0,1-.25.66A5.39,5.39,0,0,0,88.1,46q-.48,6.74-.37,11.8A7.35,7.35,0,0,0,88,59.88a10.5,10.5,0,0,0,.91,1.87.42.42,0,0,1,0,.18c0,.42-.47.65-1.45.67h-.27c-1,0-1.66-.8-1.92-2.41a63.28,63.28,0,0,1-.6-8.18c0-.82,0-2.06,0-3.71s0-2.89,0-3.73a1.79,1.79,0,0,1,.69-1.34,2.2,2.2,0,0,1,1.4-.66,2,2,0,0,1,1.18.42A1.23,1.23,0,0,1,88.56,43.94Z"/><path d="M104.76,42.59a1.72,1.72,0,0,1-.25.84c-.21.45-.33.72-.37.82a15.72,15.72,0,0,0-.77,4.5l.1,8.62a7.68,7.68,0,0,1-.53,2.72c-.48,1.17-1.09,1.77-1.83,1.78-1.1,0-2.21-.87-3.33-2.68a31.91,31.91,0,0,1-2.49-5.59c-.5-1.55-1-3.1-1.52-4.65a68.75,68.75,0,0,0-.47,6.86c0,2.56.24,4,.56,4.4a1.6,1.6,0,0,1,.48.82,1.24,1.24,0,0,1-.57,1,2,2,0,0,1-1.19.46c-.56,0-1-.56-1.42-1.73a9,9,0,0,1-.48-2.52c0-.34,0-.84,0-1.51s0-1.18,0-1.52a36,36,0,0,1,.22-3.66,30.94,30.94,0,0,0,.22-3.67L91,44.24a.62.62,0,0,0,0-.18.49.49,0,0,1,0-.18c0-.39.25-.73.79-1A2.9,2.9,0,0,1,93,42.52a2.43,2.43,0,0,1,2.21.94,4.48,4.48,0,0,1,.36,1.37q.11.72.21,1.47a56.8,56.8,0,0,0,2,6.79c1.3,3.68,2.25,5.5,2.85,5.49.22,0,.32-.29.31-.85a5.39,5.39,0,0,0-.09-.78,5.47,5.47,0,0,1-.09-.84L101,48a15.48,15.48,0,0,1,.55-3.62c.49-1.67,1.17-2.52,2-2.54a2.38,2.38,0,0,1,1.18.52A1.39,1.39,0,0,1,104.76,42.59Z"/></g></svg>
