<svg xmlns="http://www.w3.org/2000/svg" width="144" height="80" viewBox="0 0 144 80"><defs><style>.cls-1{fill:#264324;}.cls-1,.cls-2,.cls-3{opacity:0.8;}.cls-2{fill:#6ba460;stroke:#003442;stroke-miterlimit:10;stroke-width:4px;}.cls-4{fill:#c1ddb6;}</style></defs><title>playagain</title><g id="Lag_1" data-name="Lag 1"><rect class="cls-1" x="2" y="2" width="142" height="78" rx="33.59"/><rect class="cls-2" x="2" y="2" width="135" height="73" rx="33.59"/><path d="M51.51,22.35a8.17,8.17,0,0,1-.07,1.37c-.77,5.23-3.77,7.17-7.94,7.33A12.18,12.18,0,0,1,38,30l-.09.54A6.21,6.21,0,0,0,37.65,33a2.71,2.71,0,0,1,.24,1.12,2.29,2.29,0,0,1-1,1,3.07,3.07,0,0,1-1.52.45c-1.09,0-1.64-.32-1.7-.93a8.38,8.38,0,0,1,.43-2c.17-.6.34-1.27.49-2,.06-.28.18-.7.35-1.24a5.58,5.58,0,0,0,.25-1.23c0-.52,0-1,0-1.54a12.49,12.49,0,0,1,.12-2c.11-.89.2-1.56.23-2a15.51,15.51,0,0,1,.29-2.08,9.23,9.23,0,0,1,.09-1.11,12,12,0,0,1,1.66-1.65c.54-.38.91-.49,1.17-.29A1.24,1.24,0,0,1,39,18.69c0,.14,0,.28,0,.42,1.62-2.36,3.47-4.67,5.59-5.82a3.44,3.44,0,0,1,4.94,1.14,11.91,11.91,0,0,1,1.92,6.37q0,.27,0,.78C51.5,21.93,51.5,22.18,51.51,22.35Zm-3.14-.16A11.66,11.66,0,0,0,47.49,18c-.72-1.56-1.72-2.15-3-1.61-1.69.66-3.19,2.52-4.45,4.71a9.2,9.2,0,0,0-1.62,4.75c0,2.27,1.48,3.36,4.72,3.24a4.55,4.55,0,0,0,3.92-2,11.5,11.5,0,0,0,1.27-4.23C48.35,22.38,48.37,22.17,48.37,22.19Z"/><path d="M67.91,34.24a30.05,30.05,0,0,1-8.36,1.21c-2.3,0-3.72-.64-4.36-1.93A9.21,9.21,0,0,1,54.77,29c.09-1.22.26-3,.41-5.79s.13-5.38.07-7.21c0-.34-.06-.88-.12-1.66S55,13,55,12.54s0-.89,0-1.44a2.75,2.75,0,0,1,1.63-1.77c.64-.16,1.15.45,1.54,1.72a11.92,11.92,0,0,1,.53,3.12c.07,2.31.05,5.49-.18,8.85s-.48,5.36-.58,6.75c-.19,2.39.36,3.51,2,3.51A11.81,11.81,0,0,0,63,32.65a11.26,11.26,0,0,1,3-.63,1.66,1.66,0,0,1,1.48.73A2.43,2.43,0,0,1,67.91,34.24Z"/><path d="M88.57,29.78c.11.93-.3,1.4-1.31,1.41A8.49,8.49,0,0,0,88.35,33a1.06,1.06,0,0,1-.4,1,2.19,2.19,0,0,1-1.35.41A5.07,5.07,0,0,1,85,34.12a3.65,3.65,0,0,1-.77-1.81,7.4,7.4,0,0,1-.07-.76c0-.33,0-.57-.05-.73,0,.14-.36.2-1.12.2-1.3,0-2.83,0-4.61.14-2.53.12-3.91.29-4.12.51S74,33,74,34.85a1.42,1.42,0,0,1-1.17.57,2.79,2.79,0,0,1-1.58-.51,1.39,1.39,0,0,1-.79-1.1,9.88,9.88,0,0,1,.64-1.67c.47-1.44,1.19-3.52,2.17-6.87C76.17,16.49,79,8,81,8.66c2,.3,3.45,4.93,4.38,10.49.43,2.51.75,5.85,1.41,9.46a7.52,7.52,0,0,1,1.16.33A1,1,0,0,1,88.57,29.78Zm-4.91-1.23c-1.3-7.11-1.8-13.71-2.68-13.72-.63-.13-1.84,2.75-3.43,7.09-1.14,3.08-2,5.34-2.61,7.17.73-.14,1.8-.32,3.23-.52A37.27,37.27,0,0,1,83.66,28.55Z"/><path d="M106.13,20.75a3.32,3.32,0,0,1-1,.53,3.4,3.4,0,0,0-1.09.7,46.44,46.44,0,0,0-3.82,7.15c-1.55,4.2-1.49,6.79-2.35,6.77A4.5,4.5,0,0,1,96,35.46a2.2,2.2,0,0,1-1.3-1.21A1.32,1.32,0,0,1,95,33.12a9.58,9.58,0,0,0,.83-2.34,25.33,25.33,0,0,1,.75-2.49,10.44,10.44,0,0,1-3.8-4.64,25.7,25.7,0,0,1-2.53-9.87c0-1.85.62-2.69,1.76-2.21,1.31.54,2,2,2,3.91a6,6,0,0,1-.09.87,6.44,6.44,0,0,0-.1.89A14.69,14.69,0,0,0,95,22.29c.91,2.21,1.79,3.27,2.55,3.62a35.63,35.63,0,0,0,2-3c1.12-1.82,1.9-3,2.39-3.68.84-1.06,1.38-1.25,2-.84a8.55,8.55,0,0,1,1.32,1.15A5.22,5.22,0,0,1,106.13,20.75Z"/><path d="M45.66,57.17c-.11,1-.64,1.58-1.58,1.55a11.72,11.72,0,0,0,.48,2.15,1.73,1.73,0,0,1-.74,1.2,2,2,0,0,1-1.38.37,3.16,3.16,0,0,1-1.35-.51,4.52,4.52,0,0,1-.16-2.1,8.21,8.21,0,0,1,.15-.85c.07-.36.11-.63.14-.8,0,.15-.39.21-1.11.16-1.22-.07-2.68-.11-4.38-.13-2.43-.06-3.77,0-4,.16a8,8,0,0,0-1,3,1.34,1.34,0,0,1-1.19.37A2.6,2.6,0,0,1,28.17,61c-.43-.4-.61-.77-.53-1.12a9,9,0,0,1,.92-1.42c.72-1.22,1.9-3.09,3.43-5.65,4.31-6.63,6.41-10.14,8.23-10.21s3.06,1.63,3.68,5.29a46.11,46.11,0,0,1,.32,8,5.59,5.59,0,0,1,1,.34A.89.89,0,0,1,45.66,57.17Zm-4.37-1.35c.1-7.1-.47-10.06-1.17-10.1s-1.65,1.57-3.6,4.63c-1.41,2.2-2.66,4.1-3.62,5.7.72-.09,1.78-.2,3.18-.34A40.48,40.48,0,0,1,41.29,55.82Z"/><path d="M63.45,56.51A8.11,8.11,0,0,1,61,62.28a7.11,7.11,0,0,1-5.54,2.54,6.71,6.71,0,0,1-6-4.1,14.44,14.44,0,0,1-.94-7.31,18,18,0,0,1,2.34-7.55c1.53-2.7,3.45-4.1,5.94-4.23a5.66,5.66,0,0,1,3.22.69,3.83,3.83,0,0,1,1.9,2.59c.21.93.31,1.39.31,1.35,0,2.67-.61,4.12-1.85,4.15a1.55,1.55,0,0,1-1-.36,1.11,1.11,0,0,1-.44-.93,2.26,2.26,0,0,1,.33-.9,2,2,0,0,0,.33-.93,4.43,4.43,0,0,0-.4-2.34A2.23,2.23,0,0,0,57,44.18a4.14,4.14,0,0,0-3,2.09,10.68,10.68,0,0,0-1.68,3.55,23.82,23.82,0,0,0-.6,3.75,15.42,15.42,0,0,0,.16,4.54,4.54,4.54,0,0,0,3,3.32A4,4,0,0,0,56,61.7a3.93,3.93,0,0,0,2.53-1.08,7.83,7.83,0,0,0,1.8-2.31,5.47,5.47,0,0,0,.45-1.89l-.13-.11a8.79,8.79,0,0,0-3.53.59l-.79.45a2.11,2.11,0,0,1-.81.24,1.37,1.37,0,0,1-1.22-.74,2.93,2.93,0,0,1-.36-1.6,1.5,1.5,0,0,1,.79-1.19,14,14,0,0,1,3-.64,28.66,28.66,0,0,1,3.17-.34C62.59,53.06,63.45,54.13,63.45,56.51Z"/><path d="M82.71,57c.14,1.17-.25,1.81-1.18,1.87a16.26,16.26,0,0,0,1,2.34,1.94,1.94,0,0,1-.44,1.45,1.73,1.73,0,0,1-1.27.64,3.08,3.08,0,0,1-1.43-.39,6.83,6.83,0,0,1-.65-2.44c0-.23,0-.57,0-1s0-.74,0-1q0,.27-1.05.3c-1.2,0-2.63.14-4.28.31-2.36.2-3.64.43-3.84.71s-.28,1.63-.27,4.27a1.25,1.25,0,0,1-1.08.81,2.14,2.14,0,0,1-1.45-.74,2.19,2.19,0,0,1-.75-1.53,16,16,0,0,1,.56-2.2c.4-1.83,1-4.48,1.88-7.68,2.51-8.12,4.53-11.63,6.31-11.82S77.73,42.7,79,46.75c.56,1.84,1.2,4.65,2,8.9a4.8,4.8,0,0,1,1.09.32A1.21,1.21,0,0,1,82.71,57Zm-4.59-1.21c-1.65-8.15-2.53-11.34-3.24-11.41-.56,0-1.45,1.72-2.7,5.28-.9,2.58-1.62,4.94-2.15,7.05.66-.18,1.67-.4,3-.68A31.8,31.8,0,0,1,78.12,55.75Z"/><path d="M87.81,41.9a2.36,2.36,0,0,1-.21.7A5.71,5.71,0,0,0,87.48,44a89,89,0,0,0,1.1,13.17,11.1,11.1,0,0,0,.66,2.6,17.16,17.16,0,0,0,1.32,2.32.9.9,0,0,1,.07.23c.08.55-.42.86-1.51,1l-.29,0c-1.13.07-2-1-2.48-3a77.07,77.07,0,0,1-1.71-9.66c-.11-.91-.26-2.27-.4-4S84,43.53,84,42.65a1.89,1.89,0,0,1,.63-1.42A2.15,2.15,0,0,1,86,40.5a2,2,0,0,1,1.18.41A1.35,1.35,0,0,1,87.81,41.9Z"/><path d="M103.73,40a2.28,2.28,0,0,1-.18.93c-.17.5-.27.8-.29.91a13.69,13.69,0,0,0-.07,4.89c.62,3.12,1.46,6.23,2.29,9.37a7.8,7.8,0,0,1,.15,3c-.21,1.33-.74,2.07-1.56,2.17-1.21.15-2.67-.79-4.32-2.84a39.64,39.64,0,0,1-3.9-6.26q-1.25-2.58-2.35-5.08a57.94,57.94,0,0,0,.68,7.62c.57,2.94,1.08,4.73,1.51,5.16a2.35,2.35,0,0,1,.7,1A1.41,1.41,0,0,1,96,62.2a2,2,0,0,1-1.23.67c-.62.06-1.26-.65-1.91-2.09a12.7,12.7,0,0,1-1-3.05c-.07-.41-.17-1-.28-1.8l-.27-1.75a36.26,36.26,0,0,1-.37-4.13c-.07-1.79-.15-3.11-.25-4-.17-1.31-.3-2.61-.41-3.9a.49.49,0,0,0-.06-.19.67.67,0,0,1,0-.19,1.18,1.18,0,0,1,.73-1.09,2.62,2.62,0,0,1,1.28-.42,2.39,2.39,0,0,1,2.22.95,5.92,5.92,0,0,1,.46,1.46c.11.51.23,1,.36,1.57a41.69,41.69,0,0,0,3.22,7.36c2.17,4,3.73,6.08,4.37,6,.24,0,.28-.34.12-1,0-.18-.15-.46-.31-.86s-.25-.71-.31-.93c-.65-3-1.27-6-1.7-8.91a13.27,13.27,0,0,1,.05-3.93c.32-1.83,1-2.77,1.85-2.82a2.27,2.27,0,0,1,1.18.53A1.17,1.17,0,0,1,103.73,40Z"/><g class="cls-3"><path class="cls-4" d="M12.56,59.94a18.28,18.28,0,0,0,12.51,9.21c1.89.37,2.7-2.52.8-2.89a15.41,15.41,0,0,1-10.72-7.83c-.93-1.7-3.52-.18-2.59,1.51Z"/></g></g></svg>
