<svg xmlns="http://www.w3.org/2000/svg" width="270" height="150" viewBox="0 0 270 150"><defs><style>.cls-1{fill:#6ba460;stroke:#003442;stroke-miterlimit:10;stroke-width:4px;opacity:0.8;}.cls-2{fill:#b1d5a2;}</style></defs><title>play</title><g id="Lag_1" data-name="Lag 1"><rect class="cls-1" x="5.46" y="5.27" width="259.09" height="139.46" rx="65.52"/><path d="M93,66.47a21.69,21.69,0,0,1-.23,3.41q-3,20.22-16.67,20.21A20.63,20.63,0,0,1,63.51,86v1.84q-.07,5.87.92,8.05a18.24,18.24,0,0,1,1.44,3.5,4.4,4.4,0,0,1-1.18,3.06,3.51,3.51,0,0,1-2.7,1.31,4.58,4.58,0,0,1-4.64-2.8,21.24,21.24,0,0,1-.92-6.21c-.1-2-.15-4.26-.15-6.82a42.42,42.42,0,0,1,.34-4.47A42.34,42.34,0,0,0,57,78.89v-6q-.08-2.62.31-7.74t.38-7.57V49.76c0-.12-.23-1.7-.69-4.73,1.31-1.4,2.54-2.1,3.7-2.1a3.76,3.76,0,0,1,3.24,1.71,7,7,0,0,1,1.21,4.15V50q5-7.62,12.72-7.61a13.09,13.09,0,0,1,11.42,6.21Q93,54.22,93,62.79v3.68Zm-6.93-1.4a29.54,29.54,0,0,0-1.6-10.33Q82.25,49,77.68,49q-5.87,0-10.05,8.22a31,31,0,0,0-3.74,14.44q0,12.16,10.67,12.16,5.7,0,8.37-5.68Q84.46,75,85.82,66.64C86,65.54,86.05,65,86.05,65.07Z"/><path d="M129.15,100.42a44.93,44.93,0,0,1-17.36,3.41q-7.16,0-10.05-5.77-2.2-4.47-2.21-13.3,0-5.17.69-15.32t.68-15.31c0-.64,0-1.66-.11-3.06s-.12-2.45-.12-3.15a18.94,18.94,0,0,1,.16-2.36,4.47,4.47,0,0,1,3.73-2.1q2.13,0,3.27,3.15a14.86,14.86,0,0,1,.91,5.25q0,5.94-1,17.67t-1,17.59q0,10.32,5.1,10.32a18.61,18.61,0,0,0,6.55-1.79A18.74,18.74,0,0,1,125,93.86,3.57,3.57,0,0,1,128.24,96,9.41,9.41,0,0,1,129.15,100.42Z"/><path d="M175.6,87.21q0,4.2-3.27,4.28A34.11,34.11,0,0,0,174,96.92a4.38,4.38,0,0,1-1.37,3.15,4.26,4.26,0,0,1-3,1.22,7.08,7.08,0,0,1-3.2-1,13.52,13.52,0,0,1-1-5.42c0-.53,0-1.29.08-2.28s.07-1.72.07-2.19c0,.41-.84.62-2.51.62-2.85,0-6.22.14-10.13.43-5.58.35-8.62.85-9.1,1.49s-.8,3.76-.95,9.36a2.9,2.9,0,0,1-2.51,1.67,5,5,0,0,1-3.28-1.54,4.4,4.4,0,0,1-1.67-3.28,32.9,32.9,0,0,1,1.37-4.9q1.51-6.21,4.95-18.63,10.2-32.11,17-32.12,6.62,0,10.2,17a212.88,212.88,0,0,1,3,23.36,10.13,10.13,0,0,1,2.51.88A2.69,2.69,0,0,1,175.6,87.21Zm-10.66-3.33q-3.34-30.54-6-30.54-2.15,0-7.47,14.35-3.81,10.34-6,17.94c1.62-.41,4-.9,7.23-1.49A72.27,72.27,0,0,1,164.94,83.88Z"/><path d="M219.31,48.36a30.38,30.38,0,0,1-2.93,4.41A28.36,28.36,0,0,0,213.56,57q-.72,1.48-9.17,27-7.17,21.78-9.52,21.78a5.28,5.28,0,0,1-3.58-1.31,4.47,4.47,0,0,1-1.75-3.67,6.81,6.81,0,0,1,1.37-3.5,32.93,32.93,0,0,0,3-7.44c.82-2.68,1.63-5.37,2.44-8q-4.56-4.2-8.07-12.86-6.09-14.79-6.09-20.83,0-5.07,4-5.07c3,0,4.57,2,4.57,6a15.17,15.17,0,0,1-.19,1.88,13.89,13.89,0,0,0-.19,2q0,3.67,3,11.55,3.12,8.33,5.63,9.54A106.28,106.28,0,0,0,203.32,64Q207,54.75,209,50.72q3.43-6.57,5.71-6.56a4.4,4.4,0,0,1,3,1.18A4.64,4.64,0,0,1,219.31,48.36Z"/><path class="cls-2" d="M27.46,111.19s17.32,21.3,45.17,26.16"/></g></svg>
