<svg xmlns="http://www.w3.org/2000/svg" width="270" height="150" viewBox="0 0 270 150"><defs><style>.cls-1{fill:#6ba460;stroke:#003442;stroke-miterlimit:10;stroke-width:4px;opacity:0.8;}</style></defs><title>play</title><g id="Lag_1" data-name="Lag 1"><rect class="cls-1" x="5.46" y="5.27" width="259.09" height="139.46" rx="65.52"/><path d="M100.45,69.62Q97.32,91.85,84.07,91A18.56,18.56,0,0,1,72,85.54l-.54.44v3.59a24.52,24.52,0,0,0,.76,7.61A17.8,17.8,0,0,0,73,99a6.9,6.9,0,0,1,.76,1.89,3.24,3.24,0,0,1-.68,2,2,2,0,0,1-1.68.92,3.3,3.3,0,0,1-3.2-1.75,12.26,12.26,0,0,1-.76-4.2c-.15-3-.23-6-.23-9q0-2.62.35-7.87t.3-8q0-2.76.34-8.14t.39-8V48.44a10.73,10.73,0,0,0-.27-1.92,10.81,10.81,0,0,1-.27-1.93c0-1.1.66-1.66,2-1.66a2.55,2.55,0,0,1,2.17,1.31,4.93,4.93,0,0,1,.88,2.8,22.77,22.77,0,0,1-.34,3.24,21.65,21.65,0,0,0-.35,3.24v2.27c1.17-2.33,2.33-4.66,3.5-7q4.1-6.55,10.86-6.56,7.29,0,11,6.91,3,5.7,3,14.44A48.25,48.25,0,0,1,100.45,69.62Zm-3.43-5a32.59,32.59,0,0,0-2-12q-2.66-6.75-7.82-6.75-6.69,0-11.31,10.23a41.75,41.75,0,0,0-4,17.24V78A2.72,2.72,0,0,1,73,77.58c.36,0,.67.3,1,.88a3.59,3.59,0,0,0,.73,1.15c0,.18-.13.24-.23.18s-.15,0-.15.18a4.43,4.43,0,0,0,.6,1.59A9.77,9.77,0,0,0,84,86.86a9.66,9.66,0,0,0,8.65-4.39q2.2-3.24,3.49-10.35A49.56,49.56,0,0,0,97,64.67Z"/><path d="M132.12,100.77a39.19,39.19,0,0,1-15.84,3.06q-6.54,0-9-5.86-1.76-4.11-1.75-12.6,0-5.43.72-16.19t.72-16.1c0-.76,0-1.86-.15-3.32s-.15-2.57-.15-3.33c0-.58,0-1.19.08-1.84a2.67,2.67,0,0,1,2.28-1.13q2.67,0,2.67,7.17,0,6.21-1,18.64t-1,18.64q0,11.81,6.86,11.81A20.79,20.79,0,0,0,123,98.23a20.9,20.9,0,0,1,6.44-1.49A2.19,2.19,0,0,1,131.4,98,5.52,5.52,0,0,1,132.12,100.77Z"/><path d="M171.72,86.16c0,1.86-.64,2.8-1.9,2.8a4.17,4.17,0,0,1-1.6-.35,30.82,30.82,0,0,0,1.9,10,2.48,2.48,0,0,1-1,1.84,3,3,0,0,1-1.94.7,4.42,4.42,0,0,1-2.06-.61,11.65,11.65,0,0,1-.61-4.38c0-.52,0-1.49.08-2.89V90.36a6.27,6.27,0,0,0-.23-2.1,8,8,0,0,0-1.94.08,14.68,14.68,0,0,1-1.79.18,77.47,77.47,0,0,0-10.28,1c-5.33.82-8.4,1.63-9.22,2.45-.45.41-.94,2.51-1.44,6.3q-.62,4.64-.69,6.82a1.19,1.19,0,0,1-1.06.62,3.42,3.42,0,0,1-2.21-1.14,3.13,3.13,0,0,1-1.22-2.19,10.16,10.16,0,0,1,.61-2.36c.4-1.23.63-2,.68-2.28a132.15,132.15,0,0,1,5-21.43q10-32.82,15.54-32.82,5.86,0,9.06,17.15,1.14,6,2.66,23.1a6.29,6.29,0,0,0,2.29,1C171.26,85,171.72,85.46,171.72,86.16Zm-7.39-2.54Q162.43,68.21,161.9,65q-2.52-14.7-5.33-14.61-3.13.18-7.85,13.47-2.67,8.4-5.25,16.8a23.88,23.88,0,0,0-1,3.42c-.21,1.4.15,2.1,1.06,2.1.31,0,1.86-.3,4.65-.88Q151.46,84.58,164.33,83.62Z"/><path d="M208.88,46.61a30,30,0,0,1-2.82,4.33,22.39,22.39,0,0,0-2.74,4.42q-5.56,12.51-9.67,24.58-6,17.69-5.41,25.12a4.17,4.17,0,0,1-2.59,1.13c-1.62,0-2.92-1.63-3.88-4.9.3-.29.8-.83,1.49-1.61s1.76-3.58,3.23-8.36c.92-3.21,1.85-6.42,2.82-9.63q-4.87-4.36-8.45-13.73-5.94-15.66-5.94-21.27,0-3.59,2.43-3.58A2.94,2.94,0,0,1,179.94,45a9.08,9.08,0,0,1,.76,3.68,4.89,4.89,0,0,1-.34,1.57,4.78,4.78,0,0,0-.34,1.49q0,4,3.81,13.74,4.18,10.5,7,10.41,1.29-1.58,7.24-17.5,5.25-14.27,7.84-14.26C207.74,44.16,208.73,45,208.88,46.61Z"/></g></svg>
