<svg xmlns="http://www.w3.org/2000/svg" width="272.09" height="150" viewBox="0 0 272.09 150"><defs><style>.cls-1{fill:#223e20;}.cls-1,.cls-2{opacity:0.8;}.cls-2{fill:#6ba460;stroke:#003442;stroke-miterlimit:10;stroke-width:4px;}.cls-3{fill:#b1d5a2;}</style></defs><title>play</title><g id="Lag_1" data-name="Lag 1"><rect class="cls-1" x="2.09" y="2" width="270" height="148" rx="65.52"/><rect class="cls-2" x="2" y="2" width="259.09" height="139.46" rx="65.52"/><path d="M89.53,63.2a23,23,0,0,1-.23,3.41q-3,20.22-16.68,20.21a20.58,20.58,0,0,1-12.56-4.11v1.84q-.08,5.86.91,8a17.92,17.92,0,0,1,1.45,3.5,4.45,4.45,0,0,1-1.18,3.06,3.54,3.54,0,0,1-2.7,1.31,4.59,4.59,0,0,1-4.65-2.8A21.33,21.33,0,0,1,53,91.46c-.11-2-.16-4.26-.16-6.82a43.06,43.06,0,0,1,.35-4.47,45.15,45.15,0,0,0,.34-4.55v-6q-.07-2.62.3-7.74c.26-3.41.38-5.93.38-7.57V46.49c0-.12-.22-1.7-.68-4.73,1.31-1.4,2.54-2.1,3.7-2.1a3.79,3.79,0,0,1,3.24,1.71,7,7,0,0,1,1.21,4.15v1.23q5-7.62,12.71-7.61A13.11,13.11,0,0,1,85.8,45.35q3.72,5.59,3.73,14.17V63.2ZM82.6,61.8A29.78,29.78,0,0,0,81,51.47q-2.2-5.78-6.78-5.77-5.86,0-10,8.22a31,31,0,0,0-3.73,14.44q0,12.17,10.66,12.16,5.72,0,8.38-5.68Q81,71.69,82.37,63.37C82.52,62.27,82.6,61.74,82.6,61.8Z"/><path d="M125.7,97.15a45,45,0,0,1-17.36,3.41q-7.17,0-10.06-5.77-2.2-4.47-2.2-13.3,0-5.17.68-15.32t.69-15.31q0-1-.12-3.06c-.07-1.4-.11-2.45-.11-3.15a20.89,20.89,0,0,1,.15-2.36,4.49,4.49,0,0,1,3.73-2.1q2.13,0,3.28,3.15a14.86,14.86,0,0,1,.91,5.25q0,5.94-1,17.67t-1,17.59q0,10.32,5.1,10.32A18.56,18.56,0,0,0,115,92.38a18.78,18.78,0,0,1,6.55-1.79,3.56,3.56,0,0,1,3.27,2.18A9.41,9.41,0,0,1,125.7,97.15Z"/><path d="M172.15,83.94c0,2.8-1.1,4.23-3.28,4.28a34.34,34.34,0,0,0,1.68,5.43,4.42,4.42,0,0,1-1.37,3.15A4.28,4.28,0,0,1,166.13,98a7.12,7.12,0,0,1-3.2-1,13.52,13.52,0,0,1-1-5.42c0-.53,0-1.29.08-2.28s.08-1.72.08-2.19c0,.41-.84.62-2.52.62-2.84,0-6.22.14-10.12.43q-8.39.52-9.1,1.49c-.49.64-.8,3.76-1,9.36a2.89,2.89,0,0,1-2.51,1.67,5,5,0,0,1-3.27-1.53,4.45,4.45,0,0,1-1.68-3.29,34.39,34.39,0,0,1,1.37-4.9q1.53-6.21,4.95-18.63,10.2-32.12,17-32.12,6.63,0,10.21,17a218,218,0,0,1,3,23.36,10.3,10.3,0,0,1,2.51.88A2.71,2.71,0,0,1,172.15,83.94Zm-10.66-3.33q-3.36-30.54-6-30.54-2.13,0-7.46,14.35-3.81,10.33-6,17.94c1.63-.41,4-.9,7.24-1.49A72.23,72.23,0,0,1,161.49,80.61Z"/><path d="M215.86,45.09a30.61,30.61,0,0,1-2.94,4.41,28.92,28.92,0,0,0-2.81,4.25q-.74,1.48-9.18,27-7.16,21.78-9.52,21.78a5.29,5.29,0,0,1-3.58-1.31,4.49,4.49,0,0,1-1.75-3.67,6.9,6.9,0,0,1,1.37-3.5,32.84,32.84,0,0,0,3.05-7.44c.81-2.68,1.62-5.37,2.44-8.05q-4.58-4.2-8.08-12.86Q178.77,51,178.77,44.91q0-5.07,4-5.07,4.58,0,4.57,6a13.42,13.42,0,0,1-.19,1.88,13.89,13.89,0,0,0-.19,2q0,3.68,3,11.55,3.12,8.32,5.63,9.54a108,108,0,0,0,4.35-10.06q3.65-9.27,5.71-13.3,3.42-6.57,5.71-6.56a4.38,4.38,0,0,1,3,1.18A4.7,4.7,0,0,1,215.86,45.09Z"/><path class="cls-3" d="M26.14,112.63a39.78,39.78,0,0,0,20.17,12.76,1.5,1.5,0,0,0,.8-2.89,37,37,0,0,1-18.85-12c-1.25-1.47-3.36.66-2.12,2.12Z"/></g></svg>
