<svg xmlns="http://www.w3.org/2000/svg" width="490" height="370" viewBox="0 0 490 370"><defs><style>.cls-1{fill:#6ba460;stroke:#003442;stroke-miterlimit:10;stroke-width:4px;opacity:0.8;}.cls-2{fill:#131311;}.cls-3{fill:#28565a;}.cls-4{fill:#efe3da;}</style></defs><title>settingsmenu</title><g id="Lag_1" data-name="Lag 1"><path class="cls-1" d="M68.89,6.74H417.7a70.07,70.07,0,0,1,70.07,70.07V294.44a68.82,68.82,0,0,1-68.82,68.82H72.17A69.94,69.94,0,0,1,2.23,293.32V73.4A66.66,66.66,0,0,1,68.89,6.74Z"/><path class="cls-2" d="M206.17,67.26q0,3.36-3.66,5.16a14,14,0,0,1-6.27,1.44,18.47,18.47,0,0,1-6.73-1.44q-4.69-1.86-4.7-4.62c0-1,.42-1.5,1.25-1.5a3.58,3.58,0,0,1,2.3,1.32q1.83,2,2,2.1,2,1.5,6.43,1.5,6,0,5.95-3.6,0-1.68-2.56-4.14c-.28-.24-1.58-1.32-3.92-3.24a58.65,58.65,0,0,1-7-6.36,14.3,14.3,0,0,1-3.29-9.36,17.09,17.09,0,0,1,2.45-9Q191.08,31,195.2,31q3.5,0,6,3.42a16.61,16.61,0,0,1,2.87,7.26c0,1,.17,2.42.41,4.38l.42,2.16q0,4.8-2,4.8a1.46,1.46,0,0,1-1.07-.69,2.11,2.11,0,0,1-.55-1.29,15.33,15.33,0,0,1,.28-2.46,14.48,14.48,0,0,0,.29-2.46,21.64,21.64,0,0,0-1.14-7.32q-1.5-4.32-4.56-4.32a6,6,0,0,0-5.1,3.09,12,12,0,0,0-2,6.75q0,4.92,4.47,9.36l8.28,6.9Q206.17,64.26,206.17,67.26Z"/><path class="cls-2" d="M224.44,66.42q0,2.64-3.08,4.74a9.26,9.26,0,0,1-5.22,1.92q-7,0-7-10.2a36.75,36.75,0,0,1,1.41-9.66q1.89-6.72,4.81-6.72c1.67,0,3.49,1,5.48,2.91s3,3.87,3,5.79a9.14,9.14,0,0,1-2.62,6.48,7.93,7.93,0,0,1-5.9,2.76,3.8,3.8,0,0,1-1.33-.6,3.68,3.68,0,0,0-1.38-.6c-.45,0-.68.16-.68.48q0,6.9,4,6.9a5.49,5.49,0,0,0,3.76-1.56,13.91,13.91,0,0,0,2.3-2.82c.66-1,1.09-1.5,1.3-1.5Q224.44,64.74,224.44,66.42Zm-3.6-11a7.77,7.77,0,0,0-1.05-3.93A3.1,3.1,0,0,0,217,49.62q-2.1,0-3.4,3a13,13,0,0,0-1.09,5.22,4.44,4.44,0,0,0,1,2.91A3.08,3.08,0,0,0,216,61.92a4.16,4.16,0,0,0,3.55-2.1A7.71,7.71,0,0,0,220.84,55.38Z"/><path class="cls-2" d="M238.33,53.46a4.55,4.55,0,0,1-2,.6,7.53,7.53,0,0,0-2,.42q0,.66-.05,6.66,0,4.68.1,6.3a12.85,12.85,0,0,0,.27,2.1,13.84,13.84,0,0,1,.26,2.22,1.35,1.35,0,0,1-.53,1,1.46,1.46,0,0,1-.94.48c-.69,0-1.25-.82-1.67-2.46a15,15,0,0,1-.41-3.42V54.84c-.21-.2-1-.2-2.35,0q-1.62.24-1.62-1.38,0-2.28,4.23-2.1l.68-10.86a2.05,2.05,0,0,0-.14-.57,2.35,2.35,0,0,1-.13-.57.91.91,0,0,1,.42-.69,1.32,1.32,0,0,1,1-.27,1.85,1.85,0,0,1,1.83,2.1,41.41,41.41,0,0,1-.36,4.5,39.4,39.4,0,0,0-.37,4.44,7.72,7.72,0,0,0,.11,1.38l2.87-.18c1,0,1.46.44,1.46,1.32A1.82,1.82,0,0,1,238.33,53.46Z"/><path class="cls-2" d="M253.16,53.46a4.55,4.55,0,0,1-2,.6,7.53,7.53,0,0,0-2,.42q0,.66-.05,6.66,0,4.68.1,6.3a12.85,12.85,0,0,0,.27,2.1,13.84,13.84,0,0,1,.26,2.22,1.35,1.35,0,0,1-.53,1,1.46,1.46,0,0,1-.94.48c-.69,0-1.25-.82-1.67-2.46a15,15,0,0,1-.41-3.42V54.84c-.21-.2-1-.2-2.35,0q-1.62.24-1.62-1.38,0-2.28,4.23-2.1l.68-10.86a2.05,2.05,0,0,0-.14-.57,2.35,2.35,0,0,1-.13-.57.91.91,0,0,1,.42-.69,1.32,1.32,0,0,1,1-.27,1.85,1.85,0,0,1,1.83,2.1,41.41,41.41,0,0,1-.36,4.5,39.4,39.4,0,0,0-.37,4.44,7.72,7.72,0,0,0,.11,1.38l2.87-.18c1,0,1.46.44,1.46,1.32A1.82,1.82,0,0,1,253.16,53.46Z"/><path class="cls-2" d="M260.84,48.9a17.51,17.51,0,0,1-.45,3.24,18.19,18.19,0,0,0-.44,3.24V68.64a17,17,0,0,0,.52,3.6q-.21.48-.57.48c-1.71,0-2.56-.94-2.56-2.82v-22a2.24,2.24,0,0,1,2.61,0C260.54,48.16,260.84,48.5,260.84,48.9Zm1-9c0,1.36-.56,2-1.67,2a2.55,2.55,0,0,1-1.83-.84,2.64,2.64,0,0,1-.84-1.92c0-1.36.6-2,1.78-2a2.41,2.41,0,0,1,1.8.78A2.71,2.71,0,0,1,261.83,39.9Z"/><path class="cls-2" d="M281.62,72.66a.93.93,0,0,1-.84.66,4,4,0,0,1-1.77-.84V68.82q0-19.92-4.32-19.92-1.35,0-2.91,2.28-3.94,5.64-3.95,14.22a28.25,28.25,0,0,0,.29,3.33,28.25,28.25,0,0,1,.29,3.33c0,.6-.36.9-1.06.9-1.35,0-2-1.26-2-3.78V55.56c0-.36,0-.88.05-1.56s.05-1.2.05-1.56a20.77,20.77,0,0,0-.18-2.28,20.66,20.66,0,0,1-.18-2.22,1.69,1.69,0,0,1,.65-1.11,1.78,1.78,0,0,1,1-.63A1.57,1.57,0,0,1,268,47c-.1,2.6-.16,4.12-.16,4.56q0,.9.06,1.74c.31-.12.73-.78,1.25-2a15,15,0,0,1,1.67-3.12,3.56,3.56,0,0,1,2.87-1.68,5.33,5.33,0,0,1,1.88.54,7.36,7.36,0,0,1,4,4q2,4.74,2,12.54Z"/><path class="cls-2" d="M301,54.36c0,.24,0,.58-.05,1a56.61,56.61,0,0,0-1.1,9.66c0,1.24.05,3.14.16,5.7s.15,4.48.15,5.76a19.9,19.9,0,0,1-.52,5.4,6.46,6.46,0,0,1-2.4,3.3,6,6,0,0,1-3.65,1.32,14.68,14.68,0,0,1-5.07-1.08c-2.44-.88-3.65-1.94-3.65-3.18,0-1.08.36-1.62,1.09-1.62q.46,0,.84.72a5.07,5.07,0,0,0,.68,1.14,4.52,4.52,0,0,0,2.14.9,8.83,8.83,0,0,0,2.35.48,4.81,4.81,0,0,0,4.43-2.64,11.4,11.4,0,0,0,1.31-5.82,26.22,26.22,0,0,0-.57-6.12c-1.67,2.52-3.68,3.78-6,3.78a5.12,5.12,0,0,1-2.45-.81,6.39,6.39,0,0,1-2.09-1.77q-1.41-1.92-1.41-6.06a41.47,41.47,0,0,1,1.62-11q2.08-7.62,5.48-7.62,2.72,0,5.74,5.64a17.07,17.07,0,0,0,1,1.74A9.79,9.79,0,0,1,301,54.36Zm-3.13,3.3a2.93,2.93,0,0,0-.79-2.1A10.73,10.73,0,0,0,296,51.24,3.62,3.62,0,0,0,292.74,49q-1.41,0-2.82,3.66a25.08,25.08,0,0,0-1.41,5.16A43.39,43.39,0,0,0,288,64c0,4.92,1.23,7.38,3.71,7.38q2.82,0,4.69-5.4A26.06,26.06,0,0,0,297.86,57.66Z"/><path class="cls-2" d="M320.26,68.87c0,1.4-.93,2.59-2.77,3.55a10,10,0,0,1-4.44,1.14,8.43,8.43,0,0,1-3.24-.78,16.72,16.72,0,0,1-3.18-2.54q-2.4-2.23-2.4-3.09c0-1.25.64-1.81,1.93-1.69h.31c.07,1.21,1.18,2.53,3.34,3.94q2.93,1.93,4.7,1.94c1.53,0,2.3-.6,2.3-1.8,0-.73-.94-1.73-2.82-3a30.18,30.18,0,0,1-5.27-4.15A10.61,10.61,0,0,1,305.84,55a13.16,13.16,0,0,1,1.42-5.95q1.61-3.37,4.07-3.37a7.65,7.65,0,0,1,4.28,1.89,6.94,6.94,0,0,1,2.92,3.81A15.16,15.16,0,0,1,319,55.2a19.9,19.9,0,0,1-.73,5.1,1.59,1.59,0,0,1-1.1.42,3.49,3.49,0,0,1-1.15-.33q-.78-.33-.78-.69c0,.16.19-.28.58-1.32a11.46,11.46,0,0,0,.41-3.72q0-6.42-3.49-6.42c-1.22,0-2.2.94-2.93,2.83a12.2,12.2,0,0,0-.94,4.63c0,2,1,3.87,3,5.71a63.24,63.24,0,0,0,5.48,4.15C319.26,67,320.26,68.07,320.26,68.87Z"/><path class="cls-2" d="M122.33,123a1.59,1.59,0,0,1-.39,1c-.26.32-.5.63-.71.93a3.56,3.56,0,0,0-.31,1.83,17,17,0,0,1,0,2,238.27,238.27,0,0,0-1.31,24v5.7c.14,2.84.67,4.44,1.57,4.8v.6a.91.91,0,0,1-.89.66q-3.29,0-3.91-7.38a33.87,33.87,0,0,1,0-5.7L117.68,132q-1.92,8.1-3.85,16.2-3.54,12.72-6.93,12.72c-1,0-2.05-.74-3.13-2.22a12.79,12.79,0,0,1-2-3.72,115.43,115.43,0,0,1-3.33-13.14q-1.3-6.72-2.66-13.38l-.31.9a147.63,147.63,0,0,0-.83,15.9L95.18,159c.07,1.44.49,2.22,1.25,2.34,0,1.08-.8,1.62-2.5,1.62s-2.36-3.3-2.36-9.9q0-4.5.42-13.41t.42-13.41a5.39,5.39,0,0,0-.16-1.5,3.85,3.85,0,0,1-.15-.66q0-2.34,4.17-2.34c.53,0,1.15.42,1.88,1.26.11,1.24.27,3.08.47,5.52a127.39,127.39,0,0,0,3.08,15.36q3,12.36,5,12.36,2.44,0,5.37-11.28,1.83-7.26,2.93-14.4.68-2.28,1.72-6.48a3.28,3.28,0,0,1,3.6-2.7,2.54,2.54,0,0,1,1.36.42A1.29,1.29,0,0,1,122.33,123Z"/><path class="cls-2" d="M140.5,140.42c0,1.24-.11,3.09-.34,5.55s-.34,4.59-.34,6.39c0,.72.06,2.09.19,4.11s.18,3.47.18,4.35c0,1.76-.18,2.82-.52,3.18a1.45,1.45,0,0,1-.89.24,1.56,1.56,0,0,1-1.57-1.14q-.21-1.14-.42-2.22a7,7,0,0,1-5.17,3.36c-.9.16-2-.3-3.13-1.38a7.42,7.42,0,0,1-2.14-2.9q-.73-2-.73-7.65V139.23c-.21-1.21.38-1.81,1.77-1.81q1.47,0,1.47,1.92c0,1.92-.06,4.42-.16,7.5-.1,3.92-.16,6.42-.16,7.5a10.72,10.72,0,0,0,.84,4.32c.7,1.72,1.58,2.58,2.66,2.58,1.78,0,3.15-1.36,4.13-4.08a20.86,20.86,0,0,0,1-6.72v-7.86a4.42,4.42,0,0,0-.29-1.35,4.74,4.74,0,0,1-.28-1.41,4,4,0,0,1,.05-.66,2.33,2.33,0,0,1,1.46-.84C139.72,138.16,140.5,138.86,140.5,140.42Z"/><path class="cls-2" d="M159.51,159.37c0,1.4-.92,2.59-2.77,3.55a10,10,0,0,1-4.44,1.14,8.43,8.43,0,0,1-3.24-.78,16.72,16.72,0,0,1-3.18-2.54q-2.4-2.24-2.4-3.09c0-1.24.64-1.81,1.93-1.69h.31c.07,1.21,1.19,2.53,3.34,3.94,1.95,1.3,3.52,1.94,4.7,1.94,1.54,0,2.3-.6,2.3-1.8,0-.72-.94-1.73-2.82-3a30.58,30.58,0,0,1-5.27-4.15,10.6,10.6,0,0,1-2.87-7.34,13.15,13.15,0,0,1,1.41-5.95q1.61-3.37,4.07-3.37a7.65,7.65,0,0,1,4.28,1.89,6.94,6.94,0,0,1,2.92,3.81,15.16,15.16,0,0,1,.42,3.78,19.9,19.9,0,0,1-.73,5.1,1.59,1.59,0,0,1-1.09.42,3.37,3.37,0,0,1-1.15-.33c-.53-.22-.79-.45-.79-.69,0,.16.19-.28.58-1.32a11.18,11.18,0,0,0,.41-3.72q0-6.42-3.49-6.42c-1.22,0-2.2.94-2.93,2.83a12.2,12.2,0,0,0-.94,4.63c0,2,1,3.87,3,5.71a61.12,61.12,0,0,0,5.48,4.15Q159.52,158.18,159.51,159.37Z"/><path class="cls-2" d="M166.51,139.4a17.51,17.51,0,0,1-.45,3.24,17.29,17.29,0,0,0-.44,3.24v13.26a17,17,0,0,0,.52,3.6c-.14.32-.33.48-.58.48q-2.55,0-2.55-2.82v-22a2.46,2.46,0,0,1,1.3-.42,2.52,2.52,0,0,1,1.31.42C166.21,138.66,166.51,139,166.51,139.4Zm1-9c0,1.36-.56,2-1.67,2a2.52,2.52,0,0,1-1.83-.84,2.64,2.64,0,0,1-.84-1.92c0-1.36.59-2,1.78-2a2.44,2.44,0,0,1,1.8.78A2.75,2.75,0,0,1,167.5,130.4Z"/><path class="cls-2" d="M187.13,156.64q0,1.44-2.14,3.89a8.16,8.16,0,0,1-6.53,3.53,6.55,6.55,0,0,1-5.85-3.18,13.06,13.06,0,0,1-1.88-7.34,36.07,36.07,0,0,1,1.73-10.34q2.13-7.09,5.32-7.1a7.94,7.94,0,0,1,4,1.71q2.5,1.71,2.82,3.27a18.48,18.48,0,0,1,.37,3.66q0,6.6-1.73,6.6a2,2,0,0,1-1-.36,1,1,0,0,1-.57-.84,1.44,1.44,0,0,1,.21-.63c.14-.26.22-.43.26-.51a18.29,18.29,0,0,0,.21-3.6q0-6.66-2.61-6.66c-1.92,0-3.48,2-4.7,6.08a31.86,31.86,0,0,0-1.36,8.9,14.33,14.33,0,0,0,.89,5.41q1.2,2.84,3.7,2.83a5.81,5.81,0,0,0,3.56-1.81,11.5,11.5,0,0,0,2.71-3.45c.14-.4.35-1,.63-1.69a.81.81,0,0,1,.73-.43c.21,0,.46.27.76.82A3,3,0,0,1,187.13,156.64Z"/><path class="cls-2" d="M110.78,223.55q0,3.36-3.65,5.16a14,14,0,0,1-6.27,1.44,18.47,18.47,0,0,1-6.73-1.44c-3.14-1.24-4.7-2.78-4.7-4.62,0-1,.41-1.5,1.25-1.5a3.58,3.58,0,0,1,2.3,1.32q1.83,2,2,2.1c1.32,1,3.47,1.5,6.42,1.5q6,0,6-3.6c0-1.12-.86-2.5-2.56-4.14l-3.92-3.24a59.89,59.89,0,0,1-7-6.36,14.36,14.36,0,0,1-3.29-9.36,17.1,17.1,0,0,1,2.46-9q2.72-4.56,6.84-4.56,3.5,0,6,3.42a16.49,16.49,0,0,1,2.87,7.26q.06,1.44.42,4.38l.42,2.16q0,4.8-2,4.8a1.48,1.48,0,0,1-1.07-.69,2.17,2.17,0,0,1-.55-1.29,15.6,15.6,0,0,1,.29-2.46,15.6,15.6,0,0,0,.29-2.46,21.64,21.64,0,0,0-1.14-7.32q-1.5-4.32-4.56-4.32a6,6,0,0,0-5.1,3.09,12,12,0,0,0-2.05,6.75q0,4.92,4.48,9.36l8.28,6.9Q110.79,220.55,110.78,223.55Z"/><path class="cls-2" d="M130.31,216.83a19.39,19.39,0,0,1-2,9q-2.36,4.62-6.53,4.62a6.78,6.78,0,0,1-6.32-3.78,17.1,17.1,0,0,1-1.72-8.28,26.62,26.62,0,0,1,2-10q2.51-6.06,6.37-6.06a5.63,5.63,0,0,1,2.82,1.32Q130.32,207.47,130.31,216.83Zm-2.51-.06a24.84,24.84,0,0,0-.88-6.9q-1.31-4.26-4-4.26-3.14,0-4.91,4.74a22.31,22.31,0,0,0-1.36,7.86,18.63,18.63,0,0,0,.94,6.36q1.37,3.54,4.23,3.54,3.14,0,4.75-4.08A19.59,19.59,0,0,0,127.8,216.77Z"/><path class="cls-2" d="M148.48,206.21c0,1.24-.11,3.09-.34,5.55s-.34,4.59-.34,6.39c0,.72.06,2.09.19,4.11s.18,3.47.18,4.35c0,1.76-.18,2.82-.52,3.18a1.45,1.45,0,0,1-.89.24,1.56,1.56,0,0,1-1.57-1.14c-.14-.76-.28-1.5-.41-2.22a7.09,7.09,0,0,1-5.17,3.36c-.91.16-2-.31-3.14-1.39a7.4,7.4,0,0,1-2.14-2.89q-.74-2-.73-7.66V205c-.21-1.21.38-1.81,1.78-1.81,1,0,1.46.64,1.46,1.92q0,2.88-.16,7.5c-.1,3.92-.16,6.42-.16,7.5a10.72,10.72,0,0,0,.84,4.32c.7,1.72,1.58,2.58,2.66,2.58,1.78,0,3.15-1.36,4.13-4.08a20.86,20.86,0,0,0,1-6.72v-7.86a4.66,4.66,0,0,0-.28-1.35,4.51,4.51,0,0,1-.29-1.41,5.42,5.42,0,0,1,0-.66,2.33,2.33,0,0,1,1.46-.84C147.7,204,148.48,204.65,148.48,206.21Z"/><path class="cls-2" d="M168,229a.93.93,0,0,1-.84.66,4,4,0,0,1-1.77-.84v-3.66q0-19.92-4.31-19.92-1.36,0-2.91,2.28-4,5.64-4,14.22a27.78,27.78,0,0,0,.28,3.33,28.25,28.25,0,0,1,.29,3.33c0,.6-.35.9-1.06.9-1.35,0-2-1.26-2-3.78V211.85c0-.36,0-.88.05-1.56s0-1.2,0-1.56a20.77,20.77,0,0,0-.18-2.28,20.66,20.66,0,0,1-.18-2.22,1.73,1.73,0,0,1,.65-1.11,1.84,1.84,0,0,1,1-.63,1.57,1.57,0,0,1,1.25.84q-.15,3.9-.15,4.56c0,.6,0,1.18.05,1.74.31-.12.73-.78,1.25-2a15,15,0,0,1,1.67-3.12,3.57,3.57,0,0,1,2.87-1.68,5.33,5.33,0,0,1,1.88.54,7.36,7.36,0,0,1,4,4q2,4.74,2,12.54Z"/><path class="cls-2" d="M187.8,190.49a25.52,25.52,0,0,1-.31,3.55c-.25,1.88-.4,3.06-.47,3.54q-.17,1.86-.52,12.38-.31,9.61-.32,10.63c0,4.29.33,7.31,1,9.08a1.06,1.06,0,0,1-.94.66,1.85,1.85,0,0,1-1.17-.6,2.51,2.51,0,0,1-.81-1.2,31.54,31.54,0,0,0-.31-3.66c-2.06,3-4,4.5-5.9,4.5a5.81,5.81,0,0,1-5.23-2.94,12.53,12.53,0,0,1-1.56-6.66,36.27,36.27,0,0,1,1.62-10.44q2.08-7.08,5.53-7.08a4.69,4.69,0,0,1,3,1.26c.21.16,1,1,2.45,2.52q.53-4.09.52-17.94a1.27,1.27,0,0,1,1-.42,2.22,2.22,0,0,1,1.72.84A2.91,2.91,0,0,1,187.8,190.49Zm-3.92,22.2a10.45,10.45,0,0,0-1-4.74q-1.26-2.52-3.39-2.52c-1.74,0-3.14,2-4.18,6.12a33.1,33.1,0,0,0-1.25,8.7,12.75,12.75,0,0,0,.73,4.56q1,2.52,3,2.52,3.24,0,4.91-5.76A30.35,30.35,0,0,0,183.88,212.69Z"/><path class="cls-2" d="M112.79,254.9a102.64,102.64,0,0,1-1.36,13.8,122.36,122.36,0,0,1-3.23,14.4q-3.14,11.28-5.64,11.28A6.9,6.9,0,0,1,99,293.6Q96.4,292,94.1,278.66q-.52-3-2.4-17.4-.27-1.86-1-4.74a1.72,1.72,0,0,0-.29-.42,1.11,1.11,0,0,1-.29-.66,1.71,1.71,0,0,1,.94-1.35,3.09,3.09,0,0,1,1.62-.63,2.16,2.16,0,0,1,1.62.81A2.65,2.65,0,0,1,95,256.1c0,.8-.05,2-.13,3.51s-.13,2.71-.13,3.51a84.17,84.17,0,0,0,1.72,12.42q2.72,14.82,4.54,14.82c.8,0,1.73-1.1,2.77-3.3q2.5-5.1,4.6-15.18a83.42,83.42,0,0,0,2-16q0-2.28-1-3.06c.69-1.16,1.25-1.74,1.67-1.74s1,.5,1.3,1.5A7.43,7.43,0,0,1,112.79,254.9Z"/><path class="cls-2" d="M132.32,281.84a19.39,19.39,0,0,1-2,9q-2.35,4.62-6.53,4.62a6.78,6.78,0,0,1-6.32-3.78,17.1,17.1,0,0,1-1.72-8.28,26.62,26.62,0,0,1,2-10q2.5-6.06,6.37-6.06a5.63,5.63,0,0,1,2.82,1.32Q132.32,272.48,132.32,281.84Zm-2.51-.06a24.84,24.84,0,0,0-.88-6.9q-1.31-4.26-4-4.26-3.14,0-4.91,4.74a22.31,22.31,0,0,0-1.36,7.86,18.63,18.63,0,0,0,.94,6.36c.91,2.36,2.31,3.54,4.23,3.54q3.14,0,4.75-4.08A19.59,19.59,0,0,0,129.81,281.78Z"/><path class="cls-2" d="M139.42,293.06c0,1-.49,1.56-1.46,1.56q-2.29,0-2.24-10.86l.15-26.94a16.82,16.82,0,0,0-.15-1.89,15,15,0,0,1-.16-1.83,2.86,2.86,0,0,1,1.67-.84,2.3,2.3,0,0,1,1.46.6,1.8,1.8,0,0,1,.73,1.44,6,6,0,0,1-.26,1.56q-.32,1.2-.36,1.5a79.2,79.2,0,0,0-.63,11.4q0,11.82,0,11.4a75.84,75.84,0,0,0,.83,11.1,3.2,3.2,0,0,0,.24.81A3.21,3.21,0,0,1,139.42,293.06Z"/><path class="cls-2" d="M157.59,271.22c0,1.24-.11,3.09-.34,5.55s-.34,4.59-.34,6.39c0,.72.06,2.09.19,4.11s.18,3.47.18,4.35c0,1.76-.18,2.82-.52,3.18a1.45,1.45,0,0,1-.89.24,1.56,1.56,0,0,1-1.57-1.14c-.14-.76-.28-1.5-.41-2.22a7,7,0,0,1-5.17,3.36c-.91.16-1.95-.3-3.14-1.38a7.42,7.42,0,0,1-2.14-2.9q-.74-2-.73-7.65V270c-.21-1.2.38-1.81,1.78-1.81,1,0,1.46.64,1.46,1.92q0,2.88-.16,7.5-.15,5.88-.15,7.5a10.54,10.54,0,0,0,.83,4.32c.7,1.72,1.58,2.58,2.66,2.58,1.78,0,3.15-1.36,4.13-4.08a20.59,20.59,0,0,0,1-6.72v-7.86A4.66,4.66,0,0,0,154,272a4.51,4.51,0,0,1-.29-1.41,5.42,5.42,0,0,1,.05-.66,2.35,2.35,0,0,1,1.46-.84C156.81,269,157.59,269.66,157.59,271.22Z"/><path class="cls-2" d="M184.54,294.08a3.4,3.4,0,0,1-1.67.78,2.25,2.25,0,0,1-1.05-.42V288q0-18.52-3.3-18.53c-1.3,0-2.44,1.92-3.4,5.76A34,34,0,0,0,174,283v6a5.88,5.88,0,0,0,.23,1.35,5.43,5.43,0,0,1,.24,1.29,1.3,1.3,0,0,1-.58,1,1.66,1.66,0,0,1-1,.48c-.31,0-.66-.25-1-.75a2.24,2.24,0,0,1-.58-1.29V279a26.5,26.5,0,0,0-.57-4.86c-.49-2.48-1.08-3.72-1.78-3.72-.38,0-.95.56-1.72,1.68a24.61,24.61,0,0,0-3.92,14.16q0,1,.21,3t.21,3c0,1.2-.43,1.8-1.3,1.8a1.37,1.37,0,0,1-1.1-.6,10.24,10.24,0,0,1-.47-2.7c-.17-1.44-.26-2.42-.26-2.94V273.62q0-6.12,1.25-6.12a1.53,1.53,0,0,1,1.07.57,1.68,1.68,0,0,1,.55,1.17,22.52,22.52,0,0,1-.31,3.3c-.21,1.76-.33,2.86-.37,3.3l.26.3,2-5.16q1.41-3.3,3.34-3.3,2.72,0,4.7,6.72a13.13,13.13,0,0,0,1.3-3,16.74,16.74,0,0,1,1.41-3.24,2.93,2.93,0,0,1,2.46-1.44c.94,0,2,.73,3.13,2.17q3.18,3.9,3.19,14.13Z"/><path class="cls-2" d="M203.07,287.72c0,1.76-1,3.34-3.08,4.74a9.26,9.26,0,0,1-5.22,1.92q-7,0-7-10.2a36.75,36.75,0,0,1,1.41-9.66q1.89-6.72,4.81-6.72,2.5,0,5.48,2.91c2,1.94,3,3.87,3,5.79a9.13,9.13,0,0,1-2.61,6.48,8,8,0,0,1-5.91,2.76,3.88,3.88,0,0,1-1.33-.6,3.61,3.61,0,0,0-1.38-.6c-.45,0-.68.16-.68.48q0,6.9,4,6.9a5.49,5.49,0,0,0,3.76-1.56,13.58,13.58,0,0,0,2.3-2.82c.66-1,1.09-1.5,1.3-1.5Q203.07,286,203.07,287.72Zm-3.6-11a7.86,7.86,0,0,0-1-3.93,3.13,3.13,0,0,0-2.77-1.83q-2.1,0-3.4,3a13,13,0,0,0-1.09,5.22,4.44,4.44,0,0,0,1,2.91,3.08,3.08,0,0,0,2.48,1.17,4.16,4.16,0,0,0,3.55-2.1A7.71,7.71,0,0,0,199.47,276.68Z"/><rect class="cls-3" x="352.48" y="253.62" width="48" height="45" rx="11.81"/><rect class="cls-4" x="357.48" y="257.62" width="38" height="35.63" rx="7.75"/><rect class="cls-3" x="352.48" y="188.62" width="48" height="45" rx="11.81"/><rect class="cls-4" x="357.48" y="192.62" width="38" height="35.63" rx="7.75"/><rect class="cls-3" x="352.48" y="123.62" width="48" height="45" rx="11.81"/><rect class="cls-4" x="357.48" y="127.62" width="38" height="35.63" rx="7.75"/></g></svg>
