<svg xmlns="http://www.w3.org/2000/svg" width="390" height="390" viewBox="0 0 390 390"><defs><style>.cls-1,.cls-4{fill:#6ba460;}.cls-1{opacity:0.7;}.cls-2{fill:#131311;}.cls-3{fill:#2f3a35;}</style></defs><title>settings</title><g id="Lag_1" data-name="Lag 1"><circle class="cls-1" cx="195" cy="195" r="191.5"/><path class="cls-2" d="M324.71,193.64a121.22,121.22,0,1,1-121.2-121.2A121.2,121.2,0,0,1,324.71,193.64Z"/><rect class="cls-2" x="85.57" y="101.29" width="40.44" height="31.11" transform="translate(102.2 -40.74) rotate(40.85)"/><rect class="cls-2" x="131.89" y="66" width="40.01" height="31.11" transform="translate(156.15 -90.8) rotate(63.18)"/><rect class="cls-2" x="192.59" y="53.54" width="38.84" height="31.11" transform="translate(300.23 -135.69) rotate(95.25)"/><rect class="cls-2" x="248.07" y="71.18" width="40.91" height="31.11" transform="translate(477.91 -102.45) rotate(120)"/><rect class="cls-2" x="289.35" y="112.67" width="39.76" height="31.11" transform="translate(641.15 84.66) rotate(150)"/><rect class="cls-2" x="306.25" y="164.88" width="40.47" height="31.11" transform="translate(662.2 343.02) rotate(176.91)"/><rect class="cls-2" x="299.78" y="220.07" width="41.29" height="31.11" transform="translate(529.89 573.73) rotate(-158.11)"/><rect class="cls-2" x="270.6" y="267.2" width="41.36" height="31.11" transform="translate(276.49 688.43) rotate(-132.06)"/><rect class="cls-2" x="225.07" y="295.98" width="41.02" height="31.11" transform="translate(30.83 645.06) rotate(-108.97)"/><rect class="cls-2" x="170.42" y="302.96" width="40.87" height="31.11" transform="translate(-142.4 482.28) rotate(-85.24)"/><rect class="cls-2" x="120.49" y="286.77" width="40.57" height="31.11" transform="translate(-189.17 253.79) rotate(-56.66)"/><rect class="cls-2" x="81.97" y="252.84" width="40.37" height="31.11" transform="translate(-135.98 107.89) rotate(-35.18)"/><rect class="cls-2" x="61.01" y="204.59" width="40.47" height="31.11" transform="translate(-28.32 12.63) rotate(-7.58)"/><rect class="cls-2" x="62.83" y="148.39" width="40.24" height="31.11" transform="translate(29.39 -11.81) rotate(9.89)"/><path class="cls-3" d="M316.17,193.64A121.22,121.22,0,1,1,195,72.44,121.2,121.2,0,0,1,316.17,193.64Z"/><path class="cls-4" d="M286.9,192.14A87.86,87.86,0,1,1,199,104.29,87.86,87.86,0,0,1,286.9,192.14Z"/><rect class="cls-3" x="77.02" y="101.29" width="40.44" height="31.11" transform="translate(100.11 -35.15) rotate(40.85)"/><rect class="cls-3" x="123.34" y="66" width="40.01" height="31.11" transform="translate(151.46 -83.17) rotate(63.18)"/><rect class="cls-3" x="184.04" y="53.54" width="38.84" height="31.11" transform="translate(290.9 -127.18) rotate(95.25)"/><rect class="cls-3" x="239.53" y="71.18" width="40.91" height="31.11" transform="translate(465.08 -95.04) rotate(120)"/><rect class="cls-3" x="280.81" y="112.67" width="39.76" height="31.11" transform="translate(625.2 88.93) rotate(150)"/><rect class="cls-3" x="297.7" y="164.88" width="40.47" height="31.11" transform="translate(645.12 343.48) rotate(176.91)"/><rect class="cls-3" x="291.23" y="220.07" width="41.29" height="31.11" transform="translate(513.41 570.54) rotate(-158.11)"/><rect class="cls-3" x="262.05" y="267.2" width="41.36" height="31.11" transform="translate(262.21 682.09) rotate(-132.06)"/><rect class="cls-3" x="216.53" y="295.98" width="41.02" height="31.11" transform="translate(19.5 636.98) rotate(-108.97)"/><rect class="cls-3" x="161.87" y="302.96" width="40.87" height="31.11" transform="translate(-150.24 473.76) rotate(-85.24)"/><rect class="cls-3" x="111.94" y="286.77" width="40.57" height="31.11" transform="translate(-193.02 246.64) rotate(-56.66)"/><rect class="cls-3" x="73.43" y="252.84" width="40.37" height="31.11" transform="translate(-137.54 102.96) rotate(-35.18)"/><rect class="cls-3" x="52.47" y="204.59" width="40.47" height="31.11" transform="translate(-28.39 11.51) rotate(-7.58)"/><rect class="cls-3" x="54.28" y="148.39" width="40.24" height="31.11" transform="translate(29.26 -10.34) rotate(9.89)"/></g></svg>
