<svg xmlns="http://www.w3.org/2000/svg" width="489.25" height="303.88" viewBox="0 0 489.25 303.88"><defs><style>.cls-1{fill:#6ba460;stroke:#003442;stroke-miterlimit:10;stroke-width:4px;opacity:0.8;}.cls-2{fill:#131311;}.cls-3{fill:#b1d5a2;}</style></defs><title>settingsmenu</title><g id="Lag_1" data-name="Lag 1"><path class="cls-1" d="M68.66,2H417.18a70.07,70.07,0,0,1,70.07,70.07v161a68.82,68.82,0,0,1-68.82,68.82H71.94A69.94,69.94,0,0,1,2,231.94V68.66A66.66,66.66,0,0,1,68.66,2Z"/><path class="cls-2" d="M193.39,69.87c1.21,3.51.78,6.42-1.14,8.62a8.94,8.94,0,0,1-5.95,3.15c-2.28.32-5.27,0-9.08-.86-4.74-1.07-7.83-2.49-9.14-4.68a3.26,3.26,0,0,1-.52-2.32,1.66,1.66,0,0,1,1.25-1.4,4.93,4.93,0,0,1,3.72.82c2.33,1.23,3.56,2,3.75,2.08,1.82.7,4.4.73,7.82.1,3-.55,4.16-1.82,3.37-3.86-.68-1.69-3.05-3.81-7.32-6q-4.32-1.91-8.79-3.46A56.24,56.24,0,0,1,162,57.86a21.28,21.28,0,0,1-7.53-7.58,19.33,19.33,0,0,1-2.63-12.9c.67-5,3.14-8.84,7.26-10.89a12.91,12.91,0,0,1,10.37-.92c3.32,1.17,6,3.77,8.18,7.66.71,1.53,1.84,3.77,3.35,6.75a12.06,12.06,0,0,1,1,2A16.09,16.09,0,0,1,183,47.37c.05,2.12-.61,3.36-2,3.77a3.39,3.39,0,0,1-2.75-.68,5.41,5.41,0,0,1-2.2-2.48,19.44,19.44,0,0,1-.89-3.29,20.38,20.38,0,0,0-.88-3.3c-2.94-7.41-6.55-10.26-10.76-8.33A7.48,7.48,0,0,0,159.36,39a12.45,12.45,0,0,0,1.26,8c1.83,3.55,5.47,6.15,10.69,8.41A124.68,124.68,0,0,1,184.73,61C189.48,63.57,192.28,66.67,193.39,69.87Z"/><path class="cls-2" d="M216.49,67.66a8,8,0,0,1-2.38,7.83,9.41,9.41,0,0,1-5.7,2.61c-5.62.47-10.08-4.31-13.42-14.5A50.3,50.3,0,0,1,192.76,49c-.11-6.85,1.34-10.78,4.11-11.47,2.48-.62,5.58.24,9.09,2.77a14.49,14.49,0,0,1,6.19,9c.83,4.24.25,7.78-1.61,10.59a9.3,9.3,0,0,1-6.69,4.37c-.56.09-1.59-.29-3.12-1.11,1.79,5.7,3.65,8.43,5.64,8.19a6.49,6.49,0,0,0,4.44-2.93c1.3-1.77,2.21-2.69,2.69-2.75C215.19,65.43,216.19,66.12,216.49,67.66ZM206,50.61a11.56,11.56,0,0,0-2-4.28c-1-1.28-2-1.8-3-1.57-1.45.31-2.33,1.45-2.63,3.39a13.53,13.53,0,0,0,.52,5.58,5.19,5.19,0,0,0,1.58,2.66,2.73,2.73,0,0,0,2.34.72C205.81,56.58,206.88,54.44,206,50.61Z"/><path class="cls-2" d="M232.43,38.92c.16,1.83-1.55,3.25-5.07,4.35.09,1.48.43,4.83,1,10q.38,3.3.77,6.62c.15,1.34.5,3.3,1,5.9s.87,4.53,1,5.8a4.65,4.65,0,0,1-.58,2.91c-.51.86-1,1.31-1.65,1.33-.93.05-1.9-1.34-3-4.14a30.28,30.28,0,0,1-1.67-6.29l-3.06-21c-2.08-.2-3.3-.33-3.62-.42a2.58,2.58,0,0,1-2.1-2,3.34,3.34,0,0,1,0-.9c.74-2.59,1.86-4,3.31-4.22l.41-.06a1.43,1.43,0,0,0,.42,0c.95-.13,1.17-1.82.67-5.05l-1-7.24a6.13,6.13,0,0,1-.63-1.83,3.23,3.23,0,0,1,.79-2.51,3.37,3.37,0,0,1,2-1.38,3.63,3.63,0,0,1,3.14,1.54,6.92,6.92,0,0,1,1.83,4,21.76,21.76,0,0,1,0,4.84,19.81,19.81,0,0,0,.1,4.92c0,.14,0,.27,0,.41C230.28,34.74,232.19,36.22,232.43,38.92Z"/><path class="cls-2" d="M253.27,38c0,1.87-1.85,3.17-5.46,4q-.09,2.28.08,10.32c.05,2.27.09,4.54.14,6.81q0,2.05.48,6.08t.46,6a5,5,0,0,1-.86,2.94c-.58.87-1.17,1.3-1.77,1.3-.93,0-1.77-1.46-2.56-4.39a31.77,31.77,0,0,1-1.06-6.55l-1.05-21.75c-2-.38-3.24-.62-3.56-.74a2.57,2.57,0,0,1-1.89-2.23,3.76,3.76,0,0,1,.06-.92c1-2.6,2.24-4,3.7-4l.42,0a1.1,1.1,0,0,0,.41.08q1.44-.07,1.15-5.1l-.33-7.5a6.22,6.22,0,0,1-.45-1.93,3.31,3.31,0,0,1,1-2.48,3.35,3.35,0,0,1,2.12-1.2c1-.05,2,.58,3,1.89a7.33,7.33,0,0,1,1.45,4.24,24,24,0,0,1-.46,4.92,20.29,20.29,0,0,0-.37,5c0,.14,0,.28,0,.42C251.51,33.56,253.29,35.22,253.27,38Z"/><path class="cls-2" d="M265,35.41a40.78,40.78,0,0,1-.83,5.25,35.18,35.18,0,0,0-.81,5.24q-.56,10.65-1.1,21.28a44.51,44.51,0,0,0,.36,6.22c-.67,1.56-1.32,2.34-2,2.32-2.38,0-3.62-2.24-3.76-6.59-.19-8.07-.28-14.14-.19-18.21.15-6.83.44-12.55.92-17.17,0-.34,0-.68,0-1a1.69,1.69,0,0,1,2-1.83A6.35,6.35,0,0,1,263,32,3.49,3.49,0,0,1,265,35.41ZM266.5,21a6.23,6.23,0,0,1-1.29,3.67A3.25,3.25,0,0,1,262.5,26a4.63,4.63,0,0,1-3.4-1.95,6.76,6.76,0,0,1-1.51-4.58,5.8,5.8,0,0,1,1.24-3.7,3.49,3.49,0,0,1,2.91-1.39,4.5,4.5,0,0,1,3.48,1.94A6.74,6.74,0,0,1,266.5,21Z"/><path class="cls-2" d="M286.78,75.81c-.85,1.47-1.68,2.18-2.49,2.12-.64-.05-1.54-.79-2.79-2.23.06-.41.13-.81.19-1.21q.35-2.2,1.1-6.52c.49-2.87.85-5,1.07-6.31,2.32-14.3,2.05-21.66-.82-22-.8-.1-1.84.75-3.09,2.54-3.87,5.51-6,12.49-6.91,20.74-.12,1.16-.17,2.89-.16,5.19a51.57,51.57,0,0,1-.18,5.18,4,4,0,0,1-1,2.31,2.21,2.21,0,0,1-1.66.85c-2.23-.1-3.15-2.74-2.75-8L269,47c0-.54.15-1.35.32-2.41s.28-1.86.33-2.41c.06-.82.08-2,.05-3.61s0-2.76,0-3.52A4.74,4.74,0,0,1,271.24,32a3.42,3.42,0,0,1,2.45-1.31c1,.08,2,1,2.86,2.83-.21,1.35-.43,2.71-.64,4.07,2.09-3.88,4.46-5.66,6.95-5.36a7.52,7.52,0,0,1,4.73,3.08,13.83,13.83,0,0,1,2.93,6c.93,5.32.53,12-1,20.21Q288.14,68.63,286.78,75.81Z"/><path class="cls-2" d="M319.47,52.7c-.6,1.46-1.77,4-3.5,7.66a72.48,72.48,0,0,0-3.25,7.76c-.61,1.79-1.45,4.49-2.55,8.1s-1.95,6.29-2.55,8.08a51.4,51.4,0,0,1-3.4,8.2A18.11,18.11,0,0,1,299.74,98c-1.74,1.4-3.27,2.11-4.64,2.09s-3-.79-4.78-2.38c-2.15-1.86-3.05-3.94-2.58-6.15.61-2.87,1.65-4.25,3.09-4.16A1.12,1.12,0,0,1,292,88.51a18.21,18.21,0,0,0,.35,2.36c.09.26.58.6,1.45,1a6.1,6.1,0,0,0,1.87.63q4.58.21,7.76-10.15c.62-2,1.08-3.75,1.4-5.17-2.29,2-4.48,3-6.68,2.78a4.49,4.49,0,0,1-2.76-1.65,7.89,7.89,0,0,1-1.87-3.45c-.64-2.45-.49-6,.51-10.61a73.72,73.72,0,0,1,6.49-17.78c3.93-7.68,7.64-11,10.77-10.24,1.91.48,3.38,2.18,4.34,5,.55,2.6,1.08,5.15,1.57,7.63a4.7,4.7,0,0,0,1.07,2A8.67,8.67,0,0,1,319.47,52.7Zm-8.08,3.92a3.09,3.09,0,0,0-.17-2.49c1.45-5.7.9-8.9-1.64-9.49-1.44-.34-3.45,2.32-5.87,8a82.42,82.42,0,0,0-3.95,11.56q-2.31,9.38.56,9.73c1.81.23,3.92-2,6.45-6.64A56.6,56.6,0,0,0,311.39,56.62Z"/><path class="cls-2" d="M337,75.44a15.22,15.22,0,0,1-5.53,5.63,11.37,11.37,0,0,1-7.89,1.79,5.5,5.5,0,0,1-3.28-1.67c-3.32-3.2-4.83-5.74-4.22-7.37.95-2.55,2.65-3.59,5.08-3.07a8.38,8.38,0,0,1,1.06.32,4.28,4.28,0,0,0,1.05,4.59A5.59,5.59,0,0,0,327,77.57a2.2,2.2,0,0,0,2.41-1.31,5.11,5.11,0,0,0,.26-.73,5.26,5.26,0,0,1,.28-.77c.09-.19-.43-.76-1.58-1.74-1.31-1.09-2.06-1.72-2.2-1.87A17.52,17.52,0,0,1,325,55.56a21.83,21.83,0,0,1,5.69-8.5c2.82-2.52,5.49-3.26,7.89-2.32,1.79.7,3.44,2.4,4.86,5s1.85,4.9,1.36,7a15.23,15.23,0,0,1-1.24,3.43,9.44,9.44,0,0,1-1.5,2.15c-.65.67-1.28,1.34-1.92,2a4.27,4.27,0,0,1-2.78.24c-.4-.13-.9-.66-1.53-1.62s-.83-1.68-.6-2.16a12,12,0,0,1,1.71-1.82,6,6,0,0,0,1.27-1.59c1.52-3.15,1.3-5.11-.7-5.86-1.19-.43-2.53.21-4,2a19.36,19.36,0,0,0-2.84,4.73,7.24,7.24,0,0,0,.84,6.91c1.49,1.83,2.95,3.65,4.36,5.46C337.34,72.51,337.69,74.11,337,75.44Z"/><path class="cls-2" d="M118.44,124.3a2,2,0,0,1-.47,1.38l-.83,1.08a12.22,12.22,0,0,0-.63,3.12,228,228,0,0,0-1.3,24.18q0,6.72,2.08,7.56v1.62a2.05,2.05,0,0,1-1.93,1.5q-2.65,0-4-5.34a31.14,31.14,0,0,1-1-7.92q0-9.06.42-15.12-1.56,7-3.18,14.1-2.91,10.92-5.62,10.92-3.07,0-5.42-6.42a171.8,171.8,0,0,1-5.36-19.56q-.31,4.08-.32,8.34,0,8.82.41,12.78a10.18,10.18,0,0,0,.58,2.31,8.6,8.6,0,0,1,.53,2.49c0,1.32-1,2-2.87,2q-3.4,0-3.4-10.5,0-4.26.42-12.72T87,127.42a1.7,1.7,0,0,0-.42-1,1.7,1.7,0,0,1-.42-1q0-3.36,5.22-3.36,1.2,0,2.88,1.74.15,1.86.52,5.64a124.2,124.2,0,0,0,2.45,14q2.57,11.22,4.44,11.22c.28,0,.64-.62,1.1-1.86a69.31,69.31,0,0,0,2.55-10.14q.94-5.22,1.88-10.44.42-2.46,1.52-7.08a4.44,4.44,0,0,1,4.59-3.42,8.94,8.94,0,0,1,3,.66C117.73,122.88,118.44,123.54,118.44,124.3Z"/><path class="cls-2" d="M139.49,141.69q0,1.86-.4,5.6c-.26,2.5-.39,4.38-.39,5.66,0,1.12.05,2.78.13,5s.13,3.86.13,4.94c0,.91-.67,1.37-2,1.37a2.61,2.61,0,0,1-2.67-2.28,6.44,6.44,0,0,1-3.86,1.5,8.05,8.05,0,0,1-3.44-.93,6.09,6.09,0,0,1-2.72-2.25q-1.51-2.52-1.51-8.1,0-1.92.1-6.72c.11-2.84.14-5.06.11-6.66a4.56,4.56,0,0,1,2.63-1.32c1.69,0,2.53.94,2.53,2.82a22.26,22.26,0,0,1-.26,2.88,24.25,24.25,0,0,0-.26,2.88v8.46a7.55,7.55,0,0,0,.68,3q.84,1.8,2,1.8,2.25,0,3.35-3.3a18.46,18.46,0,0,0,.73-5.52v-7.2a12,12,0,0,0-.63-3.42,3.63,3.63,0,0,1,2.51-1.38,3.36,3.36,0,0,1,2.27.9A2.9,2.9,0,0,1,139.49,141.69Z"/><path class="cls-2" d="M160.63,157.06a6.76,6.76,0,0,1-2.08,4.92,9.2,9.2,0,0,1-9.77,1.5q-6.27-2.7-6.27-4.38c0-1.76,1.1-2.64,3.29-2.64a8.78,8.78,0,0,1,1,.06c.1,1.2.94,2.16,2.5,2.88a7.48,7.48,0,0,0,3.92.78c1-.08,1.51-.5,1.51-1.26a2.31,2.31,0,0,0-.08-.54,2.89,2.89,0,0,1-.07-.57c0-.14-.67-.45-2-.93-1.5-.52-2.33-.82-2.5-.9q-6-4.08-6-9.84a12.46,12.46,0,0,1,1.73-6.42c1.28-2.16,2.89-3.24,4.8-3.24a8.82,8.82,0,0,1,4.88,1.92,7.94,7.94,0,0,1,3.37,4.14,10.33,10.33,0,0,1,.42,2.58,5.44,5.44,0,0,1-.26,1.8l-.63,1.8a3.2,3.2,0,0,1-2,.78,4.14,4.14,0,0,1-1.75-.75q-1.23-.75-1.23-1.29a6.84,6.84,0,0,1,.63-1.56,3.28,3.28,0,0,0,.36-1.32q0-3.6-2.45-3.6-1.47,0-2.25,2.16a11.13,11.13,0,0,0-.57,3.6q0,2.4,3,4.32l5.49,2.82Q160.63,155.44,160.63,157.06Z"/><path class="cls-2" d="M169.82,140a16.55,16.55,0,0,1-.41,3.06,15.9,15.9,0,0,0-.42,3.06V158.5a16.87,16.87,0,0,0,.62,3.6q-.78,1.38-1.74,1.38-3.31,0-3.63-3.78-.53-7-.53-10.56a98.44,98.44,0,0,1,.42-10v-.6c0-.72.48-1.08,1.45-1.08a6.15,6.15,0,0,1,2.59.6Q169.82,138.76,169.82,140Zm.47-8.4a3,3,0,0,1-.78,2.16,2.54,2.54,0,0,1-1.93.84,3.66,3.66,0,0,1-2.53-1.08,3.43,3.43,0,0,1-1.18-2.64,3,3,0,0,1,.81-2.16,2.68,2.68,0,0,1,2-.84,3.65,3.65,0,0,1,3.6,3.72Z"/><path class="cls-2" d="M191.34,156.34q0,1.86-2.46,4.38a10.59,10.59,0,0,1-3.94,2.94,10.24,10.24,0,0,1-3.32.6,7.7,7.7,0,0,1-6.45-3,12.33,12.33,0,0,1-2.32-7.74A29.62,29.62,0,0,1,175,143.2q2.56-6.84,5.95-6.84a9,9,0,0,1,4.55,1.68c1.88,1.24,3,2.48,3.29,3.72a14.63,14.63,0,0,1,.41,3.66,15.31,15.31,0,0,1-.67,4.2c-.56,2-1.26,3-2.09,3a2.7,2.7,0,0,1-1.67-.6,1.9,1.9,0,0,1-.94-1.61s.15-.49.47-1.37a11.72,11.72,0,0,0,.26-3.28,15.34,15.34,0,0,0-.16-2.87c-.21-1.23-.7-1.85-1.46-1.85q-2.56,0-4,5.09a28.12,28.12,0,0,0-1,7.59q0,6.41,3.55,6.4a5.13,5.13,0,0,0,3.23-1.68,9.33,9.33,0,0,0,2.35-3.18q.84-1.92,2-1.92a2,2,0,0,1,1.51,1A3.48,3.48,0,0,1,191.34,156.34Z"/><path class="cls-2" d="M106.76,268q0,3.66-3.7,5.65a13.26,13.26,0,0,1-6.53,1.62,22.39,22.39,0,0,1-7.73-1.68q-5.47-2.16-5.48-5a2.75,2.75,0,0,1,.68-1.86,2.07,2.07,0,0,1,1.62-.78,3.5,3.5,0,0,1,2.61,1.32q2,2,2.19,2.16,1.83,1.2,6.58,1.2,4.23,0,4.23-2.22,0-1.86-4-5.16l-5.53-4.08a23.07,23.07,0,0,1-5.17-5.22,13.16,13.16,0,0,1-2.14-7.44,16.34,16.34,0,0,1,2.82-9.42q3-4.56,7.52-4.56a9.31,9.31,0,0,1,6.52,2.43,11.42,11.42,0,0,1,3.4,6.81c.1,1.12.31,2.78.62,5a7.43,7.43,0,0,1,.21,1.44,9.45,9.45,0,0,1-.63,3.66c-.52,1.36-1.34,2-2.45,2a2.39,2.39,0,0,1-1.8-1,3.09,3.09,0,0,1-.86-2.07,12.43,12.43,0,0,1,.31-2.32,12.64,12.64,0,0,0,.31-2.32q0-8.13-4.7-8.13a5.21,5.21,0,0,0-4.38,2.55,9.69,9.69,0,0,0-1.78,5.62q0,4.34,4.49,8.41,4.13,3.19,8.31,6.38Q106.76,264.65,106.76,268Z"/><path class="cls-2" d="M128.75,262.09a17.43,17.43,0,0,1-2.35,9.24q-2.72,4.38-7.21,4.38a7.75,7.75,0,0,1-6.94-3.6q-2.15-3.18-2.14-8.64a22.85,22.85,0,0,1,2.35-10.2q2.72-5.7,7.05-5.7A6.55,6.55,0,0,1,122.9,249Q128.75,253,128.75,262.09Zm-4.6-.12q0-9.18-3.86-9.18-2.78,0-4.18,3.9a19.73,19.73,0,0,0-1,6.66q0,8,4.12,8,2.67,0,4-3.3A16.58,16.58,0,0,0,124.15,262Z"/><path class="cls-2" d="M148.9,252.48c0,1.24-.13,3.1-.39,5.6s-.39,4.38-.39,5.65c0,1.12,0,2.79.13,5s.13,3.86.13,4.94q0,1.38-2,1.38a2.59,2.59,0,0,1-2.66-2.28,6.44,6.44,0,0,1-3.86,1.5,8.13,8.13,0,0,1-3.45-.93,6.06,6.06,0,0,1-2.71-2.25q-1.51-2.52-1.52-8.1,0-1.92.11-6.72c.1-2.84.14-5.06.1-6.66a4.61,4.61,0,0,1,2.64-1.32c1.69,0,2.53.94,2.53,2.82a24.25,24.25,0,0,1-.26,2.88,22.26,22.26,0,0,0-.26,2.88v8.46a7.39,7.39,0,0,0,.68,3q.82,1.8,2,1.8,2.25,0,3.34-3.3a18.14,18.14,0,0,0,.73-5.52v-7.2a12.31,12.31,0,0,0-.62-3.42,3.61,3.61,0,0,1,2.5-1.38,3.32,3.32,0,0,1,2.27.9A2.89,2.89,0,0,1,148.9,252.48Z"/><path class="cls-2" d="M171.09,273.49a2.25,2.25,0,0,1-1.93,1.38,7,7,0,0,1-2.92-1.2V273c0-.88,0-2.18,0-3.9s.05-3,.05-3.78q0-12.84-3.32-12.84-.93,0-2.13,1.68a20.27,20.27,0,0,0-3.35,15.45,19.47,19.47,0,0,1,.34,3,1.67,1.67,0,0,1-.68,1.38,2.3,2.3,0,0,1-1.46.54q-3.13,0-3.13-4.56V257.41a13.36,13.36,0,0,1,.1-1.41,14,14,0,0,0,.11-1.41,16.09,16.09,0,0,0-.19-2.1,17.51,17.51,0,0,1-.18-2,2.47,2.47,0,0,1,1-1.83,2.77,2.77,0,0,1,1.75-.87,3.24,3.24,0,0,1,2.35,1.5l-.16,2.4q1.94-3.54,4.75-3.54a6.79,6.79,0,0,1,3.87,1.44,9.3,9.3,0,0,1,3,3.24q2.15,4.56,2.14,12Z"/><path class="cls-2" d="M193.44,237.43a23.93,23.93,0,0,1-.31,3.42c-.28,1.88-.45,3-.52,3.36-.11,1.24-.27,4.9-.5,11s-.34,9.44-.34,10.08a25.71,25.71,0,0,0,1.1,8.64c-.6,1.12-1.27,1.68-2,1.68a2.82,2.82,0,0,1-2.14-1,4,4,0,0,1-1-2.43,7,7,0,0,1-5,2.58,6.73,6.73,0,0,1-5.9-3.06,12.39,12.39,0,0,1-1.93-7.26,32.94,32.94,0,0,1,1.88-10.74q2.4-6.9,6.27-6.9a6.93,6.93,0,0,1,4.7,2.34q.25-2.82.26-14.4,0-1.08,1.41-1.08a4.58,4.58,0,0,1,2.9,1A3.45,3.45,0,0,1,193.44,237.43Zm-6.06,20.34a8.73,8.73,0,0,0-.78-3.72q-1-2-2.61-2-2.36,0-3.6,5.34a31.55,31.55,0,0,0-.94,7.56q0,5.58,2.82,5.58t4.23-5A30.53,30.53,0,0,0,187.38,257.77Z"/><path class="cls-3" d="M27.67,250.64S47.4,278.1,79.86,283.78"/></g></svg>
