<svg xmlns="http://www.w3.org/2000/svg" xmlns:xlink="http://www.w3.org/1999/xlink" width="1080" height="1920" viewBox="0 0 1080 1920"><defs><style>.cls-1{fill:none;}.cls-2{fill:#dceef2;}.cls-3{fill:#9abd8f;}.cls-4{fill:#efe3da;}.cls-5{fill:#686563;}.cls-6{fill:#afa7a1;}.cls-7{fill:#c9bfb8;}.cls-8{fill:#938e8a;}.cls-9{fill:#d8cac0;}.cls-10{fill:#e5d6ca;}.cls-11{fill:#898481;}.cls-12,.cls-14{fill:#6ba460;}.cls-13{fill:#85ad6d;}.cls-14{stroke:#003442;stroke-miterlimit:10;stroke-width:4px;opacity:0.8;}.cls-15{isolation:isolate;}.cls-16{clip-path:url(#clip-path);}.cls-17{clip-path:url(#clip-path-2);}.cls-18{clip-path:url(#clip-path-3);}.cls-19{clip-path:url(#clip-path-4);}.cls-20{clip-path:url(#clip-path-5);}.cls-21{clip-path:url(#clip-path-6);}.cls-22{clip-path:url(#clip-path-7);}.cls-23{clip-path:url(#clip-path-8);}.cls-24{clip-path:url(#clip-path-9);}.cls-25{clip-path:url(#clip-path-10);}.cls-26{clip-path:url(#clip-path-11);}.cls-27{clip-path:url(#clip-path-12);}.cls-28{clip-path:url(#clip-path-13);}.cls-29{clip-path:url(#clip-path-14);}.cls-30{clip-path:url(#clip-path-15);}.cls-31{clip-path:url(#clip-path-16);}.cls-32{clip-path:url(#clip-path-17);}.cls-33{clip-path:url(#clip-path-18);}.cls-34{clip-path:url(#clip-path-19);}.cls-35{clip-path:url(#clip-path-20);}.cls-36{clip-path:url(#clip-path-21);}.cls-37{clip-path:url(#clip-path-22);}.cls-38{clip-path:url(#clip-path-23);}.cls-39{clip-path:url(#clip-path-24);}.cls-40{clip-path:url(#clip-path-25);}.cls-41{clip-path:url(#clip-path-26);}.cls-42{clip-path:url(#clip-path-27);}.cls-43{clip-path:url(#clip-path-28);}.cls-44{clip-path:url(#clip-path-29);}.cls-45{clip-path:url(#clip-path-30);}.cls-46{clip-path:url(#clip-path-31);}.cls-47{clip-path:url(#clip-path-32);}.cls-48{clip-path:url(#clip-path-33);}.cls-49{clip-path:url(#clip-path-34);}.cls-50{clip-path:url(#clip-path-35);}.cls-51{clip-path:url(#clip-path-36);}.cls-52{clip-path:url(#clip-path-37);}.cls-53{clip-path:url(#clip-path-38);}.cls-54{clip-path:url(#clip-path-39);}.cls-55{clip-path:url(#clip-path-40);}.cls-56{clip-path:url(#clip-path-41);}.cls-57{clip-path:url(#clip-path-42);}.cls-58{clip-path:url(#clip-path-43);}.cls-59{clip-path:url(#clip-path-44);}.cls-60{clip-path:url(#clip-path-45);}.cls-61{clip-path:url(#clip-path-46);}.cls-62{clip-path:url(#clip-path-47);}.cls-63{clip-path:url(#clip-path-48);}.cls-64{clip-path:url(#clip-path-49);}.cls-65{clip-path:url(#clip-path-50);}.cls-66{clip-path:url(#clip-path-51);}.cls-67{clip-path:url(#clip-path-52);}.cls-68{clip-path:url(#clip-path-53);}.cls-69{clip-path:url(#clip-path-54);}.cls-70{clip-path:url(#clip-path-55);}.cls-71{clip-path:url(#clip-path-56);}.cls-72{clip-path:url(#clip-path-57);}.cls-73{clip-path:url(#clip-path-58);}.cls-74{fill:#f0af66;}.cls-75{fill:#a67c52;}.cls-76{fill:#fed08c;}.cls-77{fill:#2f3a35;}.cls-78{fill:#4d4d4d;}.cls-79{fill:#f8c22a;}.cls-80{fill:#f9d069;}.cls-81{fill:#e2ad29;}.cls-82{fill:#c1272d;}.cls-83{fill:#d8555f;}.cls-84{fill:#009245;}.cls-85{fill:#f9e7c0;}.cls-86{fill:#90bf8b;}.cls-87{fill:#ef8a70;}.cls-88{fill:#5a3a2f;}.cls-89{fill:#756a5b;}.cls-90{fill:#bdab8e;}.cls-91{fill:#fbb03b;}.cls-92{fill:#c64417;}.cls-93{fill:#42210b;}.cls-94{fill:#8d0a0c;}.cls-95{fill:#df0e0e;}.cls-96{fill:#e9ede9;}.cls-97{fill:#d6d8d6;}.cls-98{fill:#f9dc9b;}.cls-99{fill:#f2d9ad;}.cls-100{fill:#f9e4d2;}.cls-101{fill:#f0d6bd;}.cls-102{fill:#d1ba95;}</style><clipPath id="clip-path"><path class="cls-1" d="M754.55,1653.46l-17,3-.23,0,17-3A.78.78,0,0,0,754.55,1653.46Z"/></clipPath><clipPath id="clip-path-2"><path class="cls-1" d="M754.33,1653.49l-17,3a6.49,6.49,0,0,1-2.66-.42l17-3A6.15,6.15,0,0,0,754.33,1653.49Z"/></clipPath><clipPath id="clip-path-3"><path class="cls-1" d="M752,1673.36l-17,2.94-.3,0,17-2.94Z"/></clipPath><clipPath id="clip-path-4"><path class="cls-1" d="M746.71,1660.86l-17,2.94c-.14-2.26-.24-3.82-.3-4.67a10.41,10.41,0,0,0-.58-3.39l17-2.94a10.57,10.57,0,0,1,.58,3.39C746.46,1657,746.57,1658.59,746.71,1660.86Z"/></clipPath><clipPath id="clip-path-5"><path class="cls-1" d="M751.73,1673.4l-17,2.94a6.63,6.63,0,0,1-3.43-.8l17-3A6.75,6.75,0,0,0,751.73,1673.4Z"/></clipPath><clipPath id="clip-path-6"><path class="cls-1" d="M748.3,1672.59l-17,3a20.49,20.49,0,0,1-1.39-7c-.06-.85-.12-2.42-.2-4.69l17-2.94c.08,2.27.14,3.84.2,4.68A20.38,20.38,0,0,0,748.3,1672.59Z"/></clipPath><clipPath id="clip-path-7"><path class="cls-1" d="M726.46,1655.93l17-3c.39-.07.75-.12,1.07-.15a6.87,6.87,0,0,1,1.26,0l-17,2.94a8,8,0,0,0-1.25,0Q727,1655.82,726.46,1655.93Z"/></clipPath><clipPath id="clip-path-8"><path class="cls-1" d="M745.22,1645.29l-17,3q-4.54-24.81-5.7-30-5.38-23.62-9.68-23.25l17-3q4.29-.36,9.68,23.25Q740.68,1620.5,745.22,1645.29Z"/></clipPath><clipPath id="clip-path-9"><path class="cls-1" d="M712.68,1595l17-3,.13,0-17,3Z"/></clipPath><clipPath id="clip-path-10"><path class="cls-1" d="M741.77,1653.31l-17,2.94q-.76.13-1.26.18l-.33,0c-.57,0-1.19.08-1.86.14-1.63.17-3.59.45-5.86.84l17-3c2.27-.39,4.23-.67,5.86-.83.67-.07,1.29-.12,1.85-.15l.34,0Z"/></clipPath><clipPath id="clip-path-11"><path class="cls-1" d="M710.07,1650.89l17-2.94c-2.89.49-5,.93-6.31,1.3l-17,3Q705.74,1651.65,710.07,1650.89Z"/></clipPath><clipPath id="clip-path-12"><path class="cls-1" d="M714.05,1651l-17,3c.86-.15,3.1-.74,6.75-1.75l17-3C717.15,1650.27,714.91,1650.85,714.05,1651Z"/></clipPath><clipPath id="clip-path-13"><path class="cls-1" d="M707.68,1683.2l-17,3h-.13l17-2.94Z"/></clipPath><clipPath id="clip-path-14"><path class="cls-1" d="M711.41,1584l17-2.94q-8.25,1.43-19.84,54.34a221.41,221.41,0,0,0-5.26,35.12l-17,3a222.4,222.4,0,0,1,5.26-35.12Q703.16,1585.4,711.41,1584Z"/></clipPath><clipPath id="clip-path-15"><path class="cls-1" d="M707.55,1683.22l-17,2.94a5.13,5.13,0,0,1-3.59-1.65,5.31,5.31,0,0,1-2.1-3.45,17.76,17.76,0,0,1,.69-3.88c.48-2,.74-3.26.79-3.73l17-3c-.05.47-.31,1.71-.8,3.73a18.16,18.16,0,0,0-.68,3.88,5.31,5.31,0,0,0,2.1,3.45A5.19,5.19,0,0,0,707.55,1683.22Z"/></clipPath><clipPath id="clip-path-16"><path class="cls-1" d="M689.1,1594l-17,3-.13,0,17-3Z"/></clipPath><clipPath id="clip-path-17"><path class="cls-1" d="M689,1594l-17,3s-.85-.48-2.77-1.42l17-2.94C688.12,1593.52,689,1594,689,1594Z"/></clipPath><clipPath id="clip-path-18"><path class="cls-1" d="M686.2,1592.59l-17,2.94c-1.21-.7-4.23-.92-9-.67l17-2.94C682,1591.66,685,1591.89,686.2,1592.59Z"/></clipPath><clipPath id="clip-path-19"><path class="cls-1" d="M653.58,1595.26l17-2.94a6.39,6.39,0,0,1,.67-.09l.62,0-17,3-.62,0Z"/></clipPath><clipPath id="clip-path-20"><path class="cls-1" d="M640.21,1597.56l17-2.94a10.92,10.92,0,0,1,1.13-.16l.48,0c.75,0,1.25.4,1.51,1.3l-17,3c-.26-.91-.76-1.34-1.51-1.31l-.47,0C641,1597.44,640.62,1597.49,640.21,1597.56Z"/></clipPath><clipPath id="clip-path-21"><path class="cls-1" d="M671.9,1682.49l-17,3h-.08l17-3Z"/></clipPath><clipPath id="clip-path-22"><path class="cls-1" d="M660.8,1636.28l-17,3q-.15-3.84.1-17.94.18-11.24-.25-17.9c-.16-2.34-.25-3.92-.29-4.72l17-3c0,.81.13,2.38.29,4.72q.44,6.68.25,17.91Q660.67,1632.45,660.8,1636.28Z"/></clipPath><clipPath id="clip-path-23"><path class="cls-1" d="M671.82,1682.5l-17,3c-4.14.22-6.91-2.49-8.38-8.1l17-2.95C664.9,1680,667.68,1682.72,671.82,1682.5Z"/></clipPath><clipPath id="clip-path-24"><path class="cls-1" d="M663.44,1674.4l-17,2.95q-.92-3.22-1.64-14.14-1-15.87-1-24l17-3q0,8.1,1,24Q662.52,1671.18,663.44,1674.4Z"/></clipPath><clipPath id="clip-path-25"><path class="cls-1" d="M646,1589l17-2.94q-2.7.46-5.81,1.06-16,3.24-17,5.71l-17,3c.66-1.65,6.33-3.55,17-5.72Q643.27,1589.47,646,1589Z"/></clipPath><clipPath id="clip-path-26"><path class="cls-1" d="M648.19,1596.85l-17,3c-.41.07-.79.12-1.13.16l-.48,0a5.89,5.89,0,0,1-6.33-4.22l17-3a5.9,5.9,0,0,0,6.33,4.23l.48,0C647.4,1597,647.78,1596.92,648.19,1596.85Z"/></clipPath><clipPath id="clip-path-27"><path class="cls-1" d="M630.7,1636.24l-17,3-.23,0,17-2.94Z"/></clipPath><clipPath id="clip-path-28"><path class="cls-1" d="M594,1596.37l17-2.95.82-.11.62,0q6.78-.36,10.8,9.69a54.53,54.53,0,0,1,3.67,17.16,39.15,39.15,0,0,1-.26,5.84,39.23,39.23,0,0,0-.26,5.85,5.41,5.41,0,0,0,1.43,3,3.28,3.28,0,0,0,2.65,1.5l-17,2.94a3.25,3.25,0,0,1-2.65-1.5,5.35,5.35,0,0,1-1.43-3,38.14,38.14,0,0,1,.27-5.85,40.25,40.25,0,0,0,.25-5.84,54.6,54.6,0,0,0-3.67-17.17q-4-10-10.8-9.68l-.62,0A7.68,7.68,0,0,0,594,1596.37Z"/></clipPath><clipPath id="clip-path-29"><path class="cls-1" d="M623.38,1679.67l-17,2.95q9.33-1.62,8.85-8.78-.26-4-6.33-9.49l17-2.95q6.08,5.52,6.33,9.49Q632.69,1678.06,623.38,1679.67Z"/></clipPath><clipPath id="clip-path-30"><path class="cls-1" d="M591,1588.29l17-3q-7.92,1.38-12.72,11.37a42.11,42.11,0,0,0-4.06,21.54,35.74,35.74,0,0,0,8.78,21.73q3.51,4.1,16.65,14.22,8.22,6.4,9.2,7.2l-17,2.95c-.65-.53-3.72-2.94-9.2-7.2Q586.54,1647,583,1642.93a35.77,35.77,0,0,1-8.78-21.74,42.15,42.15,0,0,1,4.06-21.54Q583.09,1589.66,591,1588.29Z"/></clipPath><clipPath id="clip-path-31"><path class="cls-1" d="M622.51,1686l-17,2.94c-.7.13-1.42.22-2.14.3-.51,0-1,.09-1.55.11a39.51,39.51,0,0,1-15.2-2.62q-10.73-3.87-11.16-10.38-.21-3.24,2.09-3.64l17-2.94q-2.29.39-2.09,3.63.43,6.53,11.16,10.38a39.52,39.52,0,0,0,15.19,2.63c.53,0,1-.07,1.56-.12C621.09,1686.19,621.8,1686.09,622.51,1686Z"/></clipPath><clipPath id="clip-path-32"><path class="cls-1" d="M584.32,1662.25l-17,3-.23,0,17-3Z"/></clipPath><clipPath id="clip-path-33"><path class="cls-1" d="M584.1,1662.28l-17,3a6.13,6.13,0,0,1-2.64-.44l17-2.94A6.09,6.09,0,0,0,584.1,1662.28Z"/></clipPath><clipPath id="clip-path-34"><path class="cls-1" d="M581.82,1682.14l-17,2.95-.31,0,17-3Z"/></clipPath><clipPath id="clip-path-35"><path class="cls-1" d="M576.5,1669.64l-17,2.95c-.15-2.26-.25-3.83-.31-4.68a10.64,10.64,0,0,0-.57-3.38l17-2.94a10.62,10.62,0,0,1,.57,3.37C576.25,1665.82,576.35,1667.38,576.5,1669.64Z"/></clipPath><clipPath id="clip-path-36"><path class="cls-1" d="M581.51,1682.18l-17,3a6.51,6.51,0,0,1-3.43-.82l17-2.94A6.59,6.59,0,0,0,581.51,1682.18Z"/></clipPath><clipPath id="clip-path-37"><path class="cls-1" d="M578.08,1681.37l-17,2.94a19.85,19.85,0,0,1-1.38-7c-.06-.85-.13-2.41-.2-4.68l17-2.95c.07,2.28.13,3.83.19,4.69A20.14,20.14,0,0,0,578.08,1681.37Z"/></clipPath><clipPath id="clip-path-38"><path class="cls-1" d="M556.2,1664.71l17-2.94c.39-.07.74-.12,1.06-.15a7.56,7.56,0,0,1,1.32,0l-17,2.94a7.44,7.44,0,0,0-1.31,0Z"/></clipPath><clipPath id="clip-path-39"><path class="cls-1" d="M575,1654.08,558,1657q-4.54-24.8-5.7-30-5.4-23.62-9.68-23.25l17-3q4.27-.36,9.68,23.26Q570.47,1629.29,575,1654.08Z"/></clipPath><clipPath id="clip-path-40"><path class="cls-1" d="M542.46,1603.78l17-2.94.13,0-17,3Z"/></clipPath><clipPath id="clip-path-41"><path class="cls-1" d="M571.44,1662.11l-17,3c-.46.07-.84.13-1.15.16l-.33,0c-.57,0-1.18.07-1.86.14q-2.47.25-5.93.85l17-3q3.45-.6,5.93-.84,1-.1,1.86-.15l.33,0C570.6,1662.24,571,1662.19,571.44,1662.11Z"/></clipPath><clipPath id="clip-path-42"><path class="cls-1" d="M539.85,1659.68l17-3c-2.88.5-5,.94-6.3,1.31l-17,3C534.87,1660.61,537,1660.18,539.85,1659.68Z"/></clipPath><clipPath id="clip-path-43"><path class="cls-1" d="M543.83,1659.79l-17,2.94c.87-.15,3.11-.73,6.76-1.74l17-3C546.94,1659.05,544.7,1659.64,543.83,1659.79Z"/></clipPath><clipPath id="clip-path-44"><path class="cls-1" d="M537.45,1692l-17,2.94-.14,0,17-2.94Z"/></clipPath><clipPath id="clip-path-45"><path class="cls-1" d="M541.19,1592.77l17-3q-8.25,1.42-19.84,54.34a221.48,221.48,0,0,0-5.25,35.12l-17,2.94a221.2,221.2,0,0,1,5.25-35.11Q532.94,1594.21,541.19,1592.77Z"/></clipPath><clipPath id="clip-path-46"><path class="cls-1" d="M537.3,1692l-17,2.94a5.26,5.26,0,0,1-3.58-1.66,5.31,5.31,0,0,1-2.08-3.45,17.83,17.83,0,0,1,.67-3.87q.74-3,.81-3.75l17-2.94c0,.47-.32,1.72-.81,3.74a17.16,17.16,0,0,0-.67,3.88,6.85,6.85,0,0,0,5.65,5.11Z"/></clipPath><clipPath id="clip-path-47"><path class="cls-1" d="M480.26,1599.82l17-3,.84-.12.61,0q7.85-.4,12.63,10.33a55.92,55.92,0,0,1,4.4,19.29l-17,3a56,56,0,0,0-4.4-19.3q-4.77-10.73-12.63-10.33l-.61,0Z"/></clipPath><clipPath id="clip-path-48"><path class="cls-1" d="M500.71,1663l-17,2.94a13.93,13.93,0,0,0,10.39-7.53q3-5.43,4.21-17a85.08,85.08,0,0,0,.47-12.14l17-3a85.08,85.08,0,0,1-.47,12.14q-1.21,11.61-4.22,17A13.94,13.94,0,0,1,500.71,1663Z"/></clipPath><clipPath id="clip-path-49"><path class="cls-1" d="M478.52,1594l17-3q-8.7,1.5-13.63,11.24l-17,3Q469.82,1595.47,478.52,1594Z"/></clipPath><clipPath id="clip-path-50"><path class="cls-1" d="M477.36,1613.88l-17,2.95q2.28-5.8,4.58-11.61l17-3Z"/></clipPath><clipPath id="clip-path-51"><path class="cls-1" d="M465.93,1655.57l17-3a.47.47,0,0,1,.2,0l-17,2.94Z"/></clipPath><clipPath id="clip-path-52"><polygon class="cls-1" points="483.18 1652.63 466.14 1655.57 466.13 1655.57 483.17 1652.63 483.18 1652.63"/></clipPath><clipPath id="clip-path-53"><path class="cls-1" d="M463.44,1652.09l17-2.94a4.26,4.26,0,0,0-1.56.78l-17,3A4.49,4.49,0,0,1,463.44,1652.09Z"/></clipPath><clipPath id="clip-path-54"><path class="cls-1" d="M454.68,1596.25l17-3a2.36,2.36,0,0,0-2.17,2.79,18.93,18.93,0,0,0,.61,3.09,18.8,18.8,0,0,1,.61,3.1l-17,2.94a17.89,17.89,0,0,0-.61-3.09,18.8,18.8,0,0,1-.61-3.1A2.36,2.36,0,0,1,454.68,1596.25Z"/></clipPath><clipPath id="clip-path-55"><path class="cls-1" d="M502.66,1669.68l-17,2.94c-.43.08-.87.14-1.31.18a22.45,22.45,0,0,1-2.48.1,28.08,28.08,0,0,1-19-7.84l17-3a28,28,0,0,0,19,7.84,20,20,0,0,0,2.47-.1C501.79,1669.81,502.23,1669.75,502.66,1669.68Z"/></clipPath><clipPath id="clip-path-56"><path class="cls-1" d="M481.32,1691.6l-17,3-.2,0,17-2.95Z"/></clipPath><clipPath id="clip-path-57"><path class="cls-1" d="M481.12,1691.63l-17,2.95c-2.47.12-4.16-.74-5.21-2.58l17-2.94C477,1690.9,478.65,1691.76,481.12,1691.63Z"/></clipPath><clipPath id="clip-path-58"><path class="cls-1" d="M475.9,1689.06l-17,2.94a20.8,20.8,0,0,1-1.61-6.74c-.55-4.8-1-9.67-1.31-14.58-.18-2.83-.29-7.1-.32-12.78s-.15-10-.39-13-.35-7.38-.34-13.21-.09-10.16-.28-13l17-3q.29,4.26.28,13t.34,13.22c.24,3,.36,7.29.39,13s.13,10,.32,12.78c.32,4.91.76,9.78,1.31,14.58A21.26,21.26,0,0,0,475.9,1689.06Z"/></clipPath></defs><title>start</title><g id="Lag_2" data-name="Lag 2"><rect class="cls-2" x="-0.5" y="-0.5" width="1080" height="1921"/></g><g id="Lag_1" data-name="Lag 1"><rect class="cls-3" y="710" width="1080" height="1210"/><path class="cls-4" d="M586.59,711l-69.69,0,56.34,134.75c14.82,35.44.27,75.18-35.27,96.39L381.75,1035.4c-81.36,48.56-100.51,146.78-42.18,216.35l147.81,176.3c34.88,41.61,36.67,97.88,4.48,141.13L230,1921l544.33-2.59,119.5-330.78c29.88-82.7-.69-173.05-77.14-228L582.87,1191.59c-39.22-28.18-43.88-79.36-10.26-112.66L677.39,975.15c37.93-37.58,42-93,9.77-134.49Z"/><rect class="cls-5" x="520" y="710" width="58" height="2"/><rect class="cls-6" x="454.43" y="469.81" width="96.57" height="239.93" transform="translate(1005.43 1179.54) rotate(180)"/><rect class="cls-7" x="302.84" y="469.81" width="248.16" height="12.11" transform="translate(853.84 951.72) rotate(180)"/><rect class="cls-6" x="551" y="469.81" width="96.57" height="239.93"/><rect class="cls-4" x="551" y="437.89" width="265" height="31.92"/><rect class="cls-4" x="799.72" y="429.08" width="16.28" height="8.8"/><rect class="cls-4" x="768.32" y="429.08" width="16.28" height="8.8"/><rect class="cls-4" x="574.06" y="429.08" width="16.28" height="8.8"/><rect class="cls-4" x="605.5" y="429.08" width="16.28" height="8.8"/><rect class="cls-4" x="634.69" y="429.08" width="16.28" height="8.8"/><rect class="cls-7" x="557.74" y="469.81" width="241.42" height="12.11"/><rect class="cls-8" x="719.43" y="481.91" width="79.72" height="227.82"/><rect class="cls-7" x="705.96" y="394.97" width="44.92" height="314.77"/><rect class="cls-9" x="661.04" y="394.97" width="44.92" height="314.77"/><rect class="cls-9" x="686.87" y="494.02" width="39.3" height="215.72"/><rect class="cls-10" x="647.57" y="494.02" width="39.3" height="215.72"/><polyline class="cls-7" points="816 469.81 799.16 469.81 799.16 481.91"/><rect class="cls-9" x="705.96" y="360.85" width="53.9" height="34.12"/><rect class="cls-10" x="655.43" y="360.85" width="50.53" height="34.12"/><polygon class="cls-8" points="750.87 419.18 705.96 399.37 661.04 394.96 750.87 394.96 750.87 419.18"/><polyline class="cls-11" points="759.86 360.85 705.96 360.85 705.96 275"/><polyline class="cls-4" points="655.43 360.85 705.96 360.85 705.96 275"/><rect class="cls-9" x="686.87" y="461" width="50.53" height="33.02"/><rect class="cls-10" x="635.22" y="461" width="50.53" height="33.02"/><polygon class="cls-8" points="726.17 519.33 686.87 499.52 647.57 494.02 726.17 494.02 726.17 519.33"/><polyline class="cls-11" points="737.4 461 685.75 461 685.75 389.46"/><polyline class="cls-4" points="635.22 461 686.87 461 686.87 389.46"/><rect class="cls-10" x="551" y="481.91" width="55.02" height="227.82"/><polyline class="cls-10" points="606.02 481.91 551 481.91 551 419.18"/><polygon class="cls-11" points="607.15 485.21 551 425.11 551 415.88 615.01 485.21 607.15 485.21"/><rect class="cls-11" x="563.35" y="497.32" width="30.32" height="29.72"/><path class="cls-11" d="M593.67,503.92v-5.5a13.39,13.39,0,0,0-13.48-13.21h-3.36a13.39,13.39,0,0,0-13.48,13.21v5.5"/><path class="cls-5" d="M574.58,485.21h6.18c7.1,0,12.91,5.57,12.91,12.38V526.1c-1.33,7.8-1-30-3.37-34.28l-5.21-4.42"/><rect class="cls-11" x="551" y="612.88" width="32.56" height="96.85"/><path class="cls-5" d="M551,583.17h19.09a13.38,13.38,0,0,1,13.47,13.21v31.91"/><rect class="cls-4" x="286" y="437.89" width="265" height="31.92" transform="translate(837 907.69) rotate(180)"/><rect class="cls-4" x="286" y="429.08" width="16.28" height="8.8" transform="translate(588.28 866.97) rotate(180)"/><rect class="cls-4" x="317.4" y="429.08" width="16.28" height="8.8" transform="translate(651.08 866.97) rotate(180)"/><rect class="cls-4" x="511.66" y="429.08" width="16.28" height="8.8" transform="translate(1039.6 866.97) rotate(180)"/><rect class="cls-4" x="480.22" y="429.08" width="16.28" height="8.8" transform="translate(976.72 866.97) rotate(180)"/><rect class="cls-4" x="451.02" y="429.08" width="16.28" height="8.8" transform="translate(918.33 866.97) rotate(180)"/><rect class="cls-8" x="302.84" y="481.91" width="79.72" height="227.82" transform="translate(685.41 1191.65) rotate(180)"/><rect class="cls-9" x="351.13" y="394.97" width="44.92" height="314.77" transform="translate(747.17 1104.7) rotate(180)"/><rect class="cls-7" x="396.04" y="394.97" width="44.92" height="314.77" transform="translate(837 1104.7) rotate(180)"/><rect class="cls-10" x="375.83" y="494.02" width="39.3" height="215.72" transform="translate(790.96 1203.76) rotate(180)"/><rect class="cls-9" x="415.13" y="494.02" width="39.3" height="215.72" transform="translate(869.56 1203.76) rotate(180)"/><polyline class="cls-7" points="286 469.81 302.84 469.81 302.84 481.91"/><rect class="cls-10" x="342.14" y="360.85" width="53.9" height="34.12" transform="translate(738.19 755.81) rotate(180)"/><rect class="cls-9" x="396.04" y="360.85" width="50.53" height="34.12" transform="translate(842.61 755.81) rotate(180)"/><polygon class="cls-8" points="440.96 419.18 396.04 399.37 351.13 394.96 440.96 394.96 440.96 419.18"/><polyline class="cls-4" points="342.14 360.85 396.04 360.85 396.04 275"/><polyline class="cls-11" points="446.57 360.85 396.04 360.85 396.04 275"/><rect class="cls-10" x="364.6" y="461" width="50.53" height="33.02" transform="translate(779.73 955.02) rotate(180)"/><rect class="cls-9" x="416.25" y="461" width="50.53" height="33.02" transform="translate(883.04 955.02) rotate(180)"/><polygon class="cls-8" points="454.43 519.33 415.13 499.52 375.83 494.02 454.43 494.02 454.43 519.33"/><polyline class="cls-4" points="364.6 461 416.25 461 416.25 389.46"/><polyline class="cls-11" points="466.78 461 415.13 461 415.13 389.46"/><rect class="cls-10" x="495.98" y="481.91" width="55.02" height="227.82" transform="translate(1046.98 1191.65) rotate(180)"/><polyline class="cls-10" points="495.98 481.91 551 481.91 551 419.18"/><polygon class="cls-11" points="494.85 485.21 551 425.11 551 415.88 486.99 485.21 494.85 485.21"/><rect class="cls-11" x="508.33" y="497.32" width="30.32" height="29.72" transform="translate(1046.98 1024.36) rotate(180)"/><path class="cls-11" d="M508.33,503.92v-5.5a13.39,13.39,0,0,1,13.48-13.21h3.36a13.39,13.39,0,0,1,13.48,13.21v5.5"/><path class="cls-5" d="M519.56,485.21h6.18c7.1,0,12.91,5.57,12.91,12.38V526.1c-1.33,7.8-1-30-3.37-34.28l-5.22-4.42"/><rect class="cls-11" x="518.44" y="612.88" width="32.56" height="96.85" transform="translate(1069.44 1322.62) rotate(180)"/><path class="cls-5" d="M551,583.17H531.91a13.38,13.38,0,0,0-13.47,13.21v31.91"/><polygon class="cls-10" points="557.74 583.17 544.26 583.17 544.26 435.69 557.74 434.59 557.74 583.17"/><rect class="cls-11" x="673.39" y="539.14" width="28.07" height="44.02"/><polygon class="cls-5" points="701.47 583.17 698.1 543.55 673.39 539.14 701.47 539.14 701.47 583.17"/><rect class="cls-11" x="401.66" y="540.24" width="28.07" height="44.02"/><polygon class="cls-5" points="429.73 584.27 426.36 544.65 401.66 540.24 429.73 540.24 429.73 584.27"/><path class="cls-11" d="M521.81,626.09V599.68a13.38,13.38,0,0,1,13.47-13.21h31.44a13.38,13.38,0,0,1,13.47,13.21v26.41"/><rect class="cls-5" x="548.75" y="583.17" width="5.61" height="126.57"/><rect class="cls-5" x="518.44" y="612.88" width="3.37" height="94.65"/><rect class="cls-5" x="580.19" y="612.88" width="3.37" height="94.65"/><ellipse class="cls-12" cx="419.06" cy="679.47" rx="24.14" ry="29.17"/><ellipse class="cls-12" cx="380.88" cy="693.78" rx="14.04" ry="25.86"/><ellipse class="cls-13" cx="412.47" cy="682.64" rx="24.14" ry="26.41"/><ellipse class="cls-13" cx="377.66" cy="697.5" rx="14.04" ry="25.86"/><ellipse class="cls-12" cx="449.94" cy="709.74" rx="31.44" ry="30.82"/><ellipse class="cls-13" cx="360.25" cy="694.74" rx="31.44" ry="14.31"/><ellipse class="cls-13" cx="438.71" cy="710.84" rx="31.44" ry="30.82"/><ellipse class="cls-13" cx="393.38" cy="725.56" rx="37.62" ry="30.82"/><ellipse class="cls-13" cx="356.88" cy="722.81" rx="21.33" ry="22.56"/><ellipse class="cls-12" cx="685.18" cy="675.07" rx="24.14" ry="29.17"/><ellipse class="cls-12" cx="716.63" cy="688.83" rx="17.4" ry="29.72"/><ellipse class="cls-12" cx="741.89" cy="692.68" rx="35.93" ry="17.06"/><ellipse class="cls-12" cx="744.7" cy="717.99" rx="25.26" ry="22.56"/><ellipse class="cls-13" cx="679.57" cy="681.12" rx="24.14" ry="26.41"/><ellipse class="cls-13" cx="714.38" cy="695.98" rx="14.04" ry="25.86"/><ellipse class="cls-13" cx="731.78" cy="693.23" rx="31.44" ry="14.31"/><ellipse class="cls-13" cx="653.18" cy="709.74" rx="31.44" ry="30.82"/><ellipse class="cls-13" cx="698.66" cy="724.04" rx="37.62" ry="30.82"/><ellipse class="cls-13" cx="735.15" cy="721.29" rx="21.33" ry="22.56"/><rect class="cls-14" x="238" y="1527.71" width="645" height="339.5" rx="80.23"/><g class="cls-15"><g class="cls-15"><g class="cls-16"><g class="cls-15"><path d="M754.55,1653.46l-17,3-.23,0,17-3a.78.78,0,0,0,.22,0"/></g></g></g><g class="cls-15"><g class="cls-17"><g class="cls-15"><path d="M754.33,1653.49l-17,3a6.49,6.49,0,0,1-2.66-.42l17-3a6.15,6.15,0,0,0,2.66.42"/></g></g></g><g class="cls-15"><g class="cls-18"><g class="cls-15"><path d="M752,1673.36l-17,2.94-.3,0,17-2.94.3,0"/></g></g></g><g class="cls-15"><g class="cls-19"><g class="cls-15"><path d="M746.71,1660.86l-17,2.94c-.14-2.26-.24-3.82-.3-4.67a10.41,10.41,0,0,0-.58-3.39l17-2.94a10.57,10.57,0,0,1,.58,3.39c.05.84.16,2.4.3,4.67"/></g></g></g><g class="cls-15"><g class="cls-20"><g class="cls-15"><path d="M751.73,1673.4l-17,2.94a6.63,6.63,0,0,1-3.43-.8l17-3a6.75,6.75,0,0,0,3.43.81"/></g></g></g><g class="cls-15"><g class="cls-21"><g class="cls-15"><path d="M748.3,1672.59l-17,3a20.49,20.49,0,0,1-1.39-7c-.06-.85-.12-2.42-.2-4.69l17-2.94c.08,2.27.14,3.84.2,4.68a20.38,20.38,0,0,0,1.39,7"/></g></g></g><g class="cls-15"><g class="cls-22"><g class="cls-15"><path d="M745.83,1652.8l-17,2.94a8,8,0,0,0-1.25,0q-.49,0-1.08.15l17-3c.39-.07.75-.12,1.07-.15a6.87,6.87,0,0,1,1.26,0"/></g></g></g><g class="cls-15"><g class="cls-23"><g class="cls-15"><path d="M745.22,1645.29l-17,3q-4.54-24.81-5.7-30-5.38-23.62-9.68-23.25l17-3q4.29-.36,9.68,23.25,1.15,5.2,5.7,30"/></g></g></g><g class="cls-15"><g class="cls-24"><g class="cls-15"><path d="M729.84,1592l-17,3-.12,0,17-3,.13,0"/></g></g></g><g class="cls-15"><g class="cls-25"><g class="cls-15"><path d="M741.77,1653.31l-17,2.94q-.76.13-1.26.18l-.33,0c-.57,0-1.19.08-1.86.14-1.63.17-3.59.45-5.86.84l17-3c2.27-.39,4.23-.67,5.86-.83.67-.07,1.29-.12,1.85-.15l.34,0,1.26-.18"/></g></g></g><g class="cls-15"><g class="cls-26"><g class="cls-15"><path d="M720.8,1649.25l-17,3q2-.56,6.31-1.31l17-2.94c-2.89.49-5,.93-6.31,1.3"/></g></g></g><g class="cls-15"><g class="cls-27"><g class="cls-15"><path d="M714.05,1651l-17,3c.86-.15,3.1-.74,6.75-1.75l17-3c-3.65,1-5.89,1.6-6.75,1.75"/></g></g></g><g class="cls-15"><g class="cls-28"><g class="cls-15"><path d="M707.68,1683.2l-17,3h-.13l17-2.94.13,0"/></g></g></g><g class="cls-15"><g class="cls-29"><g class="cls-15"><path d="M703.34,1670.5l-17,3a222.4,222.4,0,0,1,5.26-35.12q10.7-48.82,18.55-53.82l17-2.94q-7.85,5-18.54,53.81a221.41,221.41,0,0,0-5.26,35.12"/><path d="M727.14,1581.57l-17,2.94a3.65,3.65,0,0,1,1.3-.53l17-2.94a3.54,3.54,0,0,0-1.3.53"/></g></g></g><g class="cls-15"><g class="cls-30"><g class="cls-15"><path d="M707.55,1683.22l-17,2.94a5.13,5.13,0,0,1-3.59-1.65,5.31,5.31,0,0,1-2.1-3.45,17.76,17.76,0,0,1,.69-3.88c.48-2,.74-3.26.79-3.73l17-3c-.05.47-.31,1.71-.8,3.73a18.16,18.16,0,0,0-.68,3.88,5.31,5.31,0,0,0,2.1,3.45,5.19,5.19,0,0,0,3.59,1.66"/></g></g></g><path d="M754.52,1646.66c1.41.31,2.16,1,2.23,2.16q.3,4.4-2.42,4.67a6.15,6.15,0,0,1-2.66-.42,53.65,53.65,0,0,0,4,16,4.07,4.07,0,0,1-1.25,3.06,4.49,4.49,0,0,1-2.66,1.27,6.75,6.75,0,0,1-3.43-.81,20.38,20.38,0,0,1-1.39-7c-.06-.84-.12-2.41-.2-4.68s-.25-3.83-.3-4.67a10.57,10.57,0,0,0-.58-3.39,6.87,6.87,0,0,0-1.26,0c-.49.05-1.05.14-1.68.26-1,.21-1.83.34-2.38.4l-.34,0c-.56,0-1.18.08-1.85.15a134.18,134.18,0,0,0-13.69,2.37q-12.06,2.61-13.78,4.69c-.66.7-1.16,4.14-1.53,10.32-.29,5-.4,8.75-.32,11.11a1.78,1.78,0,0,1-1.45,1.07,5.19,5.19,0,0,1-3.59-1.66,5.31,5.31,0,0,1-2.1-3.45,18.16,18.16,0,0,1,.68-3.88c.49-2,.75-3.26.8-3.73a221.41,221.41,0,0,1,5.26-35.12q11.71-53.54,20-54.37c6.08-.32,11.29,8.7,15.76,27.06q2.39,9.69,6.53,37.22A9.77,9.77,0,0,0,754.52,1646.66Zm-33.72,2.59q4.92-1.38,24.42-4-4.54-24.8-5.7-30-5.4-23.61-9.68-23.25-4.73.53-10.51,22.45-3.17,13.82-6.22,27.62a43.53,43.53,0,0,0-1.14,5.61c-.16,2.29.45,3.39,1.85,3.31.63-.06,2.94-.65,7-1.78"/></g><g class="cls-15"><g class="cls-15"><g class="cls-31"><g class="cls-15"><path d="M689.1,1594l-17,3-.13,0,17-3,.13,0"/></g></g></g><g class="cls-15"><g class="cls-32"><g class="cls-15"><polyline points="688.97 1594 671.93 1596.95 671.93 1596.95 688.97 1594 688.97 1594"/><path d="M689,1594l-17,3s-.89-.5-2.77-1.42l17-2.94c1.88.91,2.77,1.38,2.77,1.41"/></g></g></g><g class="cls-15"><g class="cls-33"><g class="cls-15"><path d="M686.2,1592.59l-17,2.94c-1.21-.7-4.23-.92-9-.67l17-2.94c4.81-.26,7.83,0,9,.67"/></g></g></g><polygon points="677.16 1591.91 660.12 1594.86 654.87 1595.13 671.91 1592.18 677.16 1591.91"/><g class="cls-15"><g class="cls-34"><g class="cls-15"><path d="M671.91,1592.18l-17,3-.62,0-.67.09,17-2.94a6.39,6.39,0,0,1,.67-.09l.62,0"/></g></g></g><g class="cls-15"><g class="cls-35"><g class="cls-15"><path d="M660.37,1595.72l-17,3c-.26-.91-.76-1.34-1.51-1.31l-.47,0c-.35,0-.73.09-1.14.16l17-2.94a10.92,10.92,0,0,1,1.13-.16l.48,0c.75,0,1.25.4,1.51,1.3"/></g></g></g><g class="cls-15"><g class="cls-36"><g class="cls-15"><path d="M671.9,1682.49l-17,3h-.08l17-3h.08"/></g></g></g><g class="cls-15"><g class="cls-37"><g class="cls-15"><path d="M660.8,1636.28l-17,3q-.15-3.84.1-17.94.18-11.24-.25-17.9c-.16-2.34-.25-3.92-.29-4.72l17-3c0,.81.13,2.38.29,4.72q.44,6.68.25,17.91-.24,14.1-.11,17.93"/></g></g></g><g class="cls-15"><g class="cls-38"><g class="cls-15"><path d="M671.82,1682.5l-17,3c-4.14.22-6.91-2.49-8.38-8.1l17-2.95c1.46,5.62,4.24,8.32,8.38,8.1"/></g></g></g><g class="cls-15"><g class="cls-39"><g class="cls-15"><path d="M663.44,1674.4l-17,2.95q-.92-3.22-1.64-14.14-1-15.87-1-24l17-3q0,8.1,1,24,.72,10.92,1.64,14.14"/></g></g></g><g class="cls-15"><g class="cls-40"><g class="cls-15"><path d="M640.25,1592.82l-17,3a2.6,2.6,0,0,1,1.12-1.1l17-2.94a2.61,2.61,0,0,0-1.11,1.09"/><path d="M641.36,1591.73l-17,2.94q3.3-2.07,15.85-4.62,3.09-.58,5.81-1.06l17-2.94q-2.7.46-5.81,1.06-12.53,2.55-15.85,4.62"/></g></g></g><g class="cls-15"><g class="cls-41"><g class="cls-15"><path d="M648.19,1596.85l-17,3c-.41.07-.79.12-1.13.16l-.48,0a5.89,5.89,0,0,1-6.33-4.22l17-3a5.9,5.9,0,0,0,6.33,4.23l.48,0c.34,0,.72-.09,1.13-.16"/></g></g></g><path d="M676.71,1584.26c9-.46,13.6,1.56,13.91,6.1.15,2.3-.41,3.52-1.65,3.64,0,0-.85-.48-2.77-1.41-1.21-.7-4.23-.93-9-.67l-5.25.26-.62,0c-1.5.15-2.43.55-2.81,1.19s-.68,2.37-.79,4.88-.31,6.26-.6,11.2a453.84,453.84,0,0,0,.84,46.46q1.19,18.29,4.87,24.5c.08,1.29-.25,2-1,2-4.14.22-6.92-2.48-8.38-8.1q-.93-3.21-1.64-14.14-1-15.87-1-24-.13-3.84.11-17.93.18-11.24-.25-17.91c-.16-2.34-.25-3.91-.29-4.72-.26-.9-.76-1.34-1.51-1.3l-.48,0a32.7,32.7,0,0,0-5.66,1.27,32.92,32.92,0,0,1-5.66,1.28l-.48,0a5.9,5.9,0,0,1-6.33-4.23q1-2.47,17-5.71,10.65-2,16.7-2.63C674.94,1584.37,675.88,1584.3,676.71,1584.26Z"/></g><g class="cls-15"><g class="cls-15"><g class="cls-42"><g class="cls-15"><path d="M630.7,1636.24l-17,3-.23,0,17-2.94.23,0"/></g></g></g><g class="cls-15"><g class="cls-43"><g class="cls-15"><path d="M630.47,1636.28l-17,2.94a3.25,3.25,0,0,1-2.65-1.5,5.35,5.35,0,0,1-1.43-3,38.14,38.14,0,0,1,.27-5.85,40.25,40.25,0,0,0,.25-5.84,54.6,54.6,0,0,0-3.67-17.17q-4-10-10.8-9.68l-.62,0a7.68,7.68,0,0,0-.82.11l17-2.95.82-.11.62,0q6.78-.36,10.8,9.69a54.53,54.53,0,0,1,3.67,17.16,39.15,39.15,0,0,1-.26,5.84,39.23,39.23,0,0,0-.26,5.85,5.41,5.41,0,0,0,1.43,3,3.28,3.28,0,0,0,2.65,1.5"/></g></g></g><g class="cls-15"><g class="cls-44"><g class="cls-15"><path d="M623.38,1679.67l-17,2.95a15,15,0,0,0,5.47-1.9l17-2.94a15.23,15.23,0,0,1-5.47,1.89"/><path d="M628.85,1677.78l-17,2.94a7,7,0,0,0,3.38-6.88q-.26-4-6.33-9.49l17-2.95q6.08,5.52,6.33,9.49a7,7,0,0,1-3.38,6.89"/></g></g></g><g class="cls-15"><g class="cls-45"><g class="cls-15"><path d="M625.9,1661.4l-17,2.95c-.65-.53-3.72-2.94-9.2-7.2Q586.54,1647,583,1642.93a35.77,35.77,0,0,1-8.78-21.74,42.15,42.15,0,0,1,4.06-21.54c2.11-4.39,4.66-7.52,7.67-9.42l17-3q-4.51,2.85-7.67,9.43a42.11,42.11,0,0,0-4.06,21.54,35.74,35.74,0,0,0,8.78,21.73q3.51,4.1,16.65,14.22,8.22,6.4,9.2,7.2"/><path d="M603,1587.28l-17,3a13.84,13.84,0,0,1,5-1.94l17-3a13.84,13.84,0,0,0-5,1.94"/></g></g></g><path d="M609.08,1585.2l.74-.06q7.77-.39,13.88,7.4a41.09,41.09,0,0,1,7.51,16.82c.23,2.26.76,5.7,1.61,10.3l1.26,5c.49,7.43-.72,11.27-3.61,11.57a3.28,3.28,0,0,1-2.65-1.5,5.41,5.41,0,0,1-1.43-3,39.23,39.23,0,0,1,.26-5.85,39.15,39.15,0,0,0,.26-5.84,54.53,54.53,0,0,0-3.67-17.16q-4-10-10.8-9.69l-.62,0q-6.36.64-10.24,7.84a29.26,29.26,0,0,0-3.49,16.18q.76,11.63,11.4,21.6,9.66,7.59,19.46,15.35,10.41,8.28,10.88,15.37.52,7.93-7.32,12.61a29.15,29.15,0,0,1-12.14,4c-.52,0-1,.09-1.56.12a39.52,39.52,0,0,1-15.19-2.63q-10.73-3.86-11.16-10.38c-.15-2.27.64-3.5,2.35-3.67s3.45.86,5.51,2.84c2.91,3,4.5,4.56,4.74,4.73q4.63,3.33,14.5,2.81c.62,0,1.23-.08,1.8-.13q11.4-1.15,10.87-9.06-.26-4-6.33-9.49-1-.8-9.2-7.2-13.12-10.12-16.65-14.22a35.74,35.74,0,0,1-8.78-21.73,42.11,42.11,0,0,1,4.06-21.54Q600.43,1586.06,609.08,1585.2Z"/><g class="cls-15"><g class="cls-46"><g class="cls-15"><path d="M622.51,1686l-17,2.94c-.7.13-1.42.22-2.14.3-.51,0-1,.09-1.55.11a39.51,39.51,0,0,1-15.2-2.62q-10.73-3.87-11.16-10.38c-.11-1.65.27-2.74,1.14-3.29l17-2.94c-.87.54-1.25,1.63-1.14,3.28q.43,6.53,11.16,10.38a39.52,39.52,0,0,0,15.19,2.63c.53,0,1-.07,1.56-.12.72-.07,1.43-.17,2.14-.29"/><path d="M593.6,1670.09l-17,2.94a2.75,2.75,0,0,1,1-.35l17-2.94a2.57,2.57,0,0,0-.95.35"/></g></g></g></g><g class="cls-15"><g class="cls-15"><g class="cls-47"><g class="cls-15"><path d="M584.32,1662.25l-17,3-.23,0,17-3,.22,0"/></g></g></g><g class="cls-15"><g class="cls-48"><g class="cls-15"><path d="M584.1,1662.28l-17,3a6.13,6.13,0,0,1-2.64-.44l17-2.94a6.09,6.09,0,0,0,2.64.43"/></g></g></g><g class="cls-15"><g class="cls-49"><g class="cls-15"><path d="M581.82,1682.14l-17,2.95-.31,0,17-3,.31,0"/></g></g></g><g class="cls-15"><g class="cls-50"><g class="cls-15"><path d="M576.5,1669.64l-17,2.95c-.15-2.26-.25-3.83-.31-4.68a10.64,10.64,0,0,0-.57-3.38l17-2.94a10.62,10.62,0,0,1,.57,3.37c.06.86.16,2.42.31,4.68"/></g></g></g><g class="cls-15"><g class="cls-51"><g class="cls-15"><path d="M581.51,1682.18l-17,3a6.51,6.51,0,0,1-3.43-.82l17-2.94a6.59,6.59,0,0,0,3.43.81"/></g></g></g><g class="cls-15"><g class="cls-52"><g class="cls-15"><path d="M578.08,1681.37l-17,2.94a19.85,19.85,0,0,1-1.38-7c-.06-.85-.13-2.41-.2-4.68l17-2.95c.07,2.28.13,3.83.19,4.69a20.14,20.14,0,0,0,1.39,7"/></g></g></g><g class="cls-15"><g class="cls-53"><g class="cls-15"><path d="M575.62,1661.59l-17,2.94a7.44,7.44,0,0,0-1.31,0l-1.07.15,17-2.94c.39-.07.74-.12,1.06-.15a7.56,7.56,0,0,1,1.32,0"/></g></g></g><g class="cls-15"><g class="cls-54"><g class="cls-15"><path d="M575,1654.08,558,1657q-4.54-24.8-5.7-30-5.4-23.62-9.68-23.25l17-3q4.27-.36,9.68,23.26,1.16,5.2,5.7,30"/></g></g></g><g class="cls-15"><g class="cls-55"><g class="cls-15"><path d="M559.63,1600.82l-17,3h-.13l17-2.94.13,0"/></g></g></g><g class="cls-15"><g class="cls-56"><g class="cls-15"><path d="M571.44,1662.11l-17,3c-.46.07-.84.13-1.15.16l-.33,0c-.57,0-1.18.07-1.86.14q-2.47.25-5.93.85l17-3q3.45-.6,5.93-.84,1-.1,1.86-.15l.33,0c.31,0,.69-.08,1.15-.16"/></g></g></g><g class="cls-15"><g class="cls-57"><g class="cls-15"><path d="M550.59,1658l-17,3c1.32-.38,3.42-.81,6.3-1.31l17-3c-2.88.5-5,.94-6.3,1.31"/></g></g></g><g class="cls-15"><g class="cls-58"><g class="cls-15"><path d="M543.83,1659.79l-17,2.94c.87-.15,3.11-.73,6.76-1.74l17-3c-3.65,1-5.89,1.6-6.76,1.75"/></g></g></g><g class="cls-15"><g class="cls-59"><g class="cls-15"><path d="M537.45,1692l-17,2.94-.14,0,17-2.94.15,0"/></g></g></g><g class="cls-15"><g class="cls-60"><g class="cls-15"><path d="M533.13,1679.28l-17,2.94a221.2,221.2,0,0,1,5.25-35.11q10.7-48.81,18.55-53.81l17-3q-7.84,5-18.54,53.81a221.48,221.48,0,0,0-5.25,35.12"/><path d="M556.92,1590.35l-17,3a3.47,3.47,0,0,1,1.3-.53l17-3a3.72,3.72,0,0,0-1.3.53"/></g></g></g><g class="cls-15"><g class="cls-61"><g class="cls-15"><path d="M537.3,1692l-17,2.94a5.26,5.26,0,0,1-3.58-1.66,5.31,5.31,0,0,1-2.08-3.45,17.83,17.83,0,0,1,.67-3.87q.74-3,.81-3.75l17-2.94c0,.47-.32,1.72-.81,3.74a17.16,17.16,0,0,0-.67,3.88,6.85,6.85,0,0,0,5.65,5.11"/></g></g></g><path d="M584.3,1655.45c1.41.3,2.16,1,2.23,2.16.2,2.93-.62,4.49-2.43,4.67a6.09,6.09,0,0,1-2.64-.43,53.29,53.29,0,0,0,4,16,4,4,0,0,1-1.25,3.05,4.4,4.4,0,0,1-2.66,1.27,6.59,6.59,0,0,1-3.43-.81,20.14,20.14,0,0,1-1.39-7c-.06-.86-.12-2.41-.19-4.69s-.25-3.82-.31-4.68a10.62,10.62,0,0,0-.57-3.37,7.56,7.56,0,0,0-1.32,0c-.47.05-1,.13-1.63.25a21.52,21.52,0,0,1-2.38.4l-.33,0q-.86,0-1.86.15a136.46,136.46,0,0,0-13.69,2.36c-8,1.75-12.63,3.3-13.78,4.7q-1,1-1.53,10.31-.44,7.56-.32,11.11a1.81,1.81,0,0,1-1.48,1.08,6.85,6.85,0,0,1-5.65-5.11,17.16,17.16,0,0,1,.67-3.88c.49-2,.76-3.27.81-3.74a221.48,221.48,0,0,1,5.25-35.12q11.73-53.52,20-54.36c6.08-.32,11.29,8.7,15.76,27q2.39,9.7,6.54,37.21A9.61,9.61,0,0,0,584.3,1655.45ZM550.59,1658q4.92-1.39,24.42-4-4.54-24.8-5.7-30-5.4-23.62-9.68-23.26-4.75.53-10.52,22.44-3.17,13.82-6.21,27.63a43.43,43.43,0,0,0-1.15,5.62c-.16,2.27.46,3.39,1.85,3.31.63-.06,2.94-.66,7-1.78"/></g><g class="cls-15"><g class="cls-15"><g class="cls-62"><g class="cls-15"><path d="M515.78,1626.33l-17,3a56,56,0,0,0-4.4-19.3q-4.77-10.73-12.63-10.33l-.61,0-.84.12,17-3,.84-.12.61,0q7.85-.4,12.63,10.33a55.92,55.92,0,0,1,4.4,19.29"/></g></g></g><g class="cls-15"><g class="cls-63"><g class="cls-15"><path d="M500.71,1663l-17,2.94a14.82,14.82,0,0,0,5.38-2l17-3a14.66,14.66,0,0,1-5.38,2"/><path d="M506.09,1661l-17,3a14.4,14.4,0,0,0,5-5.53q3-5.43,4.21-17a85.08,85.08,0,0,0,.47-12.14l17-3a85.08,85.08,0,0,1-.47,12.14q-1.21,11.61-4.22,17a14.28,14.28,0,0,1-5,5.52"/></g></g></g><g class="cls-15"><g class="cls-64"><g class="cls-15"><path d="M481.93,1602.27l-17,3a21.87,21.87,0,0,1,7.64-9l17-2.94a21.92,21.92,0,0,0-7.65,9"/><path d="M489.58,1593.31l-17,2.94a16.25,16.25,0,0,1,6-2.27l17-3a16.09,16.09,0,0,0-6,2.28"/></g></g></g><g class="cls-15"><g class="cls-65"><g class="cls-15"><path d="M477.36,1613.88l-17,2.95q2.28-5.8,4.58-11.61l17-3-4.57,11.61"/></g></g></g><g class="cls-15"><g class="cls-66"><g class="cls-15"><path d="M483.17,1652.63l-17,2.94h-.2l17-3a.47.47,0,0,1,.2,0"/></g></g></g><g class="cls-15"><g class="cls-67"><g class="cls-15"><polyline points="483.18 1652.63 466.14 1655.57 466.13 1655.57 483.17 1652.63 483.18 1652.63"/></g></g></g><g class="cls-15"><g class="cls-68"><g class="cls-15"><path d="M478.92,1649.93l-17,3,.38-.26,17-2.94-.38.25"/><path d="M479.3,1649.68l-17,2.94a3.65,3.65,0,0,1,1.18-.53l17-2.94a3.44,3.44,0,0,0-1.18.53"/></g></g></g><g class="cls-15"><g class="cls-69"><g class="cls-15"><path d="M470.77,1602.28l-17,2.94a17.89,17.89,0,0,0-.61-3.09,18.8,18.8,0,0,1-.61-3.1,2.37,2.37,0,0,1,1-2.36l17-3a2.37,2.37,0,0,0-1,2.37,18.93,18.93,0,0,0,.61,3.09,18.8,18.8,0,0,1,.61,3.1"/><path d="M470.55,1593.72l-17,3a3.23,3.23,0,0,1,1.17-.42l17-3a3.57,3.57,0,0,0-1.17.42"/></g></g></g><g class="cls-15"><g class="cls-70"><g class="cls-15"><path d="M502.66,1669.68l-17,2.94c-.43.08-.87.14-1.31.18a22.45,22.45,0,0,1-2.48.1,28.08,28.08,0,0,1-19-7.84l17-3a28,28,0,0,0,19,7.84,20,20,0,0,0,2.47-.1c.45,0,.89-.1,1.32-.17"/></g></g></g><polygon points="471.66 1615.74 454.62 1618.69 453.73 1605.22 470.77 1602.28 471.66 1615.74"/><g class="cls-15"><g class="cls-71"><g class="cls-15"><path d="M481.32,1691.6l-17,3-.2,0,17-2.95.2,0"/></g></g></g><g class="cls-15"><g class="cls-72"><g class="cls-15"><path d="M481.12,1691.63l-17,2.95c-2.47.12-4.16-.74-5.21-2.58l17-2.94c1.05,1.84,2.75,2.7,5.22,2.57"/></g></g></g><g class="cls-15"><g class="cls-73"><g class="cls-15"><path d="M475.9,1689.06l-17,2.94a20.8,20.8,0,0,1-1.61-6.74c-.55-4.8-1-9.67-1.31-14.58-.18-2.83-.29-7.1-.32-12.78s-.15-10-.39-13-.35-7.38-.34-13.21-.09-10.16-.28-13l17-3q.29,4.26.28,13t.34,13.22c.24,3,.36,7.29.39,13s.13,10,.32,12.78c.32,4.91.76,9.78,1.31,14.58a21.26,21.26,0,0,0,1.6,6.75"/></g></g></g><path d="M515.3,1601.12q5.24,9,6.17,23.15a80.21,80.21,0,0,1,.06,9.8q-2.24,34-20.19,35.78a20,20,0,0,1-2.47.1,28,28,0,0,1-19-7.84l-.76.76.38,5.81q.44,8.37,2,12.27c.1.28.59,1.23,1.47,2.84a11.88,11.88,0,0,1,1.36,3,5.35,5.35,0,0,1-.83,3.24,3,3,0,0,1-2.3,1.61c-2.47.13-4.17-.73-5.22-2.57a21.26,21.26,0,0,1-1.6-6.75c-.55-4.8-1-9.67-1.31-14.58-.19-2.83-.29-7.1-.32-12.78s-.15-10-.39-13-.35-7.38-.34-13.22-.09-10.16-.28-13l-.89-13.46a18.8,18.8,0,0,0-.61-3.1,18.93,18.93,0,0,1-.61-3.09c-.11-1.71.73-2.65,2.53-2.83l.31,0a4,4,0,0,1,3.45,2,8.64,8.64,0,0,1,1.63,4.47,38.46,38.46,0,0,1-.17,5.27,35.75,35.75,0,0,0-.18,5.27l.24,3.68,4.57-11.61q5.29-10.45,14.91-11.42l.94-.07Q508.9,1590.23,515.3,1601.12Zm.48,25.21a55.92,55.92,0,0,0-4.4-19.29q-4.77-10.74-12.63-10.33l-.61,0q-9.76,1-15.54,17.44a70.68,70.68,0,0,0-4.18,28.22l.5,7.52a4.15,4.15,0,0,1,1.64-.8c.59,0,1.1.43,1.6,1.35a6.55,6.55,0,0,0,1.22,1.82q-.06.32-.21.33c-.31-.05-.34,0-.33.26a7.45,7.45,0,0,0,1.09,2.53q5.08,8.36,14.45,7.87c.34,0,.68,0,1-.08a14.06,14.06,0,0,0,11.7-7.7q3-5.43,4.22-17a85.08,85.08,0,0,0,.47-12.14"/></g><path d="M345.51,1726.42a36.56,36.56,0,0,1-.37,5.55q-4.83,32.83-27.09,32.84a33.5,33.5,0,0,1-20.42-6.68v3q-.12,9.53,1.49,13.08c1.56,3.32,2.35,5.21,2.35,5.69a7.2,7.2,0,0,1-1.92,5,5.79,5.79,0,0,1-4.39,2.14q-5.57,0-7.55-4.55c-.74-1.8-1.24-5.17-1.48-10.1q-.25-4.83-.25-11.09a67.42,67.42,0,0,1,.56-7.25,69.59,69.59,0,0,0,.55-7.39v-9.67q-.12-4.26.5-12.58t.62-12.29v-12.8q0-.29-1.12-7.68,3.19-3.4,6-3.41a6.17,6.17,0,0,1,5.27,2.77,11.39,11.39,0,0,1,2,6.76v2q8.16-12.37,20.66-12.37,11.76,0,18.56,10.09,6.06,9.11,6.06,23v6Zm-11.26-2.27a48.23,48.23,0,0,0-2.59-16.78q-3.6-9.37-11-9.38-9.54,0-16.34,13.36a50.47,50.47,0,0,0-6.06,23.46q0,19.77,17.32,19.76,9.29,0,13.61-9.24,2.47-5.11,4.7-18.62C334.13,1724.91,334.25,1724.06,334.25,1724.15Z"/><path d="M425.44,1782.86v.71q-1.86,3.14-4.58,3.13a4.3,4.3,0,0,1-3.59-2.13q-1.11-5.11-16.39-16.63t-20.23-11.52h-2.23c-1.15.1-1.94.14-2.35.14v5.55a61.08,61.08,0,0,0,.62,7.53c.41,3.79.87,6.11,1.36,7q2.24,3.41,2.23,4.26a5.53,5.53,0,0,1-1.73,4.2,5.66,5.66,0,0,1-4,1.63,8.31,8.31,0,0,1-7.3-3.84q-2.48-3.4-2.48-28.15a10.06,10.06,0,0,1-5.44-1.84q-3.22-2.28-3.22-4.84c0-3.5,2.76-6,8.29-7.53q.49-4.41.87-12.09.24-8.67.62-12.08.74-4.55,1.85-13.65h-1q-4.95.15-5-5,0-4.41,3-5.55l4.21-1.42a19,19,0,0,1,3.9-3.34,9.79,9.79,0,0,1,4.51-.78,2,2,0,0,1,2.23,2.27c0,.48,1,.71,3.09.71q14.47,0,24.62,6.69,12.5,8.1,12.5,23.45,0,11.8-6.44,19.48-4.32,5.27-15.34,11.8,8.79,6.39,17.45,12.79Q425.56,1772.48,425.44,1782.86Zm-16.83-63.69q0-9.09-8.07-13.79a29.11,29.11,0,0,0-15.15-3.84c-.75,0-2.53.15-5.34.43q.12,5.12-2.36,17.63a162.4,162.4,0,0,0-1.87,22c4.81,1.9,7.78,2.85,8.94,2.85a14.37,14.37,0,0,0,4.35-1,31.29,31.29,0,0,0,13.41-8.67A22.47,22.47,0,0,0,408.61,1719.17Z"/><path d="M454.14,1696.71a10.56,10.56,0,0,1-1.11,3.13,28.72,28.72,0,0,0-1,6.4q-2.61,31.85-2.6,55.87a41.7,41.7,0,0,0,1,10.09,54.14,54.14,0,0,0,3.59,9,2.29,2.29,0,0,1,.12.85q0,3-6.06,3H447q-6.3-.15-7.67-11.66-1.73-14.07-1.73-38.81,0-5.83.19-17.56t.18-17.7a8.84,8.84,0,0,1,3-6.25c2-2,3.92-3,5.82-3a7.86,7.86,0,0,1,4.82,2.13Q454.14,1694.29,454.14,1696.71Z"/><path d="M522.55,1692a10.09,10.09,0,0,1-1.11,4c-.91,2.09-1.44,3.37-1.61,3.85q-3.58,13-3.58,21.21l-.37,40.86a40.62,40.62,0,0,1-2.48,12.82q-3.09,8.25-7.67,8.25-6.81,0-13.49-13.07-4.82-9.67-9.77-26.73-2.85-11.09-5.82-22.18-2.59,24.17-2.59,32.41,0,18.21,1.91,20.9c1.28,1.8,1.92,3.13,1.92,4a6.08,6.08,0,0,1-2.47,4.77,7.77,7.77,0,0,1-4.95,2.06q-3.47,0-5.69-8.39a46.74,46.74,0,0,1-1.73-11.94c0-1.61,0-4,.12-7.18s.12-5.57.12-7.18q0-5.84,1.24-17.34t1.24-17.35v-17.34a2.93,2.93,0,0,0-.19-.86,3.06,3.06,0,0,1-.18-.85c0-1.89,1.11-3.46,3.34-4.69a10.85,10.85,0,0,1,5.44-1.56q6.31,0,9,4.69a25.38,25.38,0,0,1,1.36,6.54c.25,2.27.5,4.6.74,7q1.49,10.1,7.8,32.42,7.54,26.29,11.26,26.3c.91,0,1.36-1.33,1.36-4a36.87,36.87,0,0,0-.31-3.7,34.76,34.76,0,0,1-.31-4l1.24-38.6A79.73,79.73,0,0,1,509,1700q3.21-11.82,8.66-11.82,1.73,0,4.82,2.57A7.72,7.72,0,0,1,522.55,1692Z"/><path d="M593.57,1761.94a21.65,21.65,0,0,1-1.24,6.51,27,27,0,0,1-11.63,14.72,31.82,31.82,0,0,1-17.07,4.81q-15.23,0-23.38-13.2-7.07-11.51-7.06-29.67a95.19,95.19,0,0,1,4.09-28.25q4.58-15,13.48-23.57,7.05-6.68,14.35-6.67,10.51,0,16,10.52,4.45,8.52,4.46,21.46a54,54,0,0,1-2.6,14.65q-3.09,10.8-6.93,10.8-4.34,0-6.56-6.25a46.47,46.47,0,0,0,3.47-3.27q2.48-3.13,2.47-12.23a59.22,59.22,0,0,0-1.61-14.93q-2.47-9.24-8.16-9.24-4,0-8.66,5.82a45.43,45.43,0,0,0-6.06,9.79q-6.07,13.63-6.07,33.92,0,29.52,19.3,29.52,8.29,0,13.12-5.37,2-2.4,5.81-10c1.74-3.66,3.59-5.5,5.57-5.5a4.4,4.4,0,0,1,3.46,1.77A5.88,5.88,0,0,1,593.57,1761.94Z"/><path d="M661.62,1774.7a9.69,9.69,0,0,1-.87,4.21c-.74,1.59-1.73,2.39-3,2.39a7,7,0,0,1-1.42-.21,6.56,6.56,0,0,0-1.42-.22q-5.33,0-15.41,3.7t-15.4,3.69q-19.92,0-19.92-34.68,0-27.3,1.24-43.22.12-2.13.12-2.28a23.83,23.83,0,0,0-.25-2.91,25.29,25.29,0,0,1-.24-2.77q0-6.54,6.18-7.68,9.53-2,19.06-4.12,12.48-2.7,18.68-2.7a13.43,13.43,0,0,1,6.31,1.42q3.71,2,3.71,5.54,0,5.27-6.06,5.26a18.78,18.78,0,0,1-2.29-.21,19.12,19.12,0,0,0-2.29-.21q-10,0-27.34,5.11a11.51,11.51,0,0,0-1.86.43c-.58.19-1,.9-1.24,2.13q-1.37,6.83-1.36,26.73c0,2,.79,3,2.35,3a34.85,34.85,0,0,0,9.28-1.85,34.85,34.85,0,0,1,9.28-1.85,17.84,17.84,0,0,1,8.29,2.56,34,34,0,0,1,1.24,5.54q0,3.55-1.86,3.84t-4,.57a4.62,4.62,0,0,0-2.72-.71,51.68,51.68,0,0,0-10.39,1.28q-5.07,1.27-10.27,2.42c-.5.09-.93.19-1.3.28s-.64.66-.8,1.71c-.17,1.7-.25,3.08-.25,4.12q0,10.95.37,13.08,1.23,8.25,6.8,8.24,4.71,0,13.74-3.27t14.35-3.27Q659.15,1769.78,661.62,1774.7Z"/><path d="M727.81,1771.32q0,8.68-8.79,13.38a31.25,31.25,0,0,1-15.46,3.85q-7.8,0-18.31-4-13-5.11-13-11.94a6.5,6.5,0,0,1,1.61-4.41,4.93,4.93,0,0,1,3.84-1.85,8.3,8.3,0,0,1,6.18,3.13c3.22,3.13,5,4.83,5.2,5.12q4.33,2.84,15.59,2.84,10,0,10-5.26,0-4.41-9.4-12.23l-13.12-9.66q-8.42-6.54-12.24-12.37a31.18,31.18,0,0,1-5.08-17.63,38.75,38.75,0,0,1,6.68-22.32q7.19-10.8,17.82-10.8a22.12,22.12,0,0,1,15.46,5.75q6.32,5.76,8.05,16.14.36,4,1.48,11.8a17.8,17.8,0,0,1,.5,3.41,22.49,22.49,0,0,1-1.49,8.67c-1.24,3.23-3.17,4.84-5.81,4.84a5.74,5.74,0,0,1-4.27-2.36,7.44,7.44,0,0,1-2-4.92,29.68,29.68,0,0,1,.74-5.5,30.38,30.38,0,0,0,.74-5.49q0-19.26-11.13-19.26-6.2,0-10.4,6a22.83,22.83,0,0,0-4.2,13.31q0,10.26,10.64,19.93,9.76,7.56,19.67,15.1Q727.81,1763.35,727.81,1771.32Z"/><path d="M791.89,1771.32q0,8.68-8.78,13.38a31.28,31.28,0,0,1-15.47,3.85q-7.78,0-18.31-4-13-5.11-13-11.94a6.5,6.5,0,0,1,1.61-4.41,4.93,4.93,0,0,1,3.83-1.85,8.34,8.34,0,0,1,6.19,3.13c3.22,3.13,4.95,4.83,5.2,5.12q4.32,2.84,15.59,2.84,10,0,10-5.26,0-4.41-9.41-12.23l-13.11-9.66q-8.41-6.54-12.25-12.37a31.25,31.25,0,0,1-5.07-17.63,38.75,38.75,0,0,1,6.68-22.32q7.17-10.8,17.82-10.8a22.13,22.13,0,0,1,15.46,5.75q6.32,5.76,8,16.14.38,4,1.49,11.8a17.6,17.6,0,0,1,.49,3.41,22.5,22.5,0,0,1-1.48,8.67q-1.86,4.85-5.82,4.84a5.76,5.76,0,0,1-4.27-2.36,7.44,7.44,0,0,1-2-4.92,30.58,30.58,0,0,1,.74-5.5,29.7,29.7,0,0,0,.75-5.49q0-19.26-11.14-19.26-6.18,0-10.39,6a22.77,22.77,0,0,0-4.21,13.31q0,10.26,10.64,19.93,9.78,7.56,19.68,15.1Q791.88,1763.35,791.89,1771.32Z"/><circle class="cls-74" cx="305.52" cy="1531.9" r="119.5"/><path class="cls-75" d="M182.58,1543.51c1,27.32,30,56.43,13.2,57.36s-34.15-19.8-35.67-47.09,33.74-40.66,47.26-50.7c13-9.67,30.76-18.51,18.53-9C220.71,1498.05,181.7,1519.87,182.58,1543.51Z"/><path class="cls-75" d="M217.41,1611.69c16.1,15.27,5.47,41.1-8.67,47.47-15.35,6.91-38.34-4.49-38.53-31.83-.2-26.47,12.16-44.45,14.83-59.74C189.57,1541.53,188.17,1584,217.41,1611.69Z"/><circle class="cls-76" cx="312.47" cy="1532.29" r="98"/><path class="cls-74" d="M171.11,1563.09c5.92,18.4,1.7,39.38,18.78,33.87s26.14-24.87,20.21-43.27-24.57-28.86-41.66-23.36S165.18,1544.69,171.11,1563.09Z"/><ellipse class="cls-77" cx="271.14" cy="1527.67" rx="19" ry="18.5" transform="translate(-455.12 156.6) rotate(-17.85)"/><ellipse class="cls-77" cx="347.23" cy="1503.51" rx="19" ry="18.5" transform="translate(-444.05 178.75) rotate(-17.85)"/><path class="cls-75" d="M384,1437.83c27.76,20.84-41,7.53-98.89,22.39-55.78,14.32-104.7,86.67-103.37,57.44,2-44.39,33.15-100.69,78-113.36C310.57,1389.94,352.52,1414.24,384,1437.83Z"/><path class="cls-75" d="M236.44,1665.72c6.53,22.5.23,39.3-9,46.6-13.23,10.42-32.42-2.14-42-27.75s17.84-47.16,18.91-64c1.24-19.48,1.43-.42,13.88,23.09C221.65,1650.23,234,1657.41,236.44,1665.72Z"/><path class="cls-75" d="M247.14,1714.2c6.53,22.51.24,39.3-9,46.6-13.24,10.42-32.43-2.14-42-27.74s17.84-47.17,18.91-64c1.23-19.48,1.43-.42,13.87,23.09C232.35,1698.71,244.73,1705.9,247.14,1714.2Z"/><ellipse class="cls-75" cx="242.4" cy="1773.05" rx="10" ry="14.5" transform="translate(-526.26 157) rotate(-17.65)"/><ellipse class="cls-75" cx="225.48" cy="1774.99" rx="14.5" ry="10" transform="translate(-1552.04 1570.42) rotate(-76.2)"/><path class="cls-78" d="M243.53,1757.72c.12.56-4.44,3-12.47,4.66s-13.05,1.8-13.16,1.23,4.71-1.66,12.74-3.29S243.42,1757.15,243.53,1757.72Z"/><path class="cls-75" d="M397.84,1465.23c18.42,22.12,18.34,64,28.8,54.71,12.59-11.2,10.71-37.73-4.74-60.29s-51.54-11.63-68.38-11.33c-16.22.28-35.66,4.1-20.2,4.14C339.89,1452.47,382.69,1447.05,397.84,1465.23Z"/><path class="cls-74" d="M399.74,1486.38c5.93,18.4,11.41,34.1,28.5,28.6s3-18.47-2.95-36.87-1.42-35.26-18.51-29.76S393.82,1468,399.74,1486.38Z"/><path class="cls-75" d="M290.14,1454.53c4.57,20.2-16.86,49-41.5,52.26-17.43,2.3-41.81,1.49-49.59,8.77-4.26,4-10.17-4.08-11.59-10.38-4.57-20.2,18.09-58.19,42.33-63.67S285.58,1434.32,290.14,1454.53Z"/><path class="cls-75" d="M265.36,1463.76c9.26,18.52,44.09,27.26,65.22,14.17,14.95-9.25,33.3-25.32,43.93-24.61,5.82.38,5.29-9.6,2.4-15.37-9.26-18.53-50.85-33.59-73.08-22.48S256.1,1445.23,265.36,1463.76Z"/><polyline class="cls-79" points="275.15 1428.63 202.18 1454.57 195.74 1382.84"/><polyline class="cls-79" points="280.51 1430.3 183.22 1464.89 131.77 1397.23"/><polyline class="cls-79" points="311.48 1416.9 227.94 1446.6 227.65 1328.53"/><polyline class="cls-79" points="257.17 1435.02 330.14 1409.08 289.86 1349.39"/><polyline class="cls-79" points="254.07 1439.7 351.36 1405.12 348.56 1320.16"/><rect class="cls-80" x="177.7" y="1431.5" width="180.69" height="11.25" transform="translate(-465.89 172.8) rotate(-19.57)"/><rect class="cls-81" x="180.71" y="1439.98" width="180.69" height="11.25" transform="translate(-468.55 174.3) rotate(-19.57)"/><rect class="cls-79" x="179.2" y="1435.74" width="180.69" height="11.25" transform="translate(-467.22 173.55) rotate(-19.57)"/><path class="cls-81" d="M262.25,1392.36a9.55,9.55,0,1,1-18,6.39c-1.87-5.24,1-9.94,6-11.7S260.39,1387.12,262.25,1392.36Z"/><path class="cls-81" d="M244.25,1388.81l-.45,5.32c.47,2.13,4.06,0,6.35-.78l3.45-1.23c2.28-.81,6.63-1.48,6.11-3.65l-4.63-4.25c-8.92-9.07-10.41-8.46-10.83,4.59"/><path class="cls-82" d="M260.32,1393.61c1.51,4.24-.35,8.78-4.14,10.13s-8.1-1-9.61-5.24a7.3,7.3,0,1,1,13.75-4.89Z"/><path class="cls-82" d="M246.41,1390.5l-.27,4.27c.39,1.72,3.13.08,4.87-.54l2.64-.94c1.75-.62,5.09-1.09,4.65-2.84l-3.62-3.49c-7-7.42-8.13-7-8.27,3.54"/><path class="cls-83" d="M251.37,1387.1a1.24,1.24,0,1,1-2.33.83,1.24,1.24,0,0,1,2.33-.83Z"/><path class="cls-83" d="M249,1386.57l0,.73c.06.29.53,0,.82-.09l.45-.16c.3-.11.86-.19.79-.49l-.61-.59c-1.19-1.26-1.38-1.18-1.41.6"/><path class="cls-81" d="M298.94,1383.72a4.77,4.77,0,1,1-8.94,3.17,4.74,4.74,0,1,1,8.94-3.17Z"/><path class="cls-81" d="M289.89,1381.69l-.17,2.78c.25,1.12,2,0,3.17-.35l1.71-.61c1.14-.4,3.31-.71,3-1.85l-2.35-2.27c-4.55-4.82-5.28-4.52-5.38,2.3"/><path class="cls-82" d="M297.7,1384.84a3.39,3.39,0,1,1-6.35,2.26,3.37,3.37,0,1,1,6.35-2.26Z"/><path class="cls-82" d="M291.28,1383.41l-.12,2c.17.79,1.44,0,2.24-.25l1.22-.43c.81-.29,2.35-.51,2.15-1.32l-1.67-1.61c-3.23-3.42-3.76-3.21-3.82,1.64"/><path class="cls-81" d="M218.57,1412.29a4.77,4.77,0,1,1-8.94,3.17,4.74,4.74,0,1,1,8.94-3.17Z"/><path class="cls-81" d="M209.53,1410.26l-.18,2.78c.26,1.12,2,0,3.17-.35l1.72-.61c1.13-.4,3.3-.71,3-1.85L214.9,1408c-4.54-4.82-5.28-4.52-5.37,2.3"/><path class="cls-82" d="M217.33,1413.41a3.39,3.39,0,1,1-6.34,2.26,3.37,3.37,0,1,1,6.34-2.26Z"/><path class="cls-82" d="M210.91,1412l-.12,2c.18.79,1.44,0,2.24-.25l1.23-.43c.8-.29,2.34-.51,2.14-1.32l-1.67-1.6c-3.23-3.43-3.76-3.22-3.82,1.63"/><rect class="cls-81" x="232.3" y="1403.54" width="6.73" height="9" rx="2" transform="translate(-458.02 160.28) rotate(-19.57)"/><rect class="cls-81" x="271.43" y="1389.63" width="6.73" height="9" rx="2" transform="matrix(0.94, -0.33, 0.33, 0.94, -451.1, 172.58)"/><rect class="cls-82" x="233.43" y="1404.67" width="4.49" height="6.75" rx="2" transform="translate(-458.02 160.28) rotate(-19.57)"/><rect class="cls-81" x="238.9" y="1362.93" width="6.73" height="6.75" rx="2" transform="translate(-443.66 160.08) rotate(-19.57)"/><rect class="cls-82" x="240.03" y="1364.05" width="4.49" height="4.5" rx="2" transform="translate(-443.66 160.08) rotate(-19.57)"/><rect class="cls-82" x="272.55" y="1390.76" width="4.49" height="6.75" rx="2" transform="translate(-451.1 172.58) rotate(-19.57)"/><ellipse class="cls-84" cx="191.48" cy="1469.71" rx="2.81" ry="2.81" transform="matrix(0.94, -0.33, 0.33, 0.94, -481.23, 149.04)"/><ellipse class="cls-84" cx="202.06" cy="1465.95" rx="2.81" ry="2.81" transform="translate(-479.36 152.36) rotate(-19.57)"/><ellipse class="cls-84" cx="212.63" cy="1462.19" rx="2.81" ry="2.81" transform="translate(-477.49 155.69) rotate(-19.57)"/><ellipse class="cls-84" cx="223.21" cy="1458.43" rx="2.81" ry="2.81" transform="translate(-475.62 159.01) rotate(-19.57)"/><ellipse class="cls-84" cx="233.78" cy="1454.67" rx="2.81" ry="2.81" transform="translate(-473.75 162.34) rotate(-19.57)"/><ellipse class="cls-84" cx="244.36" cy="1450.91" rx="2.81" ry="2.81" transform="translate(-471.88 165.66) rotate(-19.57)"/><ellipse class="cls-84" cx="254.93" cy="1447.15" rx="2.81" ry="2.81" transform="translate(-470.01 168.99) rotate(-19.57)"/><ellipse class="cls-84" cx="264.45" cy="1443.77" rx="2.81" ry="2.81" transform="translate(-468.32 171.98) rotate(-19.57)"/><ellipse class="cls-84" cx="275.03" cy="1440.01" rx="2.81" ry="2.81" transform="matrix(0.94, -0.33, 0.33, 0.94, -466.45, 175.31)"/><ellipse class="cls-84" cx="285.6" cy="1436.25" rx="2.81" ry="2.81" transform="translate(-464.58 178.63) rotate(-19.57)"/><ellipse class="cls-84" cx="296.18" cy="1432.49" rx="2.81" ry="2.81" transform="translate(-462.71 181.96) rotate(-19.57)"/><ellipse class="cls-84" cx="306.75" cy="1428.73" rx="2.81" ry="2.81" transform="translate(-460.84 185.28) rotate(-19.57)"/><ellipse class="cls-84" cx="317.32" cy="1424.97" rx="2.81" ry="2.81" transform="translate(-458.97 188.61) rotate(-19.57)"/><ellipse class="cls-84" cx="327.9" cy="1421.21" rx="2.81" ry="2.81" transform="translate(-457.1 191.93) rotate(-19.57)"/><ellipse class="cls-84" cx="338.47" cy="1417.46" rx="2.81" ry="2.81" transform="translate(-455.23 195.26) rotate(-19.57)"/><ellipse class="cls-84" cx="349.05" cy="1413.7" rx="2.81" ry="2.81" transform="translate(-453.36 198.58) rotate(-19.57)"/><circle class="cls-81" cx="228.09" cy="1326.16" r="7.5"/><ellipse class="cls-79" cx="227.07" cy="1325.71" rx="7.5" ry="7" transform="translate(-73.17 14.63) rotate(-3.18)"/><circle class="cls-81" cx="289.01" cy="1345.81" r="5.5"/><ellipse class="cls-79" cx="288.26" cy="1345.48" rx="5.5" ry="5.13" transform="translate(-74.17 18.06) rotate(-3.18)"/><circle class="cls-81" cx="349.53" cy="1317.41" r="5.5"/><ellipse class="cls-79" cx="348.77" cy="1317.08" rx="5.5" ry="5.13" transform="translate(-72.51 21.37) rotate(-3.18)"/><circle class="cls-81" cx="195.87" cy="1382.03" r="5.5"/><ellipse class="cls-79" cx="195.12" cy="1381.7" rx="5.5" ry="5.13" transform="matrix(1, -0.06, 0.06, 1, -76.33, 12.95)"/><circle class="cls-81" cx="132.79" cy="1395.55" r="5.5"/><ellipse class="cls-79" cx="131.64" cy="1395.56" rx="5.5" ry="5.13" transform="translate(-917.24 465.64) rotate(-43.05)"/><circle class="cls-85" cx="224.46" cy="1323.85" r="2"/><circle class="cls-85" cx="193.53" cy="1380.16" r="1.5"/><circle class="cls-85" cx="347.69" cy="1315.51" r="1.5"/><circle class="cls-85" cx="285.67" cy="1343.99" r="1.5"/><circle class="cls-85" cx="129.74" cy="1394.72" r="1.5"/><path class="cls-83" d="M213.28,1410.33a.91.91,0,0,1-.53,1.17.93.93,0,0,1-1.11-.66.84.84,0,0,1,.57-1.08A.82.82,0,0,1,213.28,1410.33Z"/><path class="cls-83" d="M211.66,1409.9l0,.5c0,.2.37,0,.58,0l.31-.1c.21-.07.6-.11.56-.31l-.41-.43c-.79-.91-.92-.86-1,.38"/><path class="cls-83" d="M293.83,1381.77a.86.86,0,1,1-1.61.59.83.83,0,0,1,.51-1.1A.81.81,0,0,1,293.83,1381.77Z"/><path class="cls-83" d="M292.19,1381.42l0,.5c0,.2.37,0,.58-.07l.31-.11c.2-.07.59-.13.54-.34l-.43-.41c-.83-.86-1-.81-1,.43"/><rect class="cls-83" x="273.38" y="1392.22" width="1" height="2" rx="0.5" transform="translate(-471.93 184.98) rotate(-20.56)"/><rect class="cls-83" x="234.11" y="1406.42" width="1" height="2" rx="0.5" transform="translate(-501.43 185.08) rotate(-21.59)"/><circle class="cls-86" cx="241.29" cy="1365.48" r="0.5"/><circle class="cls-86" cx="189.93" cy="1468.49" r="0.5"/><circle class="cls-86" cx="200.74" cy="1464.89" r="0.5"/><circle class="cls-86" cx="211.06" cy="1461.27" r="0.5"/><circle class="cls-86" cx="221.38" cy="1457.73" r="0.5"/><circle class="cls-86" cx="232.2" cy="1454.12" r="0.5"/><circle class="cls-86" cx="243.01" cy="1450.52" r="0.5"/><circle class="cls-86" cx="252.83" cy="1446.97" r="0.5"/><circle class="cls-86" cx="262.65" cy="1443.42" r="0.5"/><circle class="cls-86" cx="273.46" cy="1439.81" r="0.5"/><circle class="cls-86" cx="284.28" cy="1436.21" r="0.5"/><circle class="cls-86" cx="294.1" cy="1432.66" r="0.5"/><circle class="cls-86" cx="304.86" cy="1428.05" r="0.5"/><circle class="cls-86" cx="315.68" cy="1424.45" r="0.5"/><circle class="cls-86" cx="326.49" cy="1420.84" r="0.5"/><circle class="cls-86" cx="347.13" cy="1413.69" r="0.5"/><circle class="cls-86" cx="336.77" cy="1417.09" r="0.5"/><path class="cls-83" d="M297.1,1579.08c4.11,13,21.32,19.13,38.43,13.71s27.65-20.35,23.53-33.34"/><ellipse class="cls-74" cx="710.84" cy="522.98" rx="47.79" ry="45.01"/><path class="cls-74" d="M677.57,509.53a13.56,13.56,0,0,1-16.11,9.65c-7-1.71-1.61-6.88.35-13.93s-.21-13.28,6.73-11.57A12.63,12.63,0,0,1,677.57,509.53Z"/><ellipse class="cls-76" cx="708.07" cy="523.27" rx="39.19" ry="36.91"/><path class="cls-74" d="M765.2,531.9c-2,7.05.2,14.84-6.75,13.13a12.64,12.64,0,0,1-9-15.85,13.57,13.57,0,0,1,16.12-9.65C772.48,521.24,767.16,524.86,765.2,531.9Z"/><ellipse class="cls-77" cx="725.67" cy="520.67" rx="6.98" ry="7.59" transform="translate(150.26 1203.75) rotate(-85.55)"/><ellipse class="cls-77" cx="693.55" cy="512.42" rx="6.98" ry="7.59" transform="translate(128.86 1164.12) rotate(-85.55)"/><path class="cls-87" d="M701.39,549.21,706,553l.1.07a3.39,3.39,0,0,0,1.24.39c3.3.31,6.7-2.42,7.82-6.45l.19-.65c1-3.62-2.32-6.73-5.36-7.79a5.18,5.18,0,0,0-3-.07l-3.39.84a3.44,3.44,0,0,1-2.56-.34c-2.83-1.61-5.81-4.46-9.51-5.13a4,4,0,0,0-3.15,1l-.06.05c-3.5,2.85-5.37,11.76-1.34,10.81.17,0,4.46-1.71,5.53-1.45.75.19,1.78-.26,6,2.9Z"/><path class="cls-88" d="M677.42,489.25c-10.62,8.41,16.38,2.89,40,6.35,23,3.37,43.93,30,42.55,19.44-2.16-16.61-15.47-37.17-33.66-41C705.67,469.7,689.45,479.72,677.42,489.25Z"/><path class="cls-88" d="M673.29,480.89c-.79,8.31,8.79,19,19.63,22.62,13.57,4.53,29.53-5.41,31.59-14.07,2.2-9.27-25.37,1-38.76-2.32S674.19,471.42,673.29,480.89Z"/><path class="cls-88" d="M756.56,505.57c7,0-12.64,10.5-21.35,7.31-10.73-3.93-13.39-7.14-13.91-12.94-.41-4.62,5.69-11.08,17.45-5.57C743.92,496.8,752.35,505.55,756.56,505.57Z"/><path class="cls-89" d="M755.77,505.23c7,0-9.1,6.16-17.81,3-10.73-3.93-13.39-7.14-13.91-12.94-.41-4.62,4.76-9.64,16.52-4.12C745.75,493.57,751.55,505.22,755.77,505.23Z"/><ellipse class="cls-90" cx="738.75" cy="494.37" rx="1.29" ry="1.85" transform="translate(-67.71 868.25) rotate(-58.66)"/><path class="cls-89" d="M726.57,492.79c-8.77,2.23-15.24,10.52-29.47,7s-30.35-23.87-22-19.72c20.72,10.35,24.54-2.34,31.16-4.6C720.44,470.66,734.29,490.82,726.57,492.79Z"/><polygon class="cls-91" points="258.55 330.27 250.35 330.27 243.72 298.51 250.35 265.99 258.55 265.99 251.13 298.13 258.55 330.27"/><polygon class="cls-91" points="175.86 222.12 189.13 231.95 207.08 228.55 207.08 221.36 190.69 225.52 178.98 217.58 175.86 222.12"/><path class="cls-91" d="M170.4,222.12h5.46l3.12-4.54-.78-5.29c.21-.84-1.33-1.49-1.56-.38l-.27,5.12-4.87-2.72c-1.29-1.25-1.82-.25-.6.73l3.84,4.28L170,221C168.66,221.33,169.05,222.39,170.4,222.12Z"/><polygon class="cls-91" points="349.48 216.07 336.21 225.9 318.26 222.5 318.26 215.31 334.65 219.47 346.36 211.53 349.48 216.07"/><path class="cls-91" d="M355,216.07h-5.47l-3.12-4.54.78-5.29c-.21-.84,1.34-1.49,1.56-.38L349,211l4.88-2.72c1.29-1.25,1.82-.25.6.73l-3.85,4.28,4.74,1.72C356.68,215.28,356.3,216.34,355,216.07Z"/><polygon class="cls-91" points="275.72 329.9 267.52 329.9 274.55 297.75 267.52 265.61 275.72 265.61 281.57 297 275.72 329.9"/><ellipse class="cls-92" cx="250.85" cy="176.7" rx="14.8" ry="14.21" transform="translate(-55.74 164.29) rotate(-32.84)"/><ellipse class="cls-92" cx="220.73" cy="193.96" rx="16.27" ry="14.84" transform="translate(-71.81 221.61) rotate(-46.71)"/><ellipse class="cls-92" cx="213.33" cy="220.83" rx="16.06" ry="13.7" transform="translate(-92.69 245.91) rotate(-50.68)"/><ellipse class="cls-92" cx="218.2" cy="242.25" rx="11.77" ry="12.25" transform="translate(-60.57 411.32) rotate(-79.23)"/><ellipse class="cls-92" cx="233.64" cy="261" rx="17.67" ry="16.91" transform="translate(-107.55 181.64) rotate(-35.07)"/><ellipse class="cls-92" cx="259.94" cy="265.92" rx="16.7" ry="14" transform="translate(-81.11 414.12) rotate(-69.14)"/><ellipse class="cls-92" cx="287.28" cy="261.55" rx="13.13" ry="15.67" transform="translate(-99.7 227.13) rotate(-37.23)"/><ellipse class="cls-92" cx="308.41" cy="257.94" rx="10.53" ry="10.93" transform="matrix(0.14, -0.99, 0.99, 0.14, 10.66, 528.12)"/><ellipse class="cls-92" cx="318.22" cy="241.9" rx="9.92" ry="14.89" transform="translate(-55.07 384.85) rotate(-58.19)"/><ellipse class="cls-92" cx="316.89" cy="227.58" rx="11.28" ry="9.46" transform="translate(-59.04 331.91) rotate(-51.2)"/><ellipse class="cls-92" cx="275.16" cy="176.61" rx="11.51" ry="11.16"/><ellipse class="cls-92" cx="291.94" cy="185.97" rx="14.14" ry="9.27" transform="translate(-30.31 312.36) rotate(-53.91)"/><ellipse class="cls-92" cx="306.14" cy="196.29" rx="18.41" ry="13.35" transform="translate(-57.29 183.15) rotate(-30.6)"/><ellipse class="cls-92" cx="314.82" cy="209.68" rx="12.08" ry="12.68" transform="translate(28.91 457.34) rotate(-74.57)"/><ellipse class="cls-92" cx="231.68" cy="179.23" rx="6.67" ry="7.74" transform="translate(-35.88 298.44) rotate(-61.74)"/><ellipse class="cls-92" cx="264.42" cy="222.19" rx="59.18" ry="53.99" transform="translate(-19.53 25.57) rotate(-5.34)"/><path class="cls-88" d="M280.4,337.46H268.57a1,1,0,0,1-1.05-1V329.9h8.2v.6a.88.88,0,0,0,1.23.79l3.08-1.24a.26.26,0,0,1,.37.24Z"/><path class="cls-88" d="M284.7,333.68a4,4,0,0,1-4.1,3.78,4.06,4.06,0,0,1-4.1-3.78c-.09-1.19,0-2.23,1.93-3a11.71,11.71,0,0,1,2.17-.8C282.81,329.44,284.7,331.59,284.7,333.68Z"/><rect class="cls-93" x="266.74" y="328.76" width="9.76" height="1.51" rx="0.76"/><path class="cls-88" d="M245.67,337.46H257.5a1,1,0,0,0,1.05-1V329.9h-8.2v.6a.88.88,0,0,1-1.23.79L246,330.05a.26.26,0,0,0-.37.24Z"/><path class="cls-88" d="M241.37,333.68a4,4,0,0,0,4.1,3.78,4.06,4.06,0,0,0,4.1-3.78c.09-1.19,0-2.23-1.92-3a12.06,12.06,0,0,0-2.18-.8C243.26,329.44,241.37,331.59,241.37,333.68Z"/><rect class="cls-93" x="249.57" y="328.76" width="9.76" height="1.51" rx="0.76" transform="translate(508.9 659.04) rotate(-180)"/><ellipse class="cls-77" cx="280.01" cy="206.99" rx="8.2" ry="7.94"/><ellipse class="cls-77" cx="248.4" cy="205.86" rx="8.59" ry="7.94"/><path class="cls-94" d="M287.82,242.16c8.37.74-11.45,14.75-25.57,14.75s-25.41-6.6-25.56-14.75C236.56,234.63,286.07,242,287.82,242.16Z"/><path class="cls-95" d="M269.87,255.78c-3.7,1.64-16.55,1.55-18.74-.38C246.49,251.31,278.18,252.07,269.87,255.78Z"/><path class="cls-96" d="M243.1,239.13c10.08-1.91,26.27.67,35.74,1.9.75.1,1.22,1.6-3.51,1.89-8.09.49-22.12,0-29.27-1.14C243.06,241.29,242.66,239.21,243.1,239.13Z"/><ellipse class="cls-97" cx="143.5" cy="321" rx="52.5" ry="29.5"/><ellipse class="cls-97" cx="181.5" cy="306.5" rx="37.5" ry="44"/><ellipse class="cls-97" cx="239" cy="327.5" rx="57" ry="21"/><ellipse class="cls-97" cx="189.5" cy="354" rx="46.5" ry="33.5"/><ellipse class="cls-96" cx="131.5" cy="322.5" rx="52.5" ry="29.5"/><ellipse class="cls-96" cx="169.5" cy="308" rx="37.5" ry="44"/><ellipse class="cls-96" cx="227" cy="329" rx="57" ry="21"/><ellipse class="cls-96" cx="177.5" cy="355.5" rx="46.5" ry="33.5"/><ellipse class="cls-97" cx="753.5" cy="103" rx="52.5" ry="29.5"/><ellipse class="cls-97" cx="791.5" cy="88.5" rx="37.5" ry="44"/><ellipse class="cls-97" cx="849" cy="109.5" rx="57" ry="21"/><ellipse class="cls-97" cx="799.5" cy="136" rx="46.5" ry="33.5"/><ellipse class="cls-96" cx="741.5" cy="104.5" rx="52.5" ry="29.5"/><ellipse class="cls-96" cx="779.5" cy="90" rx="37.5" ry="44"/><ellipse class="cls-96" cx="837" cy="111" rx="57" ry="21"/><ellipse class="cls-96" cx="787.5" cy="137.5" rx="46.5" ry="33.5"/><ellipse class="cls-97" cx="682.3" cy="144.46" rx="33.62" ry="18.89"/><ellipse class="cls-97" cx="706.63" cy="135.17" rx="24.01" ry="28.17"/><ellipse class="cls-97" cx="743.45" cy="148.62" rx="36.5" ry="13.45"/><ellipse class="cls-97" cx="711.75" cy="165.59" rx="29.77" ry="21.45"/><ellipse class="cls-96" cx="674.62" cy="145.42" rx="33.62" ry="18.89"/><ellipse class="cls-96" cx="698.95" cy="136.13" rx="24.01" ry="28.17"/><ellipse class="cls-96" cx="735.77" cy="149.58" rx="36.5" ry="13.45"/><ellipse class="cls-96" cx="704.07" cy="166.55" rx="29.77" ry="21.45"/><ellipse class="cls-97" cx="889.67" cy="352.82" rx="37.98" ry="21.34"/><ellipse class="cls-97" cx="917.16" cy="342.33" rx="27.13" ry="31.83"/><ellipse class="cls-97" cx="958.76" cy="357.53" rx="41.24" ry="15.19"/><ellipse class="cls-97" cx="922.95" cy="376.7" rx="33.64" ry="24.24"/><ellipse class="cls-96" cx="880.98" cy="353.91" rx="37.98" ry="21.34"/><ellipse class="cls-96" cx="908.48" cy="343.42" rx="27.13" ry="31.83"/><ellipse class="cls-96" cx="950.08" cy="358.61" rx="41.24" ry="15.19"/><ellipse class="cls-96" cx="914.26" cy="377.79" rx="33.64" ry="24.24"/><polygon class="cls-91" points="909.81 1776.37 892.73 1785.92 869.51 1782.85 869.46 1775.97 890.67 1779.78 905.75 1772.06 909.81 1776.37"/><path class="cls-91" d="M916.87,1776.31l-7.06.06-4.06-4.31,1-5.08c-.27-.8,1.71-1.44,2-.38l.37,4.9,6.29-2.66c1.66-1.2,2.35-.25.78.69l-4.94,4.14,6.13,1.6C919.1,1775.54,918.61,1776.55,916.87,1776.31Z"/><polygon class="cls-91" points="786.49 1778.02 803.7 1787.3 826.87 1783.85 826.83 1776.97 805.67 1781.13 790.49 1773.64 786.49 1778.02"/><path class="cls-91" d="M779.43,1778.08l7.06-.06,4-4.38-1-5.06c.26-.8-1.74-1.41-2-.35l-.31,4.91-6.32-2.56c-1.68-1.17-2.36-.21-.77.71l5,4.06-6.11,1.7C777.18,1777.34,777.69,1778.35,779.43,1778.08Z"/><path class="cls-91" d="M836.54,1886.58l-9.07.07-2.78-14.28a4.11,4.11,0,0,1,.13-1.35l6-23.49,8.17-.07-7.1,24.82Z"/><path class="cls-88" d="M817.89,1897.15l20.93-.17c1,0,1.85-.61,1.84-1.34l-.06-8.59-14.49.12v.79c0,.81-1.13,1.36-2.16,1.06l-5.47-1.59c-.31-.09-.65.08-.65.32Z"/><path class="cls-88" d="M810.27,1892.26c0,2.74,3.27,4.93,7.28,4.9s6.94-2.29,7.21-5c.16-1.56-.09-2.92-3.43-3.88a26.48,26.48,0,0,0-3.85-1C813.56,1886.68,810.25,1889.52,810.27,1892.26Z"/><path class="cls-93" d="M825.11,1887.68l16.5-.14a.37.37,0,0,0,.38-.36v-1.26a.37.37,0,0,0-.38-.36l-16.51.13a.38.38,0,0,0-.37.37v1.26A.37.37,0,0,0,825.11,1887.68Z"/><path class="cls-91" d="M858.31,1885.75l9.07-.07,2.58-14.33a4.12,4.12,0,0,0-.14-1.35l-6.33-23.39-8.17.07,7.43,24.7Z"/><path class="cls-88" d="M877.09,1896l-20.93.17c-1,0-1.85-.58-1.86-1.31l0-8.59,14.49-.12v.79c0,.81,1.15,1.34,2.18,1l5.44-1.68c.31-.1.66.07.66.31Z"/><path class="cls-88" d="M884.65,1891c0,2.74-3.21,5-7.21,5s-7-2.17-7.28-4.9c-.18-1.56.05-2.92,3.37-3.93a26.85,26.85,0,0,1,3.84-1.09C881.28,1885.48,884.63,1888.27,884.65,1891Z"/><path class="cls-93" d="M869.75,1886.66l-16.5.14a.37.37,0,0,1-.38-.36v-1.26a.38.38,0,0,1,.37-.37l16.51-.13a.38.38,0,0,1,.38.36v1.26A.36.36,0,0,1,869.75,1886.66Z"/><polygon class="cls-98" points="852.75 1734.95 847.54 1734.99 846.69 1608.08 851.89 1608.04 852.75 1734.95"/><polygon class="cls-80" points="848.85 1735.87 843.64 1735.94 840.19 1609.06 845.39 1608.99 848.85 1735.87"/><polygon class="cls-80" points="841.79 1735.78 836.59 1735.97 822.96 1609.34 828.15 1609.15 841.79 1735.78"/><polygon class="cls-99" points="841.56 1735.64 836.38 1735.89 816.24 1609.54 821.42 1609.29 841.56 1735.64"/><polygon class="cls-98" points="839.82 1736.44 836.14 1736.68 810.07 1613.12 813.75 1612.88 839.82 1736.44"/><polygon class="cls-99" points="841.52 1736.06 836.86 1736.44 802.13 1612.42 806.8 1612.03 841.52 1736.06"/><polygon class="cls-80" points="838.78 1735.87 834.6 1736.24 795.65 1609.74 799.84 1609.37 838.78 1735.87"/><polygon class="cls-98" points="864.76 1735.53 861.08 1735.36 885.77 1611.4 889.45 1611.58 864.76 1735.53"/><polygon class="cls-99" points="864.85 1735.34 861.19 1735.11 892.62 1611.53 896.28 1611.76 864.85 1735.34"/><polygon class="cls-80" points="867.61 1734.38 863.27 1734.08 898.36 1607.95 902.7 1608.25 867.61 1734.38"/><polygon class="cls-98" points="847.2 1735.84 842.71 1735.95 834.14 1608.26 838.64 1608.15 847.2 1735.84"/><polygon class="cls-100" points="844.53 1735.83 840.89 1735.94 829.18 1610.12 832.82 1610.01 844.53 1735.83"/><polygon class="cls-99" points="852.34 1734.96 847.13 1734.92 854.06 1609.82 859.26 1609.87 852.34 1734.96"/><polygon class="cls-76" points="856.32 1734.92 850.99 1734.84 860.48 1611.47 865.8 1611.55 856.32 1734.92"/><polygon class="cls-98" points="860.98 1734.87 856.16 1734.8 866.14 1606 870.97 1606.07 860.98 1734.87"/><polygon class="cls-76" points="864.73 1734.82 859.53 1734.7 872.9 1609.71 878.1 1609.83 864.73 1734.82"/><polygon class="cls-101" points="865.34 1735.65 860.15 1735.46 879.24 1610.64 884.43 1610.83 865.34 1735.65"/><polygon class="cls-98" points="848.84 1733.15 853.96 1733.15 851.48 1860.07 846.36 1860.08 848.84 1733.15"/><polygon class="cls-80" points="853.14 1732.25 858.69 1732.21 858.32 1859.13 852.77 1859.18 853.14 1732.25"/><polygon class="cls-80" points="859.64 1732.4 864.75 1732.25 874.83 1858.99 869.72 1859.14 859.64 1732.4"/><polygon class="cls-99" points="859.85 1732.55 864.96 1732.33 881.44 1858.84 876.34 1859.06 859.85 1732.55"/><polygon class="cls-98" points="861.59 1731.75 865.21 1731.55 887.6 1855.31 883.98 1855.52 861.59 1731.75"/><polygon class="cls-99" points="859.91 1732.13 864.5 1731.78 895.37 1856.07 890.78 1856.42 859.91 1732.13"/><polygon class="cls-80" points="862.59 1732.34 866.71 1731.99 901.67 1858.79 897.55 1859.13 862.59 1732.34"/><polygon class="cls-98" points="837.05 1732.48 840.66 1732.68 813.16 1856.47 809.55 1856.26 837.05 1732.48"/><polygon class="cls-99" points="836.96 1732.67 840.56 1732.93 806.43 1856.28 802.83 1856.02 836.96 1732.67"/><polygon class="cls-80" points="834.23 1733.61 838.48 1733.94 800.69 1859.82 796.44 1859.49 834.23 1733.61"/><polygon class="cls-98" points="854.66 1732.29 860.45 1732.16 864.32 1859.96 858.53 1860.1 854.66 1732.29"/><polygon class="cls-100" points="856.43 1732.36 860.52 1732.25 868.31 1858.18 864.23 1858.3 856.43 1732.36"/><polygon class="cls-99" points="849.25 1733.14 854.36 1733.23 844.28 1858.28 839.17 1858.19 849.25 1733.14"/><polygon class="cls-76" points="845.34 1733.15 850.57 1733.27 838.01 1856.58 832.78 1856.46 845.34 1733.15"/><polygon class="cls-98" points="840.75 1733.17 845.49 1733.28 832.3 1862.01 827.56 1861.9 840.75 1733.17"/><polygon class="cls-76" points="837.07 1733.19 842.18 1733.35 825.76 1858.25 820.65 1858.09 837.07 1733.19"/><polygon class="cls-101" points="836.48 1732.36 841.58 1732.58 819.56 1857.27 814.46 1857.05 836.48 1732.36"/><path class="cls-102" d="M868.45,1736.12l-9.61,2a30.77,30.77,0,0,1-10.4.33l-13.3-1.88c-1.89-.27-3.25-1.46-3.26-2.84l0-3.27c0-.44.57-.76,1.17-.66l14.88,2.67a24.06,24.06,0,0,0,9.6-.26l10.91-2.56c.76-.18,1.54.22,1.55.8l0,4.2C870,1735.33,869.36,1735.93,868.45,1736.12Z"/><ellipse class="cls-77" cx="826.23" cy="1703.25" rx="17.24" ry="12.7" transform="translate(-16.51 8.11) rotate(-0.56)"/><ellipse class="cls-77" cx="876.12" cy="1702.85" rx="17.24" ry="12.7" transform="translate(-16.5 8.59) rotate(-0.56)"/><path class="cls-94" d="M882.92,1749.81c10.87.62-14.76,14.31-33.08,14.46s-33-6.09-33.28-13.92C816.34,1743.1,880.66,1749.68,882.92,1749.81Z"/><path class="cls-95" d="M859.71,1763.09c-4.79,1.62-21.46,1.67-24.32-.16C829.34,1759,870.48,1759.44,859.71,1763.09Z"/><path class="cls-96" d="M824.86,1747.36c13.08-1.94,34.1.37,46.41,1.45,1,.09,1.59,1.53-4.55,1.86-10.5.56-28.72.27-38-.79C824.82,1749.44,824.3,1747.44,824.86,1747.36Z"/></g></svg>
