<svg xmlns="http://www.w3.org/2000/svg" width="1080" height="1920" viewBox="0 0 1080 1920"><defs><style>.cls-1{fill:#dceef2;}.cls-2{fill:#9abd8f;}.cls-3{fill:#efe3da;}.cls-4{fill:#686563;}.cls-5{fill:#afa7a1;}.cls-6{fill:#c9bfb8;}.cls-7{fill:#938e8a;}.cls-8{fill:#d8cac0;}.cls-9{fill:#e5d6ca;}.cls-10{fill:#898481;}.cls-11,.cls-13,.cls-43{fill:#6ba460;}.cls-12{fill:#85ad6d;}.cls-13{stroke:#003442;stroke-miterlimit:10;stroke-width:4px;opacity:0.8;}.cls-14{fill:#f0af66;}.cls-15{fill:#a67c52;}.cls-16{fill:#fed08c;}.cls-17{fill:#2f3a35;}.cls-18{fill:#4d4d4d;}.cls-19{fill:#f8c22a;}.cls-20{fill:#f9d069;}.cls-21{fill:#e2ad29;}.cls-22{fill:#c1272d;}.cls-23{fill:#d8555f;}.cls-24{fill:#009245;}.cls-25{fill:#f9e7c0;}.cls-26{fill:#90bf8b;}.cls-27{fill:#ef8a70;}.cls-28{fill:#5a3a2f;}.cls-29{fill:#756a5b;}.cls-30{fill:#bdab8e;}.cls-31{fill:#fbb03b;}.cls-32{fill:#c64417;}.cls-33{fill:#42210b;}.cls-34{fill:#8d0a0c;}.cls-35{fill:#df0e0e;}.cls-36{fill:#e9ede9;}.cls-37{fill:#d6d8d6;}.cls-38{fill:#f9dc9b;}.cls-39{fill:#f2d9ad;}.cls-40{fill:#f9e4d2;}.cls-41{fill:#f0d6bd;}.cls-42{fill:#d1ba95;}.cls-43{opacity:0.7;}.cls-44{fill:#131311;}</style></defs><title>start</title><g id="Lag_2" data-name="Lag 2"><rect class="cls-1" x="-0.5" y="-0.5" width="1080" height="1921"/></g><g id="Lag_1" data-name="Lag 1"><rect class="cls-2" y="710" width="1080" height="1210"/><path class="cls-3" d="M586.59,711l-69.69,0,56.34,134.75c14.82,35.44.27,75.18-35.27,96.39L381.75,1035.4c-81.36,48.56-100.51,146.78-42.18,216.35l147.81,176.3c34.88,41.61,36.67,97.88,4.48,141.13L230,1921l544.33-2.59,119.5-330.78c29.88-82.7-.69-173.05-77.14-228L582.87,1191.59c-39.22-28.18-43.88-79.36-10.26-112.66L677.39,975.15c37.93-37.58,42-93,9.77-134.49Z"/><rect class="cls-4" x="520" y="710" width="58" height="2"/><rect class="cls-5" x="454.43" y="469.81" width="96.57" height="239.93" transform="translate(1005.43 1179.54) rotate(180)"/><rect class="cls-6" x="302.84" y="469.81" width="248.16" height="12.11" transform="translate(853.84 951.72) rotate(180)"/><rect class="cls-5" x="551" y="469.81" width="96.57" height="239.93"/><rect class="cls-3" x="551" y="437.89" width="265" height="31.92"/><rect class="cls-3" x="799.72" y="429.08" width="16.28" height="8.8"/><rect class="cls-3" x="768.32" y="429.08" width="16.28" height="8.8"/><rect class="cls-3" x="574.06" y="429.08" width="16.28" height="8.8"/><rect class="cls-3" x="605.5" y="429.08" width="16.28" height="8.8"/><rect class="cls-3" x="634.69" y="429.08" width="16.28" height="8.8"/><rect class="cls-6" x="557.74" y="469.81" width="241.42" height="12.11"/><rect class="cls-7" x="719.43" y="481.91" width="79.72" height="227.82"/><rect class="cls-6" x="705.96" y="394.97" width="44.92" height="314.77"/><rect class="cls-8" x="661.04" y="394.97" width="44.92" height="314.77"/><rect class="cls-8" x="686.87" y="494.02" width="39.3" height="215.72"/><rect class="cls-9" x="647.57" y="494.02" width="39.3" height="215.72"/><polyline class="cls-6" points="816 469.81 799.16 469.81 799.16 481.91"/><rect class="cls-8" x="705.96" y="360.85" width="53.9" height="34.12"/><rect class="cls-9" x="655.43" y="360.85" width="50.53" height="34.12"/><polygon class="cls-7" points="750.87 419.18 705.96 399.37 661.04 394.96 750.87 394.96 750.87 419.18"/><polyline class="cls-10" points="759.86 360.85 705.96 360.85 705.96 275"/><polyline class="cls-3" points="655.43 360.85 705.96 360.85 705.96 275"/><rect class="cls-8" x="686.87" y="461" width="50.53" height="33.02"/><rect class="cls-9" x="635.22" y="461" width="50.53" height="33.02"/><polygon class="cls-7" points="726.17 519.33 686.87 499.52 647.57 494.02 726.17 494.02 726.17 519.33"/><polyline class="cls-10" points="737.4 461 685.75 461 685.75 389.46"/><polyline class="cls-3" points="635.22 461 686.87 461 686.87 389.46"/><rect class="cls-9" x="551" y="481.91" width="55.02" height="227.82"/><polyline class="cls-9" points="606.02 481.91 551 481.91 551 419.18"/><polygon class="cls-10" points="607.15 485.21 551 425.11 551 415.88 615.01 485.21 607.15 485.21"/><rect class="cls-10" x="563.35" y="497.32" width="30.32" height="29.72"/><path class="cls-10" d="M593.67,503.92v-5.5a13.39,13.39,0,0,0-13.48-13.21h-3.36a13.39,13.39,0,0,0-13.48,13.21v5.5"/><path class="cls-4" d="M574.58,485.21h6.18c7.1,0,12.91,5.57,12.91,12.38V526.1c-1.33,7.8-1-30-3.37-34.28l-5.21-4.42"/><rect class="cls-10" x="551" y="612.88" width="32.56" height="96.85"/><path class="cls-4" d="M551,583.17h19.09a13.38,13.38,0,0,1,13.47,13.21v31.91"/><rect class="cls-3" x="286" y="437.89" width="265" height="31.92" transform="translate(837 907.69) rotate(180)"/><rect class="cls-3" x="286" y="429.08" width="16.28" height="8.8" transform="translate(588.28 866.97) rotate(180)"/><rect class="cls-3" x="317.4" y="429.08" width="16.28" height="8.8" transform="translate(651.08 866.97) rotate(180)"/><rect class="cls-3" x="511.66" y="429.08" width="16.28" height="8.8" transform="translate(1039.6 866.97) rotate(180)"/><rect class="cls-3" x="480.22" y="429.08" width="16.28" height="8.8" transform="translate(976.72 866.97) rotate(180)"/><rect class="cls-3" x="451.02" y="429.08" width="16.28" height="8.8" transform="translate(918.33 866.97) rotate(180)"/><rect class="cls-7" x="302.84" y="481.91" width="79.72" height="227.82" transform="translate(685.41 1191.65) rotate(180)"/><rect class="cls-8" x="351.13" y="394.97" width="44.92" height="314.77" transform="translate(747.17 1104.7) rotate(180)"/><rect class="cls-6" x="396.04" y="394.97" width="44.92" height="314.77" transform="translate(837 1104.7) rotate(180)"/><rect class="cls-9" x="375.83" y="494.02" width="39.3" height="215.72" transform="translate(790.96 1203.76) rotate(180)"/><rect class="cls-8" x="415.13" y="494.02" width="39.3" height="215.72" transform="translate(869.56 1203.76) rotate(180)"/><polyline class="cls-6" points="286 469.81 302.84 469.81 302.84 481.91"/><rect class="cls-9" x="342.14" y="360.85" width="53.9" height="34.12" transform="translate(738.19 755.81) rotate(180)"/><rect class="cls-8" x="396.04" y="360.85" width="50.53" height="34.12" transform="translate(842.61 755.81) rotate(180)"/><polygon class="cls-7" points="440.96 419.18 396.04 399.37 351.13 394.96 440.96 394.96 440.96 419.18"/><polyline class="cls-3" points="342.14 360.85 396.04 360.85 396.04 275"/><polyline class="cls-10" points="446.57 360.85 396.04 360.85 396.04 275"/><rect class="cls-9" x="364.6" y="461" width="50.53" height="33.02" transform="translate(779.73 955.02) rotate(180)"/><rect class="cls-8" x="416.25" y="461" width="50.53" height="33.02" transform="translate(883.04 955.02) rotate(180)"/><polygon class="cls-7" points="454.43 519.33 415.13 499.52 375.83 494.02 454.43 494.02 454.43 519.33"/><polyline class="cls-3" points="364.6 461 416.25 461 416.25 389.46"/><polyline class="cls-10" points="466.78 461 415.13 461 415.13 389.46"/><rect class="cls-9" x="495.98" y="481.91" width="55.02" height="227.82" transform="translate(1046.98 1191.65) rotate(180)"/><polyline class="cls-9" points="495.98 481.91 551 481.91 551 419.18"/><polygon class="cls-10" points="494.85 485.21 551 425.11 551 415.88 486.99 485.21 494.85 485.21"/><rect class="cls-10" x="508.33" y="497.32" width="30.32" height="29.72" transform="translate(1046.98 1024.36) rotate(180)"/><path class="cls-10" d="M508.33,503.92v-5.5a13.39,13.39,0,0,1,13.48-13.21h3.36a13.39,13.39,0,0,1,13.48,13.21v5.5"/><path class="cls-4" d="M519.56,485.21h6.18c7.1,0,12.91,5.57,12.91,12.38V526.1c-1.33,7.8-1-30-3.37-34.28l-5.22-4.42"/><rect class="cls-10" x="518.44" y="612.88" width="32.56" height="96.85" transform="translate(1069.44 1322.62) rotate(180)"/><path class="cls-4" d="M551,583.17H531.91a13.38,13.38,0,0,0-13.47,13.21v31.91"/><polygon class="cls-9" points="557.74 583.17 544.26 583.17 544.26 435.69 557.74 434.59 557.74 583.17"/><rect class="cls-10" x="673.39" y="539.14" width="28.07" height="44.02"/><polygon class="cls-4" points="701.47 583.17 698.1 543.55 673.39 539.14 701.47 539.14 701.47 583.17"/><rect class="cls-10" x="401.66" y="540.24" width="28.07" height="44.02"/><polygon class="cls-4" points="429.73 584.27 426.36 544.65 401.66 540.24 429.73 540.24 429.73 584.27"/><path class="cls-10" d="M521.81,626.09V599.68a13.38,13.38,0,0,1,13.47-13.21h31.44a13.38,13.38,0,0,1,13.47,13.21v26.41"/><rect class="cls-4" x="548.75" y="583.17" width="5.61" height="126.57"/><rect class="cls-4" x="518.44" y="612.88" width="3.37" height="94.65"/><rect class="cls-4" x="580.19" y="612.88" width="3.37" height="94.65"/><ellipse class="cls-11" cx="419.06" cy="679.47" rx="24.14" ry="29.17"/><ellipse class="cls-11" cx="380.88" cy="693.78" rx="14.04" ry="25.86"/><ellipse class="cls-12" cx="412.47" cy="682.64" rx="24.14" ry="26.41"/><ellipse class="cls-12" cx="377.66" cy="697.5" rx="14.04" ry="25.86"/><ellipse class="cls-11" cx="449.94" cy="709.74" rx="31.44" ry="30.82"/><ellipse class="cls-12" cx="360.25" cy="694.74" rx="31.44" ry="14.31"/><ellipse class="cls-12" cx="438.71" cy="710.84" rx="31.44" ry="30.82"/><ellipse class="cls-12" cx="393.38" cy="725.56" rx="37.62" ry="30.82"/><ellipse class="cls-12" cx="356.88" cy="722.81" rx="21.33" ry="22.56"/><ellipse class="cls-11" cx="685.18" cy="675.07" rx="24.14" ry="29.17"/><ellipse class="cls-11" cx="716.63" cy="688.83" rx="17.4" ry="29.72"/><ellipse class="cls-11" cx="741.89" cy="692.68" rx="35.93" ry="17.06"/><ellipse class="cls-11" cx="744.7" cy="717.99" rx="25.26" ry="22.56"/><ellipse class="cls-12" cx="679.57" cy="681.12" rx="24.14" ry="26.41"/><ellipse class="cls-12" cx="714.38" cy="695.98" rx="14.04" ry="25.86"/><ellipse class="cls-12" cx="731.78" cy="693.23" rx="31.44" ry="14.31"/><ellipse class="cls-12" cx="653.18" cy="709.74" rx="31.44" ry="30.82"/><ellipse class="cls-12" cx="698.66" cy="724.04" rx="37.62" ry="30.82"/><ellipse class="cls-12" cx="735.15" cy="721.29" rx="21.33" ry="22.56"/><rect class="cls-13" x="238" y="1527.71" width="645" height="339.5" rx="80.23"/><path d="M506.61,1630.88Q501.53,1667,480,1665.57a30.2,30.2,0,0,1-19.67-8.82l-.86.72v5.82c-.09,5.6.33,9.72,1.23,12.37.09.29.54,1.26,1.37,2.92a11.51,11.51,0,0,1,1.23,3.05,5.25,5.25,0,0,1-1.11,3.2,3.3,3.3,0,0,1-2.72,1.5,5.36,5.36,0,0,1-5.2-2.85,19.88,19.88,0,0,1-1.24-6.82q-.36-7.26-.37-14.65,0-4.26.56-12.79t.49-13q-.06-4.47.56-13.22t.62-13v-13.5a18.49,18.49,0,0,0-.43-3.13,17.63,17.63,0,0,1-.44-3.13c0-1.8,1.07-2.7,3.22-2.7a4.17,4.17,0,0,1,3.53,2.13,8.14,8.14,0,0,1,1.42,4.55,35.26,35.26,0,0,1-.56,5.26,35.23,35.23,0,0,0-.55,5.26v3.7l5.67-11.37q6.66-10.66,17.65-10.67,11.84,0,17.89,11.24,4.93,9.24,4.93,23.45A77.59,77.59,0,0,1,506.61,1630.88Zm-5.57-8a52.74,52.74,0,0,0-3.33-19.51q-4.32-11-12.71-11-10.86,0-18.38,16.63a67.82,67.82,0,0,0-6.41,28v7.54a4.33,4.33,0,0,1,1.86-.71c.57,0,1.09.48,1.54,1.43a6.13,6.13,0,0,0,1.18,1.87c-.09.29-.21.38-.37.29s-.25,0-.25.28a7.19,7.19,0,0,0,1,2.59q4.82,8.61,14.8,8.61,9.38,0,14.06-7.13,3.57-5.27,5.67-16.81A80.46,80.46,0,0,0,501,1622.84Z"/><path d="M574,1657.75q0,4.55-3.09,4.55a6.72,6.72,0,0,1-2.6-.57,50.25,50.25,0,0,0,3.09,16.21,4,4,0,0,1-1.54,3,4.93,4.93,0,0,1-3.16,1.14,7.25,7.25,0,0,1-3.34-1,19,19,0,0,1-1-7.11c0-.86,0-2.42.13-4.69v-4.7a10,10,0,0,0-.38-3.41,13.42,13.42,0,0,0-3.15.14,22.48,22.48,0,0,1-2.91.29,127,127,0,0,0-16.7,1.7q-13,2-15,4-1.11,1-2.35,10.23-1,7.54-1.11,11.09a2,2,0,0,1-1.74,1,5.56,5.56,0,0,1-3.58-1.84,5.13,5.13,0,0,1-2-3.56,16.36,16.36,0,0,1,1-3.84c.65-2,1-3.22,1.11-3.69a212.22,212.22,0,0,1,8-34.83q16.34-53.31,25.24-53.31,9.53,0,14.72,27.86,1.86,9.81,4.33,37.53a10.41,10.41,0,0,0,3.71,1.57C573.29,1655.86,574,1656.61,574,1657.75Zm-12-4.12q-3.09-25-4-30.28-4.08-23.89-8.66-23.74-5.07.29-12.74,21.89-4.33,13.65-8.54,27.29a42.91,42.91,0,0,0-1.61,5.55q-.49,3.4,1.73,3.41c.5,0,3-.47,7.55-1.42Q541.13,1655.19,562,1653.63Z"/><path d="M629.83,1672.54q0,7.95-8.66,12.22a33.1,33.1,0,0,1-14.85,3.41,43.7,43.7,0,0,1-16-3.41q-11.13-4.4-11.13-11c0-2.36,1-3.55,3-3.55,1.56,0,3.38,1,5.44,3.13,2.89,3.13,4.45,4.78,4.7,5q4.71,3.56,15.22,3.56,14.1,0,14.1-8.53,0-4-6.06-9.81-1-.86-9.28-7.68-13.23-10.8-16.7-15.07a33.94,33.94,0,0,1-7.79-22.17,40.56,40.56,0,0,1,5.81-21.33q6.43-10.8,16.21-10.8,8.28,0,14.23,8.1a39.09,39.09,0,0,1,6.8,17.2q.12,3.42,1,10.38l1,5.12q0,11.37-4.82,11.37a3.47,3.47,0,0,1-2.54-1.63,5,5,0,0,1-1.3-3.06,36.78,36.78,0,0,1,.68-5.83,36.78,36.78,0,0,0,.68-5.83,51.25,51.25,0,0,0-2.7-17.34q-3.55-10.24-10.8-10.24T594,1602.09a28.45,28.45,0,0,0-4.85,16q0,11.65,10.61,22.17,9.75,8.12,19.61,16.35Q629.83,1665.43,629.83,1672.54Z"/><path d="M689.34,1595.91c0,2.37-.71,3.55-2.11,3.55a14.12,14.12,0,0,0-2.74-1.56q-1.86-1.14-9.57-1.14h-5.59c-2,0-3.23.36-3.72,1.07s-.9,2.32-1.19,4.83-.76,6.23-1.42,11.16a430.14,430.14,0,0,0-2.36,46.49q0,18.35,3.46,24.74c0,1.32-.42,2-1.25,2q-6.52,0-8.27-8.53-.75-3.27-.75-14.22,0-15.91.62-24,.12-3.83,1.36-17.91,1-11.22,1-17.91,0-8.1.12-4c-.08-1.42-.61-2.13-1.6-2.13a33,33,0,0,0-6.62,1,32.61,32.61,0,0,1-6.62,1q-5,0-6.44-4.55,1.25-2.41,18.44-4.84a184.65,184.65,0,0,1,20.91-1.85Q689.33,1589.08,689.34,1595.91Z"/><path d="M755.53,1657.75q0,4.55-3.09,4.55a6.69,6.69,0,0,1-2.6-.57,50.25,50.25,0,0,0,3.09,16.21,4,4,0,0,1-1.55,3,4.91,4.91,0,0,1-3.15,1.14,7.25,7.25,0,0,1-3.34-1,19,19,0,0,1-1-7.11c0-.86,0-2.42.12-4.69v-4.7a10.06,10.06,0,0,0-.37-3.41,13.42,13.42,0,0,0-3.15.14,22.48,22.48,0,0,1-2.91.29,126.86,126.86,0,0,0-16.7,1.7q-13,2-15,4-1.12,1-2.35,10.23-1,7.54-1.12,11.09a1.94,1.94,0,0,1-1.73,1,5.61,5.61,0,0,1-3.59-1.84,5.13,5.13,0,0,1-2-3.56,16.92,16.92,0,0,1,1-3.84c.66-2,1-3.22,1.12-3.69a212.22,212.22,0,0,1,8-34.83q16.34-53.31,25.24-53.31,9.53,0,14.72,27.86,1.86,9.81,4.33,37.53a10.23,10.23,0,0,0,3.71,1.57C754.79,1655.86,755.53,1656.61,755.53,1657.75Zm-12-4.12q-3.09-25-4-30.28-4.08-23.89-8.66-23.74-5.07.29-12.74,21.89-4.33,13.65-8.54,27.29a41.35,41.35,0,0,0-1.61,5.55q-.49,3.4,1.73,3.41c.5,0,3-.47,7.55-1.42Q722.61,1655.19,743.53,1653.63Z"/><path d="M373.91,1731.54q-5.09,36.12-26.6,34.69a30.27,30.27,0,0,1-19.68-8.81l-.86.71V1764q-.12,8.38,1.24,12.36a29.63,29.63,0,0,0,1.36,2.92,11.51,11.51,0,0,1,1.23,3,5.25,5.25,0,0,1-1.11,3.2,3.3,3.3,0,0,1-2.72,1.5,5.36,5.36,0,0,1-5.2-2.85,19.68,19.68,0,0,1-1.23-6.82q-.37-7.26-.38-14.65,0-4.26.56-12.79t.5-13q-.07-4.47.55-13.22t.62-13v-13.5a17.49,17.49,0,0,0-.43-3.13,17.38,17.38,0,0,1-.43-3.13q0-2.7,3.21-2.7a4.17,4.17,0,0,1,3.53,2.13,8.06,8.06,0,0,1,1.42,4.55,34,34,0,0,1-.56,5.26,35.23,35.23,0,0,0-.55,5.26v3.7l5.67-11.37Q340.73,1687,351.7,1687q11.83,0,17.89,11.24,4.94,9.24,4.93,23.45A77.59,77.59,0,0,1,373.91,1731.54Zm-5.57-8A52.74,52.74,0,0,0,365,1704q-4.32-11-12.71-11-10.85,0-18.37,16.63a67.68,67.68,0,0,0-6.42,28v7.54a4.33,4.33,0,0,1,1.86-.71c.57,0,1.09.48,1.54,1.43a6.33,6.33,0,0,0,1.18,1.87c-.08.29-.21.38-.37.29s-.25,0-.25.28a7.08,7.08,0,0,0,1,2.59q4.8,8.61,14.79,8.61,9.38,0,14.06-7.13,3.57-5.26,5.67-16.81A80.46,80.46,0,0,0,368.34,1723.5Z"/><path d="M445.42,1784.57v.71a2.32,2.32,0,0,1-2.11,1.42c-1.16,0-1.91-.24-2.24-.71q-1-5.82-16.74-18.55T403,1754.71h-7.07v8.82c0,1.23.29,4.07.89,8.53.51,4.74.93,7.34,1.27,7.82,1.44,2.56,2.17,3.74,2.17,3.55,0,2.18-1.08,3.27-3.22,3.27a6,6,0,0,1-5.44-3q-1.86-3-1.86-27.87c0-1.32-1.44-2.51-4.33-3.55s-4.33-2.28-4.33-3.7q0-3.12,7.92-5.68a104.19,104.19,0,0,0,1.11-13.65q.5-10.66.74-13.79c.09-1,.46-3.89,1.12-8.53a46.08,46.08,0,0,0,.74-8.67,7.27,7.27,0,0,0-3.28-.43c-1.77,0-2.66-.81-2.66-2.42q0-3,2.48-3.69c1.15-.38,2.35-.76,3.58-1.14a9.83,9.83,0,0,1,1.61-3.13,5.72,5.72,0,0,1,2-.43,4,4,0,0,1,2.79,1.57,3.81,3.81,0,0,0,2.53,1.56,10,10,0,0,0,1.73-.21,10.09,10.09,0,0,1,1.74-.21q13.73,0,23.13,6.54,11.51,7.67,11.51,22.46,0,12.23-6.31,19.9-4,5-15.34,12.08a6.19,6.19,0,0,0-1.74.71q2.48,2.71,11.14,9.24A93.41,93.41,0,0,1,440,1771.35Q445.66,1777.89,445.42,1784.57Zm-12-66.39q0-10.8-8.5-16.64-7-4.83-17-4.83a25.59,25.59,0,0,0-5.92.57l-1.6,2.84a20.62,20.62,0,0,0-2,8.67c-.16,5.22-.33,8.3-.49,9.25q-1.48,8.1-2,25.73,9.12,4,11.34,4a16.07,16.07,0,0,0,4.93-1.14,31,31,0,0,0,14.8-10.38A27.61,27.61,0,0,0,433.41,1718.18Z"/><path d="M465.71,1694.15a25.18,25.18,0,0,1-1.12,2.42q-.49,1.14-1,7.53-2.85,29.14-2.84,53.88,0,20.34,3.83,26.59c-1.57,1.23-2.8,1.85-3.71,1.85q-5.33,0-6.43-10-1-8.81-1-12.5l.86-67.39c0-1.33.79-2.75,2.35-4.27s2.93-2.27,4.09-2.27a5.73,5.73,0,0,1,3,1.49C465.07,1692.52,465.71,1693.39,465.71,1694.15Z"/><path d="M530.91,1689.61a1.72,1.72,0,0,1-1.12,1.85c-.82.38-1.61.76-2.35,1.14q-1.73,1.14-3.09,12.81a130.68,130.68,0,0,0-1.11,14.8l-.37,43.15a47.87,47.87,0,0,1-2.11,12.38q-2.6,8.55-6.56,8.54-6.06,0-11.25-12.93-2.11-5.11-5.88-19.41t-11.2-42.86c-.91.19-1.4,1.14-1.48,2.84q-.25,3.84-2,19.91a186.7,186.7,0,0,0-1.36,19.9q0,22.89,2.47,26.44a13,13,0,0,1,1.36,2.56,3.94,3.94,0,0,1-1.82,3,5.52,5.52,0,0,1-3.19,1.42q-5,0-5-18.63,0-2.55-.18-7.25t-.19-7.25a161.33,161.33,0,0,1,1.61-18.69,163.86,163.86,0,0,0,1.61-18.84v-18.34a4.1,4.1,0,0,0-.19-.92,4.05,4.05,0,0,1-.19-.93q0-3.69,6.32-3.69,5.19,0,7.17,3.69c.33.67.66,2.75,1,6.26.25,2.27.5,4.6.74,7q1.6,11.37,8.91,37.39Q510,1775,513.83,1775q3.34,0,3.22-15.23l-.37-42.72a68.69,68.69,0,0,1,2.35-16.8q3.09-12.11,8-12.11A6.62,6.62,0,0,1,530.91,1689.61Z"/><path d="M587.82,1763.39a21.67,21.67,0,0,1-1.12,6,25,25,0,0,1-10.51,13.93,28.16,28.16,0,0,1-15.84,4.83q-14.48,0-21.77-13.65-6.2-11.22-6.19-28.85a102.91,102.91,0,0,1,3.83-28.44q4.34-15.63,12.87-24.16,6.31-6.4,12.74-6.4,9.54,0,14.23,10.52,3.72,8.25,3.71,20.33a69.55,69.55,0,0,1-1.6,13.79q-2.11,10.23-5.45,10.23-2.6,0-3.71-3.12c.5-.38,1.28-1,2.35-2q3.21-3.56,3.22-17.35a47.77,47.77,0,0,0-2.72-16.06q-3.47-10-9.53-10-4.83,0-10.15,6.68a51.26,51.26,0,0,0-6.8,11.51q-6.32,15.07-6.31,37.11,0,14.64,4.45,23.31,5.58,10.8,17.32,10.81a19.46,19.46,0,0,0,11.76-3.91,25.08,25.08,0,0,0,8.16-10.45,39.9,39.9,0,0,1,2.11-6,2.88,2.88,0,0,1,2.47-1.85C587,1760.26,587.82,1761.3,587.82,1763.39Z"/><path d="M646.83,1779.31c-.41,1-.91,1.56-1.48,1.56a7,7,0,0,1-1.43-.21,7,7,0,0,0-1.42-.21q-5.32,0-15.4,3.83t-15.41,3.84q-17.45,0-17.44-33.64,0-26.7,1.24-45.57l.24-4.55a17.39,17.39,0,0,0-.31-2.91,17.51,17.51,0,0,1-.3-2.48q0-3.4,4.08-3.83,4.57-.57,18.06-4.4,12.25-3.4,17.57-3.41a7.44,7.44,0,0,1,1.73.28,5.63,5.63,0,0,1,3.84,1.28,3.92,3.92,0,0,1,1.85,3q0,2.83-6.31,2.84-5.69,0-16.7,2.28-12.37,2.7-15.34,5.54-1,10.8-2.35,33.84a1.57,1.57,0,0,0,1.36.71q3.71,0,11-2.71c4.87-1.79,8.58-2.7,11.14-2.7a12,12,0,0,1,6.18,1.85l1,4.27c.17.38-.91,1-3.22,2a6.77,6.77,0,0,0-4.45-1.42q-3.09,0-11.69,2.55t-11.69,4.27a124.48,124.48,0,0,0-.5,14.5q0,21.46,9.53,21.47,4.57,0,13.17-3.49t13.18-3.48Q644.48,1774.19,646.83,1779.31Z"/><path d="M702.63,1773.2q0,8-8.66,12.22a33.1,33.1,0,0,1-14.85,3.41,43.7,43.7,0,0,1-16-3.41Q652,1781,652,1774.47c0-2.36,1-3.55,3-3.55q2.35,0,5.45,3.13c2.88,3.13,4.45,4.78,4.7,5q4.7,3.56,15.22,3.56,14.1,0,14.1-8.53,0-4-6.06-9.81-1-.85-9.28-7.68-13.25-10.8-16.7-15.07a34,34,0,0,1-7.8-22.17,40.57,40.57,0,0,1,5.82-21.33q6.43-10.8,16.21-10.8,8.28,0,14.22,8.1a39,39,0,0,1,6.81,17.2q.12,3.42,1,10.38l1,5.12q0,11.37-4.83,11.37a3.47,3.47,0,0,1-2.53-1.63,5,5,0,0,1-1.3-3.06,35.62,35.62,0,0,1,.68-5.83,36.78,36.78,0,0,0,.68-5.83,51.25,51.25,0,0,0-2.7-17.34q-3.57-10.25-10.8-10.24t-12.09,7.32a28.45,28.45,0,0,0-4.85,16q0,11.65,10.61,22.17l19.61,16.35Q702.63,1766.09,702.63,1773.2Z"/><path d="M759.66,1773.2q0,8-8.66,12.22a33.08,33.08,0,0,1-14.84,3.41,43.7,43.7,0,0,1-16-3.41q-11.15-4.39-11.14-11c0-2.36,1-3.55,3-3.55q2.36,0,5.44,3.13c2.89,3.13,4.46,4.78,4.7,5q4.71,3.56,15.22,3.56,14.1,0,14.11-8.53,0-4-6.07-9.81-1-.85-9.27-7.68-13.24-10.8-16.71-15.07a34,34,0,0,1-7.79-22.17,40.66,40.66,0,0,1,5.81-21.33q6.43-10.8,16.21-10.8,8.3,0,14.23,8.1a39.09,39.09,0,0,1,6.8,17.2q.12,3.42,1,10.38l1,5.12q0,11.37-4.82,11.37a3.48,3.48,0,0,1-2.54-1.63,5.09,5.09,0,0,1-1.3-3.06,36.78,36.78,0,0,1,.68-5.83,35.62,35.62,0,0,0,.68-5.83,51.25,51.25,0,0,0-2.7-17.34q-3.56-10.25-10.8-10.24t-12.09,7.32a28.44,28.44,0,0,0-4.84,16q0,11.65,10.61,22.17l19.61,16.35Q759.67,1766.09,759.66,1773.2Z"/><circle class="cls-14" cx="305.52" cy="1531.9" r="119.5"/><path class="cls-15" d="M182.58,1543.51c1,27.32,30,56.43,13.2,57.36s-34.15-19.8-35.67-47.09,33.74-40.66,47.26-50.7c13-9.67,30.76-18.51,18.53-9C220.71,1498.05,181.7,1519.87,182.58,1543.51Z"/><path class="cls-15" d="M217.41,1611.69c16.1,15.27,5.47,41.1-8.67,47.47-15.35,6.91-38.34-4.49-38.53-31.83-.2-26.47,12.16-44.45,14.83-59.74C189.57,1541.53,188.17,1584,217.41,1611.69Z"/><circle class="cls-16" cx="312.47" cy="1532.29" r="98"/><path class="cls-14" d="M171.11,1563.09c5.92,18.4,1.7,39.38,18.78,33.87s26.14-24.87,20.21-43.27-24.57-28.86-41.66-23.36S165.18,1544.69,171.11,1563.09Z"/><ellipse class="cls-17" cx="271.14" cy="1527.67" rx="19" ry="18.5" transform="translate(-455.12 156.6) rotate(-17.85)"/><ellipse class="cls-17" cx="347.23" cy="1503.51" rx="19" ry="18.5" transform="translate(-444.05 178.75) rotate(-17.85)"/><path class="cls-15" d="M384,1437.83c27.76,20.84-41,7.53-98.89,22.39-55.78,14.32-104.7,86.67-103.37,57.44,2-44.39,33.15-100.69,78-113.36C310.57,1389.94,352.52,1414.24,384,1437.83Z"/><path class="cls-15" d="M236.44,1665.72c6.53,22.5.23,39.3-9,46.6-13.23,10.42-32.42-2.14-42-27.75s17.84-47.16,18.91-64c1.24-19.48,1.43-.42,13.88,23.09C221.65,1650.23,234,1657.41,236.44,1665.72Z"/><path class="cls-15" d="M247.14,1714.2c6.53,22.51.24,39.3-9,46.6-13.24,10.42-32.43-2.14-42-27.74s17.84-47.17,18.91-64c1.23-19.48,1.43-.42,13.87,23.09C232.35,1698.71,244.73,1705.9,247.14,1714.2Z"/><ellipse class="cls-15" cx="242.4" cy="1773.05" rx="10" ry="14.5" transform="translate(-526.26 157) rotate(-17.65)"/><ellipse class="cls-15" cx="225.48" cy="1774.99" rx="14.5" ry="10" transform="translate(-1552.04 1570.42) rotate(-76.2)"/><path class="cls-18" d="M243.53,1757.72c.12.56-4.44,3-12.47,4.66s-13.05,1.8-13.16,1.23,4.71-1.66,12.74-3.29S243.42,1757.15,243.53,1757.72Z"/><path class="cls-15" d="M397.84,1465.23c18.42,22.12,18.34,64,28.8,54.71,12.59-11.2,10.71-37.73-4.74-60.29s-51.54-11.63-68.38-11.33c-16.22.28-35.66,4.1-20.2,4.14C339.89,1452.47,382.69,1447.05,397.84,1465.23Z"/><path class="cls-14" d="M399.74,1486.38c5.93,18.4,11.41,34.1,28.5,28.6s3-18.47-2.95-36.87-1.42-35.26-18.51-29.76S393.82,1468,399.74,1486.38Z"/><path class="cls-15" d="M290.14,1454.53c4.57,20.2-16.86,49-41.5,52.26-17.43,2.3-41.81,1.49-49.59,8.77-4.26,4-10.17-4.08-11.59-10.38-4.57-20.2,18.09-58.19,42.33-63.67S285.58,1434.32,290.14,1454.53Z"/><path class="cls-15" d="M265.36,1463.76c9.26,18.52,44.09,27.26,65.22,14.17,14.95-9.25,33.3-25.32,43.93-24.61,5.82.38,5.29-9.6,2.4-15.37-9.26-18.53-50.85-33.59-73.08-22.48S256.1,1445.23,265.36,1463.76Z"/><polyline class="cls-19" points="275.15 1428.63 202.18 1454.57 195.74 1382.84"/><polyline class="cls-19" points="280.51 1430.3 183.22 1464.89 131.77 1397.23"/><polyline class="cls-19" points="311.48 1416.9 227.94 1446.6 227.65 1328.53"/><polyline class="cls-19" points="257.17 1435.02 330.14 1409.08 289.86 1349.39"/><polyline class="cls-19" points="254.07 1439.7 351.36 1405.12 348.56 1320.16"/><rect class="cls-20" x="177.7" y="1431.5" width="180.69" height="11.25" transform="translate(-465.89 172.8) rotate(-19.57)"/><rect class="cls-21" x="180.71" y="1439.98" width="180.69" height="11.25" transform="translate(-468.55 174.3) rotate(-19.57)"/><rect class="cls-19" x="179.2" y="1435.74" width="180.69" height="11.25" transform="translate(-467.22 173.55) rotate(-19.57)"/><path class="cls-21" d="M262.25,1392.36a9.55,9.55,0,1,1-18,6.39c-1.87-5.24,1-9.94,6-11.7S260.39,1387.12,262.25,1392.36Z"/><path class="cls-21" d="M244.25,1388.81l-.45,5.32c.47,2.13,4.06,0,6.35-.78l3.45-1.23c2.28-.81,6.63-1.48,6.11-3.65l-4.63-4.25c-8.92-9.07-10.41-8.46-10.83,4.59"/><path class="cls-22" d="M260.32,1393.61c1.51,4.24-.35,8.78-4.14,10.13s-8.1-1-9.61-5.24a7.3,7.3,0,1,1,13.75-4.89Z"/><path class="cls-22" d="M246.41,1390.5l-.27,4.27c.39,1.72,3.13.08,4.87-.54l2.64-.94c1.75-.62,5.09-1.09,4.65-2.84l-3.62-3.49c-7-7.42-8.13-7-8.27,3.54"/><path class="cls-23" d="M251.37,1387.1a1.24,1.24,0,1,1-2.33.83,1.24,1.24,0,0,1,2.33-.83Z"/><path class="cls-23" d="M249,1386.57l0,.73c.06.29.53,0,.82-.09l.45-.16c.3-.11.86-.19.79-.49l-.61-.59c-1.19-1.26-1.38-1.18-1.41.6"/><path class="cls-21" d="M298.94,1383.72a4.77,4.77,0,1,1-8.94,3.17,4.74,4.74,0,1,1,8.94-3.17Z"/><path class="cls-21" d="M289.89,1381.69l-.17,2.78c.25,1.12,2,0,3.17-.35l1.71-.61c1.14-.4,3.31-.71,3-1.85l-2.35-2.27c-4.55-4.82-5.28-4.52-5.38,2.3"/><path class="cls-22" d="M297.7,1384.84a3.39,3.39,0,1,1-6.35,2.26,3.37,3.37,0,1,1,6.35-2.26Z"/><path class="cls-22" d="M291.28,1383.41l-.12,2c.17.79,1.44,0,2.24-.25l1.22-.43c.81-.29,2.35-.51,2.15-1.32l-1.67-1.61c-3.23-3.42-3.76-3.21-3.82,1.64"/><path class="cls-21" d="M218.57,1412.29a4.77,4.77,0,1,1-8.94,3.17,4.74,4.74,0,1,1,8.94-3.17Z"/><path class="cls-21" d="M209.53,1410.26l-.18,2.78c.26,1.12,2,0,3.17-.35l1.72-.61c1.13-.4,3.3-.71,3-1.85L214.9,1408c-4.54-4.82-5.28-4.52-5.37,2.3"/><path class="cls-22" d="M217.33,1413.41a3.39,3.39,0,1,1-6.34,2.26,3.37,3.37,0,1,1,6.34-2.26Z"/><path class="cls-22" d="M210.91,1412l-.12,2c.18.79,1.44,0,2.24-.25l1.23-.43c.8-.29,2.34-.51,2.14-1.32l-1.67-1.6c-3.23-3.43-3.76-3.22-3.82,1.63"/><rect class="cls-21" x="232.3" y="1403.54" width="6.73" height="9" rx="2" transform="translate(-458.02 160.28) rotate(-19.57)"/><rect class="cls-21" x="271.43" y="1389.63" width="6.73" height="9" rx="2" transform="translate(-451.1 172.58) rotate(-19.57)"/><rect class="cls-22" x="233.43" y="1404.67" width="4.49" height="6.75" rx="2" transform="translate(-458.02 160.28) rotate(-19.57)"/><rect class="cls-21" x="238.9" y="1362.93" width="6.73" height="6.75" rx="2" transform="translate(-443.66 160.08) rotate(-19.57)"/><rect class="cls-22" x="240.03" y="1364.05" width="4.49" height="4.5" rx="2" transform="translate(-443.66 160.08) rotate(-19.57)"/><rect class="cls-22" x="272.55" y="1390.76" width="4.49" height="6.75" rx="2" transform="translate(-451.1 172.58) rotate(-19.57)"/><ellipse class="cls-24" cx="191.48" cy="1469.71" rx="2.81" ry="2.81" transform="translate(-481.23 149.04) rotate(-19.57)"/><ellipse class="cls-24" cx="202.06" cy="1465.95" rx="2.81" ry="2.81" transform="translate(-479.36 152.36) rotate(-19.57)"/><ellipse class="cls-24" cx="212.63" cy="1462.19" rx="2.81" ry="2.81" transform="translate(-477.49 155.69) rotate(-19.57)"/><ellipse class="cls-24" cx="223.21" cy="1458.43" rx="2.81" ry="2.81" transform="translate(-475.62 159.01) rotate(-19.57)"/><ellipse class="cls-24" cx="233.78" cy="1454.67" rx="2.81" ry="2.81" transform="translate(-473.75 162.34) rotate(-19.57)"/><ellipse class="cls-24" cx="244.36" cy="1450.91" rx="2.81" ry="2.81" transform="translate(-471.88 165.66) rotate(-19.57)"/><ellipse class="cls-24" cx="254.93" cy="1447.15" rx="2.81" ry="2.81" transform="translate(-470.01 168.99) rotate(-19.57)"/><ellipse class="cls-24" cx="264.45" cy="1443.77" rx="2.81" ry="2.81" transform="translate(-468.32 171.98) rotate(-19.57)"/><ellipse class="cls-24" cx="275.03" cy="1440.01" rx="2.81" ry="2.81" transform="translate(-466.45 175.31) rotate(-19.57)"/><ellipse class="cls-24" cx="285.6" cy="1436.25" rx="2.81" ry="2.81" transform="translate(-464.58 178.63) rotate(-19.57)"/><ellipse class="cls-24" cx="296.18" cy="1432.49" rx="2.81" ry="2.81" transform="translate(-462.71 181.96) rotate(-19.57)"/><ellipse class="cls-24" cx="306.75" cy="1428.73" rx="2.81" ry="2.81" transform="translate(-460.84 185.28) rotate(-19.57)"/><ellipse class="cls-24" cx="317.32" cy="1424.97" rx="2.81" ry="2.81" transform="translate(-458.97 188.61) rotate(-19.57)"/><ellipse class="cls-24" cx="327.9" cy="1421.21" rx="2.81" ry="2.81" transform="translate(-457.1 191.93) rotate(-19.57)"/><ellipse class="cls-24" cx="338.47" cy="1417.46" rx="2.81" ry="2.81" transform="translate(-455.23 195.26) rotate(-19.57)"/><ellipse class="cls-24" cx="349.05" cy="1413.7" rx="2.81" ry="2.81" transform="matrix(0.94, -0.33, 0.33, 0.94, -453.36, 198.58)"/><circle class="cls-21" cx="228.09" cy="1326.16" r="7.5"/><ellipse class="cls-19" cx="227.07" cy="1325.71" rx="7.5" ry="7" transform="translate(-73.17 14.63) rotate(-3.18)"/><circle class="cls-21" cx="289.01" cy="1345.81" r="5.5"/><ellipse class="cls-19" cx="288.26" cy="1345.48" rx="5.5" ry="5.13" transform="translate(-74.17 18.06) rotate(-3.18)"/><circle class="cls-21" cx="349.53" cy="1317.41" r="5.5"/><ellipse class="cls-19" cx="348.77" cy="1317.08" rx="5.5" ry="5.13" transform="translate(-72.51 21.37) rotate(-3.18)"/><circle class="cls-21" cx="195.87" cy="1382.03" r="5.5"/><ellipse class="cls-19" cx="195.12" cy="1381.7" rx="5.5" ry="5.13" transform="translate(-76.33 12.95) rotate(-3.18)"/><circle class="cls-21" cx="132.79" cy="1395.55" r="5.5"/><ellipse class="cls-19" cx="131.64" cy="1395.56" rx="5.5" ry="5.13" transform="translate(-917.24 465.64) rotate(-43.05)"/><circle class="cls-25" cx="224.46" cy="1323.85" r="2"/><circle class="cls-25" cx="193.53" cy="1380.16" r="1.5"/><circle class="cls-25" cx="347.69" cy="1315.51" r="1.5"/><circle class="cls-25" cx="285.67" cy="1343.99" r="1.5"/><circle class="cls-25" cx="129.74" cy="1394.72" r="1.5"/><path class="cls-23" d="M213.28,1410.33a.91.91,0,0,1-.53,1.17.93.93,0,0,1-1.11-.66.84.84,0,0,1,.57-1.08A.82.82,0,0,1,213.28,1410.33Z"/><path class="cls-23" d="M211.66,1409.9l0,.5c0,.2.37,0,.58,0l.31-.1c.21-.07.6-.11.56-.31l-.41-.43c-.79-.91-.92-.86-1,.38"/><path class="cls-23" d="M293.83,1381.77a.86.86,0,1,1-1.61.59.83.83,0,0,1,.51-1.1A.81.81,0,0,1,293.83,1381.77Z"/><path class="cls-23" d="M292.19,1381.42l0,.5c0,.2.37,0,.58-.07l.31-.11c.2-.07.59-.13.54-.34l-.43-.41c-.83-.86-1-.81-1,.43"/><rect class="cls-23" x="273.38" y="1392.22" width="1" height="2" rx="0.5" transform="translate(-471.93 184.98) rotate(-20.56)"/><rect class="cls-23" x="234.11" y="1406.42" width="1" height="2" rx="0.5" transform="translate(-501.42 185.07) rotate(-21.59)"/><circle class="cls-26" cx="241.29" cy="1365.48" r="0.5"/><circle class="cls-26" cx="189.93" cy="1468.49" r="0.5"/><circle class="cls-26" cx="200.74" cy="1464.89" r="0.5"/><circle class="cls-26" cx="211.06" cy="1461.27" r="0.5"/><circle class="cls-26" cx="221.38" cy="1457.73" r="0.5"/><circle class="cls-26" cx="232.2" cy="1454.12" r="0.5"/><circle class="cls-26" cx="243.01" cy="1450.52" r="0.5"/><circle class="cls-26" cx="252.83" cy="1446.97" r="0.5"/><circle class="cls-26" cx="262.65" cy="1443.42" r="0.5"/><circle class="cls-26" cx="273.46" cy="1439.81" r="0.5"/><circle class="cls-26" cx="284.28" cy="1436.21" r="0.5"/><circle class="cls-26" cx="294.1" cy="1432.66" r="0.5"/><circle class="cls-26" cx="304.86" cy="1428.05" r="0.5"/><circle class="cls-26" cx="315.68" cy="1424.45" r="0.5"/><circle class="cls-26" cx="326.49" cy="1420.84" r="0.5"/><circle class="cls-26" cx="347.13" cy="1413.69" r="0.5"/><circle class="cls-26" cx="336.77" cy="1417.09" r="0.5"/><path class="cls-23" d="M297.1,1579.08c4.11,13,21.32,19.13,38.43,13.71s27.65-20.35,23.53-33.34"/><ellipse class="cls-14" cx="710.84" cy="522.98" rx="47.79" ry="45.01"/><path class="cls-14" d="M677.57,509.53a13.56,13.56,0,0,1-16.11,9.65c-7-1.71-1.61-6.88.35-13.93s-.21-13.28,6.73-11.57A12.63,12.63,0,0,1,677.57,509.53Z"/><ellipse class="cls-16" cx="708.07" cy="523.27" rx="39.19" ry="36.91"/><path class="cls-14" d="M765.2,531.9c-2,7.05.2,14.84-6.75,13.13a12.64,12.64,0,0,1-9-15.85,13.57,13.57,0,0,1,16.12-9.65C772.48,521.24,767.16,524.86,765.2,531.9Z"/><ellipse class="cls-17" cx="725.67" cy="520.67" rx="6.98" ry="7.59" transform="matrix(0.08, -1, 1, 0.08, 150.26, 1203.75)"/><ellipse class="cls-17" cx="693.55" cy="512.42" rx="6.98" ry="7.59" transform="translate(128.86 1164.12) rotate(-85.55)"/><path class="cls-27" d="M701.39,549.21,706,553l.1.07a3.39,3.39,0,0,0,1.24.39c3.3.31,6.7-2.42,7.82-6.45l.19-.65c1-3.62-2.32-6.73-5.36-7.79a5.18,5.18,0,0,0-3-.07l-3.39.84a3.44,3.44,0,0,1-2.56-.34c-2.83-1.61-5.81-4.46-9.51-5.13a4,4,0,0,0-3.15,1l-.06.05c-3.5,2.85-5.37,11.76-1.34,10.81.17,0,4.46-1.71,5.53-1.45.75.19,1.78-.26,6,2.9Z"/><path class="cls-28" d="M677.42,489.25c-10.62,8.41,16.38,2.89,40,6.35,23,3.37,43.93,30,42.55,19.44-2.16-16.61-15.47-37.17-33.66-41C705.67,469.7,689.45,479.72,677.42,489.25Z"/><path class="cls-28" d="M673.29,480.89c-.79,8.31,8.79,19,19.63,22.62,13.57,4.53,29.53-5.41,31.59-14.07,2.2-9.27-25.37,1-38.76-2.32S674.19,471.42,673.29,480.89Z"/><path class="cls-28" d="M756.56,505.57c7,0-12.64,10.5-21.35,7.31-10.73-3.93-13.39-7.14-13.91-12.94-.41-4.62,5.69-11.08,17.45-5.57C743.92,496.8,752.35,505.55,756.56,505.57Z"/><path class="cls-29" d="M755.77,505.23c7,0-9.1,6.16-17.81,3-10.73-3.93-13.39-7.14-13.91-12.94-.41-4.62,4.76-9.64,16.52-4.12C745.75,493.57,751.55,505.22,755.77,505.23Z"/><ellipse class="cls-30" cx="738.75" cy="494.37" rx="1.29" ry="1.85" transform="translate(-67.71 868.25) rotate(-58.66)"/><path class="cls-29" d="M726.57,492.79c-8.77,2.23-15.24,10.52-29.47,7s-30.35-23.87-22-19.72c20.72,10.35,24.54-2.34,31.16-4.6C720.44,470.66,734.29,490.82,726.57,492.79Z"/><polygon class="cls-31" points="258.55 330.27 250.35 330.27 243.72 298.51 250.35 265.99 258.55 265.99 251.13 298.13 258.55 330.27"/><polygon class="cls-31" points="175.86 222.12 189.13 231.95 207.08 228.55 207.08 221.36 190.69 225.52 178.98 217.58 175.86 222.12"/><path class="cls-31" d="M170.4,222.12h5.46l3.12-4.54-.78-5.29c.21-.84-1.33-1.49-1.56-.38l-.27,5.12-4.87-2.72c-1.29-1.25-1.82-.25-.6.73l3.84,4.28L170,221C168.66,221.33,169.05,222.39,170.4,222.12Z"/><polygon class="cls-31" points="349.48 216.07 336.21 225.9 318.26 222.5 318.26 215.31 334.65 219.47 346.36 211.53 349.48 216.07"/><path class="cls-31" d="M355,216.07h-5.47l-3.12-4.54.78-5.29c-.21-.84,1.34-1.49,1.56-.38L349,211l4.88-2.72c1.29-1.25,1.82-.25.6.73l-3.85,4.28,4.74,1.72C356.68,215.28,356.3,216.34,355,216.07Z"/><polygon class="cls-31" points="275.72 329.9 267.52 329.9 274.55 297.75 267.52 265.61 275.72 265.61 281.57 297 275.72 329.9"/><ellipse class="cls-32" cx="250.85" cy="176.7" rx="14.8" ry="14.21" transform="translate(-55.74 164.29) rotate(-32.84)"/><ellipse class="cls-32" cx="220.73" cy="193.96" rx="16.27" ry="14.84" transform="translate(-71.81 221.61) rotate(-46.71)"/><ellipse class="cls-32" cx="213.33" cy="220.83" rx="16.06" ry="13.7" transform="translate(-92.69 245.91) rotate(-50.68)"/><ellipse class="cls-32" cx="218.2" cy="242.25" rx="11.77" ry="12.25" transform="translate(-60.57 411.32) rotate(-79.23)"/><ellipse class="cls-32" cx="233.64" cy="261" rx="17.67" ry="16.91" transform="translate(-107.55 181.64) rotate(-35.07)"/><ellipse class="cls-32" cx="259.94" cy="265.92" rx="16.7" ry="14" transform="translate(-81.11 414.12) rotate(-69.14)"/><ellipse class="cls-32" cx="287.28" cy="261.55" rx="13.13" ry="15.67" transform="translate(-99.7 227.13) rotate(-37.23)"/><ellipse class="cls-32" cx="308.41" cy="257.94" rx="10.53" ry="10.93" transform="translate(10.66 528.12) rotate(-82.13)"/><ellipse class="cls-32" cx="318.22" cy="241.9" rx="9.92" ry="14.89" transform="matrix(0.53, -0.85, 0.85, 0.53, -55.07, 384.85)"/><ellipse class="cls-32" cx="316.89" cy="227.58" rx="11.28" ry="9.46" transform="translate(-59.04 331.91) rotate(-51.2)"/><ellipse class="cls-32" cx="275.16" cy="176.61" rx="11.51" ry="11.16"/><ellipse class="cls-32" cx="291.94" cy="185.97" rx="14.14" ry="9.27" transform="translate(-30.31 312.36) rotate(-53.91)"/><ellipse class="cls-32" cx="306.14" cy="196.29" rx="18.41" ry="13.35" transform="translate(-57.29 183.15) rotate(-30.6)"/><ellipse class="cls-32" cx="314.82" cy="209.68" rx="12.08" ry="12.68" transform="translate(28.91 457.34) rotate(-74.57)"/><ellipse class="cls-32" cx="231.68" cy="179.23" rx="6.67" ry="7.74" transform="translate(-35.88 298.44) rotate(-61.74)"/><ellipse class="cls-32" cx="264.42" cy="222.19" rx="59.18" ry="53.99" transform="translate(-19.53 25.57) rotate(-5.34)"/><path class="cls-28" d="M280.4,337.46H268.57a1,1,0,0,1-1.05-1V329.9h8.2v.6a.88.88,0,0,0,1.23.79l3.08-1.24a.26.26,0,0,1,.37.24Z"/><path class="cls-28" d="M284.7,333.68a4,4,0,0,1-4.1,3.78,4.06,4.06,0,0,1-4.1-3.78c-.09-1.19,0-2.23,1.93-3a11.71,11.71,0,0,1,2.17-.8C282.81,329.44,284.7,331.59,284.7,333.68Z"/><rect class="cls-33" x="266.74" y="328.76" width="9.76" height="1.51" rx="0.76"/><path class="cls-28" d="M245.67,337.46H257.5a1,1,0,0,0,1.05-1V329.9h-8.2v.6a.88.88,0,0,1-1.23.79L246,330.05a.26.26,0,0,0-.37.24Z"/><path class="cls-28" d="M241.37,333.68a4,4,0,0,0,4.1,3.78,4.06,4.06,0,0,0,4.1-3.78c.09-1.19,0-2.23-1.92-3a12.06,12.06,0,0,0-2.18-.8C243.26,329.44,241.37,331.59,241.37,333.68Z"/><rect class="cls-33" x="249.57" y="328.76" width="9.76" height="1.51" rx="0.76" transform="translate(508.9 659.04) rotate(-180)"/><ellipse class="cls-17" cx="280.01" cy="206.99" rx="8.2" ry="7.94"/><ellipse class="cls-17" cx="248.4" cy="205.86" rx="8.59" ry="7.94"/><path class="cls-34" d="M287.82,242.16c8.37.74-11.45,14.75-25.57,14.75s-25.41-6.6-25.56-14.75C236.56,234.63,286.07,242,287.82,242.16Z"/><path class="cls-35" d="M269.87,255.78c-3.7,1.64-16.55,1.55-18.74-.38C246.49,251.31,278.18,252.07,269.87,255.78Z"/><path class="cls-36" d="M243.1,239.13c10.08-1.91,26.27.67,35.74,1.9.75.1,1.22,1.6-3.51,1.89-8.09.49-22.12,0-29.27-1.14C243.06,241.29,242.66,239.21,243.1,239.13Z"/><ellipse class="cls-37" cx="143.5" cy="321" rx="52.5" ry="29.5"/><ellipse class="cls-37" cx="181.5" cy="306.5" rx="37.5" ry="44"/><ellipse class="cls-37" cx="239" cy="327.5" rx="57" ry="21"/><ellipse class="cls-37" cx="189.5" cy="354" rx="46.5" ry="33.5"/><ellipse class="cls-36" cx="131.5" cy="322.5" rx="52.5" ry="29.5"/><ellipse class="cls-36" cx="169.5" cy="308" rx="37.5" ry="44"/><ellipse class="cls-36" cx="227" cy="329" rx="57" ry="21"/><ellipse class="cls-36" cx="177.5" cy="355.5" rx="46.5" ry="33.5"/><ellipse class="cls-37" cx="753.5" cy="103" rx="52.5" ry="29.5"/><ellipse class="cls-37" cx="791.5" cy="88.5" rx="37.5" ry="44"/><ellipse class="cls-37" cx="849" cy="109.5" rx="57" ry="21"/><ellipse class="cls-37" cx="799.5" cy="136" rx="46.5" ry="33.5"/><ellipse class="cls-36" cx="741.5" cy="104.5" rx="52.5" ry="29.5"/><ellipse class="cls-36" cx="779.5" cy="90" rx="37.5" ry="44"/><ellipse class="cls-36" cx="837" cy="111" rx="57" ry="21"/><ellipse class="cls-36" cx="787.5" cy="137.5" rx="46.5" ry="33.5"/><ellipse class="cls-37" cx="682.3" cy="144.46" rx="33.62" ry="18.89"/><ellipse class="cls-37" cx="706.63" cy="135.17" rx="24.01" ry="28.17"/><ellipse class="cls-37" cx="743.45" cy="148.62" rx="36.5" ry="13.45"/><ellipse class="cls-37" cx="711.75" cy="165.59" rx="29.77" ry="21.45"/><ellipse class="cls-36" cx="674.62" cy="145.42" rx="33.62" ry="18.89"/><ellipse class="cls-36" cx="698.95" cy="136.13" rx="24.01" ry="28.17"/><ellipse class="cls-36" cx="735.77" cy="149.58" rx="36.5" ry="13.45"/><ellipse class="cls-36" cx="704.07" cy="166.55" rx="29.77" ry="21.45"/><ellipse class="cls-37" cx="889.67" cy="352.82" rx="37.98" ry="21.34"/><ellipse class="cls-37" cx="917.16" cy="342.33" rx="27.13" ry="31.83"/><ellipse class="cls-37" cx="958.76" cy="357.53" rx="41.24" ry="15.19"/><ellipse class="cls-37" cx="922.95" cy="376.7" rx="33.64" ry="24.24"/><ellipse class="cls-36" cx="880.98" cy="353.91" rx="37.98" ry="21.34"/><ellipse class="cls-36" cx="908.48" cy="343.42" rx="27.13" ry="31.83"/><ellipse class="cls-36" cx="950.08" cy="358.61" rx="41.24" ry="15.19"/><ellipse class="cls-36" cx="914.26" cy="377.79" rx="33.64" ry="24.24"/><polygon class="cls-31" points="909.81 1776.37 892.73 1785.92 869.51 1782.85 869.46 1775.97 890.67 1779.78 905.75 1772.06 909.81 1776.37"/><path class="cls-31" d="M916.87,1776.31l-7.06.06-4.06-4.31,1-5.08c-.27-.8,1.71-1.44,2-.38l.37,4.9,6.29-2.66c1.66-1.2,2.35-.25.78.69l-4.94,4.14,6.13,1.6C919.1,1775.54,918.61,1776.55,916.87,1776.31Z"/><polygon class="cls-31" points="786.49 1778.02 803.7 1787.3 826.87 1783.85 826.83 1776.97 805.67 1781.13 790.49 1773.64 786.49 1778.02"/><path class="cls-31" d="M779.43,1778.08l7.06-.06,4-4.38-1-5.06c.26-.8-1.74-1.41-2-.35l-.31,4.91-6.32-2.56c-1.68-1.17-2.36-.21-.77.71l5,4.06-6.11,1.7C777.18,1777.34,777.69,1778.35,779.43,1778.08Z"/><path class="cls-31" d="M836.54,1886.58l-9.07.07-2.78-14.28a4.11,4.11,0,0,1,.13-1.35l6-23.49,8.17-.07-7.1,24.82Z"/><path class="cls-28" d="M817.89,1897.15l20.93-.17c1,0,1.85-.61,1.84-1.34l-.06-8.59-14.49.12v.79c0,.81-1.13,1.36-2.16,1.06l-5.47-1.59c-.31-.09-.65.08-.65.32Z"/><path class="cls-28" d="M810.27,1892.26c0,2.74,3.27,4.93,7.28,4.9s6.94-2.29,7.21-5c.16-1.56-.09-2.92-3.43-3.88a26.48,26.48,0,0,0-3.85-1C813.56,1886.68,810.25,1889.52,810.27,1892.26Z"/><path class="cls-33" d="M825.11,1887.68l16.5-.14a.37.37,0,0,0,.38-.36v-1.26a.37.37,0,0,0-.38-.36l-16.51.13a.38.38,0,0,0-.37.37v1.26A.37.37,0,0,0,825.11,1887.68Z"/><path class="cls-31" d="M858.31,1885.75l9.07-.07,2.58-14.33a4.12,4.12,0,0,0-.14-1.35l-6.33-23.39-8.17.07,7.43,24.7Z"/><path class="cls-28" d="M877.09,1896l-20.93.17c-1,0-1.85-.58-1.86-1.31l0-8.59,14.49-.12v.79c0,.81,1.15,1.34,2.18,1l5.44-1.68c.31-.1.66.07.66.31Z"/><path class="cls-28" d="M884.65,1891c0,2.74-3.21,5-7.21,5s-7-2.17-7.28-4.9c-.18-1.56.05-2.92,3.37-3.93a26.85,26.85,0,0,1,3.84-1.09C881.28,1885.48,884.63,1888.27,884.65,1891Z"/><path class="cls-33" d="M869.75,1886.66l-16.5.14a.37.37,0,0,1-.38-.36v-1.26a.38.38,0,0,1,.37-.37l16.51-.13a.38.38,0,0,1,.38.36v1.26A.36.36,0,0,1,869.75,1886.66Z"/><polygon class="cls-38" points="852.75 1734.95 847.54 1734.99 846.69 1608.08 851.89 1608.04 852.75 1734.95"/><polygon class="cls-20" points="848.85 1735.87 843.64 1735.94 840.19 1609.06 845.39 1608.99 848.85 1735.87"/><polygon class="cls-20" points="841.79 1735.78 836.59 1735.97 822.96 1609.34 828.15 1609.15 841.79 1735.78"/><polygon class="cls-39" points="841.56 1735.64 836.38 1735.89 816.24 1609.54 821.42 1609.29 841.56 1735.64"/><polygon class="cls-38" points="839.82 1736.44 836.14 1736.68 810.07 1613.12 813.75 1612.88 839.82 1736.44"/><polygon class="cls-39" points="841.52 1736.06 836.86 1736.44 802.13 1612.42 806.8 1612.03 841.52 1736.06"/><polygon class="cls-20" points="838.78 1735.87 834.6 1736.24 795.65 1609.74 799.84 1609.37 838.78 1735.87"/><polygon class="cls-38" points="864.76 1735.53 861.08 1735.36 885.77 1611.4 889.45 1611.58 864.76 1735.53"/><polygon class="cls-39" points="864.85 1735.34 861.19 1735.11 892.62 1611.53 896.28 1611.76 864.85 1735.34"/><polygon class="cls-20" points="867.61 1734.38 863.27 1734.08 898.36 1607.95 902.7 1608.25 867.61 1734.38"/><polygon class="cls-38" points="847.2 1735.84 842.71 1735.95 834.14 1608.26 838.64 1608.15 847.2 1735.84"/><polygon class="cls-40" points="844.53 1735.83 840.89 1735.94 829.18 1610.12 832.82 1610.01 844.53 1735.83"/><polygon class="cls-39" points="852.34 1734.96 847.13 1734.92 854.06 1609.82 859.26 1609.87 852.34 1734.96"/><polygon class="cls-16" points="856.32 1734.92 850.99 1734.84 860.48 1611.47 865.8 1611.55 856.32 1734.92"/><polygon class="cls-38" points="860.98 1734.87 856.16 1734.8 866.14 1606 870.97 1606.07 860.98 1734.87"/><polygon class="cls-16" points="864.73 1734.82 859.53 1734.7 872.9 1609.71 878.1 1609.83 864.73 1734.82"/><polygon class="cls-41" points="865.34 1735.65 860.15 1735.46 879.24 1610.64 884.43 1610.83 865.34 1735.65"/><polygon class="cls-38" points="848.84 1733.15 853.96 1733.15 851.48 1860.07 846.36 1860.08 848.84 1733.15"/><polygon class="cls-20" points="853.14 1732.25 858.69 1732.21 858.32 1859.13 852.77 1859.18 853.14 1732.25"/><polygon class="cls-20" points="859.64 1732.4 864.75 1732.25 874.83 1858.99 869.72 1859.14 859.64 1732.4"/><polygon class="cls-39" points="859.85 1732.55 864.96 1732.33 881.44 1858.84 876.34 1859.06 859.85 1732.55"/><polygon class="cls-38" points="861.59 1731.75 865.21 1731.55 887.6 1855.31 883.98 1855.52 861.59 1731.75"/><polygon class="cls-39" points="859.91 1732.13 864.5 1731.78 895.37 1856.07 890.78 1856.42 859.91 1732.13"/><polygon class="cls-20" points="862.59 1732.34 866.71 1731.99 901.67 1858.79 897.55 1859.13 862.59 1732.34"/><polygon class="cls-38" points="837.05 1732.48 840.66 1732.68 813.16 1856.47 809.55 1856.26 837.05 1732.48"/><polygon class="cls-39" points="836.96 1732.67 840.56 1732.93 806.43 1856.28 802.83 1856.02 836.96 1732.67"/><polygon class="cls-20" points="834.23 1733.61 838.48 1733.94 800.69 1859.82 796.44 1859.49 834.23 1733.61"/><polygon class="cls-38" points="854.66 1732.29 860.45 1732.16 864.32 1859.96 858.53 1860.1 854.66 1732.29"/><polygon class="cls-40" points="856.43 1732.36 860.52 1732.25 868.31 1858.18 864.23 1858.3 856.43 1732.36"/><polygon class="cls-39" points="849.25 1733.14 854.36 1733.23 844.28 1858.28 839.17 1858.19 849.25 1733.14"/><polygon class="cls-16" points="845.34 1733.15 850.57 1733.27 838.01 1856.58 832.78 1856.46 845.34 1733.15"/><polygon class="cls-38" points="840.75 1733.17 845.49 1733.28 832.3 1862.01 827.56 1861.9 840.75 1733.17"/><polygon class="cls-16" points="837.07 1733.19 842.18 1733.35 825.76 1858.25 820.65 1858.09 837.07 1733.19"/><polygon class="cls-41" points="836.48 1732.36 841.58 1732.58 819.56 1857.27 814.46 1857.05 836.48 1732.36"/><path class="cls-42" d="M868.45,1736.12l-9.61,2a30.77,30.77,0,0,1-10.4.33l-13.3-1.88c-1.89-.27-3.25-1.46-3.26-2.84l0-3.27c0-.44.57-.76,1.17-.66l14.88,2.67a24.06,24.06,0,0,0,9.6-.26l10.91-2.56c.76-.18,1.54.22,1.55.8l0,4.2C870,1735.33,869.36,1735.93,868.45,1736.12Z"/><ellipse class="cls-17" cx="826.23" cy="1703.25" rx="17.24" ry="12.7" transform="translate(-16.51 8.11) rotate(-0.56)"/><ellipse class="cls-17" cx="876.12" cy="1702.85" rx="17.24" ry="12.7" transform="translate(-16.5 8.59) rotate(-0.56)"/><path class="cls-34" d="M882.92,1749.81c10.87.62-14.76,14.31-33.08,14.46s-33-6.09-33.28-13.92C816.34,1743.1,880.66,1749.68,882.92,1749.81Z"/><path class="cls-35" d="M859.71,1763.09c-4.79,1.62-21.46,1.67-24.32-.16C829.34,1759,870.48,1759.44,859.71,1763.09Z"/><path class="cls-36" d="M824.86,1747.36c13.08-1.94,34.1.37,46.41,1.45,1,.09,1.59,1.53-4.55,1.86-10.5.56-28.72.27-38-.79C824.82,1749.44,824.3,1747.44,824.86,1747.36Z"/><circle class="cls-43" cx="44.5" cy="48.5" r="36.5"/><path class="cls-44" d="M68.22,48.24a23.1,23.1,0,1,1-45.16-6.87,22.76,22.76,0,0,1,2.88-6A23.1,23.1,0,0,1,68.22,48.24Z"/><rect class="cls-44" x="22.64" y="30.64" width="7.71" height="5.93" transform="translate(28.43 -9.15) rotate(40.85)"/><rect class="cls-44" x="31.47" y="23.91" width="7.63" height="5.93" transform="translate(43.35 -16.74) rotate(63.18)"/><rect class="cls-44" x="43.04" y="21.54" width="7.4" height="5.93" transform="translate(75.42 -19.8) rotate(95.25)"/><rect class="cls-44" x="53.62" y="24.9" width="7.8" height="5.93" transform="translate(110.4 -8.01) rotate(120)"/><rect class="cls-44" x="61.48" y="32.81" width="7.58" height="5.93" transform="translate(139.69 34.12) rotate(150)"/><rect class="cls-44" x="64.7" y="42.76" width="7.71" height="5.93" transform="translate(139.48 87.69) rotate(176.91)"/><rect class="cls-44" x="63.47" y="53.28" width="7.87" height="5.93" transform="translate(108.98 133.56) rotate(-158.11)"/><rect class="cls-44" x="57.91" y="62.26" width="7.88" height="5.93" transform="translate(54.86 154.84) rotate(-132.06)"/><rect class="cls-44" x="49.23" y="67.75" width="7.82" height="5.93" transform="translate(3.55 143.96) rotate(-108.97)"/><rect class="cls-44" x="38.81" y="69.08" width="7.79" height="5.93" transform="translate(-32.63 108.63) rotate(-85.24)"/><rect class="cls-44" x="29.3" y="65.99" width="7.73" height="5.93" transform="matrix(0.55, -0.84, 0.84, 0.55, -42.67, 58.77)"/><rect class="cls-44" x="21.96" y="59.52" width="7.69" height="5.93" transform="translate(-31.29 26.28) rotate(-35.18)"/><rect class="cls-44" x="17.96" y="50.33" width="7.71" height="5.93" transform="translate(-6.84 3.34) rotate(-7.58)"/><rect class="cls-44" x="18.31" y="39.62" width="7.67" height="5.93" transform="translate(7.64 -3.17) rotate(9.89)"/><path class="cls-11" d="M62,48A16.75,16.75,0,1,1,45.27,31.21,16.75,16.75,0,0,1,62,48Z"/><rect class="cls-13" x="629.91" y="1388" width="259.09" height="139.46" rx="65.52"/><path d="M724.9,1452.35q-3.12,22.23-16.37,21.35a18.59,18.59,0,0,1-12.11-5.43l-.53.44v3.59a24.21,24.21,0,0,0,.76,7.61,18.58,18.58,0,0,0,.84,1.8,6.77,6.77,0,0,1,.76,1.88,3.19,3.19,0,0,1-.69,2,2,2,0,0,1-1.67.92,3.3,3.3,0,0,1-3.2-1.75,12,12,0,0,1-.76-4.2c-.15-3-.23-6-.23-9q0-2.62.34-7.87t.31-8c0-1.84.09-4.55.34-8.14s.38-6.25.38-8v-8.32a10.73,10.73,0,0,0-.27-1.92,11.55,11.55,0,0,1-.26-1.93c0-1.1.66-1.66,2-1.66a2.58,2.58,0,0,1,2.17,1.31,5,5,0,0,1,.87,2.8,21.37,21.37,0,0,1-.34,3.24,21.37,21.37,0,0,0-.34,3.24v2.27c1.16-2.33,2.33-4.66,3.49-7q4.11-6.55,10.86-6.56,7.29,0,11,6.91,3,5.7,3,14.44A48.25,48.25,0,0,1,724.9,1452.35Zm-3.43-4.95a32.39,32.39,0,0,0-2.05-12q-2.65-6.75-7.81-6.75-6.69,0-11.32,10.23a41.74,41.74,0,0,0-3.94,17.24v4.64a2.63,2.63,0,0,1,1.14-.44c.35,0,.67.3,1,.88a3.8,3.8,0,0,0,.72,1.15c0,.18-.12.24-.23.18s-.15,0-.15.18a4.32,4.32,0,0,0,.61,1.59,10.59,10.59,0,0,0,17.76.91q2.21-3.24,3.49-10.35A49.23,49.23,0,0,0,721.47,1447.4Z"/><path d="M756.58,1483.5a39.19,39.19,0,0,1-15.84,3.06q-6.56,0-9-5.86-1.74-4.11-1.75-12.6,0-5.43.73-16.19t.72-16.1c0-.76-.05-1.86-.15-3.32s-.16-2.57-.16-3.33c0-.58,0-1.19.08-1.84a2.7,2.7,0,0,1,2.28-1.13q2.67,0,2.67,7.17,0,6.21-1,18.64t-1,18.64q0,11.8,6.85,11.81a20.84,20.84,0,0,0,6.44-1.49,20.85,20.85,0,0,1,6.43-1.49,2.19,2.19,0,0,1,1.94,1.27A5.43,5.43,0,0,1,756.58,1483.5Z"/><path d="M796.17,1468.89c0,1.86-.63,2.8-1.9,2.8a4.21,4.21,0,0,1-1.6-.35,30.86,30.86,0,0,0,1.91,10,2.49,2.49,0,0,1-1,1.84,3,3,0,0,1-1.94.7,4.38,4.38,0,0,1-2-.61,11.65,11.65,0,0,1-.61-4.38c0-.52,0-1.49.07-2.89v-2.88a6,6,0,0,0-.23-2.1,8,8,0,0,0-1.94.08,14.5,14.5,0,0,1-1.79.18,77.62,77.62,0,0,0-10.28,1c-5.33.82-8.4,1.63-9.21,2.45q-.69.62-1.45,6.3c-.4,3.09-.63,5.37-.68,6.82a1.21,1.21,0,0,1-1.07.62,3.44,3.44,0,0,1-2.21-1.14,3.16,3.16,0,0,1-1.22-2.19,10.74,10.74,0,0,1,.61-2.36,22.71,22.71,0,0,0,.69-2.28,130.08,130.08,0,0,1,5-21.43q10.05-32.82,15.53-32.82,5.87,0,9.06,17.15,1.15,6,2.67,23.1a6.22,6.22,0,0,0,2.28,1C795.72,1467.72,796.17,1468.19,796.17,1468.89Zm-7.38-2.54q-1.9-15.4-2.44-18.64-2.51-14.7-5.33-14.61-3.12.18-7.84,13.47-2.67,8.4-5.26,16.8a26.84,26.84,0,0,0-1,3.42c-.2,1.4.16,2.1,1.07,2.1.3,0,1.85-.3,4.65-.88Q775.92,1467.3,788.79,1466.35Z"/><path d="M833.33,1429.34a28.88,28.88,0,0,1-2.81,4.33,21.91,21.91,0,0,0-2.74,4.42q-5.56,12.51-9.67,24.58-6,17.68-5.41,25.12a4.19,4.19,0,0,1-2.59,1.13q-2.45,0-3.88-4.9c.3-.29.8-.83,1.48-1.61s1.76-3.58,3.24-8.36q1.37-4.82,2.81-9.63-4.86-4.37-8.45-13.73-5.94-15.66-5.94-21.27,0-3.59,2.44-3.58a2.94,2.94,0,0,1,2.59,1.92,9.08,9.08,0,0,1,.76,3.68,4.89,4.89,0,0,1-.34,1.57,4.85,4.85,0,0,0-.35,1.49q0,4,3.81,13.74,4.19,10.5,7,10.41,1.29-1.58,7.23-17.5,5.25-14.26,7.85-14.26C832.19,1426.89,833.18,1427.7,833.33,1429.34Z"/></g></svg>
