<svg xmlns="http://www.w3.org/2000/svg" width="1080" height="1920" viewBox="0 0 1080 1920"><defs><style>.cls-1,.cls-4,.cls-5{fill:#6ba460;}.cls-1{opacity:0.7;}.cls-2{fill:#131311;}.cls-3{fill:#2f3a35;}.cls-5{stroke:#003442;stroke-miterlimit:10;stroke-width:4px;opacity:0.8;}.cls-6{fill:#28565a;}.cls-7{fill:#efe3da;}.cls-10,.cls-8{fill:none;}.cls-10,.cls-11,.cls-8,.cls-9{stroke:#000;stroke-linecap:round;stroke-linejoin:round;}.cls-8{stroke-width:15px;}.cls-9{stroke-width:5px;}.cls-10{stroke-width:7px;}.cls-11{stroke-width:3px;}</style></defs><title>Tegnebræt 6</title><g id="Lag_1" data-name="Lag 1"><circle class="cls-1" cx="198.5" cy="141.5" r="104.5"/><path class="cls-2" d="M269.28,140.76a66.15,66.15,0,1,1-66.14-66.14A66.14,66.14,0,0,1,269.28,140.76Z"/><rect class="cls-2" x="138.79" y="90.36" width="22.07" height="16.98" transform="translate(101.15 -73.92) rotate(40.85)"/><rect class="cls-2" x="164.06" y="71.11" width="21.83" height="16.98" transform="translate(167.07 -112.47) rotate(63.18)"/><rect class="cls-2" x="197.18" y="64.31" width="21.19" height="16.98" transform="translate(299.3 -127.44) rotate(95.25)"/><rect class="cls-2" x="227.46" y="73.93" width="22.32" height="16.98" transform="translate(429.31 -83.02) rotate(120)"/><rect class="cls-2" x="249.99" y="96.57" width="21.69" height="16.98" transform="translate(539.26 65.63) rotate(150)"/><rect class="cls-2" x="259.21" y="125.06" width="22.08" height="16.98" transform="translate(547.29 252.36) rotate(176.91)"/><rect class="cls-2" x="255.68" y="155.18" width="22.53" height="16.98" transform="translate(453.61 415.06) rotate(-158.11)"/><rect class="cls-2" x="239.75" y="180.9" width="22.57" height="16.98" transform="translate(278.61 502.64) rotate(-132.06)"/><rect class="cls-2" x="214.91" y="196.6" width="22.38" height="16.98" transform="translate(105.67 485.59) rotate(-108.97)"/><rect class="cls-2" x="185.09" y="200.41" width="22.3" height="16.98" transform="translate(-28.23 387.12) rotate(-85.24)"/><rect class="cls-2" x="157.84" y="191.58" width="22.14" height="16.98" transform="translate(-91.06 231.23) rotate(-56.66)"/><rect class="cls-2" x="136.82" y="173.06" width="22.03" height="16.98" transform="translate(-77.6 118.34) rotate(-35.18)"/><rect class="cls-2" x="125.38" y="146.74" width="22.09" height="16.98" transform="translate(-19.27 19.34) rotate(-7.58)"/><rect class="cls-2" x="126.37" y="116.06" width="21.96" height="16.98" transform="translate(23.43 -21.74) rotate(9.89)"/><path class="cls-3" d="M264.62,140.76a66.15,66.15,0,1,1-66.14-66.14A66.14,66.14,0,0,1,264.62,140.76Z"/><path class="cls-4" d="M248.65,139.94A47.95,47.95,0,1,1,200.71,92,48,48,0,0,1,248.65,139.94Z"/><rect class="cls-3" x="134.12" y="90.36" width="22.07" height="16.98" transform="translate(100.02 -70.87) rotate(40.85)"/><rect class="cls-3" x="159.4" y="71.11" width="21.83" height="16.98" transform="translate(164.51 -108.31) rotate(63.18)"/><rect class="cls-3" x="192.52" y="64.31" width="21.19" height="16.98" transform="translate(294.21 -122.8) rotate(95.25)"/><rect class="cls-3" x="222.8" y="73.93" width="22.32" height="16.98" transform="translate(422.32 -78.98) rotate(120)"/><rect class="cls-3" x="245.32" y="96.57" width="21.69" height="16.98" transform="translate(530.55 67.96) rotate(150)"/><rect class="cls-3" x="254.54" y="125.06" width="22.08" height="16.98" transform="translate(537.97 252.61) rotate(176.91)"/><rect class="cls-3" x="251.01" y="155.18" width="22.53" height="16.98" transform="translate(444.62 413.33) rotate(-158.11)"/><rect class="cls-3" x="235.09" y="180.9" width="22.57" height="16.98" transform="translate(270.82 499.18) rotate(-132.06)"/><rect class="cls-3" x="210.25" y="196.6" width="22.38" height="16.98" transform="translate(99.49 481.18) rotate(-108.97)"/><rect class="cls-3" x="180.42" y="200.41" width="22.3" height="16.98" transform="translate(-32.5 382.48) rotate(-85.24)"/><rect class="cls-3" x="153.17" y="191.58" width="22.14" height="16.98" transform="translate(-93.16 227.34) rotate(-56.66)"/><rect class="cls-3" x="132.16" y="173.06" width="22.03" height="16.98" transform="translate(-78.45 115.65) rotate(-35.18)"/><rect class="cls-3" x="120.72" y="146.74" width="22.09" height="16.98" transform="translate(-19.31 18.73) rotate(-7.58)"/><rect class="cls-3" x="121.71" y="116.06" width="21.96" height="16.98" transform="translate(23.36 -20.94) rotate(9.89)"/><path class="cls-5" d="M182.41,522.12H531.22a70.07,70.07,0,0,1,70.07,70.07V809.83a68.82,68.82,0,0,1-68.82,68.82H185.69a69.94,69.94,0,0,1-69.94-69.94V588.78A66.66,66.66,0,0,1,182.41,522.12Z"/><path class="cls-2" d="M319.69,582.64q0,3.36-3.66,5.16a14,14,0,0,1-6.26,1.44A18.51,18.51,0,0,1,303,587.8q-4.69-1.86-4.7-4.62c0-1,.42-1.5,1.25-1.5a3.58,3.58,0,0,1,2.3,1.32c1.22,1.32,1.88,2,2,2.1q2,1.5,6.42,1.5,6,0,5.95-3.6,0-1.68-2.56-4.14-.42-.36-3.91-3.24a58.2,58.2,0,0,1-7-6.36,14.3,14.3,0,0,1-3.29-9.36,17.09,17.09,0,0,1,2.45-9q2.72-4.56,6.84-4.56a7.32,7.32,0,0,1,6,3.42A16.49,16.49,0,0,1,317.6,557q0,1.44.42,4.38l.41,2.16q0,4.8-2,4.8a1.46,1.46,0,0,1-1.07-.69,2.11,2.11,0,0,1-.55-1.29,14.48,14.48,0,0,1,.29-2.46,15.33,15.33,0,0,0,.28-2.46,21.64,21.64,0,0,0-1.14-7.32q-1.5-4.32-4.55-4.32a6,6,0,0,0-5.11,3.09,12,12,0,0,0-2,6.75q0,4.92,4.47,9.36,4.13,3.42,8.28,6.9Q319.68,579.64,319.69,582.64Z"/><path class="cls-2" d="M338,581.8c0,1.76-1,3.34-3.08,4.74a9.26,9.26,0,0,1-5.22,1.92q-7,0-7-10.2a36.75,36.75,0,0,1,1.41-9.66q1.89-6.72,4.81-6.72,2.5,0,5.48,2.91c2,1.94,3,3.87,3,5.79a9.13,9.13,0,0,1-2.61,6.48,8,8,0,0,1-5.9,2.76,3.81,3.81,0,0,1-1.34-.6,3.61,3.61,0,0,0-1.38-.6c-.45,0-.68.16-.68.48q0,6.9,4,6.9a5.49,5.49,0,0,0,3.76-1.56,13.58,13.58,0,0,0,2.3-2.82c.66-1,1.09-1.5,1.3-1.5Q338,580.12,338,581.8Zm-3.6-11a7.86,7.86,0,0,0-1-3.93,3.13,3.13,0,0,0-2.77-1.83c-1.39,0-2.53,1-3.4,3a13,13,0,0,0-1.09,5.22,4.44,4.44,0,0,0,1,2.91,3.08,3.08,0,0,0,2.48,1.17,4.15,4.15,0,0,0,3.55-2.1A7.71,7.71,0,0,0,334.36,570.76Z"/><path class="cls-2" d="M351.85,568.84a4.55,4.55,0,0,1-2,.6,7.53,7.53,0,0,0-2,.42q0,.66-.05,6.66,0,4.68.11,6.3a12.56,12.56,0,0,0,.26,2.1,13.84,13.84,0,0,1,.26,2.22,1.37,1.37,0,0,1-.52,1,1.51,1.51,0,0,1-.94.48q-1,0-1.68-2.46a15,15,0,0,1-.41-3.42V570.22q-.32-.3-2.34,0c-1.09.16-1.63-.3-1.63-1.38q0-2.28,4.23-2.1l.68-10.86a2.35,2.35,0,0,0-.13-.57,1.94,1.94,0,0,1-.13-.57.89.89,0,0,1,.41-.69,1.33,1.33,0,0,1,1-.27,1.85,1.85,0,0,1,1.82,2.1,41.41,41.41,0,0,1-.36,4.5,39.4,39.4,0,0,0-.37,4.44,8.77,8.77,0,0,0,.11,1.38l2.87-.18c1,0,1.46.44,1.46,1.32A1.82,1.82,0,0,1,351.85,568.84Z"/><path class="cls-2" d="M366.68,568.84a4.55,4.55,0,0,1-2,.6,7.53,7.53,0,0,0-2,.42q0,.66,0,6.66,0,4.68.11,6.3a12.56,12.56,0,0,0,.26,2.1,13.84,13.84,0,0,1,.26,2.22,1.37,1.37,0,0,1-.52,1,1.51,1.51,0,0,1-.94.48q-1.05,0-1.68-2.46a15.61,15.61,0,0,1-.41-3.42V570.22q-.32-.3-2.34,0c-1.09.16-1.63-.3-1.63-1.38q0-2.28,4.23-2.1l.68-10.86a2.35,2.35,0,0,0-.13-.57,1.94,1.94,0,0,1-.13-.57.89.89,0,0,1,.41-.69,1.33,1.33,0,0,1,1-.27,1.85,1.85,0,0,1,1.82,2.1,41.41,41.41,0,0,1-.36,4.5,39.4,39.4,0,0,0-.37,4.44,8.77,8.77,0,0,0,.11,1.38l2.87-.18c1,0,1.46.44,1.46,1.32A1.82,1.82,0,0,1,366.68,568.84Z"/><path class="cls-2" d="M374.36,564.28a17.51,17.51,0,0,1-.45,3.24,18.19,18.19,0,0,0-.44,3.24V584a17,17,0,0,0,.52,3.6q-.21.48-.57.48c-1.71,0-2.56-.94-2.56-2.82v-22a2.24,2.24,0,0,1,2.61,0C374.06,563.54,374.36,563.88,374.36,564.28Zm1-9c0,1.36-.56,2-1.67,2a2.55,2.55,0,0,1-1.83-.84,2.63,2.63,0,0,1-.83-1.92q0-2,1.77-2a2.41,2.41,0,0,1,1.8.78A2.71,2.71,0,0,1,375.35,555.28Z"/><path class="cls-2" d="M395.14,588a.93.93,0,0,1-.84.66,4,4,0,0,1-1.77-.84V584.2q0-19.92-4.32-19.92-1.35,0-2.91,2.28-3.94,5.64-3.95,14.22a28.25,28.25,0,0,0,.29,3.33,28.25,28.25,0,0,1,.29,3.33c0,.6-.36.9-1.06.9-1.35,0-2-1.26-2-3.78V570.94c0-.36,0-.88,0-1.56s.05-1.2.05-1.56a20.77,20.77,0,0,0-.18-2.28,20.66,20.66,0,0,1-.18-2.22,1.69,1.69,0,0,1,.65-1.11,1.78,1.78,0,0,1,1-.63,1.57,1.57,0,0,1,1.25.84c-.1,2.6-.16,4.12-.16,4.56q0,.9.06,1.74c.31-.12.73-.78,1.25-2a15,15,0,0,1,1.67-3.12,3.57,3.57,0,0,1,2.87-1.68,5.33,5.33,0,0,1,1.88.54,7.36,7.36,0,0,1,4,4q2,4.74,2,12.54Z"/><path class="cls-2" d="M414.51,569.74c0,.24,0,.58-.05,1a56.61,56.61,0,0,0-1.1,9.66c0,1.24.06,3.14.16,5.7s.16,4.48.16,5.76a19.81,19.81,0,0,1-.53,5.4,6.46,6.46,0,0,1-2.4,3.3,6,6,0,0,1-3.65,1.32,14.68,14.68,0,0,1-5.07-1.08c-2.44-.88-3.65-1.94-3.65-3.18,0-1.08.36-1.62,1.09-1.62.32,0,.59.24.84.72a5.07,5.07,0,0,0,.68,1.14,4.57,4.57,0,0,0,2.14.9,8.9,8.9,0,0,0,2.35.48,4.84,4.84,0,0,0,4.44-2.64,11.4,11.4,0,0,0,1.3-5.82,26.22,26.22,0,0,0-.57-6.12c-1.67,2.52-3.68,3.78-6,3.78a5.12,5.12,0,0,1-2.45-.81,6.39,6.39,0,0,1-2.09-1.77q-1.41-1.92-1.41-6.06a41.47,41.47,0,0,1,1.62-11q2.08-7.62,5.48-7.62,2.71,0,5.75,5.64a15,15,0,0,0,1,1.74A9.79,9.79,0,0,1,414.51,569.74Zm-3.13,3.3a3,3,0,0,0-.78-2.1,10.89,10.89,0,0,0-1.1-4.32,3.62,3.62,0,0,0-3.24-2.22q-1.41,0-2.82,3.66a26.41,26.41,0,0,0-1.41,5.16,43.39,43.39,0,0,0-.52,6.12q0,7.38,3.71,7.38c1.88,0,3.44-1.8,4.7-5.4A26.31,26.31,0,0,0,411.38,573Z"/><path class="cls-2" d="M433.78,584.25q0,2.12-2.77,3.55a10,10,0,0,1-4.44,1.14,8.43,8.43,0,0,1-3.24-.78,16.72,16.72,0,0,1-3.18-2.54c-1.6-1.49-2.4-2.52-2.4-3.08,0-1.25.64-1.82,1.93-1.7H420c.07,1.22,1.19,2.53,3.34,3.94,1.95,1.3,3.52,1.94,4.7,1.94,1.54,0,2.3-.6,2.3-1.8,0-.72-.94-1.72-2.82-3a30.09,30.09,0,0,1-5.27-4.15,10.6,10.6,0,0,1-2.87-7.34,13.15,13.15,0,0,1,1.41-5.95c1.07-2.24,2.43-3.37,4.07-3.37a7.65,7.65,0,0,1,4.28,1.89,6.94,6.94,0,0,1,2.92,3.81,15.16,15.16,0,0,1,.42,3.78,19.9,19.9,0,0,1-.73,5.1,1.59,1.59,0,0,1-1.09.42,3.37,3.37,0,0,1-1.15-.33c-.53-.22-.79-.45-.79-.69,0,.16.19-.28.58-1.32a11.11,11.11,0,0,0,.42-3.72q0-6.42-3.5-6.42c-1.22,0-2.2,1-2.93,2.83a12.2,12.2,0,0,0-.94,4.63q0,3,3,5.71a61.12,61.12,0,0,0,5.48,4.15Q433.79,583.06,433.78,584.25Z"/><path class="cls-2" d="M235.85,638.34a1.59,1.59,0,0,1-.39,1c-.26.32-.5.63-.71.93a3.67,3.67,0,0,0-.31,1.83,12.75,12.75,0,0,1,0,2,238.11,238.11,0,0,0-1.3,24v5.7q.21,4.26,1.56,4.8v.6a.9.9,0,0,1-.88.66c-2.2,0-3.5-2.46-3.92-7.38a33.87,33.87,0,0,1-.05-5.7l1.35-19.38q-1.92,8.1-3.85,16.2-3.54,12.72-6.93,12.72c-1,0-2-.74-3.13-2.22a12.53,12.53,0,0,1-2-3.72A113,113,0,0,1,212,657.24q-1.3-6.72-2.65-13.38l-.32.9a147.63,147.63,0,0,0-.83,15.9l.52,13.74c.07,1.44.49,2.22,1.25,2.34,0,1.08-.8,1.62-2.5,1.62s-2.35-3.3-2.35-9.9q0-4.5.41-13.41t.42-13.41a5.87,5.87,0,0,0-.15-1.5,3.36,3.36,0,0,1-.16-.66q0-2.34,4.18-2.34c.52,0,1.14.42,1.88,1.26.1,1.24.26,3.08.47,5.52a123.52,123.52,0,0,0,3.08,15.36q3,12.36,5,12.36c1.63,0,3.43-3.76,5.37-11.28q1.83-7.26,2.93-14.4c.45-1.52,1-3.68,1.72-6.48a3.29,3.29,0,0,1,3.61-2.7,2.54,2.54,0,0,1,1.35.42A1.29,1.29,0,0,1,235.85,638.34Z"/><path class="cls-2" d="M254,655.8c0,1.24-.11,3.09-.34,5.55s-.34,4.59-.34,6.39c0,.72.06,2.09.19,4.11s.18,3.47.18,4.35c0,1.76-.18,2.82-.52,3.18a1.45,1.45,0,0,1-.89.24,1.56,1.56,0,0,1-1.57-1.14c-.14-.76-.28-1.5-.41-2.22a7,7,0,0,1-5.17,3.36c-.91.16-2-.3-3.14-1.38a7.47,7.47,0,0,1-2.14-2.89q-.74-2-.73-7.66V654.61c-.21-1.2.38-1.81,1.78-1.81,1,0,1.46.64,1.46,1.92q0,2.88-.16,7.5c-.1,3.92-.16,6.42-.16,7.5a10.72,10.72,0,0,0,.84,4.32c.7,1.72,1.58,2.58,2.66,2.58,1.78,0,3.15-1.36,4.13-4.08a20.86,20.86,0,0,0,1-6.72V658a4.66,4.66,0,0,0-.28-1.35,4.51,4.51,0,0,1-.29-1.41,5.42,5.42,0,0,1,.05-.66,2.33,2.33,0,0,1,1.46-.84C253.24,653.54,254,654.24,254,655.8Z"/><path class="cls-2" d="M273,674.75q0,2.12-2.77,3.55a10,10,0,0,1-4.44,1.14,8.35,8.35,0,0,1-3.23-.78,16,16,0,0,1-3.19-2.54c-1.6-1.49-2.4-2.52-2.4-3.08,0-1.25.64-1.82,1.93-1.7h.31q.11,1.83,3.35,3.94c2,1.3,3.51,1.94,4.7,1.94,1.53,0,2.29-.6,2.29-1.8,0-.72-.94-1.72-2.82-3a30.09,30.09,0,0,1-5.27-4.15,10.6,10.6,0,0,1-2.87-7.33,13.19,13.19,0,0,1,1.41-6c1.08-2.24,2.43-3.37,4.07-3.37a7.65,7.65,0,0,1,4.28,1.89,7,7,0,0,1,2.93,3.81,15.68,15.68,0,0,1,.41,3.78,19.9,19.9,0,0,1-.73,5.1,1.59,1.59,0,0,1-1.09.42,3.37,3.37,0,0,1-1.15-.33c-.52-.22-.79-.45-.79-.69,0,.16.2-.28.58-1.32a11.11,11.11,0,0,0,.42-3.72q0-6.42-3.5-6.42c-1.22,0-2.2,1-2.93,2.83a12.24,12.24,0,0,0-.94,4.63c0,2,1,3.87,3,5.71a62.49,62.49,0,0,0,5.48,4.16Q273,673.55,273,674.75Z"/><path class="cls-2" d="M280,654.78a17.51,17.51,0,0,1-.45,3.24,18.19,18.19,0,0,0-.44,3.24v13.26a17,17,0,0,0,.52,3.6q-.21.48-.57.48c-1.71,0-2.56-.94-2.56-2.82v-22a2.24,2.24,0,0,1,2.61,0C279.73,654,280,654.38,280,654.78Zm1-9c0,1.36-.56,2-1.67,2a2.55,2.55,0,0,1-1.83-.84,2.64,2.64,0,0,1-.84-1.92c0-1.36.6-2,1.78-2a2.41,2.41,0,0,1,1.8.78A2.75,2.75,0,0,1,281,645.78Z"/><path class="cls-2" d="M300.65,672q0,1.44-2.14,3.89a8.16,8.16,0,0,1-6.53,3.53,6.55,6.55,0,0,1-5.85-3.18,13.06,13.06,0,0,1-1.88-7.34A36.18,36.18,0,0,1,286,658.58q2.13-7.1,5.32-7.1a7.94,7.94,0,0,1,4,1.71q2.52,1.71,2.82,3.27a18.48,18.48,0,0,1,.37,3.66q0,6.6-1.72,6.6a2,2,0,0,1-1-.36,1,1,0,0,1-.57-.84,1.44,1.44,0,0,1,.21-.63c.14-.26.23-.43.26-.51a18.29,18.29,0,0,0,.21-3.6q0-6.66-2.61-6.66c-1.92,0-3.48,2-4.7,6.08a31.91,31.91,0,0,0-1.36,8.9,14.42,14.42,0,0,0,.89,5.42q1.2,2.82,3.71,2.82a5.81,5.81,0,0,0,3.55-1.81,11.5,11.5,0,0,0,2.71-3.45c.14-.4.35-1,.63-1.69a.82.82,0,0,1,.73-.43c.21,0,.46.28.76.82A3,3,0,0,1,300.65,672Z"/><path class="cls-2" d="M224.3,738.93q0,3.36-3.65,5.16a14,14,0,0,1-6.27,1.44,18.47,18.47,0,0,1-6.73-1.44c-3.14-1.24-4.7-2.78-4.7-4.62,0-1,.42-1.5,1.25-1.5a3.58,3.58,0,0,1,2.3,1.32q1.83,2,2,2.1c1.32,1,3.47,1.5,6.43,1.5,4,0,6-1.2,6-3.6,0-1.12-.86-2.5-2.56-4.14l-3.92-3.24a59.89,59.89,0,0,1-7-6.36,14.36,14.36,0,0,1-3.29-9.36,17.1,17.1,0,0,1,2.46-9q2.72-4.56,6.84-4.56,3.49,0,6,3.42a16.5,16.5,0,0,1,2.88,7.26c0,1,.17,2.42.41,4.38l.42,2.16q0,4.8-2,4.8a1.49,1.49,0,0,1-1.07-.69,2.15,2.15,0,0,1-.54-1.29,15.33,15.33,0,0,1,.28-2.46,15.6,15.6,0,0,0,.29-2.46,21.64,21.64,0,0,0-1.14-7.32q-1.5-4.32-4.56-4.32a6,6,0,0,0-5.1,3.09,12,12,0,0,0-2,6.75q0,4.92,4.48,9.36l8.28,6.9Q224.31,735.93,224.3,738.93Z"/><path class="cls-2" d="M243.83,732.21a19.39,19.39,0,0,1-2,9c-1.57,3.08-3.74,4.62-6.53,4.62a6.79,6.79,0,0,1-6.32-3.78,17.1,17.1,0,0,1-1.72-8.28,26.62,26.62,0,0,1,2-10q2.52-6.06,6.37-6.06a5.56,5.56,0,0,1,2.82,1.32Q243.83,722.85,243.83,732.21Zm-2.5-.06a24.82,24.82,0,0,0-.89-6.9q-1.31-4.26-4-4.26-3.13,0-4.91,4.74a22.31,22.31,0,0,0-1.36,7.86,18.63,18.63,0,0,0,.94,6.36q1.36,3.54,4.23,3.54,3.13,0,4.75-4.08A19.59,19.59,0,0,0,241.33,732.15Z"/><path class="cls-2" d="M262,721.59c0,1.24-.11,3.09-.34,5.55s-.33,4.59-.33,6.39q0,1.08.18,4.11t.18,4.35c0,1.76-.17,2.82-.52,3.18a1.45,1.45,0,0,1-.89.24,1.56,1.56,0,0,1-1.57-1.14c-.13-.76-.27-1.5-.41-2.22a7.07,7.07,0,0,1-5.17,3.36c-.91.16-1.95-.3-3.14-1.39a7.43,7.43,0,0,1-2.14-2.89c-.48-1.32-.73-3.88-.73-7.65V720.4c-.21-1.21.38-1.81,1.78-1.81,1,0,1.46.64,1.46,1.92q0,2.88-.16,7.5-.15,5.88-.15,7.5a10.54,10.54,0,0,0,.83,4.32c.7,1.72,1.59,2.58,2.66,2.58q2.67,0,4.13-4.08a20.59,20.59,0,0,0,1-6.72v-7.86a4.66,4.66,0,0,0-.28-1.35,4.81,4.81,0,0,1-.29-1.41,5.42,5.42,0,0,1,.05-.66,2.35,2.35,0,0,1,1.46-.84C261.22,719.33,262,720,262,721.59Z"/><path class="cls-2" d="M281.53,744.33a.92.92,0,0,1-.84.66,4,4,0,0,1-1.77-.84v-3.66q0-19.92-4.31-19.92-1.35,0-2.91,2.28-4,5.64-3.95,14.22a27.78,27.78,0,0,0,.28,3.33,28.25,28.25,0,0,1,.29,3.33c0,.6-.35.9-1.06.9-1.35,0-2-1.26-2-3.78V727.23c0-.36,0-.88.05-1.56s0-1.2,0-1.56a20.77,20.77,0,0,0-.18-2.28,20.66,20.66,0,0,1-.18-2.22,1.73,1.73,0,0,1,.65-1.11,1.84,1.84,0,0,1,1-.63,1.57,1.57,0,0,1,1.25.84q-.15,3.9-.15,4.56c0,.6,0,1.18.05,1.74.31-.12.73-.78,1.25-2a15,15,0,0,1,1.67-3.12,3.59,3.59,0,0,1,2.87-1.68,5.33,5.33,0,0,1,1.88.54,7.41,7.41,0,0,1,4,4q2,4.74,2,12.54Z"/><path class="cls-2" d="M301.32,705.87a25.4,25.4,0,0,1-.31,3.55c-.25,1.88-.4,3.06-.47,3.54q-.17,1.88-.52,12.38-.31,9.61-.32,10.64c0,4.28.33,7.31,1,9.07a1.09,1.09,0,0,1-.95.66,1.87,1.87,0,0,1-1.17-.6,2.58,2.58,0,0,1-.81-1.2,31.54,31.54,0,0,0-.31-3.66c-2.06,3-4,4.5-5.9,4.5a5.79,5.79,0,0,1-5.22-2.94,12.44,12.44,0,0,1-1.57-6.66,36.27,36.27,0,0,1,1.62-10.44q2.08-7.08,5.53-7.08a4.69,4.69,0,0,1,3,1.26c.21.16,1,1,2.45,2.52q.52-4.1.53-17.94a1.23,1.23,0,0,1,1-.42,2.22,2.22,0,0,1,1.72.84A2.91,2.91,0,0,1,301.32,705.87Zm-3.91,22.2a10.45,10.45,0,0,0-1.05-4.74c-.83-1.68-2-2.52-3.39-2.52-1.74,0-3.14,2-4.18,6.12a33.1,33.1,0,0,0-1.25,8.7,12.75,12.75,0,0,0,.73,4.56q1,2.52,3,2.52,3.24,0,4.91-5.76A30.35,30.35,0,0,0,297.41,728.07Z"/><path class="cls-2" d="M226.31,770.29a104,104,0,0,1-1.35,13.8,124.67,124.67,0,0,1-3.24,14.4q-3.14,11.28-5.64,11.28a6.9,6.9,0,0,1-3.55-.78q-2.61-1.62-4.91-14.94-.52-3-2.4-17.4-.27-1.86-1-4.74a1.72,1.72,0,0,0-.29-.42,1.11,1.11,0,0,1-.29-.66,1.71,1.71,0,0,1,.94-1.35,3.09,3.09,0,0,1,1.62-.63,2.16,2.16,0,0,1,1.62.81,2.65,2.65,0,0,1,.73,1.83c0,.8,0,2-.13,3.51s-.13,2.71-.13,3.51A84.17,84.17,0,0,0,210,790.93q2.72,14.82,4.54,14.82,1.22,0,2.77-3.3,2.5-5.1,4.6-15.18a83.42,83.42,0,0,0,2-16q0-2.28-1-3.06c.7-1.16,1.25-1.74,1.67-1.74s1,.5,1.31,1.5A7.7,7.7,0,0,1,226.31,770.29Z"/><path class="cls-2" d="M245.84,797.23a19.39,19.39,0,0,1-2,9c-1.57,3.08-3.74,4.62-6.53,4.62a6.79,6.79,0,0,1-6.32-3.78,17.1,17.1,0,0,1-1.72-8.28,26.62,26.62,0,0,1,2-10q2.52-6.06,6.37-6.06a5.56,5.56,0,0,1,2.82,1.32Q245.85,787.87,245.84,797.23Zm-2.5-.06a24.82,24.82,0,0,0-.89-6.9q-1.3-4.26-4-4.26-3.13,0-4.91,4.74a22.31,22.31,0,0,0-1.36,7.86,18.63,18.63,0,0,0,.94,6.36q1.36,3.54,4.23,3.54,3.13,0,4.75-4.08A19.59,19.59,0,0,0,243.34,797.17Z"/><path class="cls-2" d="M252.94,808.45c0,1-.48,1.56-1.46,1.56q-2.29,0-2.24-10.86l.15-26.94a16.82,16.82,0,0,0-.15-1.89,15,15,0,0,1-.16-1.83,2.86,2.86,0,0,1,1.67-.84,2.3,2.3,0,0,1,1.46.6,1.8,1.8,0,0,1,.73,1.44,6,6,0,0,1-.26,1.56q-.31,1.2-.36,1.5a79.2,79.2,0,0,0-.63,11.4q0,11.82-.05,11.4a75.84,75.84,0,0,0,.83,11.1,3.2,3.2,0,0,0,.24.81A2.94,2.94,0,0,1,252.94,808.45Z"/><path class="cls-2" d="M271.11,786.61c0,1.24-.11,3.09-.34,5.55s-.33,4.59-.33,6.39q0,1.08.18,4.11t.18,4.35c0,1.76-.17,2.82-.52,3.18a1.45,1.45,0,0,1-.89.24,1.56,1.56,0,0,1-1.57-1.14c-.13-.76-.27-1.5-.41-2.22a7.07,7.07,0,0,1-5.17,3.36c-.91.16-1.95-.31-3.14-1.39a7.5,7.5,0,0,1-2.14-2.89c-.48-1.33-.73-3.88-.73-7.66V785.41c-.21-1.2.39-1.8,1.78-1.8,1,0,1.46.64,1.46,1.92q0,2.88-.16,7.5-.15,5.88-.15,7.5a10.54,10.54,0,0,0,.83,4.32q1,2.58,2.67,2.58c1.77,0,3.15-1.36,4.12-4.08a20.59,20.59,0,0,0,1-6.72v-7.86a4.66,4.66,0,0,0-.28-1.35,4.81,4.81,0,0,1-.29-1.41,5.42,5.42,0,0,1,.05-.66,2.35,2.35,0,0,1,1.46-.84C270.33,784.35,271.11,785.05,271.11,786.61Z"/><path class="cls-2" d="M298.06,809.46a3.35,3.35,0,0,1-1.67.79,2.25,2.25,0,0,1-1.05-.42v-6.5q0-18.52-3.3-18.52-1.95,0-3.4,5.76a34,34,0,0,0-1.13,7.8v6a5.48,5.48,0,0,0,.24,1.35A5.84,5.84,0,0,1,288,807a1.31,1.31,0,0,1-.57,1,1.71,1.71,0,0,1-1,.48c-.31,0-.66-.25-1-.75a2.31,2.31,0,0,1-.58-1.29V794.35a26.5,26.5,0,0,0-.57-4.86q-.74-3.72-1.77-3.72c-.39,0-1,.56-1.73,1.68q-3.92,5.76-3.91,14.16c0,.68.07,1.69.2,3s.21,2.33.21,3c0,1.2-.43,1.8-1.3,1.8a1.37,1.37,0,0,1-1.1-.6,10.73,10.73,0,0,1-.47-2.7c-.17-1.44-.26-2.42-.26-2.94V789q0-6.12,1.25-6.12a1.53,1.53,0,0,1,1.07.57,1.68,1.68,0,0,1,.55,1.17,22.52,22.52,0,0,1-.31,3.3c-.21,1.76-.33,2.86-.37,3.3l.26.3q1-2.58,2-5.16,1.41-3.3,3.34-3.3,2.72,0,4.7,6.72a13.49,13.49,0,0,0,1.31-3,15.57,15.57,0,0,1,1.41-3.24,2.9,2.9,0,0,1,2.45-1.44c.94,0,2,.72,3.13,2.16q3.19,3.91,3.19,14.13Z"/><path class="cls-2" d="M316.59,803.11c0,1.76-1,3.34-3.08,4.74a9.26,9.26,0,0,1-5.22,1.92q-7,0-7-10.2a36.75,36.75,0,0,1,1.41-9.66q1.89-6.72,4.81-6.72,2.5,0,5.48,2.91t3,5.79a9.13,9.13,0,0,1-2.61,6.48,8,8,0,0,1-5.9,2.76,3.81,3.81,0,0,1-1.34-.6,3.61,3.61,0,0,0-1.38-.6c-.45,0-.68.16-.68.48q0,6.9,4,6.9a5.49,5.49,0,0,0,3.76-1.56,13.58,13.58,0,0,0,2.3-2.82c.66-1,1.09-1.5,1.3-1.5Q316.59,801.43,316.59,803.11Zm-3.6-11a7.86,7.86,0,0,0-1-3.93,3.13,3.13,0,0,0-2.77-1.83q-2.08,0-3.39,3a12.81,12.81,0,0,0-1.1,5.22,4.44,4.44,0,0,0,1,2.91,3.08,3.08,0,0,0,2.48,1.17,4.18,4.18,0,0,0,3.56-2.1A7.71,7.71,0,0,0,313,792.07Z"/><rect class="cls-6" x="684" y="644" width="48" height="45" rx="11.81"/><rect class="cls-7" x="689" y="648" width="38" height="35.62" rx="7.75"/><rect class="cls-6" x="466" y="769" width="48" height="45" rx="11.81"/><rect class="cls-7" x="471" y="773" width="38" height="35.63" rx="7.75"/><rect class="cls-6" x="466" y="704" width="48" height="45" rx="11.81"/><rect class="cls-7" x="471" y="708" width="38" height="35.62" rx="7.75"/><rect class="cls-6" x="466" y="639" width="48" height="45" rx="11.81"/><rect class="cls-7" x="471" y="643" width="38" height="35.62" rx="7.75"/><rect class="cls-2" x="695.92" y="656.42" width="12" height="26.44" rx="6" transform="matrix(0.67, -0.74, 0.74, 0.67, -265.66, 739.68)"/><rect class="cls-2" x="696.93" y="657.68" width="42.8" height="12" rx="6" transform="translate(-255.85 749.88) rotate(-47.79)"/><rect class="cls-5" x="13.71" y="1408.06" width="551.95" height="405.29" rx="60.85"/><path class="cls-2" d="M184.42,1577.44q0,16.39-12.18,26.2-11.15,9-27.16,9-20.88,0-30.46-20.6-7.31-15.81-7.3-42.2a131,131,0,0,1,9.05-49.2Q128,1472,148.22,1472a15.51,15.51,0,0,1,5.22,1.6q10.09,4.59,17.4,20.8,7,15.19,7,28.8,0,24.39-8.53,24.4c-3.25,0-4.88-1.54-4.88-4.6,0-.54.79-2.47,2.35-5.8s2.35-6,2.35-8a86.13,86.13,0,0,0-4.71-28q-6.12-18-16.77-18-10.83,0-18.86,15a81.24,81.24,0,0,0-8.47,26.7,181.08,181.08,0,0,0-2.18,25.9q0,21,3.13,31,4.7,15.6,18.8,20.4a23.36,23.36,0,0,0,7.31,1.6,27.55,27.55,0,0,0,15.14-4.6,29.2,29.2,0,0,0,10.79-12.4q3.48-7.2,3.48-10c0-2.94-2-4.4-5.92-4.4q-12,0-19.14,3.9t-6.79,3.9q-5.74,0-5.74-10.6a4.74,4.74,0,0,1,2.26-4q2.26-1.61,12.71-3.6,9.92-2,13.57-2a16.25,16.25,0,0,1,11.84,4.8Q184.41,1569.64,184.42,1577.44Z"/><path class="cls-2" d="M276.67,1572.64c0,4.26-1.45,6.4-4.35,6.4a9.58,9.58,0,0,1-3.66-.8q0,10.2,4.35,22.8a5.63,5.63,0,0,1-2.17,4.2,7,7,0,0,1-4.44,1.6,10.2,10.2,0,0,1-4.7-1.4q-1.4-3.21-1.39-10,0-1.8.17-6.6v-6.6a14.17,14.17,0,0,0-.52-4.8,17.46,17.46,0,0,0-4.44.2,35.59,35.59,0,0,1-4.09.4q-7.49,0-23.5,2.4-18.27,2.79-21.06,5.6c-1,.93-2.15,5.73-3.3,14.4Q202.18,1611,202,1616a2.73,2.73,0,0,1-2.44,1.4q-2.26,0-5-2.6c-1.86-1.74-2.79-3.4-2.79-5a23.67,23.67,0,0,1,1.39-5.4c.93-2.8,1.45-4.54,1.57-5.2a298.55,298.55,0,0,1,11.31-49q23-75,35.51-75,13.4,0,20.71,39.2,2.61,13.8,6.09,52.8c.7.66,2.44,1.4,5.23,2.2C275.62,1570,276.67,1571,276.67,1572.64Zm-16.88-5.8q-4.37-35.21-5.57-42.6-5.75-33.6-12.19-33.4-7.14.39-17.93,30.8-6.09,19.2-12,38.4a58.17,58.17,0,0,0-2.26,7.8q-.69,4.8,2.44,4.8c.7,0,4.23-.67,10.62-2Q230.36,1569,259.79,1566.84Z"/><path class="cls-2" d="M389.11,1477.44a5.31,5.31,0,0,1-1.31,3.4c-.87,1.06-1.65,2.1-2.35,3.1s-1,3-1,6.1a51.6,51.6,0,0,1,0,6.6,793.92,793.92,0,0,0-4.35,80v19q.69,14.19,5.22,16v2a3,3,0,0,1-3,2.2q-11,0-13.05-24.6a114.68,114.68,0,0,1-.18-19l4.53-64.6q-6.44,27-12.85,54Q349,1604,337.67,1604q-5,0-10.42-7.4a41.43,41.43,0,0,1-6.59-12.4q-5.39-15.81-11.12-43.8-4.34-22.41-8.85-44.6l-1.05,3q-3.3,37-2.78,53l1.74,45.8q.34,7.2,4.18,7.8.17,5.4-8.36,5.4-7.83,0-7.83-33,0-15,1.39-44.7t1.4-44.7a18.6,18.6,0,0,0-.53-5,12.23,12.23,0,0,1-.52-2.2q0-7.8,13.92-7.8c1.75,0,3.83,1.4,6.27,4.2q.53,6.19,1.57,18.4,1.91,17.6,10.27,51.2,10.08,41.19,16.53,41.2,8.17,0,17.93-37.6,6.09-24.21,9.75-48,2.25-7.6,5.74-21.6,2.08-9,12-9a8.44,8.44,0,0,1,4.52,1.4A4.29,4.29,0,0,1,389.11,1477.44Z"/><path class="cls-2" d="M474.74,1602c-.58,1.46-1.28,2.2-2.09,2.2a9.72,9.72,0,0,1-2-.3,9.72,9.72,0,0,0-2-.3q-7.48,0-21.67,5.4t-21.67,5.4q-24.54,0-24.54-47.34,0-37.55,1.74-64.11l.35-6.39a24.88,24.88,0,0,0-.44-4.09,23.83,23.83,0,0,1-.43-3.5q0-4.79,5.74-5.39,6.43-.8,25.41-6.19,17.24-4.79,24.72-4.79a10.34,10.34,0,0,1,2.43.4,7.74,7.74,0,0,1,5.4,1.8q2.61,2,2.61,4.2,0,4-8.88,4-8,0-23.49,3.2-17.42,3.79-21.59,7.8-1.38,15.2-3.3,47.6a2.21,2.21,0,0,0,1.91,1q5.22,0,15.49-3.8t15.67-3.8a16.77,16.77,0,0,1,8.7,2.6l1.39,6q.35.79-4.52,2.8a9.54,9.54,0,0,0-6.27-2q-4.35,0-16.45,3.6t-16.44,6q-.7,4.39-.7,20.4,0,30.19,13.4,30.2,6.43,0,18.54-4.9t18.53-4.9Q471.44,1594.84,474.74,1602Z"/><path d="M200.43,1673.42q0,28.17-11,48.94-12.89,24.36-35.68,24.36a37.82,37.82,0,0,1-13.41-3q-29.07-10.59-29.06-59.92,0-28.75,11.14-51.73,13.22-27.55,36.37-27.56,20.19,0,31.85,23.77Q200.43,1648.06,200.43,1673.42Zm-9.75-1.79q0-44.33-25.69-54.31a12.59,12.59,0,0,0-4.86-1.2q-11.12,0-21.88,11.78-18.24,20-18.23,61.7a79.93,79.93,0,0,0,1.39,12q3,17.18,9.72,25.56,8,9.58,22.4,9.58,19.8,0,29.52-22.56Q190.68,1696.79,190.68,1671.63Z"/><path d="M287.63,1611.92q0,15.4-4.52,46a412.62,412.62,0,0,1-10.79,48q-10.45,37.61-18.8,37.6-7.49,0-11.84-2.6-8.7-5.4-16.36-49.8-1.74-10-8-58a158.13,158.13,0,0,0-3.31-15.8,5.44,5.44,0,0,0-1-1.4,3.65,3.65,0,0,1-1-2.2q0-2.4,3.14-4.5a10.22,10.22,0,0,1,5.39-2.1,7.2,7.2,0,0,1,5.4,2.7,8.89,8.89,0,0,1,2.43,6.1q0,4-.43,11.7t-.44,11.7q0,10.61,5.75,41.4,9,49.41,15.14,49.4,4,0,9.23-11,8.35-17,15.31-50.6,6.62-32.4,6.62-53.4,0-7.59-3.31-10.2c2.32-3.86,4.18-5.8,5.57-5.8,1.85,0,3.31,1.67,4.35,5A24.84,24.84,0,0,1,287.63,1611.92Z"/><path d="M372.4,1732.72c-.59,1.47-1.28,2.2-2.09,2.2a9.63,9.63,0,0,1-2-.3,9.7,9.7,0,0,0-2-.3q-7.49,0-21.67,5.4t-21.66,5.4q-24.56,0-24.55-47.33,0-37.55,1.74-64.11l.35-6.39a24.91,24.91,0,0,0-.43-4.1,24,24,0,0,1-.44-3.49q0-4.79,5.75-5.39,6.44-.8,25.41-6.19,17.24-4.8,24.71-4.8a11,11,0,0,1,2.44.4,7.86,7.86,0,0,1,5.4,1.8q2.61,2,2.61,4.2,0,4-8.88,4-8,0-23.5,3.2-17.4,3.81-21.58,7.8-1.39,15.21-3.31,47.6a2.21,2.21,0,0,0,1.92,1q5.22,0,15.49-3.8t15.66-3.8a16.93,16.93,0,0,1,8.71,2.6l1.39,6q.34.81-4.53,2.8a9.55,9.55,0,0,0-6.26-2q-4.35,0-16.45,3.6t-16.45,6q-.69,4.41-.7,20.4,0,30.21,13.41,30.2,6.44,0,18.53-4.9t18.54-4.9Q369.1,1725.52,372.4,1732.72Z"/><path d="M468.65,1740.12v1a3.25,3.25,0,0,1-3,2c-1.63,0-2.68-.33-3.14-1q-1.4-8.19-23.56-26.1t-30-17.9H399v12.4q0,2.61,1.26,12,1.07,10,1.79,11,3,5.4,3.05,5,0,4.61-4.53,4.6a8.46,8.46,0,0,1-7.66-4.2q-2.61-4.2-2.61-39.2,0-2.79-6.09-5c-4.06-1.46-6.09-3.2-6.09-5.2q0-4.39,11.14-8a145.69,145.69,0,0,0,1.56-19.2q.71-15,1.05-19.4.17-2.19,1.57-12a64.28,64.28,0,0,0,1-12.2c-.58-.4-2.12-.6-4.61-.6s-3.75-1.13-3.75-3.4q0-4.2,3.49-5.2,2.43-.8,5-1.6a13.5,13.5,0,0,1,2.27-4.4,7.89,7.89,0,0,1,2.78-.6c1.28,0,2.58.74,3.92,2.2s2.52,2.2,3.57,2.2a13.89,13.89,0,0,0,2.43-.3,14,14,0,0,1,2.44-.3q19.32,0,32.55,9.2,16.19,10.8,16.18,31.6,0,17.2-8.87,28-5.58,7-21.59,17a8.39,8.39,0,0,0-2.43,1q3.48,3.81,15.66,13t17.41,15Q469,1730.73,468.65,1740.12Zm-16.89-93.4q0-15.2-12-23.4-9.89-6.79-23.94-6.8a36.23,36.23,0,0,0-8.32.8l-2.26,4q-2.43,4.61-2.77,12.2-.36,11-.7,13-2.08,11.4-2.78,36.2,12.84,5.61,16,5.6a22.59,22.59,0,0,0,6.93-1.6,43.8,43.8,0,0,0,20.82-14.6A38.91,38.91,0,0,0,451.76,1646.72Z"/><rect class="cls-5" x="399.74" y="959.11" width="551.95" height="405.29" rx="60.85"/><path class="cls-2" d="M556.08,1162.08q-16,7-36.2,7-15,0-20.54-13.4-4-9.4-4-28.8,0-12.41,1.65-37t1.66-36.8c0-1.73-.12-4.27-.35-7.6s-.35-5.87-.35-7.6c0-1.33.06-2.73.17-4.2a6.15,6.15,0,0,1,5.22-2.6q6.11,0,6.1,16.4,0,14.2-2.27,42.6t-2.26,42.6q0,27,15.67,27,5.22,0,14.7-3.4t14.71-3.4a5,5,0,0,1,4.44,2.9A12.51,12.51,0,0,1,556.08,1162.08Z"/><path class="cls-2" d="M639.11,1158.08c-.59,1.47-1.28,2.2-2.09,2.2a9.63,9.63,0,0,1-2-.3,9.7,9.7,0,0,0-2-.3q-7.49,0-21.67,5.4t-21.67,5.4q-24.54,0-24.54-47.33,0-37.56,1.74-64.11l.35-6.39a25.94,25.94,0,0,0-.43-4.1,24.17,24.17,0,0,1-.44-3.49c0-3.2,1.92-5,5.74-5.4q6.45-.79,25.42-6.19,17.22-4.79,24.71-4.79a10.41,10.41,0,0,1,2.44.4,7.83,7.83,0,0,1,5.39,1.8q2.63,2,2.62,4.2,0,4-8.88,4-8,0-23.5,3.2-17.4,3.79-21.58,7.8-1.4,15.2-3.31,47.6a2.2,2.2,0,0,0,1.92,1q5.22,0,15.49-3.8t15.66-3.8a16.86,16.86,0,0,1,8.7,2.6l1.4,6c.23.53-1.28,1.47-4.53,2.8a9.55,9.55,0,0,0-6.26-2q-4.37,0-16.45,3.6t-16.45,6q-.69,4.39-.7,20.4,0,30.19,13.41,30.2,6.43,0,18.53-4.9t18.54-4.9Q635.79,1150.88,639.11,1158.08Z"/><path class="cls-2" d="M722,1037.28q0,15.4-4.52,46a413.53,413.53,0,0,1-10.79,48q-10.46,37.6-18.8,37.6-7.49,0-11.84-2.6-8.7-5.4-16.36-49.8-1.74-10-8-58a158.13,158.13,0,0,0-3.31-15.8,5.44,5.44,0,0,0-1-1.4,3.63,3.63,0,0,1-1-2.2q0-2.4,3.13-4.5a10.22,10.22,0,0,1,5.39-2.1,7.19,7.19,0,0,1,5.4,2.7,8.88,8.88,0,0,1,2.44,6.1q0,4-.44,11.7t-.43,11.7q0,10.6,5.74,41.4,9,49.39,15.14,49.4,4,0,9.23-11,8.36-17,15.31-50.6,6.61-32.4,6.62-53.4,0-7.61-3.31-10.2,3.48-5.8,5.57-5.8,2.79,0,4.35,5A24.84,24.84,0,0,1,722,1037.28Z"/><path class="cls-2" d="M806.72,1158.08c-.59,1.47-1.28,2.2-2.09,2.2a9.63,9.63,0,0,1-2-.3,9.7,9.7,0,0,0-2-.3q-7.49,0-21.66,5.4t-21.67,5.4q-24.56,0-24.55-47.33,0-37.56,1.74-64.11l.35-6.39a24.8,24.8,0,0,0-.43-4.1,24.17,24.17,0,0,1-.44-3.49q0-4.8,5.75-5.4,6.43-.79,25.41-6.19,17.24-4.79,24.71-4.79a10.41,10.41,0,0,1,2.44.4,7.86,7.86,0,0,1,5.4,1.8q2.61,2,2.61,4.2,0,4-8.88,4-8,0-23.5,3.2-17.4,3.79-21.58,7.8-1.4,15.2-3.31,47.6a2.21,2.21,0,0,0,1.92,1q5.22,0,15.49-3.8t15.66-3.8a16.93,16.93,0,0,1,8.71,2.6l1.39,6c.23.53-1.28,1.47-4.53,2.8a9.55,9.55,0,0,0-6.26-2q-4.35,0-16.45,3.6t-16.45,6q-.69,4.39-.7,20.4,0,30.19,13.41,30.2,6.43,0,18.53-4.9t18.54-4.9Q803.42,1150.88,806.72,1158.08Z"/><path class="cls-2" d="M874.77,1162.08q-16,7-36.2,7-15,0-20.54-13.4-4-9.4-4-28.8,0-12.41,1.65-37t1.65-36.8c0-1.73-.11-4.27-.34-7.6s-.35-5.87-.35-7.6c0-1.33.05-2.73.17-4.2a6.15,6.15,0,0,1,5.22-2.6q6.09,0,6.09,16.4,0,14.2-2.26,42.6t-2.26,42.6q0,27,15.66,27,5.24,0,14.71-3.4t14.71-3.4a5,5,0,0,1,4.44,2.9A12.51,12.51,0,0,1,874.77,1162.08Z"/><path d="M497.2,1259.84a17.21,17.21,0,0,1-.88,4.73,19.72,19.72,0,0,1-8.32,11,22.26,22.26,0,0,1-12.53,3.83q-11.46,0-17.23-10.8-4.9-8.89-4.9-22.84a81,81,0,0,1,3-22.5q3.42-12.37,10.18-19.13,5-5.06,10.08-5.06,7.55,0,11.26,8.33,2.94,6.52,2.94,16.08a55.7,55.7,0,0,1-1.27,10.92q-1.67,8.1-4.31,8.1c-1.37,0-2.35-.83-2.94-2.48.39-.3,1-.82,1.86-1.57q2.55-2.82,2.55-13.73a37.67,37.67,0,0,0-2.16-12.71c-1.82-5.25-4.34-7.88-7.53-7.88q-3.82,0-8,5.29a40.5,40.5,0,0,0-5.39,9.11q-5,11.92-5,29.37,0,11.58,3.52,18.45,4.41,8.55,13.71,8.55a15.32,15.32,0,0,0,9.3-3.1,19.79,19.79,0,0,0,6.46-8.27,31.89,31.89,0,0,1,1.67-4.72,2.26,2.26,0,0,1,2-1.46C496.55,1257.37,497.2,1258.19,497.2,1259.84Z"/><path d="M551.93,1239.09q0,15.84-6.17,27.52-7.25,13.71-20.07,13.71a21.32,21.32,0,0,1-7.54-1.69q-16.35-6-16.35-33.7a65.8,65.8,0,0,1,6.27-29.1q7.44-15.49,20.46-15.5,11.36,0,17.92,13.37A56.75,56.75,0,0,1,551.93,1239.09Zm-5.48-1q0-24.93-14.46-30.55a7.06,7.06,0,0,0-2.73-.68q-6.25,0-12.31,6.63-10.25,11.24-10.25,34.7a45.08,45.08,0,0,0,.78,6.74q1.66,9.67,5.47,14.38c3,3.59,7.19,5.39,12.6,5.39q11.13,0,16.6-12.69Q546.45,1252.24,546.45,1238.08Z"/><path d="M617.63,1202.35a3,3,0,0,1-.74,1.92q-.74.9-1.32,1.74a6.7,6.7,0,0,0-.59,3.43,25.54,25.54,0,0,1,0,3.71,446.87,446.87,0,0,0-2.44,45v10.69q.38,8,2.93,9V1279a1.71,1.71,0,0,1-1.66,1.23q-6.16,0-7.35-13.83a65.72,65.72,0,0,1-.09-10.69l2.54-36.34-7.23,30.38q-6.63,23.85-13,23.85-2.84,0-5.86-4.17a23.49,23.49,0,0,1-3.71-7,212.37,212.37,0,0,1-6.25-24.64q-2.45-12.6-5-25.09l-.59,1.69q-1.86,20.82-1.56,29.81l1,25.77q.19,4,2.35,4.38.09,3-4.7,3-4.41,0-4.41-18.56,0-8.44.78-25.15t.79-25.14a10.3,10.3,0,0,0-.3-2.81,7.51,7.51,0,0,1-.29-1.24q0-4.38,7.83-4.39c1,0,2.15.79,3.53,2.37.19,2.32.49,5.77.88,10.35q1.07,9.9,5.77,28.8,5.68,23.18,9.3,23.17,4.61,0,10.09-21.15,3.42-13.61,5.48-27,1.27-4.28,3.23-12.15,1.19-5.06,6.76-5.06a4.75,4.75,0,0,1,2.54.79A2.4,2.4,0,0,1,617.63,1202.35Z"/><path d="M666.87,1234.64q-4,28.58-21,27.45a23.93,23.93,0,0,1-15.57-7l-.68.56v4.61q-.11,6.64,1,9.79a23.36,23.36,0,0,0,1.08,2.3,9.19,9.19,0,0,1,1,2.42,4.13,4.13,0,0,1-.89,2.53,2.6,2.6,0,0,1-2.15,1.19,4.23,4.23,0,0,1-4.11-2.25,15.53,15.53,0,0,1-1-5.4c-.2-3.83-.29-7.69-.29-11.59,0-2.25.14-5.63.44-10.13s.42-7.93.39-10.29.11-5.85.44-10.46.49-8.05.49-10.3v-10.68a14,14,0,0,0-.35-2.48,14.71,14.71,0,0,1-.34-2.47c0-1.43.85-2.14,2.55-2.14a3.28,3.28,0,0,1,2.79,1.69,6.35,6.35,0,0,1,1.12,3.6,27,27,0,0,1-.44,4.16,28.36,28.36,0,0,0-.44,4.16v2.93q2.25-4.5,4.49-9,5.28-8.44,14-8.44,9.38,0,14.16,8.89,3.9,7.31,3.9,18.56A60.44,60.44,0,0,1,666.87,1234.64Zm-4.4-6.36a41.74,41.74,0,0,0-2.64-15.45q-3.42-8.67-10.05-8.68-8.6,0-14.55,13.17a53.66,53.66,0,0,0-5.07,22.16v6a3.45,3.45,0,0,1,1.47-.56c.45,0,.86.38,1.22,1.13a5,5,0,0,0,.93,1.48c-.07.23-.16.3-.29.23s-.2,0-.2.22a5.56,5.56,0,0,0,.78,2,12.54,12.54,0,0,0,11.71,6.81q7.41,0,11.12-5.63,2.83-4.17,4.49-13.31A63.69,63.69,0,0,0,662.47,1228.28Z"/><path d="M707.6,1274.69a50.27,50.27,0,0,1-20.36,3.94q-8.43,0-11.56-7.54-2.25-5.28-2.25-16.2,0-7,.93-20.81t.93-20.7c0-1-.06-2.4-.2-4.28s-.19-3.3-.19-4.27c0-.75,0-1.54.1-2.36a3.43,3.43,0,0,1,2.93-1.47q3.44,0,3.43,9.23,0,8-1.27,24t-1.27,24q0,15.19,8.81,15.19a26.58,26.58,0,0,0,8.27-1.91,26.52,26.52,0,0,1,8.27-1.91,2.79,2.79,0,0,1,2.5,1.63A7,7,0,0,1,707.6,1274.69Z"/><path d="M754.3,1272.44c-.33.83-.72,1.24-1.18,1.24a5.63,5.63,0,0,1-1.12-.17,5.7,5.7,0,0,0-1.13-.17q-4.2,0-12.19,3t-12.18,3q-13.82,0-13.81-26.63,0-21.12,1-36.06l.2-3.6a14.53,14.53,0,0,0-.25-2.3,13.66,13.66,0,0,1-.24-2c0-1.8,1.07-2.81,3.23-3a120.79,120.79,0,0,0,14.29-3.48q9.69-2.7,13.9-2.7a5.93,5.93,0,0,1,1.37.23,4.37,4.37,0,0,1,3,1,3.09,3.09,0,0,1,1.47,2.36q0,2.25-5,2.25a71.33,71.33,0,0,0-13.21,1.8q-9.79,2.15-12.14,4.39-.8,8.55-1.86,26.78a1.25,1.25,0,0,0,1.07.56q2.94,0,8.72-2.14c3.85-1.42,6.78-2.14,8.81-2.14a9.42,9.42,0,0,1,4.89,1.47l.79,3.37c.13.3-.72.83-2.55,1.58a5.37,5.37,0,0,0-3.52-1.13c-1.64,0-4.72.68-9.26,2a54.08,54.08,0,0,0-9.25,3.37,99.35,99.35,0,0,0-.39,11.48q0,17,7.54,17,3.61,0,10.43-2.75t10.42-2.76Q752.44,1268.39,754.3,1272.44Z"/><path d="M800.41,1207c0,1.87-.56,2.81-1.67,2.81a11.11,11.11,0,0,0-2.16-1.24q-1.49-.9-7.57-.9h-4.43c-1.57,0-2.56.28-3,.84a10,10,0,0,0-.93,3.83q-.35,3-1.13,8.83a340.52,340.52,0,0,0-1.87,36.79q0,14.5,2.74,19.57c0,1-.33,1.58-1,1.58q-5.16,0-6.54-6.75-.6-2.6-.6-11.25,0-12.6.49-19,.11-3,1.08-14.18.78-8.88.78-14.17c0-4.28,0-5.33.1-3.15-.06-1.13-.49-1.69-1.27-1.69a25.73,25.73,0,0,0-5.24.79,26.28,26.28,0,0,1-5.24.78,4.87,4.87,0,0,1-5.09-3.6q1-1.9,14.59-3.82a144.4,144.4,0,0,1,16.55-1.46Q800.42,1201.57,800.41,1207Z"/><path d="M848.58,1272.44c-.33.83-.72,1.24-1.17,1.24a5.6,5.6,0,0,1-1.13-.17,5.7,5.7,0,0,0-1.13-.17q-4.2,0-12.19,3t-12.18,3q-13.81,0-13.81-26.63,0-21.12,1-36.06l.2-3.6a14.53,14.53,0,0,0-.25-2.3,13.66,13.66,0,0,1-.24-2c0-1.8,1.07-2.81,3.23-3a120.79,120.79,0,0,0,14.29-3.48q9.69-2.7,13.9-2.7a6.08,6.08,0,0,1,1.38.23,4.36,4.36,0,0,1,3,1,3.09,3.09,0,0,1,1.47,2.36c0,1.5-1.67,2.25-5,2.25a71.31,71.31,0,0,0-13.22,1.8q-9.79,2.15-12.14,4.39-.79,8.55-1.86,26.78a1.25,1.25,0,0,0,1.08.56c1.95,0,4.86-.71,8.71-2.14s6.79-2.14,8.81-2.14a9.48,9.48,0,0,1,4.9,1.47l.78,3.37c.13.3-.72.83-2.55,1.58A5.37,5.37,0,0,0,831,1240c-1.63,0-4.72.68-9.25,2a53.94,53.94,0,0,0-9.26,3.37,99.35,99.35,0,0,0-.39,11.48q0,17,7.54,17,3.61,0,10.43-2.75t10.43-2.76Q846.71,1268.39,848.58,1272.44Z"/><path d="M896.65,1230a79,79,0,0,1-6.56,32.06q-8.13,18.23-21.54,18.23a13.48,13.48,0,0,1-9.2-3.94c-1.11,1.65-1.83,2.47-2.15,2.47a3.67,3.67,0,0,1-2.16-.78q-1.37-4.39-1.37-16.88,0-9.45.29-28.07t.3-28.18v-1.8c0-1.65.78-2.47,2.35-2.47a4.24,4.24,0,0,1,2.54,1.06,3,3,0,0,1,1.38,2.31,10.39,10.39,0,0,1-.69,3.32,10.2,10.2,0,0,0-.69,3.21V1215q1.17-.78,3.42-5.51a24.08,24.08,0,0,1,4.59-7,12.59,12.59,0,0,1,9.28-3.6q10.54,0,15.82,10Q896.66,1217.08,896.65,1230Zm-5.77-.56q0-10.24-2.55-17-3.44-9.45-11.16-9.45-5.49,0-10.87,7.76a41.28,41.28,0,0,0-6.17,13.61,59.86,59.86,0,0,0-1.56,13.95v23.29a16.51,16.51,0,0,0,2.44,9.11q2.75,4.27,7.25,4.28,7.83,0,14-9.45a47.07,47.07,0,0,0,7-17.78A105.76,105.76,0,0,0,890.88,1229.47Z"/><ellipse class="cls-1" cx="467.5" cy="118" rx="66.5" ry="65"/><path class="cls-2" d="M439.3,131.3l1.3.31-.19,1.15v.84l.32,1,.52,1.22.58,1,.78.61,1.3.77,1.43.38,1.3.23,1.62.15H450l1.55-.23,1.43-.46,1.24-.76,1-.92,1.1-1,.78-1.3.45-1.38.39-1.61.07-1.45.13-1.37v-1.23l-.13-1.22-.33-1.07-.52-1.07-.78-.77-1-.76-.91-.61-1.56-.39-1.36-.15-1.56-.07h-1.75l-1.43.22-1.3.54-1.3.84-.84,1.07-.26.38.06.23-.26,1.15-.45.92-.2.38-.19,1.07-.13,1.45-1.3-.15V129l-.58.69-1.17.92-.78.45v1.23l.13.92.52,1,.58,1.3.65,1.22.84,1.23,1,.91,1.3.77,1.23.38,1.62.38,1.69.23,1.63.08,1.75.15h1.62l1.37-.69,1.43-.76,1.1-1.22,1-1.3.91-1.61.65-1.61.39-1.52.19-1.38.07-1.61v-1.6l-.26-1.68-.33-1.46-.32-1.37-.59-1.15-.71-1.07-.59-1-.71-.85-.78-.76-1-.69-1.37-.46L452,116.7l-1.69-.15H447l-1.49.53-1.23,1-1.11.91-.45.92-.33.92v.92h-1.3V121l-.38.23-.13.54-.46-.16-.45.31-1.11.46-1.17.53H436l-.84-.07-1.3-.61.32-1-1,.15-.13-1.45v-1.14l.13-1.84.33-2,.39-2,.58-1.91.59-1.76.91-2,.84-1.76,1.17-2.37,1.23-1.91,1-1.53.71-.84.33-.39.19-.23.65-.76.39-.31.13-.15,1.3-1.07,1.56-1.15,1.43-.61,1.17-.46,1.43-.68,1.36-.16,1.3-.23h2.4l1.3.46.78.46,1.17.69.84.92.59,1,.45.54.52.76.26,1,.32,1.61v1h-.32l.26.54.52,1.53.39,1.53.06,1.22-1.29.15-.07-1.07-.26-1.37-.52-1.38-.52-1.07L458.2,100l-.65-1-.91-.69-1-.76-1-.54-1-.61-1.17-.38-.78-.31h-2.4l-1,.15-1.3.39-1,.3-1.1.54-1,.69-.72.61-.91.92-.52.61-1,1.37L440,103l-.91,1.83-.71,2.06-.72,1.76-.71,2.22-.52,2.06-.32,2.22v3.29l.06,1.15v.68l.26,1.07h.71l.33-.15.06-1h-.77v-4l.06-1.61.32-2,.59-2.14.58-1.83.59-1.69.91-2,1-1.38,1-1.53,1.3-1.53,1.3-.92,1-.84,1.16-.68,1.3-.54,1.5-.38,1.36-.23h1.17l1.23.3.91.69.91.84.91,1,.71,1.07.91,1,.78.92.65,1.53.26.92-1,.38.2.61.32,1.38-1.3.3-.19-1.22-.46-1.07-.65-.84-.38-.69-1.3-1-.78-.46-.85-.08H452l-1.17.23-1.23.23-1.11.38-1.23.77-1.24.84-1,.76-1.11.92-1,1.15-.91,1.37-1,1.53-.71,1.76-.65,1.53-.46,1.6-.26,1.38-.13,1.22v2.53l.33-.16.45-.3v-.16l-.26-.15.65-1.6,1.1-1.61,1.24-1.38,1.69-1.07,1.69-.91,1.94-.54h1l.59-.15h3.18l1.49.23,1.3.53.2.08,1.16.53,1.43.62,1.37.68,1.3.92,1,.92.84,1.15.85,1.22.84,1.68.52,1.61.59,1.76v4l-.39,2.14-.59,2.07-.65,2-1.17,2.3L461,139l-1.43,1.75-1.69,1.38L456,143.23l-2.08,1.3-2.08.84-1.94.23h-2.08l-1.82-.15-1.88-.54-1.5-.91-1.3-1.07L440,141.7l-1-1.22-1-1.38-.78-1.37-.77-1.38-.59-1.45-.06-1.3h.13l-.26-.84,1.23-.46v-.69l-.65.15h-1l-1-.46.39-1.37.85.3h.58l1.1-.15,1.11-.84,1-.76.84-.92.78-1-1,.69-1.3.61-1.17.54h-1.36l-1.63-.15-.84-.23.26-1.53.84.23,1.37.15h1.1l.91-.38,1.17-.61,1-.69.65-.46.45-.54.2.23.06-.23.13-.3-.06-.31.32-.07.33-.62,1.1-1.37,1.56-1,1.56-.68,1.56-.23h1.88l1.69.07,1.49.16,1.69.53,1.17.61,1.1.92,1,1.07.65,1.38.46,1.37.13,1.38v1.53l-.13,1.37-.07,1.61-.52,1.76-.45,1.68-1,1.61-1.24,1.14-1.16.92-1.37.92-1.69.61-1.68.23h-1.89l-1.75-.15-1.43-.23-1.56-.54L442,138.8l-1-.92-.84-1.3-.52-1.38-.45-1.3v-1.3Zm-5.71-5.81V124h2.73l.84-.07,1.23-.31,1-.76.45-.54.91,1.07-.58.69-1.24.92-1.62.46-1,.07h-2.73Zm1.17-8.71-.33.3-.13,1.69v1l.07,1.07.58.23-.13-.46v-1l-.06-1.15Zm3.37-2.37.33-1.07.65-1.53.84-1.91,1-1.69,1-1.52,1.1-1.3,1.11-.92,1.17-.92,1.23-.84,1.36-.77,1.37-.53,1.23-.23,1.3-.23h.84L454,101l1,.61,1.55,1.3.52.84.46.53-.33-.68-.65-.77-.9-1L455,100.8l-.78-.84-.91-.84-.65-.54-.84-.15h-.91l-1.23.23-1.37.38-1.17.38-1,.69-1,.69-1.17.92-1.17,1.37-.91,1.38-1,1.37-.78,1.69-.59,1.68-.58,1.68-.46,2Zm13.57,28h-.58l-1.88-.15-1.63-.08-1.82-.23-1.62-.38-1.49-.54-1.43-.91-.71-.62.51.77.91,1.07.85.69,1.1.53,1.3.31,1.56.15h1.75l1.69-.23Zm-8.37-25.46-1,.76-.78,1-.59,1.22V120l.2.46.39-1.3.71-1.23ZM447,115h3.38l2,.15,1.36.38,1.5.62,1.23.84.91.91.84,1,.59,1,.71,1.07.72,1.46.45,1.52.32,1.61.26,1.83v1.76l-.06,1.76-.2,1.53-.51,1.84-.65,1.75-1,1.76-1.17,1.46-.59.68.78-.61,1-1.37,1-1.07.71-1.53.65-1.53.39-1.91L462,130l.07-1.52.13-1.69v-1.6l-.33-1.76-.52-1.68-.58-1.53-.78-1.07-.78-1.23-.91-.91-1-.77-1.17-.69-1.16-.68h-.13l-1.56-.31-1.89-.23h-2.53l-.78.23Zm12.28-15.9-.07-.16-.13-.69-.39-.45-.45-.69-.59-.84-.58-.77L456,95l-.65-.46-.91-.31h-2.14l-.26.08.91.23,1.3.53,1,.62,1.1.53,1.11.92,1,.84Zm2.92,35.62.32-.61.65-1.83.46-2.07.39-1.83v-3.52l-.46-1.45-.52-1.61-.71-1.37-.2-.23.39.92.65,1.83.33,2.06v1.76l-.13,1.84-.07,1.68-.45,2.06-.52,1.92Z"/><path class="cls-2" d="M473.46,126.41h1.29v2.75l.13,1.91.52,2.07.65,2.22.91,2.29,1,2.06,1.17,1.69,1.36,1.53,1.37,1,1.75.84,1.88.61,1.89.23h1.95l1.88-.23,1.69-.61,1.88-1.22,1.82-1.84.26-.3-1.43,1-1.88,1-1.95.77-2,.38h-3.83l-1.94-.92-1.56-1.07-1.63-1.68-1-1.45-1.23-2.3-.78-2.29-.65-2.29-.52-2.37-.19-1.91.06-1.92h1.3l-.06,1.92.19,1.6.52,2.22.52,2.29.78,2,1.1,2.14.91,1.3,1.5,1.53,1.3.92,1.68.76h3.45l1.88-.38,1.69-.61,1.75-1,1.88-1.3,1.63-1.52,1.55-1.92.85-1.68.19-.46.59-1.83.39-1.84.32-1.53.2-1.14.06-.92.13-1v-.54l-.13-.23-.58-.08-.59-.07-.06.46-.07,1.07-.19,1.14-.13,1.46-.59,1.45-.58,1.53-1.23,2.29-1.37,2.6-1.95,2.14-2.2,1.76-2.54.69h-2l-1.69-.23-1.88-.84-1.49-.77-1.3-1.3L480.92,137,480,135l-.58-2.06-.52-2.29-.39-2-.2-1.61v-1.14l-.19-1.15v-.31l-.26.16-1.11.23-1.23.38-.91.07h-.84l-1,.16-.13-1.53,1-.16h1l.65-.07,1.23-.38,1-.23.91-.39,1.36-.3,1-.31.26,1.53-1,.31-.65.15.07.54.19,1.14.06.23.46,1.61.52,1.83.84,1.53.91,1.84.72,1.37,1,1.3,1,1.15,1.17.84.84.54.85.38h.71l1-.15,1.17-.77,1.36-1.22,1.17-1.3,1-1.38.78-1.3.84-1.3.65-1.45.59-1.84.45-1.68.33-1.22h-.39V123.2h.65v-.15l.13-.54h-.2l-.71-.23.39-1.53.71.23.59.23.32.08.52.23h3.76v1.53H500l-.33-.08v.23h.07l1.1.23h.13l1.11.08,1.17.15,1,.07h1.43l.65-.45.65,1.37-.91.61h-.91l-.78,1.15v1.38l-.07,1.3-.52,1.53-.51,1.75-1,2.3-.32.69-.52,1.14-.85,1.91-1.29,2.07-1.69,2.29-1.95,2-2.14,1.38-1.95.76-2.14.23h-1.95l-2.15-.23-2-.76-1.88-.84-1.63-1.15-1.49-1.68-1.3-1.84-1.17-2.22-.91-2.44-.77-2.37-.52-2.22-.13-2.22v-2.75Zm1-8.26-1.3.31-.13-1v-.92l-.07-1.23v-4.51l.26-2.06.46-1.91.52-1.76.71-1.76.65-2,1.23-2.14L478,97.28l1.17-2,1.3-1.45,1.36-1.22,1.69-1.15,1.56-.69,1.62-.69,1.43-.38,1.43-.23h1.49l1.56.38,1.3.62,1.3,1.22,1,1.53,1,1.91,1,1.91,1,1.91,1,2.3.59,2,.52,2.53.19,1.76.39,1.14.39,1.76.33,1.61v3.51l-.13.62h.13l.06.3.65-.23,1.1-.38.72-.23.39,1.53-.72.23-1.1.38-1.43.38h-.19l-.07.62-.32.84H502l1.5-.23.64-.31.52,1.38-.78.46-1.75.23h-.52v.15l-1.3-.15v-.08l-.65-.08-1.16-.07-1-.31.39-1.53.85.31,1,.07.65.08v-.38l-.84-.08v-.23l-.26.15h-2v-1.52h1.17l.06-.46v-1.07l-.06-.69-.2-1.07-.19-1.07-.33-1.38-.32-1.45-.26-1.15-.59-1.76-.58-1.3-.52-1.45-.59-1.22-.64-1.15-.65-1.07-.72-.84-.52-.84-.71-.54-.52-.3h-3.05l-.72.38-.84.46-.91.69-.91.91-.78.77-.84,1.15-.59,1.07-.71,1.22-.85,1.3-.65,1.37-.58,1.69-.32,1.3-.2,1.3-.32,1.45-.13.84v.92l-.07,1.37h-.06l.39.92-.85.46h-1.75l-1-.08-1-.23Zm-1.11,4.67.26-1.53,1,.23h.58l1.11-.16.71-.3.91-.31.65-.38.52,1.38-.78.38-.91.31-.71.45-1.5.16h-.71Zm.2-2.22.26-1.53.77.15H476l1.1-.23.72-.3,1-.61.77-.31.39,1.38-.64.3-1,.61-.85.46-1.36.23H474.5Zm3.37-5.12-1,.92-.13-.23H474.5v-2.45l.19-1.68.71-2.22.46-1.76.71-2,.85-2.14.78-1.91,1-1.76,1-1.76.91-1.68,1.17-1.6,1.1-1.3,1.36-1.3.39-.31-1.1.54-1.43,1-1.23,1.22-1.17,1.3L479,98.2l-1.17,1.91-1.1,2-.65,1.83-.72,1.76L475,107.3l-.45,1.76L474.3,111v4.35l.07,1,1.16.3.85.08h1l.07-1.22v-1.07l.13-1,.32-1.45.2-1.3.45-1.45.59-1.84.77-1.53.85-1.45.71-1.22.59-1.07,1-1.3.91-.92.91-.92,1-.84,1-.46,1-.53h3.57l.91.46,1,.84.65.84.71,1,.65,1.07.78,1.3.59,1.38.52,1.45.58,1.3.59,1.91.39,1.15.32,1.45.33,1.53.19-.38-.19-1.45-.33-1.84-.45-1.68-.46-1.61-.84-1.45-.72-1.76-.78-1.76-.58-1.07-.91-1.14-.78-.77-.84-.69-1-.68-.71-.16-.85-.07h-.77l-.91.07-.78.39-.72.38-1,.69-1.24,1.07-1.23,1.22-1.23,1.53-1,1.45-1,1.38-.91,1.45-.71,1.68-.72,1.61-.71,1.83-.26,1.3-.2,1.38-.06,1.38Zm23.38-7.57-.2-.61-.52-1.69-.84-2.06-.78-1.68-.84-1.68-.91-1.61-1-1.38-1-1.3-1-1.45-1-1-1-.61-1-.16-1.1-.15h-1l-.65.15-.71.54-1.24.61L484.3,95l-1.1,1.3-1,1.45-.91,1.68-1,1.76-.84,1.61-.72,1.68.52-.92,1-1.53,1.17-1.45L482.61,99,484,97.66l1.23-1.07,1.1-.84.85-.38,1-.54,1.17-.07h.77l1,.07,1.1.31,1.11.84,1,.69.91.92,1,1.3.71,1.22.78,1.91.72,1.61.84,1.6.45,1.76.59,1.68v-.76Zm-19.16,25.61-.52-1.07.46,1.91.84,1.76,1,1.22,1,1.15,1.36.61,1.62.69,1.56.23h1.75l2.15-.54,1.95-1.6,1.68-1.84,1.24-2.44,1.23-2.3.59-1.37.45-1.3.13-1.3.19-1,.07-1.07.06-.45-.45-.08h-.19v.3l-.33,1.38-.58,1.68-.59,2-.78,1.61-.84,1.45-.78,1.3L494.3,136l-1.3,1.45-1.36,1.22-1.56,1.07-1.3.16h-1.1l-1.11-.54-1-.53-1.3-1-1.17-1.3-1.1-1.45ZM496.7,96.9l-.45-1-1-1.75-.91-1.38-1-.92-1-.46-1.3-.38h-1.23l-.32.08.84.07,1.23.31,1.3.76,1.3,1.15,1,1.45,1,1.3Zm24.48,68.2h1.3v1.53h-1.3Z"/><ellipse class="cls-1" cx="384.5" cy="287" rx="66.5" ry="65"/><ellipse class="cls-1" cx="663" cy="135.44" rx="56" ry="52.44"/><circle cx="635.53" cy="112.81" r="6.78"/><rect x="646.82" y="106.03" width="51.2" height="13.55" rx="6.78"/><circle cx="635.53" cy="136.9" r="6.78"/><rect x="646.82" y="130.13" width="51.2" height="13.55" rx="6.78"/><circle cx="635.53" cy="161" r="6.78"/><rect x="646.82" y="154.22" width="51.2" height="13.55" rx="6.78"/><rect class="cls-1" x="679" y="293" width="295" height="197.11" rx="98.55"/><rect class="cls-5" x="694.91" y="321" width="259.09" height="139.46" rx="65.52"/><path d="M752.35,365.76l-.49-1.26.43-.21-.06-.07-.67-.35-.55-.42-.67-.49-.61-.49.73-1.12.49.49.67.35.55.42.67.49.42.28.25-.07-.06-.21-.31-.84-.61-1.19,1-.7.73,1.19.3,1,.06.14.19-.07,1.34-.63,1.4-.56,1.52-.7,1.58-.35,1.77-.35,1.46-.07h1.83l1.58.07,1.77.35,1.83.7,2.07,1.19,1.77,1.33,1.64,1.47,1.77,1.61,1.4,1.54,1.22,1.89.61,1.61.55,1.89.18,1.61v1.89l-.18,2-.67,1.4-1,1.47L779,383.26l-1.83,1.54-1.88,1.47-2.26,1.26-2.44,1.12-2.37.56-2.68.14-2.8.07h-4.33l-1.83.35h-1.82l-.19.21-.54.56.91-.14.18,1.75.18,1.82.43,2.31.37,2.73.48,2.73.19,2.1.36,2.1.12,1.4.19,1.05.12.63.36.7-1.09.7-.37-.84-.24-.91-.18-1.19-.13-1.4-.36-2.1-.18-2-.49-2.73v.21l.24,2.38.18,2.52.13,2.1.18,1.61.18,1.47.12.77-1.21.28-.13-.77-.18-1.61-.18-1.61-.12-2.1-.19-2.52-.24-2.38-.24-2.45L753.2,395l-.12-1.89-.06-1.68-.91.49-.43.14.79-.07.12,2.38.31,2.1.18,2.38.06,2.52.12,2.52.12,2.52.07,2v1.4l.12,1,.06.77-1.22.14-.06-.77-.12-1v-1.54l-.06-2L752,404l-.12-2.66-.06-2.38-.18-2.38-.3-2.1-.13-2.31-.18.07v.14l.12,2.17v2.52l.06,3.15v5.39l-.06,2.1L751,409.3l-.24,1.12-.13.77-1.22-.28.13-.77.24-1.12.24-1.47.06-2V400.2l-.06-3.15v-2.52l-.12-2v-.14h-.24l-.86-.07.13-1.4.73.07H750l.92-.14.73-.21,1.09-.56.55-.56v-.28l-.12-.07-.55-.42-.18.07h-3.84v-1.4h3.72l.3-.07.12-.21.13.14.42-.14,1.28-.77.79-.49.86-.84.24-.21v-1l-.55.35-.79.63V386h-1.22v-.42L753,386l-1.28.35H750.1l-.74-.07.13-1.4.61.07h1.46l1-.21.73-.42H753l-.12-.91H752l-1.15-.21h-.12l.12.56-1.22.28-.12-1.12-.73-.35.48-1.26.13.07-.07-.84L749.3,378l-.12-2.66L749,372.9v-4.27h1.1l-1.16-.07-.67-.21.36-1.4.55.21,1,.07.55.14-.92-.56-.85-.56-.73-.49.61-1.26.73.49.85.56.73.49,1,.14.73.21.73.07v.21l.37-.28-.25-.63.18-.07-.54-.49-.37.21Zm-1.77,3-.36-.14v4.27l.18,2.31.12,2.8.06,2.52.06,1.26H751l.61.14-.06-.56-.06-1.4-.12-2.24-.13-2.24-.18-2.31-.18-2-.18-1.75Zm2,8.82.12,2.17v-2.52l-.12-2.59V368.7l-.18.07h-.55l.06.56.19,1.75.18,2,.18,2.31Zm1.34,2.17.19-2.94.18-2.59.3-2.45.37-2.1.24-2,.12-.7-.12-.28-.42.14v-.07h-.06l.3.56-.91.63-.25.14-.06.7v5.81l.12,2.59Zm.67,8.19.13-.14-.25.14Zm2.07-21.63-.24,1.68-.24,2-.37,2.1-.3,2.31-.19,2.59-.18,3-.06,1.61.61-.49.73,1.12-.49.42.49.84h1.34l1.28-.14,1.65-.21,2.19-.14,2-.42,2.07-.7,2-1,1.83-1.33,1.52-1.61.85-1.4.25-1.47v-1.26l-.25-1-.48-1.12-.49-.84-1.1-1.05-1.28-.91-1.4-.91-1.46-.56L765.2,367l-1.4-.7-1.52-.28-1.77-.21h-2.43l-1.34.49Zm6.28-2.59h-2.13l-1.83.21-1.83.21-1.64.35.12.28.3-.07,1-.21.85-.07,1.53-.49,1.82-.07Zm1.58,1.4,1,.49,1.7.42,1.59.7,1.52.91,1.4,1.05,1.22,1.19.73,1.12.49,1.26.36,1.4v1.54l-.36,1.89-1,1.82-1.77,1.75-2,1.47-2.26,1-2.19.84-2.07.42-2.19.14-1.65.21-1.4.14h-.36l.36.56-.85.7-.55.56.37.35-.43.77H757l1.71-.35L761,387l2.5-.42,2.25-.42,2.32-.49,2.13-.42,1.46-1.05,1.65-1.12,1.27-1.47,1.47-1.47.73-1.19.61-1.4.24-1.54-.06-1.26-.24-1.26-.55-1.26-.79-1.12-.92-1.19-1.28-1.12-1.28-.91-1.46-1-1.52-.63-1.71-.49-1.7-.56-1.46-.14Zm12.92,2.73-.18-.21-1.65-1.47L774,364.71l-1.65-1.19-2-1.19-1.58-.56-1.65-.35-1.46-.07h-1.83l-1.34.07-1.64.35-1.46.35-1.34.49.79-.07,2-.21H765l1.89.42,1.83.7,2.07.49,2,1,1.95.84,1.58,1.19Zm-12.79-4.13h0Zm2.8,23.52.79-.07,1.34-.35-1.28.28Zm3.65-1,.92-.49,1.7-1.12.31-.42-1.77,1.26Zm7.62-9.17.24-1v-1.89l-.3-1.33-.19-1.47-.6-1.12-1-1.12-1.28-1.12L774.16,367l-1.77-.84.73.49,1.4,1.05,1.4,1.26,1,1.19.92,1.4.54,1.54.37,1.4.06,1.68Zm-3.11,7.21.85-.63,1.83-1.54,1-1.12.91-1.19.43-1.12.18-1.75v-1.61l-.18-1.47-.43-1.61-.61-1.47-.55-.84.49.91.3,1.75.31,1.47v2.31l-.55,1.89-1.1,2.1-1.21,2-1.53,1.75Z"/><path d="M798.89,410.7l-1.1-.56.43-1.26.3-.77.25-.7.06-.63V405l-.24.7-.37,1.26-.61,1.05-.61,1.19-.79.91-1.46.77H794v-1.4h.54l1-.49.55-.63.48-1.05.61-1-.73,1-.85.84-.79.63-.92.63-.73.21-.85.21-.24-1.4.85-.21.49-.07.79-.49.67-.63-1.1-.14.06-.7h-1v-1.4h.73l-.18-1.75-.19-3-.3-3.64-.12-3.85-.25-4.13-.18-4.62-.3-4.69-.19-4.76-.12-4.06-.06-3.57v-4.76h1.22v4.76l.06,3.57.12,4.06.18,4.62.31,4.69.18,4.62.12,1.89V375.07l.19-4.34.18-3.43v-4.62l-.12-.63,1.22-.28.12.77v4.76l-.18,3.57-.19,4.2v8.05l.19-3.29.36-5,.49-4.41.12-3.5.24-2.73v-2h1.22v2l-.24,2.87-.12,3.5-.49,4.41-.37,5-.3,5.46-.18,5.18-.19,4.62-.18,3.5-.12,3-.06,2.24-.06.49.42-.42.13-1.19.12-2.1v-2.31l.18-3,.24-3.08.43-3.36.37-4.27.36-4.48.37-4.41.42-3.92.25-3.71.18-3.36.24-2v-1.33h1.22V363l-.24,2-.18,3.36-.25,3.71L799.2,376l-.37,4.41-.37,4.48-.36,4.27-.43,3.36-.24,3.08-.18,2.87v2.31l-.07,1.68.8.56v-.07l.12-.77.73.14v-1.12h1.22v1.26h.49l1.27.14h3.42l1.76-.21,2-.14,1.89-.07h1.52l1.47-.21.12,1.4-1.46.21h-1.65l-1.89.07-1.89.14-1.76.21h-3.54l-1.27-.14h-.49v2.31l.91.07,1.52.28,1.71.21,1.95.14,2,.07h6.21l1.65-.21,1.22-.28.24,1.4-1.22.28-1.76.21h-4.76l1.4.14,1.83.14,1.65.07h2.56v1.4h-.06l.12.42-1,.49-1.34.35-1.77.07-1.58-.07-1.71-.14-1.82-.07-1.65-.28-1.58-.07-1.65-.21-1.34-.14-1.15-.21-.8-.14h-.67Zm-3-5-.13.07-.79.28-.06.77.61-.56Zm14,4.06,1.09.07-2.07-.21-2-.21-2-.07-1.58-.28-1.65-.28-1.21-.42-.73-.28-.25.56h.31l.91.14,1,.21,1.34.14,1.64.21,1.58.07,1.65.28Zm-8.59-3.85.12-1.4,1,.14,1,.21,1.77.21h3.71l2.13-.21,2.14-.42,1.7-.28.12,1.4-1.58.28-2.26.42-2.25.21H805l-1.76-.21-1.1-.21Z"/><path d="M828.62,397.54l1.22.28-.13.56.19-.7.24-.84.18-1,.92.21-.37-.28-.61-.63-.79-1.54-.06-.84,1.22-.14.06.56.55,1.12.36.35.73.63.8.14h.12l.3-.63.43.28V395l.55-.91.06-.14h-.43l-.91-.07-.73-.42-.79-.49-.61-.63-.55-.63-.37-.63,1-.84.36.63.43.49.49.49.54.35.61.28.55.07h.73l-.73-.42-.91-.49-.79-.84-.73-.91-.37-1.33,1.1-.42.36,1.05.49.63.67.7.67.35.12.07.24-.21.31-.63.79-1,.55-1.12.85-1.4,1-1.54,1-1.54.92-1.26.79-1.4.55-1.12.79-1.12.55-.77.61-1.05,1,.84-.61,1.05-.55.77-.79,1.12-.42,1-.92,1.54-.91,1.26-1,1.54-1,1.54-.86,1.26-.54,1.26-.8,1-.12.21,1.53.07,1.34.14,1.76.21h9l.18-1,.55.14h.06l-.37-.63-1.15.42-.37-1.26-.37-1-.36-1.05-.49-1.61-.67-2.1-.73-2.59-.67-2.8-.85-2.45-.67-2.66-.67-2.52-.67-2.45-.67-1.89-.37-1.4-.18-1,1.22-.28.18,1,.24,1.26.67,1.75.8,2.59.67,2.52.55,2.66.85,2.45.79,2.8.61,2.59.67,2.1.49,1.47.36,1.05.25.56-.25-.91-.3-1.75-.49-2-.43-2.38-.48-2.66-.67-2.73-.67-2.66-.8-2.59-.67-2.66-.67-2.59-.18-1.68-.06-1.12,1.22-.14.06,1.12.18,1.54.67,2.45.67,2.66.79,2.59.67,2.66.67,2.87.19,1v-.91l-.49-2.59-.43-2.59-.3-2.24-.61-2.31-.55-2.59-.3-1.89-.06-1.82h1.21l.06,1.68.31,1.75.55,2.45.61,2.45.3,2.24.43,2.59.49,2.73v2.24l.18,2.1.18,1.89.12,1.68.37,1.19v.14l.3-.21.37-.35V382.7l-.18-2.1-.25-2-.42-2.38-.37-2.1-.55-2.59-.49-2.31-.36-2.31-.43-2.24-.06-1.12-.3-1,1.22-.42.3,1.19.06,1.26.43,2.1.36,2.31.49,2.31.55,2.59.36,2.1.43,2.38.24,2.17.19,2.24v3.36l.12-.07.79-.28.49-.35.61,1.26-.61.35-.79.28-.61.49-.06.77v.07l.06-.07.73-.49.67-.42.61,1.12-.67.56-.61.35-.61.56-.67.77-.67.84.55-.42.24.49.18-.14.67-.84,1-1.26.85-1,.85,1-.85,1-1,1.26-.67.84-1,.91-.67.21.43.63.3-.28.73-.77.92-1.12.61-.84.73-.91.42-.49.19-.42.06-.56,1.22.14-.07.84-.42.84-.55.63-.61.77-.18.28.79.07-.06,1.19.18,1.12.79,1.82.73,1.54L859,400l.73,1.82.67,1.61.61,1.4.48,1.05.43,1.26.49,1,.42,1.05.13.77-1.22.28-.12-.63-.31-.91-.49-1-.42-1.26-.49-.91-.61-1.54-.67-1.61-.73-1.68-.37-.84.43,1.47.55,1.89.3,1.61.49,1.33.43,1.4.3,1,.19,1.05.24.91-1.22.42-.24-1.05-.19-.91-.3-1-.31-1.4-.48-1.33-.43-1.61-.43-1.89-.6-1.89-.55-1.82-.55-1.75-.49-1.4-.06-.84-.3.35h.06v.7l.12,1.05.43,1.47.54,1.61.37,1.82.24,1.75.31,1.75.36,1.26L857,407l.24,1.19.24.84.31.77-1.1.56-.3-.77-.37-1-.24-1.33-.25-1-.36-1.4-.31-1.75-.24-1.75-.36-1.68-.43-1.61-.55-1.61-.06-.91-.61.49h-.12l.18.63.37,1.4.24,1.75.24,1.4.31,1.75.18,1.82.31,1.26.06,1.12.18.91-1.22.28-.18-1.05-.06-1L852.8,405l-.18-1.82-.3-1.75-.25-1.4-.24-1.75-.37-1.26-.3-1.26-.31-.21-.42.35-.92.28-.79.35-1.1.56-1.33.21-1.41.28-1.21.14-1.22.21h-1.59l-1.4-.14-1.4-.07-1.4-.14-.91-.21-1.16-.49-.43-.21h-.42v3.5l-.19,2.24-.36,2.38-.37,2-.3,1.89-.12,1.05v.91l.12.84-1.22.28-.12-1v-1.19l.12-1.19.3-1.89.37-2,.36-2.24.19-2.1-.31.28-.48,2.59-.61,2.31-.74,2.45-.67,1.75-.6,1.47-.25,1.05-.3.7-1.1-.7.31-.56.24-.91.61-1.61.67-1.75.61-2.31.61-2.31.48-2.45.31-1.75.12-1.05-.06-.14-.24.84-.43,1.68-.61,1.82-.67,2.52-1,2.31-.86,2.24-.55,1.68-.36,1.33-.55,1-1-.84.42-.7.37-1.19.55-1.82.85-2.24,1-2.31.67-2.38.43-1.54-1,2-.86,2-.91,2-.79,1.68-.67,1.75-.67,1.47-1.1-.7.67-1.33.67-1.75.79-1.82.92-1.89.85-2.17,1-1.89Zm2.8-.7.91-.21-.48-.14-.37-.28Zm9.38-28.28,1.22.28-.18,1.4-.73,1.61-.67,1.75-1.16,2.59L838,378.78l-1.16,2.87-1.22,2.45-.67,1.75-.06.07-.12.7-.36,1.33-.37-.14-.18.42-1.1-.56.43-1.05.61-1.19.18-.84.36-1.89.74-2.52.79-2.94.85-3.08.85-2.73.86-2.52.48-2,.37-1.82.36-1.19.37-.84,1.1.7-.37.7-.24,1.05-.37,1.82-.61,2-.85,2.52-.73,2.73-.85,3.08L837,378l1.22-2.52,1.16-2.45.67-1.75.61-1.47Zm1.34,4.34,1.1.42-.18.77-.31,1.33-1.16,2.17L840.38,380,839,382.49l-1.27,2-.92,1.75-.85,1.47-.55,1.05-.37,1.12-.3.7-1.1-.7.31-.56.36-1.12L835,387l.86-1.47.91-1.75,1.28-2.17,1.28-2.38,1.22-2.38,1.16-2,.18-1.19Zm3.29,21.56-1.4-.14-1.77-.07h-1.7l-1.46-.14-1.28-.07h-.92l-1-.21-.25.63.37.14h.73l1.1.07H844ZM836.78,396l.12.21,1.28.14,1.4.07,1.28.14h1.47l1.21-.21,1.22-.14,1.28-.28,1.22-.21.3-.14-1.7.21-1.71.28h-6.27Zm2-3.29-1.16-.14H837l-.07.07h.86Zm5.54.21,1.41.14,1.76.14H849l.67-.14-.13-.14h-5.24Zm5.43-4.2v-.07l-.73.42.6-.28Zm2.13,3.08-1.28.28.24.21.25.07.24-.14Zm-.25-1.75-.66.56.3-.07Zm.19-1.26-.61.42.06.07.43.7.48-.56h-.36Zm3.53,4.62.06-.14-.18.14Z"/><path d="M886.43,392.85l.24-1.4.13.07.12-.91.06-1.12.3-1.33.37-1.26.18-1,.12-.35-.48,1.05-.37,1.26-.49,1.47-.12,1-.18.91-.12,1-1.22-.14.12-1.12.18-.91.13-1.19.6-1.47.37-1.4.37-.91-.13-.14-.24-.7-.73-.7-.85-1,.61.77.42.84.67,1-1,.84-.67-1-.43-.84-.73-.84-.85-1.26L882,381l-1.15-1.89-1.16-1.82-1.1-1.89-1.46-1.75-1.34-2-1.22-1.89-1.22-1.75L872.05,366l-.91-1.26-.67-1.26,1-.7.67,1.12.91,1.26,1.28,1.89,1.22,1.75,1.22,1.89,1.33,2,1.47,1.82,1.09,1.89,1.16,1.82,1.16,1.89.85,1.19.31.35-.43-.56-1-1.47-1-2-1.34-2.31-1.4-2.52-1.46-2.45-1.34-2.24-1.28-2.17-.55-1.61-.79-1.54,1.09-.7.79,1.68.55,1.47,1.16,2,1.34,2.24,1.46,2.59,1.4,2.52,1.34,2.31,1,1.89,1,1.47.92,1.33.67.77-.06-.21-.73-1.47-.86-1.89-.79-1.89-.12-.28-1.34-2.31L881,372l-1.59-2.45-1.34-2.24L876.75,365l-1-1.54-.73-1.26-.55-1,1.1-.7.42,1,.74,1.12,1,1.54,1.34,2.31,1.34,2.24.43.7-.25-.7-1-2-.67-1.68-.73-1.75-.67-1.47-.49-1-.37-.77,1.1-.7.37.77.48,1,.67,1.61.73,1.75.67,1.54,1,2.1.85,2.17,1,2.59,1,2.73.25.56.67,1.19,1,1.68.79,1.47.49.84.37,1.05-.43.21.12.35-.67.35.18.14.07.21.12-.21,1,.63.12-.63.74.21.67-.07.06-.07.06.07h.12v.14l.49.63.85,1.26.37,1.05.42,1.05.12,1.12.13,1.19.06,1.05.12.84.06,1.33-1.22.14v-.07l-.85.14h-.12l.12,1.4.18,1.47.12,2.1v13.44H890V398.45l-.12-2-.18-1.47-.12-1.4,1.22-.14h-2l-.86-.14V405l-.06,1.89v1.33l-.12,1.12-1.22-.14.12-1.12v-1.19l.06-1.89V392.92Zm1.58-1.12v.21h.07l.79.14h.36l.13-1V387l-.07-1v-.35l-.24.7-.18,1-.37,1.26-.3,1.19-.06,1Zm.19,2.17h1.22v11.69l-.06,2.31v3.15h-1.22V407.9l.06-2.31V393.9Zm3.47-2-.12-.7-.06-1.05-.12-1.19-.13-.84-.3-.91-.37-.91-.06-.07.06.7v4.27l-.12.84h.31l.91-.07Zm1.16-5.67-1-.7.49-1.05-.37-.28-.12.21-1.09-.56.3-.77.37-1.12,1-2.31.85-2.52,1.22-2.8,1.65-2.73,1.28-3.08,1.34-2.73,1-2.31,1-1.89.91-1.33,1,.84-.92,1.33-.91,1.75-1,2.31-1.34,2.73-1.28,3.08-1.64,2.73-1.22,2.66-.61,1.82,1.22-2.31,1.16-2.45,1.4-2.59,1.46-2.66,1.34-2.45,1.34-2.17,1-1.54.91-1.33.67-1.05.43-.63,1,1-.43.49-.67,1.05-.91,1.33-1,1.54-1.35,2.17L900,370.24l-1.35,2.66-1.4,2.59-.48,1,.3-.49,1.4-2.45,1.53-2.59,1.64-2.52,1.52-2.17,1.1-2L905,363l.67-.91.37-.63,1,.84-.36.63-.67.91-.07.07.67.77-.91,1.19-1.22,2-1.52,2.45L901.29,373l-1.52,2.59-1.4,2.31L897.15,380l-1.28,2-.73,1.4-.85,1.19-.37.56-.42,1L893,386Zm-1.65,7.35,1.22-.14.06,1.33.12,1.19.19,1.4.12,1.68.06,2,.12,2v2l.06,1.47.12,1.33.25,1.12.24.63.31.84L893,411l-.31-.84-.24-.77-.36-1.26-.13-1.47-.06-1.61v-2l-.12-1.82-.06-2-.12-1.68-.18-1.4-.13-1.19Z"/><path class="cls-2" d="M765.05,1780.38c5.43,13,8.55,25.88-5.55,25.88s-45.5-11.78-45.5-25.88,11.55-23.69,25.53-25.53C750.12,1753.46,761.12,1771,765.05,1780.38Z"/><path class="cls-2" d="M761.93,1780.38c-5.42,13-3,25.53,11.11,25.53S813,1794.48,813,1780.38s-11.55-23.69-25.53-25.53C776.86,1753.46,765.86,1771,761.93,1780.38Z"/><path class="cls-2" d="M756.12,1853l-40.73-68-.7-4.52,98.34,1-2.48,6-44.32,65.81A5.93,5.93,0,0,1,756.12,1853Z"/><path class="cls-2" d="M885.05,1781.83c5.43,13,8.55,25.87-5.55,25.87s-45.5-11.78-45.5-25.87,11.55-23.7,25.53-25.53C870.12,1754.91,881.12,1772.39,885.05,1781.83Z"/><path class="cls-2" d="M881.93,1781.83c-5.42,13-3,25.52,11.11,25.52S933,1795.92,933,1781.83s-11.55-23.7-25.53-25.53C896.86,1754.91,885.86,1772.39,881.93,1781.83Z"/><path class="cls-2" d="M876.12,1854.46l-40.73-67.94-.7-4.52,98.34,1-2.48,6-44.32,65.81A5.93,5.93,0,0,1,876.12,1854.46Z"/><path class="cls-2" d="M1015.05,1782.83c5.43,13,8.55,25.87-5.55,25.87s-45.5-11.78-45.5-25.87,11.55-23.7,25.53-25.53C1000.12,1755.91,1011.12,1773.39,1015.05,1782.83Z"/><path class="cls-2" d="M1011.93,1782.83c-5.42,13-3,25.52,11.11,25.52s39.94-11.43,39.94-25.52-11.55-23.7-25.53-25.53C1026.86,1755.91,1015.86,1773.39,1011.93,1782.83Z"/><path class="cls-2" d="M1006.12,1855.46l-40.73-67.94-.7-4.52,98.34,1-2.48,6-44.32,65.81A5.93,5.93,0,0,1,1006.12,1855.46Z"/><ellipse class="cls-1" cx="912.5" cy="138" rx="66.5" ry="65"/><path class="cls-8" d="M882.82,127.17h0A23.17,23.17,0,0,1,906,104h15a25,25,0,0,1,25,25v19.21a27.36,27.36,0,0,1-27.36,27.36H908.09a25.27,25.27,0,0,1-25.27-25.27h0"/><polygon class="cls-9" points="897.96 126.02 880.29 134.61 871.08 115.67 897.96 126.02"/><ellipse class="cls-1" cx="868" cy="728.62" rx="29" ry="28.35"/><path class="cls-10" d="M855.06,723.89h0a10.1,10.1,0,0,1,10.1-10.1h6.53a10.92,10.92,0,0,1,10.92,10.92v8.37A11.93,11.93,0,0,1,870.68,745h-4.6a11,11,0,0,1-11-11h0"/><polygon class="cls-11" points="861.66 723.39 853.95 727.14 849.94 718.88 861.66 723.39"/><rect class="cls-5" x="658" y="1417" width="89" height="71.47" rx="33.59"/><rect x="696.5" y="1423.96" width="11" height="57.77" rx="4" transform="translate(171.07 2976.56) rotate(-135)"/><rect x="696.5" y="1423.96" width="11" height="57.77" rx="4" transform="translate(-821.71 921.92) rotate(-45)"/><rect class="cls-5" x="746" y="1416" width="135" height="73" rx="33.59"/><path d="M797.75,1436.56a6.79,6.79,0,0,1-.09,1.17q-1.17,6.93-6.57,6.93a9,9,0,0,1-5-1.41v.63a6.46,6.46,0,0,0,.36,2.76,5.79,5.79,0,0,1,.57,1.2,1.39,1.39,0,0,1-.47,1.05,1.48,1.48,0,0,1-1.06.45,1.85,1.85,0,0,1-1.83-1,6.53,6.53,0,0,1-.36-2.13q-.06-1-.06-2.34a12.55,12.55,0,0,1,.13-1.53,13.08,13.08,0,0,0,.14-1.56v-2a24.29,24.29,0,0,1,.12-2.65c.1-1.17.15-2,.15-2.6v-2.7s-.09-.58-.27-1.62a2.23,2.23,0,0,1,1.46-.72,1.55,1.55,0,0,1,1.27.59,2.16,2.16,0,0,1,.48,1.42v.42a6,6,0,0,1,5-2.61,5.39,5.39,0,0,1,4.5,2.13,7.76,7.76,0,0,1,1.47,4.86v1.26Zm-2.73-.48a9,9,0,0,0-.63-3.54,2.84,2.84,0,0,0-2.67-2q-2.31,0-4,2.82a9.57,9.57,0,0,0-1.47,4.95q0,4.17,4.2,4.17a3.5,3.5,0,0,0,3.3-2,14.63,14.63,0,0,0,1.14-3.93Q795,1436.05,795,1436.08Z"/><path d="M812.36,1448.2a20,20,0,0,1-6.84,1.17,4.19,4.19,0,0,1-4-2,9.45,9.45,0,0,1-.87-4.56q0-1.77.27-5.25t.27-5.25c0-.22,0-.57-.05-1s0-.84,0-1.08a6.19,6.19,0,0,1,.06-.81,1.85,1.85,0,0,1,1.47-.72q.84,0,1.29,1.08a4.52,4.52,0,0,1,.36,1.8q0,2-.39,6.06t-.39,6q0,3.54,2,3.54a8.2,8.2,0,0,0,2.58-.61,8.28,8.28,0,0,1,2.58-.62,1.42,1.42,0,0,1,1.29.75A2.87,2.87,0,0,1,812.36,1448.2Z"/><path d="M830.3,1443.67q0,1.44-1.29,1.47a10.69,10.69,0,0,0,.66,1.86,1.43,1.43,0,0,1-.54,1.08,1.83,1.83,0,0,1-1.2.42,3.1,3.1,0,0,1-1.26-.33,4.12,4.12,0,0,1-.39-1.86q0-.27,0-.78t0-.75q0,.21-1,.21-1.68,0-4,.15c-2.2.12-3.4.29-3.59.51a9.21,9.21,0,0,0-.37,3.21,1.16,1.16,0,0,1-1,.57,2.08,2.08,0,0,1-1.29-.52,1.47,1.47,0,0,1-.66-1.13,10.32,10.32,0,0,1,.54-1.68q.6-2.13,2-6.39,4-11,6.69-11t4,5.82a64.7,64.7,0,0,1,1.17,8,4.61,4.61,0,0,1,1,.3A.9.9,0,0,1,830.3,1443.67Zm-4.2-1.14q-1.32-10.47-2.37-10.47-.84,0-2.94,4.92-1.5,3.54-2.37,6.15,1-.21,2.85-.51A32.11,32.11,0,0,1,826.1,1442.53Z"/><path d="M846.41,1430.35a10.76,10.76,0,0,1-1.16,1.52,9.82,9.82,0,0,0-1.11,1.45q-.28.51-3.61,9.27-2.82,7.47-3.75,7.47a2.28,2.28,0,0,1-1.41-.45,1.47,1.47,0,0,1-.69-1.26,2.19,2.19,0,0,1,.54-1.2,10.57,10.57,0,0,0,1.2-2.55l1-2.76a12,12,0,0,1-3.18-4.41q-2.4-5.07-2.4-7.14,0-1.74,1.56-1.74,1.8,0,1.8,2.07a4.43,4.43,0,0,1-.08.65,4.09,4.09,0,0,0-.07.67,11.52,11.52,0,0,0,1.17,4q1.23,2.85,2.22,3.27a34.52,34.52,0,0,0,1.71-3.45q1.44-3.18,2.25-4.56,1.35-2.25,2.25-2.25a1.88,1.88,0,0,1,1.18.41A1.54,1.54,0,0,1,846.41,1430.35Z"/><path d="M791.15,1470.73q0,1.44-1.26,1.5a11.5,11.5,0,0,0,.7,1.85,1.43,1.43,0,0,1-.51,1.09,1.88,1.88,0,0,1-1.19.45,3.29,3.29,0,0,1-1.27-.31,4.17,4.17,0,0,1-.43-1.85c0-.18,0-.44,0-.78s0-.59,0-.75c0,.14-.33.22-1,.23-1.12,0-2.45.11-4,.24-2.2.17-3.39.37-3.58.59a9.46,9.46,0,0,0-.3,3.22,1.16,1.16,0,0,1-1,.59,2.08,2.08,0,0,1-1.3-.49,1.45,1.45,0,0,1-.68-1.11,9.3,9.3,0,0,1,.5-1.7c.37-1.42,1-3.57,1.8-6.43q3.78-11.1,6.45-11.15t4.15,5.72a66.92,66.92,0,0,1,1.35,8,4.59,4.59,0,0,1,1,.27A.9.9,0,0,1,791.15,1470.73Zm-4.22-1q-1.56-10.44-2.61-10.42-.84,0-2.83,5-1.43,3.57-2.23,6.2c.64-.16,1.58-.35,2.84-.58A32.18,32.18,0,0,1,786.93,1469.69Z"/><path d="M807.72,1469.61a6.1,6.1,0,0,1-2.18,4.7,7.22,7.22,0,0,1-4.87,2.15,6.14,6.14,0,0,1-5.7-2.84,12.52,12.52,0,0,1-1.62-6.49,15.92,15.92,0,0,1,1.6-7.55c1.36-2.77,3.29-4.19,5.79-4.24a5.92,5.92,0,0,1,3.26.8,4.19,4.19,0,0,1,2,2.66q.33,1.41.33,1.35c.06,2.65-.51,4-1.71,4a1.5,1.5,0,0,1-1-.34,1.1,1.1,0,0,1-.47-.89,2.13,2.13,0,0,1,.29-.88,2.06,2.06,0,0,0,.3-.91,4.61,4.61,0,0,0-.47-2.34,2.3,2.3,0,0,0-2.14-.83c-1.08,0-2.06.72-2.94,2.08a9.53,9.53,0,0,0-1.42,3.55,20.51,20.51,0,0,0-.28,3.61,13.59,13.59,0,0,0,.54,4.08,4.1,4.1,0,0,0,3,2.61,4.05,4.05,0,0,0,1.08.15,3.76,3.76,0,0,0,2.25-1,6,6,0,0,0,1.57-1.92,4.06,4.06,0,0,0,.36-1.6l-.12-.09a8.41,8.41,0,0,0-3.29.59c-.24.12-.48.26-.71.4a2,2,0,0,1-.75.23,1.33,1.33,0,0,1-1.18-.6,2.48,2.48,0,0,1-.45-1.4,1.25,1.25,0,0,1,.66-1.1,12.25,12.25,0,0,1,2.81-.63,28.64,28.64,0,0,1,3-.34C806.83,1466.6,807.67,1467.59,807.72,1469.61Z"/><path d="M825.79,1470q0,1.44-1.26,1.5a10.46,10.46,0,0,0,.71,1.84,1.48,1.48,0,0,1-.52,1.1,1.87,1.87,0,0,1-1.19.44,3.08,3.08,0,0,1-1.27-.3,4.17,4.17,0,0,1-.43-1.85c0-.18,0-.44,0-.78s0-.59,0-.75c0,.14-.33.22-1,.23-1.12,0-2.45.11-4,.24-2.2.17-3.39.37-3.58.59a9.41,9.41,0,0,0-.3,3.22,1.18,1.18,0,0,1-1,.59,2.09,2.09,0,0,1-1.3-.5,1.45,1.45,0,0,1-.68-1.11,9.32,9.32,0,0,1,.5-1.69q.56-2.14,1.81-6.43,3.76-11.1,6.44-11.16c1.74,0,3.12,1.87,4.15,5.73a64.33,64.33,0,0,1,1.35,8,5,5,0,0,1,1,.28A.9.9,0,0,1,825.79,1470Zm-4.22-1Q820,1458.48,819,1458.5q-.84,0-2.83,5c-.94,2.38-1.69,4.44-2.23,6.2.64-.16,1.58-.35,2.84-.58A32.18,32.18,0,0,1,821.57,1468.92Z"/><path d="M832.06,1456.44a2.06,2.06,0,0,1-.25.66,5.39,5.39,0,0,0-.21,1.36q-.48,6.74-.37,11.8a7.35,7.35,0,0,0,.29,2.12,10.5,10.5,0,0,0,.91,1.87.42.42,0,0,1,0,.18c0,.42-.47.65-1.45.67h-.27c-1,0-1.66-.8-1.92-2.41a63.28,63.28,0,0,1-.6-8.18c0-.82,0-2.06,0-3.71s0-2.89,0-3.73a1.79,1.79,0,0,1,.69-1.34,2.2,2.2,0,0,1,1.4-.66,2,2,0,0,1,1.18.42A1.23,1.23,0,0,1,832.06,1456.44Z"/><path d="M848.26,1455.09a1.72,1.72,0,0,1-.25.84c-.21.45-.33.72-.37.82a15.72,15.72,0,0,0-.77,4.5l.1,8.62a7.68,7.68,0,0,1-.53,2.72c-.48,1.17-1.09,1.77-1.83,1.78-1.1,0-2.21-.87-3.33-2.68a31.91,31.91,0,0,1-2.49-5.59c-.5-1.55-1-3.1-1.52-4.65a68.75,68.75,0,0,0-.47,6.86c.05,2.56.24,4,.56,4.4a1.6,1.6,0,0,1,.48.82,1.24,1.24,0,0,1-.57,1,2,2,0,0,1-1.19.46c-.56,0-1-.56-1.42-1.73a9,9,0,0,1-.48-2.52c0-.34,0-.84,0-1.51s0-1.18,0-1.52a36,36,0,0,1,.22-3.66,30.94,30.94,0,0,0,.22-3.67l-.08-3.66a.62.62,0,0,0,0-.18.49.49,0,0,1-.05-.18c0-.39.25-.73.79-1a2.9,2.9,0,0,1,1.31-.36,2.43,2.43,0,0,1,2.21.94,4.48,4.48,0,0,1,.36,1.37q.1.72.21,1.47a56.8,56.8,0,0,0,2.05,6.79c1.3,3.68,2.25,5.5,2.85,5.49.22,0,.32-.29.31-.85a5.39,5.39,0,0,0-.09-.78,5.47,5.47,0,0,1-.09-.84l.11-8.15a15.48,15.48,0,0,1,.55-3.62c.49-1.67,1.17-2.52,2-2.54a2.38,2.38,0,0,1,1.18.52A1.39,1.39,0,0,1,848.26,1455.09Z"/></g></svg>